<svg xmlns="http://www.w3.org/2000/svg" viewBox="0 0 2000 1700"><defs><style>.cls-1,.cls-13,.cls-8,.cls-9{fill:#fff;}.cls-1,.cls-10,.cls-13,.cls-7,.cls-9{stroke:#004d8a;}.cls-1,.cls-10,.cls-11,.cls-12,.cls-14,.cls-15,.cls-16,.cls-17,.cls-4,.cls-9{stroke-miterlimit:10;}.cls-1,.cls-10,.cls-12,.cls-13,.cls-17,.cls-4,.cls-6,.cls-7{stroke-width:7.01px;}.cls-2{fill:#91e6f0;}.cls-3{fill:#004d89;}.cls-10,.cls-11,.cls-12,.cls-14,.cls-15,.cls-16,.cls-17,.cls-4,.cls-6,.cls-7{fill:none;}.cls-11,.cls-14,.cls-16,.cls-4,.cls-6{stroke:#fff;}.cls-5{fill:#ffb400;}.cls-12,.cls-15,.cls-16,.cls-6,.cls-7{stroke-linecap:round;}.cls-13,.cls-6,.cls-7{stroke-linejoin:round;}.cls-16,.cls-9{stroke-width:7.59px;}.cls-11{stroke-width:9.19px;}.cls-12,.cls-15,.cls-17{stroke:#ffb400;}.cls-14{stroke-width:6.58px;}.cls-15{stroke-width:7.35px;}</style></defs><g id="Слой_1" data-name="Слой 1"><g id="MAN"><g id="HAND"><path class="cls-1" d="M473.37,544.75v-92l-20.44-18.45A16.43,16.43,0,0,1,447.52,422h0a16.41,16.41,0,0,1,26-13.16l23.58,17A51.9,51.9,0,0,1,518,460.15h0a51.87,51.87,0,0,1-10,39.19Z"/><circle class="cls-1" cx="464.1" cy="416.4" r="10.68"/><path class="cls-1" d="M473.37,583.92V503.14l-32.92-33.95a20.08,20.08,0,0,1-5.65-14.9h0a20.11,20.11,0,0,1,32.75-14.72l33.64,27.25a45,45,0,0,1,16.18,28.26l.39,2.56A55.86,55.86,0,0,1,507,539.87Z"/><circle class="cls-1" cx="455.77" cy="445.73" r="10.68" transform="translate(-147.71 240.27) rotate(-25.56)"/><path class="cls-1" d="M473.37,623.1V542.31l-32.92-33.94a20.1,20.1,0,0,1-5.65-14.91h0a20.11,20.11,0,0,1,32.75-14.72L501.19,506a45,45,0,0,1,16.18,28.26l.39,2.56A55.84,55.84,0,0,1,507,579Z"/><circle class="cls-1" cx="454.8" cy="484.91" r="10.68" transform="translate(-209.67 463.62) rotate(-45)"/></g><g id="BODY"><path class="cls-2" d="M1450.42,1381.06a128.8,128.8,0,0,1-93.35,39.36,130.25,130.25,0,0,1-86.79-33.12c-49.69-44.4-138.52-123.39-184.73-164.45a33.7,33.7,0,0,0-50.93,7.23l-74.44,118.3H574a100.66,100.66,0,0,1-94.6-66.28l.07-.17,101.82-231.76a54.21,54.21,0,0,0-20.35-67.44l-83.47-53.58V709l709.37,221.44,13.08,69.42v.06h0l14.59,5a182.75,182.75,0,0,0,150.63-14.83l1.16-.67h0l109.85,248C1499.08,1289.22,1485.44,1344.9,1450.42,1381.06Z"/><path class="cls-3" d="M1073.84,895.2l113,35.26,25.31,153.91-10.91-49.21a178.24,178.24,0,0,0-122.28-138.37Z"/><circle class="cls-4" cx="909.95" cy="881.55" r="9.1"/><path class="cls-5" d="M1390.12,1043.2l-23.82-53.78c-45.71,26.48-101.81,32.56-151.8,15.5l-14.59-5,9.34,59.28,7.82,3.27a179.24,179.24,0,0,0,173-19.29Z"/><circle class="cls-4" cx="1353.2" cy="1027.69" r="9.1"/><line class="cls-6" x1="1226.09" y1="1160.56" x2="1204.73" y2="1209.17"/><path class="cls-7" d="M1482.14,1309.94a89.76,89.76,0,0,0-123.86,104.85"/><line class="cls-7" x1="1237.99" y1="1222.17" x2="1199.91" y2="999.94"/><polygon class="cls-5" points="861 827.71 983.77 867.09 971.76 932.68 919.96 851.96 825.2 866.1 861 827.71"/></g><g id="HAND-2" data-name="HAND"><path class="cls-8" d="M1199.91,999.94l-16.84-98.23a75.86,75.86,0,0,1,39-79.74L1253.84,805a18.26,18.26,0,0,1,26.14,11l1.68,5.8,12.83-5.81a25.08,25.08,0,0,1,31.69,9.68l15.26,24.74a25.08,25.08,0,0,1-4.62,31.86h0a23.89,23.89,0,0,1,28.12,11.77l.9,1.72a23.89,23.89,0,0,1-4,27.73l-15.12,15.58,19.6,50.29-1.17.67a182.75,182.75,0,0,1-150.63,14.83Z"/><path class="cls-7" d="M1201.06,1006.65l-18-104.94a75.86,75.86,0,0,1,39-79.74L1253.84,805a18.26,18.26,0,0,1,26.14,11l1.68,5.8,12.83-5.81a25.08,25.08,0,0,1,31.69,9.68l15.26,24.74a25.08,25.08,0,0,1-4.62,31.86h0a23.89,23.89,0,0,1,28.12,11.77l.9,1.72a23.89,23.89,0,0,1-4,27.73L1344.67,941l17.65,47.39"/><path class="cls-7" d="M1281.66,821.86l-28.48,15.65a21.45,21.45,0,0,0-8.81,28.51h0a21.45,21.45,0,0,0,30.7,8.37L1333.74,838l-70.35,45a22.47,22.47,0,0,0-6,31.44h0a22.47,22.47,0,0,0,31.43,5.61l48-37.69-42.27,42.23a23.22,23.22,0,0,0-.48,30.62h0a23.22,23.22,0,0,0,33.57,1.87l19.06-17.92"/><circle class="cls-1" cx="1256.17" cy="861.31" r="11.75"/><circle class="cls-1" cx="1267.92" cy="908.15" r="11.75" transform="translate(92.75 1933.5) rotate(-76.72)"/><circle class="cls-1" cx="1305.34" cy="949.1" r="11.75" transform="translate(-263.84 571.78) rotate(-22.5)"/></g><g id="VOICE"><path class="cls-3" d="M1569.47,807.52l-366.7-32.62a48.91,48.91,0,0,1-17.52-92.4l363.47-187.45a18.64,18.64,0,0,1,15.76-.69c-44.55,6.16-79.63,72.94-79.63,154.4,0,84.47,37.71,153.14,84.59,154.84Z"/><ellipse class="cls-9" cx="1571.22" cy="648.76" rx="86.37" ry="154.87"/><ellipse class="cls-2" cx="1571.22" cy="648.76" rx="68.16" ry="134.86"/><path class="cls-10" d="M1541.46,603.16a45.56,45.56,0,0,1,0,91.12"/><path class="cls-11" d="M1541.46,619a29.76,29.76,0,0,1,29.76,29.75"/><path class="cls-8" d="M1488.29,800.29l-19.64-1.74c-9.83-7.86-18.84-18.82-26.62-32.6-16.68-29.52-25.87-68.68-25.87-110.25h8.76c0,40.09,8.79,77.71,24.73,105.94C1460.57,781,1473.89,794.17,1488.29,800.29Z"/><line class="cls-12" x1="1598.41" y1="580.48" x2="1684.87" y2="531.06"/><line class="cls-12" x1="1612.82" y1="648.76" x2="1717.29" y2="648.76"/><line class="cls-12" x1="1612.82" y1="713.15" x2="1684.87" y2="747.13"/><line class="cls-12" x1="1740.51" y1="648.72" x2="1751.51" y2="648.72"/><polygon class="cls-1" points="1281.66 821.86 1244.42 844.4 1244.42 775.61 1281.66 778.72 1281.66 821.86"/><polygon class="cls-2" points="1248.55 779.96 1277.54 782.38 1277.54 798.33 1248.55 784.68 1248.55 779.96"/><line class="cls-12" x1="1207.52" y1="707.76" x2="1207.52" y2="737.45"/><line class="cls-12" x1="1228.35" y1="699.94" x2="1228.35" y2="745.26"/></g><g id="HEAD"><path class="cls-10" d="M975.2,933.09l22.36-123.15h22a15.28,15.28,0,0,0,15.28-15.28V697.89a28.12,28.12,0,0,0-28.12-28.13H945.45A49.47,49.47,0,0,0,896,719.23h0a49.53,49.53,0,0,0,10.84,30.9l10.12,12.65L822.62,863.65"/><path class="cls-3" d="M1011,806.76l-6.84-.1a63.83,63.83,0,0,1-32-9.07L962.92,792,993.5,834.2l4.06-24.26Z"/><path class="cls-13" d="M1034.85,768.89a37.65,37.65,0,0,1-19.1-5.08,4.77,4.77,0,0,0-6.81,6c3.24,7.22,10.37,15.08,25.91,18.28Z"/><path class="cls-10" d="M1034.85,731.38l13.67,21.24a4.39,4.39,0,0,1-2.24,6.51l-11.43,4"/><path class="cls-7" d="M1014.14,731.38a8.71,8.71,0,0,1-8,6.07A8.39,8.39,0,0,1,999,733"/><polyline class="cls-7" points="946.59 739.73 950.42 747.64 942.1 748.17"/><circle class="cls-5" cx="983.03" cy="757.92" r="13.97" transform="translate(77.43 1606.85) rotate(-80.78)"/><path class="cls-1" d="M956.47,692.94a17.33,17.33,0,0,1,8.95,15.17v27.32a.9.9,0,0,1-1.77.25,22.93,22.93,0,0,0-45,6.35v2.81a22.94,22.94,0,0,0,7.82,17.25,1.75,1.75,0,0,1,.65,1.37,1.87,1.87,0,0,1-2.44,1.8h0a27,27,0,0,1-12.87-8.85l-5-6.28a49.46,49.46,0,0,1,38.62-80.36h61.29a28.13,28.13,0,0,1,26.86,19.76S1002.66,711.66,956.47,692.94Z"/><line class="cls-7" x1="956.47" y1="692.94" x2="950.42" y2="690"/><path class="cls-10" d="M1043.84,664.39a21.33,21.33,0,0,1-13.27,27.08"/></g></g><g id="BAGS"><path class="cls-14" d="M862.81,1184.06v-38.64a22.92,22.92,0,0,1,22.93-22.93h0a22.92,22.92,0,0,1,22.92,22.93v38.64"/><polygon class="cls-8" points="731.27 1344.64 811.37 1162.35 932.62 1162.35 852.52 1344.64 731.27 1344.64"/><polygon class="cls-3" points="852.52 1344.64 1012.97 1344.64 932.62 1162.35 852.52 1344.64"/><polygon class="cls-8" points="1011.35 1344.64 994.82 1344.64 937.73 1320.56 878.17 1344.64 861.03 1344.64 937.78 1313.61 1011.35 1344.64"/><circle class="cls-2" cx="884.02" cy="1185.6" r="7.2"/><circle class="cls-2" cx="838.17" cy="1185.6" r="7.2"/><path class="cls-7" d="M838.17,1184.06v-38.64a22.93,22.93,0,0,1,22.93-22.93h0A22.92,22.92,0,0,1,884,1145.42v38.64"/><path class="cls-15" d="M713.19,1184.06v-38.64a22.93,22.93,0,0,1,22.93-22.93h0A22.92,22.92,0,0,1,759,1145.42v38.64"/><polygon class="cls-5" points="580.18 1344.64 660.27 1162.35 781.52 1162.35 701.43 1344.64 580.18 1344.64"/><polygon class="cls-3" points="701.43 1344.64 861.87 1344.64 781.52 1162.35 701.43 1344.64"/><circle class="cls-8" cx="734.02" cy="1185.6" r="7.2"/><circle class="cls-8" cx="688.2" cy="1185.6" r="7.2"/><path class="cls-7" d="M688.2,1184.06v-38.64a22.93,22.93,0,0,1,22.93-22.93h0a22.92,22.92,0,0,1,22.92,22.93v38.64"/><line class="cls-7" x1="734.05" y1="1199.93" x2="734.05" y2="1219.63"/><path class="cls-3" d="M736.37,1265.12,732,1275.18l-13.31-15.53a24,24,0,0,0,15.42,5.58C734.84,1265.23,735.61,1265.19,736.37,1265.12Z"/><circle class="cls-8" cx="734.05" cy="1241.12" r="24.1" transform="translate(-608.63 1766.89) rotate(-80.78)"/><path class="cls-5" d="M742.9,1246.86a8.31,8.31,0,0,1-6.3,7.85v.74a2.55,2.55,0,0,1-5.1,0v-.74a8.71,8.71,0,0,1-5.39-4.26,2.47,2.47,0,0,1,2.21-3.59,2.53,2.53,0,0,1,2.21,1.36,4,4,0,0,0,3.52,1.88c2.15,0,3.88-1.46,3.88-3.24s-1.73-3.25-3.88-3.25a7.43,7.43,0,0,1-7.67-7.15,7.19,7.19,0,0,1,5.12-6.74v-.91a2.55,2.55,0,1,1,5.1,0v.9a7.54,7.54,0,0,1,4.18,3.3,2.3,2.3,0,0,1-2,3.45h-.41a2.42,2.42,0,0,1-2-1.09,2.87,2.87,0,0,0-2.37-1.11,2.25,2.25,0,1,0,0,4.39C738.93,1238.65,742.9,1242.34,742.9,1246.86Z"/></g><g id="ICONS"><g id="HEART"><path class="cls-5" d="M811.83,641.81a30.85,30.85,0,0,1-10.63,23.34l-47.47,47.48-47.47-47.48A30.95,30.95,0,1,1,753.73,627a30.95,30.95,0,0,1,58.1,14.85Z"/><path class="cls-16" d="M787.74,629.78a15.55,15.55,0,0,1,0,22"/></g><g id="MONEY"><path class="cls-3" d="M1223.81,593.27v10.42a28.43,28.43,0,0,1-28.43,28.42H1108.7l-38.46,44.27v-13l35.85-41.66h89.29A28.43,28.43,0,0,0,1223.81,593.27Z"/><path class="cls-5" d="M1195.38,621.7h-89.29l-35.85,41.66V538.22a28.43,28.43,0,0,1,28.43-28.43h96.71a28.43,28.43,0,0,1,28.43,28.43v55A28.43,28.43,0,0,1,1195.38,621.7Z"/><path class="cls-8" d="M1122.69,573.78a9.9,9.9,0,0,1-7.5,9.35V584a3,3,0,1,1-6.07,0v-.88a10.39,10.39,0,0,1-6.43-5.07,3,3,0,0,1,2.64-4.28,3,3,0,0,1,2.63,1.62,4.76,4.76,0,0,0,4.2,2.25c2.55,0,4.62-1.74,4.62-3.87s-2.07-3.87-4.62-3.87c-5,0-9.15-3.82-9.15-8.51a8.59,8.59,0,0,1,6.11-8v-1.08a3,3,0,0,1,3-3,3,3,0,0,1,3,3v1.07a8.93,8.93,0,0,1,5,3.94,2.74,2.74,0,0,1-2.39,4.1h-.48a2.86,2.86,0,0,1-2.32-1.3,3.44,3.44,0,0,0-2.82-1.33c-1.79,0-3.24,1.17-3.24,2.63s1.45,2.61,3.24,2.61C1118,564,1122.69,568.4,1122.69,573.78Z"/><path class="cls-8" d="M1158.86,573.78a9.9,9.9,0,0,1-7.5,9.35V584a3,3,0,0,1-6.08,0v-.88a10.4,10.4,0,0,1-6.42-5.07,3,3,0,0,1,2.64-4.28,3,3,0,0,1,2.62,1.62,4.79,4.79,0,0,0,4.2,2.25c2.56,0,4.63-1.74,4.63-3.87s-2.07-3.87-4.63-3.87c-5,0-9.14-3.82-9.14-8.51a8.59,8.59,0,0,1,6.1-8v-1.08a3,3,0,0,1,3-3,3,3,0,0,1,3,3v1.07a9,9,0,0,1,5,3.94,2.74,2.74,0,0,1-2.39,4.1h-.48a2.84,2.84,0,0,1-2.32-1.3,3.46,3.46,0,0,0-2.83-1.33c-1.78,0-3.24,1.17-3.24,2.63s1.46,2.61,3.24,2.61C1154.13,564,1158.86,568.4,1158.86,573.78Z"/><path class="cls-8" d="M1195,573.78a9.9,9.9,0,0,1-7.5,9.35V584a3,3,0,0,1-6.08,0v-.88a10.37,10.37,0,0,1-6.42-5.07,3,3,0,0,1,2.64-4.28,3,3,0,0,1,2.62,1.62,4.76,4.76,0,0,0,4.2,2.25c2.55,0,4.62-1.74,4.62-3.87s-2.07-3.87-4.62-3.87c-5,0-9.14-3.82-9.14-8.51a8.58,8.58,0,0,1,6.1-8v-1.08a3,3,0,0,1,3-3,3,3,0,0,1,3,3v1.07a9,9,0,0,1,5,3.94,2.74,2.74,0,0,1-2.39,4.1h-.49a2.87,2.87,0,0,1-2.32-1.3,3.44,3.44,0,0,0-2.82-1.33c-1.79,0-3.24,1.17-3.24,2.63s1.45,2.61,3.24,2.61C1190.3,564,1195,568.4,1195,573.78Z"/></g></g><g id="INTERNET_PAGE"><circle class="cls-2" cx="1422.49" cy="405.73" r="16.99"/><circle class="cls-5" cx="1367.8" cy="405.73" r="16.99"/><circle class="cls-3" cx="1313.12" cy="405.73" r="16.99"/><line class="cls-17" x1="664.41" y1="414.66" x2="772.48" y2="414.66"/><line class="cls-17" x1="664.41" y1="396.8" x2="772.48" y2="396.8"/><path class="cls-5" d="M635.3,420l-6.21,3.25a26.07,26.07,0,0,0-46.21,0L576.67,420a33,33,0,0,1,23.93-17.31,7.81,7.81,0,1,1,10.76,0A33,33,0,0,1,635.3,420Z"/><circle class="cls-10" cx="605.99" cy="405.73" r="30.63"/><path class="cls-12" d="M486.37,391.84a101,101,0,0,1,88-51.42h846.29a101,101,0,0,1,101,101.05v44.62"/><path class="cls-12" d="M1521.76,834.2v413.13a100.49,100.49,0,0,1-15.66,54"/><line class="cls-12" x1="1521.76" y1="466.88" x2="552.15" y2="466.88"/><path class="cls-12" d="M1196.93,1348.37H574.42a101,101,0,0,1-101-101V544.8"/></g></g></svg>