<svg xmlns="http://www.w3.org/2000/svg" viewBox="0 0 851.03 804.77"><defs><style>.cls-1{fill:#91e6f0;}.cls-2{fill:#ffb400;}.cls-3,.cls-4,.cls-5,.cls-8{fill:none;}.cls-3,.cls-4{stroke:#fff;}.cls-3,.cls-4,.cls-5,.cls-7,.cls-8{stroke-linecap:round;stroke-miterlimit:10;}.cls-3{stroke-width:6px;}.cls-4{stroke-width:5.03px;}.cls-5{stroke:#004d89;}.cls-5,.cls-7,.cls-8{stroke-width:7px;}.cls-6{fill:#004d89;}.cls-7,.cls-9{fill:#fff;}.cls-7,.cls-8{stroke:#ffb400;}</style></defs><g id="Isolation_Mode" data-name="Isolation Mode"><rect class="cls-1" x="371.14" y="318.95" width="279.79" height="200.27" rx="26.31" transform="translate(227.73 -178.02) rotate(25.26)"/><polygon class="cls-2" points="653.96 533.52 596.54 533.52 596.54 440.75 625.25 409.3 653.96 440.75 653.96 533.52"/><circle class="cls-3" cx="615.95" cy="474.73" r="5.59"/><circle class="cls-3" cx="634.48" cy="494.8" r="5.59"/><line class="cls-3" x1="636.4" y1="469.92" x2="614.09" y2="499.33"/><circle class="cls-4" cx="625.25" cy="431.61" r="5.59"/><path class="cls-5" d="M625.25,431.61V349a9.31,9.31,0,0,0-9.3-9.31h0a9.31,9.31,0,0,0-9.31,9.31"/><polygon class="cls-6" points="596.54 533.52 611.73 533.52 607.82 541.8 596.54 533.52"/><polygon class="cls-6" points="558.78 330.88 558.78 393.68 575.52 338.79 558.78 330.88"/><rect class="cls-7" x="276.22" y="266.84" width="279.79" height="200.27" rx="26.31"/><path class="cls-8" d="M285.12,273.43l112.34,93.71a29.36,29.36,0,0,0,37.44.16l114.46-93.87"/><path class="cls-6" d="M531,294a27.71,27.71,0,0,1-10.55-17.37h39.1V316.3Z"/><circle class="cls-2" cx="547.78" cy="271.86" r="27.74"/><path class="cls-9" d="M547.78,289.2a3.5,3.5,0,0,1-3.5-3.5v-.2a3.5,3.5,0,0,1,7,0v.2A3.5,3.5,0,0,1,547.78,289.2Z"/><path class="cls-9" d="M547.78,276.93a3.5,3.5,0,0,1-3.5-3.5v-12a3.5,3.5,0,0,1,7,0v12A3.49,3.49,0,0,1,547.78,276.93Z"/></g></svg>