<svg xmlns="http://www.w3.org/2000/svg" viewBox="0 0 851.03 804.77"><defs><style>.cls-1{fill:#004d89;}.cls-11,.cls-13,.cls-14,.cls-15,.cls-17,.cls-18,.cls-19,.cls-2,.cls-4,.cls-5,.cls-8,.cls-9{fill:none;}.cls-13,.cls-15,.cls-19,.cls-2{stroke:#fff;}.cls-11,.cls-13,.cls-14,.cls-15,.cls-2,.cls-5,.cls-9{stroke-linecap:round;}.cls-11,.cls-13,.cls-14,.cls-15,.cls-18,.cls-19,.cls-2,.cls-3,.cls-4,.cls-5{stroke-miterlimit:10;}.cls-2{stroke-width:4.5px;}.cls-10,.cls-16,.cls-3,.cls-7{fill:#fff;}.cls-10,.cls-11,.cls-16,.cls-17,.cls-18,.cls-3,.cls-4,.cls-8,.cls-9{stroke:#004d89;}.cls-10,.cls-11,.cls-19,.cls-3,.cls-4,.cls-8,.cls-9{stroke-width:4.01px;}.cls-5{stroke:#ffb400;}.cls-14,.cls-15,.cls-16,.cls-17,.cls-18,.cls-5{stroke-width:4.67px;}.cls-6{fill:#ffb400;}.cls-10,.cls-16,.cls-17,.cls-8,.cls-9{stroke-linejoin:round;}.cls-12{fill:#91e6f0;}.cls-13{stroke-width:3.38px;}.cls-14{stroke:#fdbc00;}</style></defs><g id="Слой_1" data-name="Слой 1"><g id="WOMAN"><g id="LEGS"><path class="cls-1" d="M578.69,484.3,522.88,606.59l2.24,16.06h-92L419,569.25l-2.31-9.6H314.09L383.18,401h144C570,401,597.82,446,578.69,484.3Z"/><path class="cls-2" d="M525.12,622.65,501.46,451.32A58.35,58.35,0,0,0,443.67,401H389.22"/><line class="cls-2" x1="401.77" y1="482.38" x2="412.98" y2="544.61"/><line class="cls-2" x1="392.96" y1="490.91" x2="404.46" y2="497.31"/><polygon class="cls-3" points="435.28 622.65 439.87 645.42 528.16 645.42 525.12 622.65 435.28 622.65"/><path class="cls-3" d="M563.81,735l-79.67-23.75h0l-4.81-29a7.49,7.49,0,0,0-1.87-3.86,7.68,7.68,0,0,0-3.66-2.23,7.6,7.6,0,0,0-9,4.51l-8.87,22.13-28.75-9.21,12.69-48.17h88.29l.89,5.45a137.76,137.76,0,0,0,26.45,61.52L568,728.84A3.91,3.91,0,0,1,563.81,735Z"/><line class="cls-4" x1="482.58" y1="701.83" x2="568.04" y2="728.84"/><line class="cls-4" x1="429.43" y1="685.04" x2="459.27" y2="694.46"/><line class="cls-5" x1="450.57" y1="629.49" x2="452.06" y2="637.71"/><line class="cls-5" x1="466.25" y1="629.49" x2="467.74" y2="637.71"/><line class="cls-5" x1="481.93" y1="629.49" x2="483.43" y2="637.71"/><line class="cls-5" x1="513.3" y1="629.49" x2="514.8" y2="637.71"/><line class="cls-5" x1="497.62" y1="629.49" x2="499.11" y2="637.71"/><path class="cls-5" d="M546.76,654.66h.07a11.66,11.66,0,0,1,11.66,11.66v.07a11.66,11.66,0,0,1-11.66,11.66h-7.06a4.68,4.68,0,0,1-4.68-4.68v-7.06A11.66,11.66,0,0,1,546.76,654.66Z" transform="translate(631.34 -191.47) rotate(45)"/><path class="cls-5" d="M510.37,654.66H517a11.7,11.7,0,0,1,11.7,11.7v0a11.7,11.7,0,0,1-11.7,11.7h0a11.7,11.7,0,0,1-11.7-11.7v-6.64a5.06,5.06,0,0,1,5.06-5.06Z" transform="translate(1353.78 771.97) rotate(135)"/><line class="cls-5" x1="533.56" y1="669.67" x2="523.45" y2="690.28"/></g><g id="HEAD"><path class="cls-6" d="M437.21,136.57a26.65,26.65,0,0,1,26.64,26.8l0,4.31-4.82.44a37,37,0,0,1,.76,7.48c0,21.56-18.64,39-41.64,39a44.11,44.11,0,0,1-11.59-1.54l-10.85,28.56-54.13,51a84.86,84.86,0,0,1-102.71,10.47,79.26,79.26,0,0,1-37.6-62.72,81.9,81.9,0,0,0,1.14,15.7c4.06,23.85,17.78,44.56,37.64,56.8a2.25,2.25,0,0,1-1.18,4.17,2.34,2.34,0,0,1-1.18-.33c-21-12.93-35.44-34.76-39.71-59.89-3.91-22.94,1.56-45.85,15-63.14l21.53-27.59,12.83,9.58a96.79,96.79,0,0,0,95,11.87,88.51,88.51,0,0,1-84-16.78,2.18,2.18,0,1,1,2.78-3.36A84.43,84.43,0,0,0,323.88,187c23-2.32,44.45-14.32,59.53-32.94a42.29,42.29,0,0,1,32.68-17.43Z"/><path class="cls-7" d="M416.41,186.32a10.75,10.75,0,0,0,8.64-10.53l.54-4.64,32.18-2.92.08.38c1.59,6.26,4,8.73,7.74,11.46l.12.09a1.83,1.83,0,0,1-.65,3.25l-4.47,1.09,1.79,16.38s-3.85,8.42-16.79,6.18v46.19l-56.52-18.78a3.62,3.62,0,0,1-.2-6.8A35,35,0,0,0,409.2,206.1l3.28-10-.73,1a12.66,12.66,0,0,1-11.11,5.12,12.81,12.81,0,0,1-11.74-12.86v-1a12.65,12.65,0,0,1,12.65-12.65h1.73a12.64,12.64,0,0,1,11.55,7.49Z"/><path class="cls-8" d="M457.77,168.23c.49,5.78,4.11,9.11,7.82,11.84l.12.09a1.83,1.83,0,0,1-.65,3.25l-4.47,1.08,1.79,16.39s-3.85,8.42-16.79,6.18v36.62"/><path class="cls-8" d="M386.6,228.48a35,35,0,0,0,22.59-22.39l3.29-10-.74,1a12.63,12.63,0,0,1-11.1,5.12,12.81,12.81,0,0,1-11.74-12.86v-1a12.65,12.65,0,0,1,12.65-12.65h1.73a12.65,12.65,0,0,1,11.55,7.49l1.25,3.32"/><path class="cls-9" d="M430.65,198.85a21.38,21.38,0,0,0,14.13,8.21"/><path class="cls-10" d="M460.59,184.5s-1.85.69-10,1.47c-3,.28-4.33,3.73-1.82,5.41a12.65,12.65,0,0,0,7.15,2.24,6.31,6.31,0,0,0,5.4-2.49Z"/><path class="cls-11" d="M442.48,177.4a3.24,3.24,0,0,1,6.47,0"/><polyline class="cls-9" points="401.78 185.16 406.69 190.07 401.78 191.13"/><circle class="cls-12" cx="434.46" cy="187.05" r="6.68"/><line class="cls-13" x1="433.69" y1="172.46" x2="433.69" y2="160.47"/></g><g id="BODY"><path class="cls-12" d="M457,371.86l-11.25-24.15L382,420.92l-4.63,138.73H266.76c-52.52,0-85.4-52.57-62.44-99.79L292,284c16-33,47.36-49.64,84-49.64l7.62.66,1.19-4.28a10.89,10.89,0,0,1,10.66-10.89,11.14,11.14,0,0,1,11.13,11.06c0,.88.08,1.8.16,2.71a10.9,10.9,0,0,1,19.39,5.07l.55,0a10.89,10.89,0,0,1,21.18,1.94c17.88,3,31.14,19.94,32,36.61l8.07-32.88,44.66,3V355.11a39.66,39.66,0,0,1-39.33,39.66h0A39.64,39.64,0,0,1,457,371.86Z"/><path class="cls-14" d="M378.56,249.53a43,43,0,0,1,10.38,30l-11.17,248"/><path class="cls-5" d="M404.23,237.52c1.86-5.33,5.76-10,12.18-9.16,6,.74,9.84,4.87,9.84,10.89"/><path class="cls-5" d="M426.16,241A10.9,10.9,0,1,1,448,241v6.62"/><path class="cls-5" d="M382.24,234.87l3.41-8.35a10.9,10.9,0,0,1,20.93,4.24l-2.35,6.76"/><path class="cls-15" d="M317,335.77a14.32,14.32,0,0,0-14.32-14.32"/><path class="cls-15" d="M449.41,311.87a63.39,63.39,0,0,1-4,40.74"/><line class="cls-14" x1="481.98" y1="270.93" x2="467" y2="326.55"/><path class="cls-14" d="M317,313.11V511.8a44.17,44.17,0,0,0,39.93,44"/></g><g id="HANDS"><path class="cls-7" d="M428.05,568.53a26.65,26.65,0,0,0-17.21-33.28L358,518.73a11.71,11.71,0,0,0-14.67,7.72h0a26.93,26.93,0,0,0,24.44,34.85l10.78.52h0L370.91,588a8.19,8.19,0,0,0,15,6.28l1.2.15a8.19,8.19,0,0,0,15.4,1.81h0c1,2.14,4.8,4.11,7.22,4.81a8.18,8.18,0,0,0,8.81-2.93Z"/><path class="cls-11" d="M379.58,561.82,372,588a8.19,8.19,0,0,0,15,6.28l1.2.15a8.2,8.2,0,0,0,15.41,1.81h0c.94,2.14,4.79,4.11,7.22,4.81a8.19,8.19,0,0,0,8.81-2.93l9.48-29.63a26.65,26.65,0,0,0-17.21-33.28l-53.55-17.37"/><path class="cls-11" d="M387.37,594.19,395,568a15.12,15.12,0,0,0-1.18-11.32L392,553.32"/><path class="cls-11" d="M403.6,596.28l8.71-28.61a15.06,15.06,0,0,0-.82-10.92l-1.64-3.43"/><circle class="cls-6" cx="413.59" cy="594.77" r="4.69"/><circle class="cls-6" cx="396.53" cy="594.19" r="4.69"/><circle class="cls-6" cx="380.23" cy="591.59" r="4.69"/><path class="cls-7" d="M573.39,204.33a6.43,6.43,0,0,1-6.44,6.43H549.76a5.94,5.94,0,0,0-5.74,4.35l-5,20a23.25,23.25,0,0,1-22.32,17l-27-7.33,6.75-33A24.21,24.21,0,0,1,512,194.82l39.16-13.62a2.4,2.4,0,0,1,.75-.12,2.33,2.33,0,0,1,2.11,1.36A11.27,11.27,0,0,1,551.86,195h14.26a7.16,7.16,0,0,1,7.16,7.16Z"/><path class="cls-8" d="M489.75,244.76l6.75-33A24.21,24.21,0,0,1,512,194.82l39.16-13.62a2.4,2.4,0,0,1,.75-.12,2.33,2.33,0,0,1,2.11,1.36A11.27,11.27,0,0,1,551.86,195h14.26a7.16,7.16,0,0,1,7.16,7.16l.11,2.15a6.43,6.43,0,0,1-6.44,6.43H549.76a5.94,5.94,0,0,0-5.74,4.35l-5,20a23.25,23.25,0,0,1-22.32,17"/><path class="cls-8" d="M545.65,200.18h-.43a7.4,7.4,0,0,0-7.4,7.4h0c0,7.75-6,14-13.3,14h-4.75"/><path class="cls-16" d="M533.37,190.38h20.41a0,0,0,0,1,0,0V243a10.21,10.21,0,0,1-10.21,10.21h0A10.21,10.21,0,0,1,533.37,243V190.38A0,0,0,0,1,533.37,190.38Z"/><polygon class="cls-1" points="553.49 194.37 533.37 206.07 533.37 191.13 553.49 191.13 553.49 194.37"/><path class="cls-16" d="M625.53,187.9l-121.94-1.13A18.66,18.66,0,0,1,494,152.21L606.55,73c2.14-1.34,5.83-3.59,8.09-2.47Z"/><path class="cls-17" d="M615.44,187.43c-20.43,0-33.24-22.36-35.84-53.19-1.85-21.91,2.74-40.4,11.17-50.15"/><path class="cls-16" d="M653.93,125.79c2.75,32.51-9.73,61.17-27.86,62.7S591,163.85,588.28,131.33,598,71.23,616.13,69.7,651.19,93.28,653.93,125.79Z"/><ellipse class="cls-12" cx="621.1" cy="128.56" rx="26" ry="51.44" transform="matrix(1, -0.08, 0.08, 1, -8.61, 52.71)"/><path class="cls-18" d="M610.22,112.18a17.38,17.38,0,0,1,2.93,34.64"/><path class="cls-19" d="M610.73,120.08a10.32,10.32,0,0,1,11.14,9.41"/><path class="cls-10" d="M558.75,195h7.37a7.21,7.21,0,0,1,7.21,7.21v2.06a7.21,7.21,0,0,1-7.21,7.21h-7.37a8.24,8.24,0,0,1-8.24-8.24v0a8.24,8.24,0,0,1,8.24-8.24Z"/><circle class="cls-6" cx="557.05" cy="203.26" r="4.34"/><path class="cls-10" d="M549.41,211.49h9.72a7.21,7.21,0,0,1,7.21,7.21v2.06a7.21,7.21,0,0,1-7.21,7.21h-9.72a8.24,8.24,0,0,1-8.24-8.24v0a8.24,8.24,0,0,1,8.24-8.24Z"/><circle class="cls-6" cx="547.83" cy="219.73" r="4.34"/><path class="cls-10" d="M549.41,228h9.45a7.21,7.21,0,0,1,7.21,7.21v2.06a7.21,7.21,0,0,1-7.21,7.21h-9.45a8.24,8.24,0,0,1-8.24-8.24v0a8.24,8.24,0,0,1,8.24-8.24Z"/><circle class="cls-6" cx="547.83" cy="236.2" r="4.34"/></g></g></g></svg>