<svg xmlns="http://www.w3.org/2000/svg" viewBox="0 0 851.03 804.77"><defs><style>.cls-1{fill:#91e6f0;}.cls-2{fill:#004d89;}.cls-3,.cls-5,.cls-7{fill:none;stroke-linecap:round;stroke-width:5.42px;}.cls-3{stroke:#fdbc00;stroke-miterlimit:10;}.cls-4{fill:#fff;}.cls-5{stroke:#004d89;}.cls-5,.cls-7{stroke-linejoin:round;}.cls-6{fill:#ffb400;}.cls-7{stroke:#fff;}</style></defs><g id="Слой_1" data-name="Слой 1"><g id="WOMAN"><circle id="BACKGROUND" class="cls-1" cx="425.52" cy="433.45" r="279.43"/><g id="HAIR"><path class="cls-2" d="M452.55,264.06a30.22,30.22,0,1,1,27.18,12.51,52.38,52.38,0,0,1,15.93,25.52l5.7,20.92a18.24,18.24,0,0,0,30.27,8.31l4.34-4.19a39.59,39.59,0,0,1,64.75,15l3,8.21a26.19,26.19,0,0,0,43,9.69,33.89,33.89,0,0,1,24-9.9,34.49,34.49,0,0,1,24.54,10.21,280.16,280.16,0,0,1-32.48,220.81H630A211.67,211.67,0,0,1,418.51,378.84L415.19,304s-14.55,1.41-24.6,1.52a7.58,7.58,0,0,1-7.5-9.06l.11-1.81a41.31,41.31,0,0,1,44.31-33Z"/><line class="cls-3" x1="456.77" y1="265.49" x2="476.19" y2="275.15"/></g><g id="HAND"><path class="cls-4" d="M385.62,601.9l-37.37,51.53A61,61,0,0,1,239,606.2l34.85-180.88-.48-.35a30.58,30.58,0,0,1-12.16-22.44l-3.39-51.61a6.26,6.26,0,0,1,12.37-1.67l5.12,25V332.29a8.17,8.17,0,0,1,7.93-8.24,8,8,0,0,1,8.15,8v-8.53a8.18,8.18,0,0,1,8-8.26,8,8,0,0,1,8.12,8v7.51a8,8,0,1,1,16.07,0v42.75a4.42,4.42,0,0,0,8.09,2.45l11.27-16.91a9,9,0,0,1,16.56,5,9.19,9.19,0,0,1-.49,2.93L347.75,404.2A25,25,0,0,1,335,419.34L329.4,569.25l3.05-80c.91-23.77,16.8-46.57,38.74-55.76l14.43-5Z"/><path class="cls-5" d="M385.62,601.9l-37.37,51.53A61,61,0,0,1,239,606.2l34.85-180.88-.48-.35a30.58,30.58,0,0,1-12.16-22.44l-3.39-51.61a6.26,6.26,0,0,1,12.37-1.67l5.12,25V332.29a8.17,8.17,0,0,1,7.93-8.24,8,8,0,0,1,8.15,8v-8.53a8.18,8.18,0,0,1,8-8.26,8,8,0,0,1,8.12,8v7.51a8,8,0,1,1,16.07,0v42.75a4.42,4.42,0,0,0,8.09,2.45l11.27-16.91a9,9,0,0,1,16.56,5,9.19,9.19,0,0,1-.49,2.93L347.75,404.2A25,25,0,0,1,335,419.34L329.4,569.25l3.05-80"/><path class="cls-5" d="M385.62,601.9l-37.37,51.53A61,61,0,0,1,239,606.2l34.85-180.88-.48-.35a30.58,30.58,0,0,1-12.16-22.44l-3.39-51.61a6.26,6.26,0,0,1,12.37-1.67l5.12,25V332.29a8.17,8.17,0,0,1,7.93-8.24,8,8,0,0,1,8.15,8v-8.53a8.18,8.18,0,0,1,8-8.26,8,8,0,0,1,8.12,8v7.51a8,8,0,1,1,16.07,0v42.75a4.42,4.42,0,0,0,8.09,2.45l11.27-16.91a9,9,0,0,1,16.56,5,9.19,9.19,0,0,1-.49,2.93L347.75,404.2A25,25,0,0,1,335,419.34L329.4,569.25l3.05-80c.91-23.77,16.8-46.57,38.74-55.76l14.43-5Z"/><line class="cls-5" x1="291.4" y1="332.09" x2="291.4" y2="368.01"/><line class="cls-5" x1="307.48" y1="330.84" x2="307.48" y2="368.01"/><path class="cls-5" d="M329.84,377.61s-20.93,4.41-20.4,30"/></g><g id="BODY"><path class="cls-6" d="M552.92,380a32.83,32.83,0,0,0-27.84,42l43.38,147.32-82,85.88-18.27,6.42-75.52-54.64a57.67,57.67,0,0,1-27.76-57.77l16.93-119s33.77,6.81,74.2-3.65c50.94-13.17,58-42.16,58-42.16Z"/><path class="cls-7" d="M532,573.32a45.54,45.54,0,0,1-77.57-8.17"/></g><g id="HEAD"><path class="cls-4" d="M417.24,414.52,413.14,370s-17.71,3-27.6-8.51c-12.51-14.57,3.76-57.15,3.76-57.15s12.43,3.53,27.94-11.4c0,0,5,26,32.65,32.35v-1.17a13.61,13.61,0,0,1,13.61-13.62h0a13.62,13.62,0,0,1,13.62,13.62v2.26A13.61,13.61,0,0,1,463.5,340h-2.63l15.4,31.38a25.64,25.64,0,0,0,25.66,14.22L514,384.36s-7,29-58,42.16c-40.43,10.46-74.2,3.65-74.2,3.65Z"/><circle class="cls-6" cx="432.39" cy="337.74" r="11.03"/><path class="cls-2" d="M414.66,336.26,390,329.88a3.66,3.66,0,0,0-4.34,4.31c.89,5.51,2.27,13.41,9.92,15.08,7,1.54,15.52-4.87,20-8.9A2.42,2.42,0,0,0,414.66,336.26Z"/><path class="cls-4" d="M409.8,339.58c-3.17,2.8-8.88,7-13.64,6a8,8,0,0,1-3.73-1.91,12.56,12.56,0,0,1,9.58-5.5A13.72,13.72,0,0,1,409.8,339.58Z"/><path class="cls-5" d="M379.29,430.65l37.95-16.13L413.14,370s-17.71,3-27.6-8.51c-12.51-14.57,3.76-57.15,3.76-57.15"/><path class="cls-5" d="M413.14,370c15.52,0,26.35-15,26.35-15"/><polyline class="cls-5" points="465.15 321.57 458.45 329.48 466.38 329.48"/><path class="cls-5" d="M424.29,319.35a5.12,5.12,0,0,1-6.63,2.88,5,5,0,0,1-2.66-5.65"/><polyline class="cls-5" points="409.93 296.05 394.13 323.02 402.68 325.46"/></g><g id="HAND-2" data-name="HAND"><path class="cls-4" d="M634.21,624.16c32.95-24.6,37.95-51.2,23.79-80L586.15,398.11A32.89,32.89,0,0,0,552.92,380h0a32.9,32.9,0,0,0-27.85,42l43.4,147.32-78.62,84.68L454,666.54c-18.3,7.17-16.82,17.41-15.28,32.34l3.45,25.19a7.43,7.43,0,0,0,7.31,6.07h.07A7.44,7.44,0,0,0,457,722.7v1.75a7.43,7.43,0,0,0,7.43,7.43h0a7.44,7.44,0,0,0,7.44-7.43v-1.27a6.8,6.8,0,0,0,6.8,6.81h0a6.81,6.81,0,0,0,6.81-6.81V720a6.81,6.81,0,0,0,6.81,6.8h.12a7.1,7.1,0,0,0,8.06-6.61l.43-13a10.21,10.21,0,0,1,10.21-9.88h10.69a56.37,56.37,0,0,0,34.88-12.08Z"/><path class="cls-5" d="M568.47,569.25l-78.62,84.68L454,666.54c-18.3,7.17-16.82,17.41-15.28,32.34l3.45,25.19a7.43,7.43,0,0,0,7.31,6.07h.07A7.44,7.44,0,0,0,457,722.7v1.75a7.43,7.43,0,0,0,7.43,7.43h0a7.44,7.44,0,0,0,7.44-7.43v-1.27a6.8,6.8,0,0,0,6.8,6.81h0a6.81,6.81,0,0,0,6.81-6.81V720a6.81,6.81,0,0,0,6.81,6.8h.12a7.1,7.1,0,0,0,8.06-6.61l.43-13a10.21,10.21,0,0,1,10.21-9.88h10.69a56.37,56.37,0,0,0,34.88-12.08l77.55-61.05c32.95-24.6,37.95-51.2,23.79-80L586.15,395.61c-6.13-12.46-21.62-19.73-35.42-18.17"/><line class="cls-5" x1="568.47" y1="569.25" x2="585.05" y2="552.06"/><line class="cls-5" x1="456.98" y1="712.89" x2="456.98" y2="692.09"/><line class="cls-5" x1="471.85" y1="723.18" x2="471.85" y2="692.09"/><line class="cls-5" x1="485.46" y1="719.98" x2="485.46" y2="691.78"/><circle class="cls-6" cx="449.45" cy="722.96" r="4.39"/><circle class="cls-6" cx="464.38" cy="724.37" r="4.39"/><circle class="cls-6" cx="478.58" cy="722.96" r="3.97"/><circle class="cls-6" cx="493.07" cy="719.98" r="3.97"/></g></g><g id="ICONS"><polygon class="cls-6" points="388.47 196.85 409.44 235.88 365.88 217.92 351.17 309.5 339.48 217.93 300.45 234.38 316.9 196.86 240.41 182.14 315.39 165.92 285.36 122.36 334.95 138.81 351.17 72.89 367.4 138.81 416.99 122.36 386.96 165.92 446.85 182.14 388.47 196.85"/><path class="cls-4" d="M351.54,188a3.51,3.51,0,0,1-3.49-3.23l-2.65-32.85a3.5,3.5,0,0,1,3.49-3.79h5.3a3.51,3.51,0,0,1,3.5,3.79L355,184.74A3.52,3.52,0,0,1,351.54,188Z"/><circle class="cls-4" cx="351.54" cy="198.5" r="4.24"/></g></g></svg>