<svg xmlns="http://www.w3.org/2000/svg" viewBox="0 0 851.03 804.77"><defs><style>.cls-1{fill:#91e6f0;}.cls-10,.cls-2,.cls-3,.cls-6,.cls-9{fill:#fff;}.cls-3,.cls-5,.cls-6,.cls-8,.cls-9{stroke:#004d89;}.cls-3,.cls-5,.cls-6{stroke-linejoin:round;}.cls-11,.cls-3,.cls-8,.cls-9{stroke-width:7.61px;}.cls-4{fill:#004d89;}.cls-11,.cls-12,.cls-5,.cls-8{fill:none;}.cls-10,.cls-11,.cls-12,.cls-5,.cls-6{stroke-linecap:round;}.cls-5,.cls-6{stroke-width:6.08px;}.cls-7{fill:#ffb400;}.cls-10,.cls-11,.cls-12,.cls-8,.cls-9{stroke-miterlimit:10;}.cls-10,.cls-12{stroke:#ffb400;}.cls-10{stroke-width:9.13px;}.cls-11{stroke:#91e6f0;}.cls-12{stroke-width:10.65px;}</style></defs><g id="Слой_1" data-name="Слой 1"><g id="MAN"><rect class="cls-1" x="215.43" y="153.82" width="558.54" height="493.22" rx="44.91"/><path class="cls-2" d="M598.65,406.62a86.3,86.3,0,0,1,82,59.95L739.14,647H334a69.78,69.78,0,0,1-69.61-65l-12.1-175.44Z"/><path class="cls-3" d="M536.65,342.43a14.7,14.7,0,0,1-11.42,16.47l-8.57,1.87,11.39,45.1h-93l12.26-55.11a12.2,12.2,0,0,1-14.52-9.33l-.93-4.25a16.17,16.17,0,0,1,12.35-19.24,16.84,16.84,0,0,1,3.44-.37,16.19,16.19,0,0,1,11,4.31l-2.27-8.38a26.53,26.53,0,0,1,22.14-33.23l23.38-3.08a20.62,20.62,0,0,1,21.6,8.78l.34.51L543.27,316a2.71,2.71,0,0,1-1.32,4l-6.57,2.46a3.27,3.27,0,0,0-2.07,3.74Z"/><path class="cls-4" d="M516.48,357h0a37.47,37.47,0,0,1-22.05-1.87l-14-5.67,45,40.41Z"/><circle class="cls-1" cx="484.16" cy="327.3" r="11.52"/><polyline class="cls-5" points="448.59 331.86 453.01 337.17 446.02 338.69"/><path class="cls-5" d="M502.91,307.57a4,4,0,1,0,7.76-1.69"/><ellipse class="cls-6" cx="522.43" cy="335.28" rx="10.18" ry="7.88"/><path class="cls-4" d="M529.17,343s-1.12,1-6.74,1a21.22,21.22,0,0,1-9.52-2.17c0-4.35,1.58-7.27,7.2-7.27S529.17,338.67,529.17,343Z"/><path class="cls-7" d="M446,313.77l-3.79-25.91a13.77,13.77,0,0,1,13.28-15.76l77.77-1.87s-11.78,21.69-37.6,22.82c-13.17.58-21.27-2.12-25.8-4.55a1.63,1.63,0,0,0-2.28,2,27.26,27.26,0,0,1-5.32,27.4Z"/><polygon class="cls-1" points="338.46 410.35 361.95 410.35 371.49 533.09 338.46 410.35"/><path class="cls-8" d="M317,406.46H453.67l24.37-19,30.41,19h90.2a86.23,86.23,0,0,1,82,59.43l58.52,178.92"/><path class="cls-8" d="M379.18,576,331.3,399l-78.93-1.91L265.59,582.7c3.47,34.69,20.6,68.25,89.77,68.25"/><line class="cls-8" x1="626.83" y1="523.51" x2="607.87" y2="649.15"/><path class="cls-9" d="M229.87,371.5l8.24-41.91a11.68,11.68,0,0,0-6.66-12.91h0a11.68,11.68,0,0,0-15.32,5.58l-18.42,38.15Z"/><path class="cls-9" d="M229.52,355.88l-16.14-39.55a11.67,11.67,0,0,0-12.66-7.12h0A11.69,11.69,0,0,0,191,322.28l5.58,42Z"/><path class="cls-9" d="M325.69,382.44h0A54.55,54.55,0,0,0,254.11,355L235.72,363l-18.21-10-28.17-32.1a11.69,11.69,0,0,0-14.29-2.6h0a11.55,11.55,0,0,0-5.33,15.82l12.46,23.77a36,36,0,0,0,21.74,18.32l48.46,20.83,1,15.09c16.27,12.09,64.72,7.42,79.55-7.51C333,404.63,328.24,388.08,325.69,382.44Z"/><polygon class="cls-7" points="417.72 411.54 458.76 411.54 479.82 387.13 500.89 411.54 538.34 411.54 532.02 381.12 432.47 381.12 417.72 411.54"/><polygon class="cls-2" points="479.82 387.13 500.89 411.54 458.76 411.54 479.82 387.13"/><polygon class="cls-4" points="381.63 266.96 215.43 266.96 215.43 292.85 381.63 266.96"/><rect class="cls-10" x="77.06" y="177.82" width="339.39" height="85.91" rx="42.95"/><circle class="cls-11" cx="146.62" cy="220.77" r="12.21"/><path class="cls-11" d="M146.62,247.9a27.13,27.13,0,1,1,.29-54.26h0A22.34,22.34,0,0,1,169.25,216v11.59a5.22,5.22,0,0,1-5.22,5.21h0a5.21,5.21,0,0,1-5.21-5.21v-8.12"/><line class="cls-12" x1="356.69" y1="220.77" x2="359.33" y2="220.77"/><line class="cls-12" x1="213.91" y1="220.77" x2="332.81" y2="220.77"/><polygon class="cls-4" points="607.8 285.14 700.95 285.14 700.95 209.16 572.7 209.16 572.7 317.89 607.8 285.14"/><circle class="cls-2" cx="637.32" cy="244.84" r="6.27"/><circle class="cls-2" cx="610.48" cy="244.84" r="6.27"/><circle class="cls-2" cx="663.17" cy="244.84" r="6.27"/></g></g></svg>