<svg xmlns="http://www.w3.org/2000/svg" viewBox="0 0 2000 1700"><defs><style>.cls-1{fill:#004d89;}.cls-13,.cls-14,.cls-15,.cls-2,.cls-20{fill:#fff;}.cls-12,.cls-15,.cls-17,.cls-19,.cls-2,.cls-20,.cls-21{stroke:#004d89;}.cls-19,.cls-2,.cls-20,.cls-21{stroke-linejoin:round;}.cls-12,.cls-13,.cls-15,.cls-16,.cls-17,.cls-2,.cls-5,.cls-8,.cls-9{stroke-width:7px;}.cls-3{fill:#91e6f0;}.cls-4{fill:#ffb400;}.cls-10,.cls-11,.cls-12,.cls-16,.cls-17,.cls-18,.cls-19,.cls-21,.cls-5,.cls-6,.cls-7,.cls-8,.cls-9{fill:none;}.cls-13,.cls-18,.cls-5,.cls-7,.cls-9{stroke:#ffb400;}.cls-10,.cls-11,.cls-12,.cls-13,.cls-15,.cls-16,.cls-17,.cls-18,.cls-5,.cls-6,.cls-7,.cls-8,.cls-9{stroke-miterlimit:10;}.cls-10,.cls-11,.cls-16,.cls-6{stroke:#fff;}.cls-10,.cls-11,.cls-12,.cls-13,.cls-16,.cls-18,.cls-21,.cls-6,.cls-8,.cls-9{stroke-linecap:round;}.cls-6{stroke-width:4.3px;}.cls-10,.cls-19,.cls-20,.cls-21,.cls-7{stroke-width:6px;}.cls-8{stroke:#91e6f0;}.cls-11{stroke-width:5.03px;}.cls-18{stroke-width:15px;}</style></defs><g id="Слой_1" data-name="Слой 1"><g id="LETTERS"><path class="cls-1" d="M1613.6,919.55a22.67,22.67,0,0,1-7,16.41l-111.13,105.91a33.12,33.12,0,0,1-46,0L1338.39,936a22.71,22.71,0,0,1-7-16.41,23.12,23.12,0,0,1,1.82-9,22.51,22.51,0,0,1,5.14-7.45l111.14-105.9a33.1,33.1,0,0,1,46,0l111.13,105.9A22.67,22.67,0,0,1,1613.6,919.55Z"/><polygon class="cls-2" points="1580.7 1031.15 1373.61 1031.15 1367.94 824.74 1410.57 782.1 1575.03 782.1 1580.7 1031.15"/><polygon class="cls-3" points="1553.84 839.73 1559.4 857.72 1541.41 852.16 1532.62 868.81 1523.83 852.16 1505.84 857.72 1511.4 839.73 1494.75 830.94 1511.4 822.15 1505.84 804.16 1523.83 809.72 1532.62 793.07 1541.41 809.72 1559.4 804.16 1553.84 822.15 1570.49 830.94 1553.84 839.73"/><polygon class="cls-4" points="1551.15 835.69 1556.71 853.68 1538.72 848.13 1529.93 864.77 1521.14 848.13 1503.15 853.68 1508.71 835.7 1492.06 826.9 1508.71 818.12 1503.15 800.13 1521.14 805.68 1529.93 789.04 1538.72 805.68 1556.71 800.13 1551.15 818.12 1567.8 826.9 1551.15 835.69"/><line class="cls-5" x1="1419.81" y1="878.89" x2="1521.15" y2="878.89"/><line class="cls-5" x1="1419.81" y1="927.29" x2="1521.15" y2="927.29"/><line class="cls-5" x1="1441.47" y1="903.37" x2="1521.15" y2="903.37"/><line class="cls-5" x1="1419.81" y1="903.37" x2="1430.91" y2="903.37"/><circle class="cls-6" cx="1522.04" cy="819.96" r="4.78"/><circle class="cls-6" cx="1537.82" cy="833.85" r="4.78"/><line class="cls-6" x1="1539.47" y1="814.34" x2="1520.4" y2="839.47"/><path class="cls-3" d="M1414.07,782.11v42.63a3.5,3.5,0,0,1-3.5,3.5h-42.63a3.5,3.5,0,0,1-2.48-6l42.64-42.64a3.5,3.5,0,0,1,6,2.48Z"/><path class="cls-7" d="M1496.58,778.54v-7.69a16.76,16.76,0,0,1,16.76-16.76h0a16.77,16.77,0,0,1,16.76,16.76v26.38"/><path class="cls-4" d="M1613.6,914.17V1074c0,17.06-13.39,30.89-29.91,30.89H1361.34c-16.52,0-29.91-13.83-29.91-30.89V917a49.35,49.35,0,0,0,7,8.21l82.24,78.36,28.9-27.53a33.12,33.12,0,0,1,46,0l28.89,27.53,82.24-78.36C1611.08,921,1613.6,920.4,1613.6,914.17Z"/><path class="cls-8" d="M1347.59,1073.17,1449.53,976a33.1,33.1,0,0,1,46,0l101.43,96.65"/><line class="cls-9" x1="1089.18" y1="797.19" x2="1206.94" y2="797.19"/><line class="cls-9" x1="1045" y1="797.19" x2="1063.21" y2="797.19"/><line class="cls-9" x1="1045" y1="818.17" x2="1308.36" y2="818.17"/><rect class="cls-3" x="734.78" y="356.7" width="279.79" height="200.27" rx="26.31" transform="translate(278.62 -329.6) rotate(25.26)"/><polygon class="cls-4" points="1017.6 571.28 960.18 571.28 960.18 478.51 988.89 447.05 1017.6 478.51 1017.6 571.28"/><circle class="cls-10" cx="979.59" cy="512.48" r="5.59"/><circle class="cls-10" cx="998.12" cy="532.56" r="5.59"/><line class="cls-10" x1="1000.04" y1="507.68" x2="977.74" y2="537.08"/><circle class="cls-11" cx="988.89" cy="469.37" r="5.59"/><path class="cls-12" d="M988.89,469.37V386.7a9.3,9.3,0,0,0-9.3-9.3h0a9.3,9.3,0,0,0-9.3,9.3"/><polygon class="cls-1" points="960.18 571.28 975.37 571.28 971.47 579.55 960.18 571.28"/><polygon class="cls-1" points="922.42 368.64 922.42 431.44 939.17 376.54 922.42 368.64"/><rect class="cls-13" x="639.86" y="304.6" width="279.79" height="200.27" rx="26.31"/><path class="cls-9" d="M648.76,311.19,761.1,404.9a29.39,29.39,0,0,0,37.45.16L913,311.19"/><line class="cls-8" x1="666.74" y1="357.72" x2="582.4" y2="287.37"/><line class="cls-8" x1="552.44" y1="304.6" x2="543.09" y2="296.8"/><line class="cls-8" x1="627.43" y1="367.16" x2="565.17" y2="315.22"/><path class="cls-1" d="M894.65,331.7a27.7,27.7,0,0,1-10.56-17.37h39.1v39.72Z"/><circle class="cls-4" cx="911.43" cy="309.62" r="27.74"/><path class="cls-14" d="M911.43,327a3.5,3.5,0,0,1-3.5-3.5v-.2a3.5,3.5,0,0,1,7,0v.2A3.5,3.5,0,0,1,911.43,327Z"/><path class="cls-14" d="M911.43,314.69a3.5,3.5,0,0,1-3.5-3.5v-12a3.5,3.5,0,1,1,7,0v12A3.5,3.5,0,0,1,911.43,314.69Z"/><path class="cls-1" d="M632,1043.63a20.1,20.1,0,0,1-6.94,15.08L533.32,1139a32.41,32.41,0,0,1-42.57,0L399,1058.72a20.13,20.13,0,0,1-6.94-15.09,19.57,19.57,0,0,1,1.82-8.26,20.46,20.46,0,0,1,5.12-6.82l91.74-80.32a32.42,32.42,0,0,1,42.57,0l91.74,80.32A20.1,20.1,0,0,1,632,1043.63Z"/><polygon class="cls-3" points="536.2 1086.87 555.4 1121.09 518.03 1103.49 507.37 1140.98 493.3 1105.66 466.34 1121.09 458.19 1121.09 474.1 1091.05 438.03 1076.55 472.54 1061.97 458.19 1025.05 466.34 1025.05 468.08 1029.65 492.91 1041.66 506.21 1005.16 514.35 1005.16 516.47 1042.04 549.58 1025.05 562.38 1025.05 539.67 1057.89 575.29 1073.07 536.2 1086.87"/><polygon class="cls-4" points="543.18 1086.87 562.38 1121.09 525.01 1103.49 514.35 1140.98 500.28 1105.66 466.34 1121.09 484.05 1087.65 446.44 1073.07 479.27 1059.1 466.34 1025.05 501.05 1041.66 514.35 1005.16 529.26 1042.04 562.38 1025.05 546.65 1057.89 582.27 1073.07 543.18 1086.87"/><path class="cls-15" d="M628.49,1041.74v115.78c0,13.64-11,25.86-24.68,25.86H420.25a24.69,24.69,0,0,1-24.68-24.7V1041.74c0,5,2.08,6.25,5.74,9.63L469.2,1114l23.85-22a28,28,0,0,1,38,0l23.85,22,67.89-62.64C626.41,1048,628.49,1046.72,628.49,1041.74Z"/><path class="cls-15" d="M621.41,1175.41a24,24,0,0,1-17.6,8H420.26a24.61,24.61,0,0,1-17.91-7.7L469.2,1114l23.85-22a28,28,0,0,1,38,0l23.85,22Z"/><line class="cls-9" x1="641.5" y1="1099.84" x2="686.34" y2="1099.84"/><line class="cls-9" x1="676.68" y1="1124.27" x2="686.34" y2="1124.27"/><line class="cls-9" x1="600.95" y1="1124.27" x2="662.2" y2="1124.27"/><line class="cls-16" x1="482.6" y1="1008.43" x2="469.26" y2="997.41"/><line class="cls-16" x1="533.24" y1="1008.43" x2="546.58" y2="997.41"/><line class="cls-16" x1="509.7" y1="983.57" x2="509.7" y2="967.24"/></g><g id="LAPTOP"><path class="cls-12" d="M588.82,644H448.62a53,53,0,0,0-50.74,68.37l61.45,200.42"/><path class="cls-12" d="M1261.81,793.5l-32-105.65a61.68,61.68,0,0,0-59-43.81H786.53"/><line class="cls-12" x1="1296.9" y1="909.42" x2="1278.56" y2="848.84"/><path class="cls-12" d="M605.88,1215.41h758a19,19,0,0,0,18.2-24.53l-17.27-57"/><rect class="cls-17" x="605.88" y="1273.71" width="1007.72" height="31.02" rx="15.51"/><line class="cls-18" x1="730" y1="1248.41" x2="795.03" y2="1248.41"/><line class="cls-18" x1="912.13" y1="1248.41" x2="977.16" y2="1248.41"/><line class="cls-18" x1="1094.25" y1="1248.41" x2="1159.28" y2="1248.41"/><line class="cls-18" x1="1276.38" y1="1248.41" x2="1341.41" y2="1248.41"/><line class="cls-18" x1="1458.5" y1="1248.41" x2="1523.54" y2="1248.41"/><circle class="cls-8" cx="1181.65" cy="689.5" r="9.43"/><circle class="cls-5" cx="1132.9" cy="689.5" r="9.43"/><circle class="cls-17" cx="1084.15" cy="689.5" r="9.43"/><line class="cls-8" x1="1039.33" y1="689.5" x2="778.24" y2="689.5"/><line class="cls-8" x1="565.89" y1="689.5" x2="439.02" y2="689.5"/></g><g id="SPARKLES"><path class="cls-3" d="M599.2,529.91a3.5,3.5,0,1,1-5,5l-5.43-5.43-5.43,5.43a3.5,3.5,0,1,1-4.95-5l5.43-5.43-5.43-5.43a3.5,3.5,0,0,1,4.95-4.95l5.43,5.43,5.43-5.43a3.5,3.5,0,0,1,5,4.95l-5.43,5.43Z"/><path class="cls-3" d="M1332.14,722.44a3.5,3.5,0,0,1-5,4.95l-5.06-5.06-5.07,5.06a3.5,3.5,0,0,1-5-4.95l5.07-5.06-5.07-5.07a3.5,3.5,0,0,1,5-4.95l5.07,5.07,5.06-5.07a3.5,3.5,0,0,1,5,4.95l-5.06,5.07Z"/><path class="cls-3" d="M413.86,911.45a3.5,3.5,0,1,1-4.95,4.95L403.48,911,398,916.4a3.5,3.5,0,0,1-5-4.95l5.43-5.43-5.43-5.43a3.5,3.5,0,0,1,5-5l5.44,5.43,5.43-5.43a3.5,3.5,0,0,1,4.95,5L408.43,906Z"/></g><g id="MAN"><g id="BODY"><path class="cls-3" d="M1105.51,995.5l-104.69,121.75v79.27l-267.28-1.23V1019.55L623.63,933.94c85.2-21.2,95.49-111.26,95.49-111.26l264.09,55.64a72.23,72.23,0,0,1,40.09,21.45Z"/><path class="cls-14" d="M1012.78,890.65a84.84,84.84,0,0,1-23.49,19.44c-16.74,9.58-36.77,14.58-57.77,14.58a135.91,135.91,0,0,1-18.24-1.24c-50.61-6.87-89-40.92-92.87-79.41l7.22,1.52c4.74,34.42,40.21,64.66,86.59,71,26,3.52,51.39-.91,71.59-12.47a78.32,78.32,0,0,0,21-17.18A69.64,69.64,0,0,1,1012.78,890.65Z"/></g><g id="HANDS"><path class="cls-1" d="M1335,1088.76l-132.57,55.56,108.1-73.25h20.86v3A31.59,31.59,0,0,0,1335,1088.76Z"/><path class="cls-14" d="M1409.4,919.27c0,7.65.17,9.21-4.32,14.88s-6.64,9.87-14.08,11.62l-21.67,5.11-37.9,44.44v75.75h-20.86L1148,1181.26a53.33,53.33,0,0,1-57.65-2.13l-89.49-62.32,100.87-116.87,25.48,28.17L1344,915.24a32.16,32.16,0,0,1,18.46-5.82h37.06A9.85,9.85,0,0,1,1409.4,919.27Z"/><path class="cls-17" d="M1331.43,1071.07h-20.86L1148,1181.26a53.33,53.33,0,0,1-57.65-2.13l-87.81-64.59"/><path class="cls-17" d="M1330,995.32l39.29-44.44,19.64-4.81c13.64-3.33,20.43-12.76,20.43-26.8v-2.79c0-5.44-3-7.06-8.46-7.06h-35.66c-6.6,0-15.84,2-21.25,5.82l-216.86,112.87-27.4-25.95"/><line class="cls-17" x1="1127.17" y1="1028.11" x2="1140.01" y2="1039.93"/><polygon class="cls-1" points="1000.86 1116.7 1001.85 1023.66 1024.08 1133.61 1000.86 1116.7"/><path class="cls-3" d="M1402.82,912.83a2.86,2.86,0,0,1,2.8,3.56c-1.18,4.7-4.68,8.13-8.85,8.17-5.17,0-9.4-5.15-9.45-11.6Z"/><path class="cls-14" d="M855.65,504.87l-41.25,78.8a57.94,57.94,0,0,1-45.51,32.39L714.4,835.26s-5.57,77.48-90.77,98.68h0L565.68,888.8a65.91,65.91,0,0,1-19.19-79.93l141-301.42H809.37v-2.58H810l11.62-11.27a20.24,20.24,0,0,1,2.39-2c8.22-5.82,23.63-7.76,33.24-.24C859.32,493,856.64,502.78,855.65,504.87Z"/><path class="cls-17" d="M747.39,550.29c8.24-24.46,31.4-36,57.2-35.45l10.18-15.71a27.84,27.84,0,0,1,25.07-12.64l10.58.65a7.43,7.43,0,0,1,6.2,10.71l-35.45,71.82-6.77,14a57.94,57.94,0,0,1-45.51,32.39L714.4,835.26"/><path class="cls-17" d="M631.49,935.51,565.68,888.8a65.91,65.91,0,0,1-19.19-79.93l140.3-299.81"/><path class="cls-17" d="M768.89,616.06a92.61,92.61,0,0,1-45.49-5.89"/><path class="cls-3" d="M845,512.41c-5.82-2.93-8.5-9.34-6-14.31,2.07-4.13,7.07-6,12-4.81a2.62,2.62,0,0,1,1.71,3.74Z"/></g><g id="HEAD"><path class="cls-14" d="M997.45,886.11h0a105.34,105.34,0,0,1-150.72-17.8l-9.63-14.64,21,4c21.62,3.74,41.29-6.59,51.34-26.08L923.51,806l-9.26-.92a13.38,13.38,0,0,1-12-14.06l.31-5.69a13.37,13.37,0,0,1,26.65-.68l.2,1.84,8.47-29.45h53.75l5.18,58.26a14.94,14.94,0,0,1-14.88,16.26h-8L967.61,879h.1l13.93,2.41A71.53,71.53,0,0,1,997.45,886.11Z"/><path class="cls-19" d="M837.84,850.47l19.44,4.17a50.22,50.22,0,0,0,53.2-26.47l13-22.15-9.26-.92a13.38,13.38,0,0,1-12-14.06l.31-5.69a13.37,13.37,0,0,1,26.65-.68l.2,1.84,8.47-29.45h53.75l5.18,58.26a14.94,14.94,0,0,1-14.88,16.26h-8l-6.24,46.57,13.93,2.41a72.05,72.05,0,0,1,15.81,4.64"/><polygon class="cls-1" points="974.41 828.66 951.12 826.88 971.22 848.84 974.41 828.66"/><path class="cls-20" d="M993.06,773.28l.09.94a17.28,17.28,0,0,0,11.36,14.52h0a1.22,1.22,0,0,1,.17,2.22l-9.18,5Z"/><path class="cls-1" d="M923.11,751a14.23,14.23,0,0,1,26.2-7.7,15,15,0,0,1,24.85.12,15,15,0,1,1,0,16.67,15,15,0,0,1-24.35.81l-7.52,19.85a13.78,13.78,0,0,1-5.06,6.46,14,14,0,0,1-8,2.24c.25-5.52-4.42-10.16-4.42-10.16Z"/><circle class="cls-4" cx="951.58" cy="799.69" r="11.41"/><path class="cls-20" d="M996.26,809.23a23.4,23.4,0,0,1-8.2-.65c-8.42-2.62-11-5.88-13-10.36a3.36,3.36,0,0,1,4.79-4.24c6.57,3.92,15.21,2,15.21,2Z"/><polyline class="cls-21" points="915.9 786.63 921.06 792.28 914.77 792.28"/><circle class="cls-1" cx="976.81" cy="780.23" r="3.27"/></g></g></g></svg>