<svg xmlns="http://www.w3.org/2000/svg" viewBox="0 0 851.03 804.77"><defs><style>.cls-1{fill:#ffb400;}.cls-2{fill:#004d89;}.cls-10,.cls-15,.cls-3,.cls-6,.cls-9{fill:#fff;}.cls-10,.cls-3,.cls-5{stroke:#ffb400;}.cls-11,.cls-12,.cls-13,.cls-14,.cls-3,.cls-4,.cls-5,.cls-8{stroke-linecap:round;}.cls-10,.cls-11,.cls-12,.cls-13,.cls-16,.cls-3,.cls-4,.cls-5,.cls-8,.cls-9{stroke-miterlimit:10;}.cls-3{stroke-width:8.37px;}.cls-11,.cls-12,.cls-13,.cls-14,.cls-16,.cls-4,.cls-5,.cls-8{fill:none;}.cls-4{stroke:#91e6f0;}.cls-4,.cls-8{stroke-width:6.98px;}.cls-5{stroke-width:9.77px;}.cls-7{fill:#91e6f0;}.cls-11,.cls-12,.cls-8{stroke:#fff;}.cls-13,.cls-14,.cls-15,.cls-16,.cls-9{stroke:#004d89;}.cls-16,.cls-9{stroke-width:6.28px;}.cls-10{stroke-width:4.95px;}.cls-11{stroke-width:3.75px;}.cls-12{stroke-width:3.94px;}.cls-13{stroke-width:5.58px;}.cls-14,.cls-15{stroke-linejoin:round;stroke-width:4.88px;}.cls-17{fill:#fdbc00;}</style></defs><g id="Слой_1" data-name="Слой 1"><g id="WOMAN"><rect class="cls-1" x="105.57" y="153.71" width="528.87" height="496.58" rx="56.57"/><polygon class="cls-2" points="435.61 201.46 634.44 201.46 634.44 225.21 435.61 201.46"/><rect class="cls-3" x="395.49" y="119.69" width="349.97" height="78.8" rx="39.4"/><circle class="cls-4" cx="459.29" cy="159.09" r="11.2"/><path class="cls-4" d="M459.29,184a24.88,24.88,0,1,1,.27-49.76h0a20.49,20.49,0,0,1,20.49,20.49v10.63a4.78,4.78,0,0,1-4.78,4.78h0a4.78,4.78,0,0,1-4.78-4.78v-7.45"/><line class="cls-5" x1="690.65" y1="159.09" x2="693.06" y2="159.09"/><line class="cls-5" x1="559.67" y1="159.09" x2="674.53" y2="159.09"/><line class="cls-5" x1="514.59" y1="159.09" x2="538.05" y2="159.09"/><path class="cls-6" d="M384.7,323.17h0A12.33,12.33,0,0,0,396,315.68l2.73-6.41a40.23,40.23,0,0,0-21.46-52.86l-23.84-10a37.13,37.13,0,0,0-42.52,10h0a37.15,37.15,0,0,0-7.31,35.25h0a10.19,10.19,0,0,1-9.73,13.21h-2.64a56.42,56.42,0,0,0-56.41,56.41v14.56H224a70.57,70.57,0,0,0-70.57,70.58v27.87H284Z"/><path class="cls-7" d="M478.66,429A134.28,134.28,0,0,0,358.72,355h0a134.26,134.26,0,0,0-123.64,82l-36,85.25c-17.67,41.79,13,88.08,58.39,88.08H453.32A106.53,106.53,0,0,0,559.85,503.79l3-138.82H486.09Z"/><line class="cls-8" x1="277.69" y1="526.42" x2="300.24" y2="458.03"/><line class="cls-8" x1="263.46" y1="520.74" x2="379.08" y2="566.91"/><path class="cls-8" d="M334.07,507.67c-18.11,5.38-36.9-4.08-42-21.14"/><path class="cls-1" d="M415.57,372.47a11.62,11.62,0,0,1-6.92,2.31,12,12,0,0,1-2.67-.31,11.6,11.6,0,0,1-4.58,8.63,11.45,11.45,0,0,1-6.92,2.31,12.87,12.87,0,0,1-1.63-.11,10.89,10.89,0,0,1-2.48-.64,11.68,11.68,0,0,1-.94,2.57,11.45,11.45,0,0,1-6.68,5.77,11.49,11.49,0,0,1-11.08-2.15,10.67,10.67,0,0,1-1.77,2.28,11.52,11.52,0,0,1-8.08,3.29h-.11a11.46,11.46,0,0,1-8.12-3.44,11.34,11.34,0,0,1-1.59-2,11.51,11.51,0,0,1-18.82-5.6,11,11,0,0,1-3.33.94,9.63,9.63,0,0,1-1.43.1A11.57,11.57,0,0,1,317,376.25a11.56,11.56,0,0,1,0-2.88h-.12a11.48,11.48,0,0,1-8.61-3.86,2.66,2.66,0,1,1,4-3.53,6.23,6.23,0,0,0,6.64,1.76,2,2,0,0,1,.58-.13,2.65,2.65,0,0,1,4.06,3.4,6.22,6.22,0,0,0,1.09,8.74,6.24,6.24,0,0,0,8.72-1.09,2.61,2.61,0,0,1,2.24-1,2.15,2.15,0,0,1,.71,0,2.66,2.66,0,0,1,2,3.2,6.23,6.23,0,0,0,4.62,7.49,6.25,6.25,0,0,0,7.5-4.61,2.65,2.65,0,0,1,5.21.9v0a.25.25,0,0,1,0,.12,6.16,6.16,0,0,0,1.77,4.41,6.25,6.25,0,0,0,4.39,1.87h.06A6.25,6.25,0,0,0,368,385s0,0,0,0a3.07,3.07,0,0,1,.07-.53,2.59,2.59,0,0,1,1.75-2.1,2.66,2.66,0,0,1,3.36,1.68,6.21,6.21,0,0,0,7.86,3.95,6.12,6.12,0,0,0,3.6-3.11,6,6,0,0,0,.51-4.1A2.72,2.72,0,1,1,390,378.2a6.22,6.22,0,0,0,8.23.64,6.21,6.21,0,0,0,1.58-8.17c-.13-.16-.26-.31-.38-.48a2.63,2.63,0,0,1-.5-1.95,2.28,2.28,0,0,1,.23-.81c.05-.1.1-.18.16-.28a2.27,2.27,0,0,1,.65-.74,2.67,2.67,0,0,1,3.73.53c.07.1.14.2.19.29a6.21,6.21,0,0,0,8.5,1,2.66,2.66,0,1,1,3.2,4.26Z"/><path class="cls-2" d="M478.66,429l-6.06,39.16-16.94-71.7A124.9,124.9,0,0,1,478.66,429Z"/><path class="cls-9" d="M463.49,599.57l3.82-37.85a10.41,10.41,0,0,1,9-9.27h0a10.4,10.4,0,0,1,11.61,8.72l5.82,37.28Z"/><path class="cls-9" d="M467.83,586.35l24-29.52A10.4,10.4,0,0,1,504.45,554h0a10.4,10.4,0,0,1,4.91,13.66l-15.62,34.35Z"/><rect class="cls-10" x="377.78" y="479.14" width="90.69" height="107.46"/><polygon class="cls-1" points="442.31 535.61 447.4 552.08 430.92 546.99 422.87 562.24 414.83 546.99 398.36 552.08 403.44 535.61 388.2 527.56 403.44 519.51 398.36 503.04 414.83 508.12 422.87 492.88 430.93 508.12 447.4 503.04 442.31 519.51 457.56 527.56 442.31 535.61"/><circle class="cls-11" cx="413.88" cy="521.19" r="4.38"/><circle class="cls-11" cx="431.87" cy="533.92" r="4.38"/><line class="cls-12" x1="431.61" y1="516.05" x2="414.14" y2="539.07"/><path class="cls-13" d="M384.7,323.17h0A12.33,12.33,0,0,0,396,315.68l2.73-6.41a40.23,40.23,0,0,0-21.46-52.86l-23.84-10a37.13,37.13,0,0,0-42.52,10h0a37.15,37.15,0,0,0-7.31,35.25h0a10.19,10.19,0,0,1-9.73,13.21h-2.64a56.42,56.42,0,0,0-56.41,56.41v14.56H224a70.57,70.57,0,0,0-70.57,70.58v27.87"/><path class="cls-6" d="M395,365.37c0,5.15-13.24,12.86-29.57,12.86s-29.57-7.71-29.57-12.86L338,331.7l-2.11,0a13.83,13.83,0,0,1-13.55-14.81l.67-9.36a3.7,3.7,0,0,0-3.69-4H317a1.54,1.54,0,0,1-1.54-1.55,1.5,1.5,0,0,1,.48-1.11,28.63,28.63,0,0,0,8.85-18.72l.33-4.58s14.26,9.86,36.21.15a4.68,4.68,0,0,1,6.31,5.79l-2.28,6.74a25.23,25.23,0,0,0,19.32,32.93Z"/><path class="cls-13" d="M335.87,365.37,338,331.7l-2.11,0a13.83,13.83,0,0,1-13.55-14.81l.75-10.49L317,303.53a1.54,1.54,0,0,1-1.54-1.55,1.5,1.5,0,0,1,.51-1.14c5-4.46,8.52-14.44,9-21.1l.15-2.17s14.26,9.86,36.21.15a4.68,4.68,0,0,1,6.31,5.79l-2.28,6.74a25.23,25.23,0,0,0,19.32,32.93L395,363.6"/><path class="cls-14" d="M333.42,291.78a3.25,3.25,0,0,0,2.92,2.9,3,3,0,0,0,2.91-2.9"/><path class="cls-15" d="M323.07,306.37a14.43,14.43,0,0,0,9.38-2.36,2.61,2.61,0,0,1,3.65,3.39c-1.73,4.06-5.44,7.66-13.78,9.46Z"/><circle class="cls-1" cx="351.3" cy="304.23" r="9.12"/><polygon class="cls-2" points="337.51 328.87 358.18 327.77 336.34 349.48 337.51 328.87"/><path class="cls-13" d="M336.73,281.61c-10-.75-17.56-7.72-17-15.57"/><path class="cls-13" d="M251,379.43a11.91,11.91,0,0,1-16-5.13"/><path class="cls-6" d="M366.44,580.27h0a48.56,48.56,0,0,1,68.1-4.88L448.12,587H478.8l32.32-20A10.41,10.41,0,0,1,524,568.44l8,7.2-24.32,24.69a32.09,32.09,0,0,1-23.27,10H380.06A18.11,18.11,0,0,1,366.44,580.27Z"/><path class="cls-16" d="M448.12,587H461c6,0,20.63,1.93,20.31,23.31"/><path class="cls-1" d="M463.49,610.32c0-4.59,3.35-8.3,7.5-8.3s7.5,3.71,7.5,8.3Z"/><path class="cls-1" d="M518.59,589.23a7.46,7.46,0,1,1,10.52-10.58Z"/><path class="cls-16" d="M366.44,580.27a48.56,48.56,0,0,1,68.1-4.88L448.12,587H478.8l30.6-20c4.11-2.55,11.15-1.94,14.57,1.48l7.08,8.21"/><path class="cls-6" d="M486.06,373.46l-4.84-32.31a18.62,18.62,0,0,1,14.09-20.88l3.27-.78,1.11-66a10.11,10.11,0,0,1,10.1-9.94h0a10.12,10.12,0,0,1,10.09,9.5l3.31,54.6,49.94,5-.65,35a27,27,0,0,1-12.66,22.35l-5.71,3.58a60,60,0,0,1-63.45,2.56Z"/><path class="cls-16" d="M487.43,376.69l-6.21-35.54a18.62,18.62,0,0,1,14.09-20.88l3.27-.78,1.11-66a10.11,10.11,0,0,1,10.1-9.94h0a10.12,10.12,0,0,1,10.09,9.5L521,311.7l52.09.91v33.31a35.07,35.07,0,0,1-12.75,27"/><rect class="cls-9" x="562.81" y="288.35" width="18.78" height="35.46" rx="9.39"/><circle class="cls-17" cx="572.2" cy="315.29" r="5.09"/><rect class="cls-9" x="542.18" y="284.66" width="20.63" height="39.14" rx="9.39"/><circle class="cls-17" cx="552.5" cy="315.29" r="5.53"/><rect class="cls-9" x="521.55" y="280.97" width="20.63" height="42.83" rx="9.39"/><circle class="cls-17" cx="531.87" cy="315.29" r="5.86"/><circle class="cls-17" cx="523.39" cy="322.58" r="5.53"/><path class="cls-16" d="M498.58,319.49l26.53-4.13a5.86,5.86,0,0,1,6.76,5.78h0a14,14,0,0,1-6.68,12l-9.46,5.82s15.24,7.58,15,29.14"/><polygon class="cls-7" points="230.74 263.04 151.04 263.04 151.04 198.04 260.76 198.04 260.76 291.05 230.74 263.04"/><circle class="cls-2" cx="205.45" cy="227.41" r="5.75"/><circle class="cls-2" cx="230.07" cy="227.41" r="5.75"/><circle class="cls-2" cx="181.74" cy="227.41" r="5.75"/></g></g></svg>