<svg xmlns="http://www.w3.org/2000/svg" viewBox="0 0 2000 1700"><defs><style>.cls-1{fill:#91e6f0;}.cls-10,.cls-12,.cls-16,.cls-17,.cls-18,.cls-19,.cls-2,.cls-20,.cls-21,.cls-24,.cls-25,.cls-5,.cls-6,.cls-8,.cls-9{fill:none;}.cls-10,.cls-13,.cls-2,.cls-5,.cls-6,.cls-8{stroke:#fff;}.cls-10,.cls-12,.cls-13,.cls-14,.cls-18,.cls-19,.cls-2,.cls-20,.cls-21,.cls-22,.cls-24,.cls-25,.cls-8,.cls-9{stroke-miterlimit:10;}.cls-10,.cls-13,.cls-18,.cls-19,.cls-2,.cls-26,.cls-5,.cls-8{stroke-width:6px;}.cls-2{stroke-dasharray:13.31 13.31;}.cls-14,.cls-22,.cls-26,.cls-3,.cls-7{fill:#fff;}.cls-23,.cls-4{fill:#ffb400;}.cls-12,.cls-14,.cls-16,.cls-17,.cls-18,.cls-20,.cls-21,.cls-25,.cls-5,.cls-6,.cls-8,.cls-9{stroke-linecap:round;}.cls-16,.cls-17,.cls-23,.cls-26,.cls-5,.cls-6,.cls-7{stroke-linejoin:round;}.cls-20,.cls-6{stroke-width:5.57px;}.cls-12,.cls-24,.cls-25,.cls-7{stroke:#004c85;}.cls-7{stroke-width:4.45px;}.cls-14,.cls-16,.cls-17,.cls-20,.cls-21,.cls-22,.cls-23,.cls-26,.cls-9{stroke:#004d8b;}.cls-14,.cls-17,.cls-22,.cls-23,.cls-24,.cls-25,.cls-9{stroke-width:7px;}.cls-11{fill:#004c85;}.cls-12{stroke-width:6.68px;}.cls-13{fill:#ffb900;}.cls-15{fill:#004d8b;}.cls-16{stroke-width:6.72px;}.cls-18,.cls-19{stroke:#91e6f0;}.cls-21{stroke-width:5.01px;}</style></defs><g id="Слой_1" data-name="Слой 1"><g id="WEB_PAGE"><rect class="cls-1" x="520.6" y="409.58" width="957.66" height="831.14" rx="57.88"/><rect class="cls-2" x="638.47" y="879.35" width="322.37" height="259.79" rx="26.93"/><circle class="cls-3" cx="674.99" cy="496.45" r="46.39"/><circle class="cls-4" cx="674.99" cy="478.34" r="7.79"/><path class="cls-4" d="M663,497.63h0a14.9,14.9,0,0,1,24.08,0h0a12.56,12.56,0,0,1-10.15,20H673.1A12.56,12.56,0,0,1,663,497.63Z"/><line class="cls-5" x1="768.55" y1="496.45" x2="932.37" y2="496.45"/><rect class="cls-3" x="628.6" y="569.15" width="335.8" height="259.79" rx="26.31"/><rect class="cls-1" x="719.53" y="635.72" width="153.95" height="126.65"/><line class="cls-6" x1="719.53" y1="635.72" x2="873.48" y2="762.37"/><line class="cls-6" x1="873.48" y1="635.72" x2="719.53" y2="762.37"/><rect class="cls-7" x="714.07" y="630.05" width="11.68" height="11.68"/><rect class="cls-7" x="867.13" y="630.05" width="11.68" height="11.68"/><rect class="cls-7" x="714.07" y="756.29" width="11.68" height="11.68"/><rect class="cls-7" x="867.13" y="756.29" width="11.68" height="11.68"/><path class="cls-4" d="M942.09,602.74a3.49,3.49,0,0,1,0,5,3.49,3.49,0,0,1-5,0l-5.45-5.45-5.46,5.45a3.5,3.5,0,0,1-5-5l5.46-5.45-5.46-5.46a3.5,3.5,0,0,1,5-5l5.46,5.46,5.45-5.46a3.5,3.5,0,0,1,5,5l-5.45,5.46Z"/><rect class="cls-8" x="1079.72" y="577.04" width="229.3" height="20.24" rx="9.21"/><rect class="cls-8" x="1079.01" y="649.63" width="150.41" height="20.24" rx="10.12"/><rect class="cls-8" x="1079.01" y="722.21" width="229.3" height="20.24" rx="10.12"/><circle class="cls-8" cx="1262.72" cy="659.75" r="10.12"/><rect class="cls-5" x="1014.31" y="469.27" width="360.12" height="56.68" rx="28.34"/><circle class="cls-3" cx="1346.88" cy="497.61" r="19.99"/><path class="cls-4" d="M1358.29,507.3l-3.79-5a11.12,11.12,0,1,0-8.41,3.85,11,11,0,0,0,4.37-.9l3.84,5.08a2.49,2.49,0,0,0,2,1,2.44,2.44,0,0,0,1.51-.51A2.5,2.5,0,0,0,1358.29,507.3ZM1340,495a6.12,6.12,0,1,1,6.12,6.12A6.13,6.13,0,0,1,1340,495Z"/><circle class="cls-4" cx="1049.33" cy="497.42" r="5.57"/><circle class="cls-4" cx="1066.69" cy="497.42" r="5.57"/><circle class="cls-4" cx="1084.04" cy="497.42" r="5.57"/><path class="cls-4" d="M1080.38,1269.91a9,9,0,0,1-6.41-2.65l-13.41-13.41-3.77,3.77a8.5,8.5,0,0,1-14.5-6v-30.76a8.51,8.51,0,0,1,8.5-8.5h30.75a8.5,8.5,0,0,1,6.06,14.46l-3.64,3.88,13.29,13.29a9.08,9.08,0,0,1,0,12.83l-10.45,10.45A9,9,0,0,1,1080.38,1269.91Zm-19.82-24.51a3.46,3.46,0,0,1,2.47,1l15.89,15.88a2.07,2.07,0,0,0,2.93,0l10.45-10.45a2.07,2.07,0,0,0,0-2.93l-15.69-15.69a3.5,3.5,0,0,1-.08-4.87l6-6.38.07-.08a1.5,1.5,0,0,0-1.06-2.56h-30.75a1.5,1.5,0,0,0-1.5,1.5v30.76a1.5,1.5,0,0,0,2.55,1.06l6.24-6.24A3.48,3.48,0,0,1,1060.56,1245.4Z"/></g><g id="SPARKLES"><path class="cls-4" d="M1430.86,362a3.5,3.5,0,0,1-4.95,5l-5.82-5.82-5.83,5.82a3.5,3.5,0,1,1-5-5l5.82-5.83-5.82-5.82a3.5,3.5,0,1,1,5-5l5.83,5.83,5.82-5.83a3.5,3.5,0,0,1,4.95,5l-5.82,5.82Z"/><path class="cls-1" d="M402.39,550.36a3.5,3.5,0,0,1-4.95,4.95L392,549.85l-5.46,5.46a3.5,3.5,0,1,1-4.95-4.95L387,544.9l-5.46-5.46a3.5,3.5,0,1,1,4.95-5L392,540l5.45-5.46a3.5,3.5,0,0,1,4.95,5l-5.46,5.46Z"/><path class="cls-1" d="M1685.76,942.65a3.49,3.49,0,0,1,0,5,3.49,3.49,0,0,1-5,0l-5.45-5.45-5.46,5.45a3.5,3.5,0,0,1-5-5l5.46-5.45-5.46-5.46a3.5,3.5,0,0,1,5-5l5.46,5.46,5.45-5.46a3.5,3.5,0,0,1,5,5l-5.45,5.46Z"/><path class="cls-1" d="M787.06,1315a3.5,3.5,0,0,1-4.95,5l-5.46-5.46-5.46,5.46a3.5,3.5,0,0,1-5-5l5.46-5.46-5.46-5.46a3.5,3.5,0,0,1,5-4.95l5.46,5.46,5.46-5.46a3.5,3.5,0,1,1,4.95,4.95l-5.46,5.46Z"/></g><g id="WOMAN"><line class="cls-9" x1="1386.82" y1="969.46" x2="1438.88" y2="1051.93"/><g id="WEB_PAGE-2" data-name="WEB_PAGE"><rect class="cls-4" x="1048.73" y="831.99" width="335.8" height="259.79" rx="26.31" transform="translate(379.68 -343.85) rotate(19.01)"/><line class="cls-10" x1="1343.45" y1="1109.23" x2="1027.38" y2="997.08"/><path class="cls-10" d="M1195.92,1011.43l69.9-19.95a13.46,13.46,0,0,0,7.33-20.66l-41.69-59.55a13.46,13.46,0,0,0-23.71,3.22L1179.54,994A13.46,13.46,0,0,0,1195.92,1011.43Z"/><polygon class="cls-11" points="1249.24 1240.71 1215.31 1240.71 1132.79 1125.09 1249.24 1240.71"/><path class="cls-12" d="M1142.41,840.89V800.06a14.21,14.21,0,0,1,14.21-14.21h0a14.21,14.21,0,0,1,14.21,14.21"/><circle class="cls-11" cx="1135.23" cy="872.48" r="39.13"/><circle class="cls-4" cx="1142.41" cy="865.36" r="36.57"/><path class="cls-8" d="M1171.16,888a36.57,36.57,0,1,1,6.25-33.2"/><path class="cls-8" d="M1178.55,871a35.88,35.88,0,0,1-1.13,4.95"/><path class="cls-3" d="M1153.21,873a10.72,10.72,0,0,1-8.58,9.73l0,.94a3.29,3.29,0,0,1-6.57-.31l0-.94a11.25,11.25,0,0,1-6.69-5.81,3.19,3.19,0,0,1,3.07-4.49,3.29,3.29,0,0,1,2.76,1.88,5.12,5.12,0,0,0,4.42,2.64c2.76.13,5.08-1.64,5.19-3.94s-2-4.28-4.8-4.41c-5.44-.26-9.68-4.59-9.44-9.67a9.25,9.25,0,0,1,7-8.36l.05-1.17a3.29,3.29,0,0,1,3.44-3.13,3.37,3.37,0,0,1,2.28,1.07,3.33,3.33,0,0,1,.85,2.37l-.06,1.15a9.73,9.73,0,0,1,5.18,4.51,3,3,0,0,1-2.79,4.31l-.52,0a3.08,3.08,0,0,1-2.44-1.53,3.72,3.72,0,0,0-3-1.57c-1.93-.09-3.57,1.1-3.64,2.67s1.44,2.9,3.37,3C1148.59,862.25,1153.48,867.23,1153.21,873Z"/><path class="cls-1" d="M1383.81,909.12l-6.85,3.56,3.56,6.85a3.49,3.49,0,0,1-1.49,4.72,3.43,3.43,0,0,1-1.61.4,3.52,3.52,0,0,1-3.11-1.89l-3.56-6.85-6.85,3.56a3.43,3.43,0,0,1-1.61.4,3.5,3.5,0,0,1-1.62-6.61l6.85-3.56-3.56-6.85a3.5,3.5,0,1,1,6.21-3.23l3.56,6.85,6.85-3.56a3.5,3.5,0,0,1,3.23,6.21Z"/><circle class="cls-13" cx="1293.23" cy="1091.6" r="8"/></g><g id="HAND"><path class="cls-14" d="M1302.09,850.74l-5.94-20.44a19.28,19.28,0,0,0-11.48-12.57h0a19.29,19.29,0,0,0-18.69,2.6l-14.5,11a11.47,11.47,0,0,0,2.91,19.87h0a11.45,11.45,0,0,0,8.17,0l19.52-7.54Z"/><path class="cls-14" d="M1332.21,860.22,1330,844.14a22,22,0,0,0-14.77-17.82h0a22.06,22.06,0,0,0-23.12,5.78l-12.88,13.69a13.72,13.72,0,0,0,5.16,22.24h0a13.72,13.72,0,0,0,13.91-2.57l14-12.34Z"/><path class="cls-14" d="M1360.59,871.18l-2.25-16.08a22,22,0,0,0-14.78-17.82h0a22,22,0,0,0-23.12,5.78l-12.88,13.69a13.72,13.72,0,0,0,5.16,22.24h0a13.74,13.74,0,0,0,13.92-2.57l13.94-12.34Z"/><circle class="cls-4" cx="1257.46" cy="840.99" r="6.78"/><circle class="cls-4" cx="1287.64" cy="856.61" r="7.04"/><circle class="cls-4" cx="1316.11" cy="867.51" r="7.3"/></g><g id="BODY_HAND" data-name="BODY &amp; HAND"><path class="cls-3" d="M1712.91,1321h-242.1l-5.23-73.38-57.15,40.49a94.63,94.63,0,0,1-121.35-10l-154.29-153-90.43-33.59a27.45,27.45,0,0,1-16.84-18.15c-3.54-12.28-8.7-30.15-11.72-40.63a7,7,0,0,1-.29-2,7.22,7.22,0,0,1,6.7-7.18,14.75,14.75,0,0,1,15.8,14.71c0-3.41,0-7.06,0-10a5.7,5.7,0,0,1,5.7-5.7h.16a23.17,23.17,0,0,1,22.57,23v.22l44.1,13.38a4.16,4.16,0,0,0,4.08-7l-24.4-23.16a7.65,7.65,0,0,1,7.32-12.91l38,10.54a54.55,54.55,0,0,1,19.14,9.69l182.57,123.89L1513,974.47a68.46,68.46,0,0,1,46-17.75c29.46,0,49.58,18.79,56.74,38.37Z"/><polygon class="cls-1" points="1469.16 1248.45 1528.87 1199.47 1473.96 1320.99 1469.16 1248.45"/><path class="cls-9" d="M1470.81,1321l-5.23-73.38-55.89,40.44a94.65,94.65,0,0,1-122.12-9.47l-154.78-153.49-90.43-33.59a27.45,27.45,0,0,1-16.84-18.15c-3.54-12.28-8.7-30.15-11.72-40.63a7,7,0,0,1-.29-2,7.22,7.22,0,0,1,6.7-7.18,14.75,14.75,0,0,1,15.8,14.71"/><path class="cls-9" d="M1051.3,1094.43a24.67,24.67,0,0,1-15.29-22.82l0-43.36a5.7,5.7,0,0,1,5.7-5.7h.16a23.17,23.17,0,0,1,22.57,23v.22l44.1,13.38a4.16,4.16,0,0,0,4.08-7l-24.4-23.16a7.65,7.65,0,0,1,7.32-12.91l38,10.54a54.55,54.55,0,0,1,19.14,9.69l182.57,123.89L1513,974.47c12.58-11.42,29-16.17,46-16.17"/><line class="cls-9" x1="1064.46" y1="1045.72" x2="1064.46" y2="1059.85"/><line class="cls-9" x1="1329.61" y1="1156.35" x2="1348.56" y2="1170.13"/><line class="cls-9" x1="1465.59" y1="1247.61" x2="1526.88" y2="1197.05"/><path class="cls-4" d="M1039.54,1027.66c4.55,0,8.23,3.34,8.23,7.46s-3.68,7.46-8.23,7.46Z"/><path class="cls-4" d="M1016.78,1030.93a7.46,7.46,0,1,1,4.15,14.33Z"/><path class="cls-4" d="M1107.84,1022.75c-1.23,4.38-5.44,7-9.4,5.92s-6.2-5.55-5-9.94Z"/><path class="cls-4" d="M1194.6,1082.44l-4.15,4.5a10,10,0,0,0-7.25-2.56,10.17,10.17,0,0,0-7,3.18,9.8,9.8,0,0,0,.55,13.84l-4.15,4.5a9.8,9.8,0,0,0-16.44,7.59,9.79,9.79,0,0,0,3.14,6.82l-4.15,4.5a10.37,10.37,0,0,0-7.28-2.69h0c-4.41.48-6.51,2.93-8.25,4.77l-4.62-4.62c2.83-2.82,6.85-6.19,12.74-6.27a18.86,18.86,0,0,1,2.61.14,15.91,15.91,0,0,1,17.45-18.85,16.56,16.56,0,0,1-.29-2.45,15.81,15.81,0,0,1,4.21-11.44,16.37,16.37,0,0,1,11.27-5.14h.27a16.62,16.62,0,0,1,2.45.12,15.89,15.89,0,0,1,3.43-13.39l5.16,3.42A10.1,10.1,0,0,0,1194.6,1082.44Z"/></g><g id="HEAD"><path class="cls-3" d="M1616.47,874.09V876a16.8,16.8,0,0,1-16.8,16.8h-9.29l14.89,55.15H1531.4l2-40.77a19.54,19.54,0,0,1-17.82-27.67L1536.25,834a13.86,13.86,0,0,1,12.61-8.12c9.16,0,17.46,5.29,23.47,12.88s9.72,17.46,9.72,26.63v8.18l1.77-5a16.8,16.8,0,0,1,32.65,5.56Z"/><path class="cls-9" d="M1530.65,963.47l2.74-56.32h0a19.58,19.58,0,0,1-17.82-27.67L1536.25,834"/><path class="cls-15" d="M1515.72,871.49l-5.07-4.09a4.44,4.44,0,0,1,2.82-8,10.9,10.9,0,0,0,10.28-6.37Z"/><polygon class="cls-15" points="1533.86 903.89 1558.79 901.63 1532.33 928.82 1533.86 903.89"/><circle class="cls-1" cx="1557.7" cy="878.44" r="12.25"/><polyline class="cls-16" points="1598.13 871.49 1594.89 878.17 1601.67 878.17"/><circle class="cls-11" cx="1538.6" cy="857" r="3.36"/><path class="cls-17" d="M1529.82,875c-2.84,2.74-7.57,2.45-10.57-.65"/><path class="cls-4" d="M1683.29,753.89a27.55,27.55,0,0,1-34.22,26.79,27.58,27.58,0,0,1-16.79,38.48,27.51,27.51,0,1,1-7.81-53.86,26.81,26.81,0,0,1,6.62.83,27.57,27.57,0,0,1,24.81-39.66,27.6,27.6,0,0,1,27.39,27.42Z"/><path class="cls-4" d="M1619.92,856.53a39.73,39.73,0,0,1-3.5,16.35,16.79,16.79,0,0,0-32.6-4.35l-.83,2.37-.93,2.65h0l-2.88-2.61a11.38,11.38,0,0,0-7.14-14.18l-52.14-18,4.84-11.65a32.77,32.77,0,0,1,41.68-18.15L1593,818.5A40.62,40.62,0,0,1,1619.92,856.53Z"/><path class="cls-3" d="M1546.49,850.92a2.22,2.22,0,0,1-2-3.19l7.59-15.8a2.23,2.23,0,1,1,4,1.93l-7.59,15.8A2.2,2.2,0,0,1,1546.49,850.92Z"/><path class="cls-3" d="M1555.65,855.65a2.22,2.22,0,0,1-2-3.19l4.24-8.82a2.23,2.23,0,0,1,4,1.93l-4.24,8.82A2.22,2.22,0,0,1,1555.65,855.65Z"/><path class="cls-4" d="M1600.19,939.9a8.31,8.31,0,0,0-7.49,8h-5.57a8.58,8.58,0,0,0-8.39-8.33,8.1,8.1,0,0,0-8.09,8.09h-5.57a8.1,8.1,0,0,0-16.2,0h-5.56a8.3,8.3,0,0,0-7.94-8.45l.26-5.55a13.68,13.68,0,0,1,10.56,5.62,13.64,13.64,0,0,1,21.66.13,13.67,13.67,0,0,1,10.88-5.41,14,14,0,0,1,11.16,5.67,14.09,14.09,0,0,1,8.74-5.27Z"/><path class="cls-9" d="M1582.78,871.49l1-3a16.8,16.8,0,0,1,15.85-11.24h0a16.8,16.8,0,0,1,16.8,16.8V876a16.8,16.8,0,0,1-16.8,16.8h-9.29L1712.91,1321"/></g></g><g id="MAN"><g id="BODY"><polygon class="cls-11" points="852.71 1126.95 781.57 1240.71 745.77 1240.71 852.71 1126.95"/><path class="cls-3" d="M852.71,1127,716.58,1269.11c-48.69,51.23-99.67,54.63-149.39,9.68H304.1L426.37,675.45a87.5,87.5,0,0,1,18.21-38.24l76-92.31V799.23l27.57,44.88,90.19,271.06,137.83-81.85Z"/><polygon class="cls-11" points="517.68 714.28 520.73 710.94 520.73 534.34 500.8 561 517.68 714.28"/><polygon class="cls-1" points="562.92 1278.79 492.52 1278.79 431.44 1146.65 562.92 1278.79"/><path class="cls-18" d="M819,1158.45c-51.45,5.9-94.64-42.33-82.68-94"/><circle class="cls-19" cx="808.18" cy="1140.1" r="7.39"/><line class="cls-9" x1="590.38" y1="1142.97" x2="776.19" y2="1033.32"/><line class="cls-9" x1="627.71" y1="1121.05" x2="585.89" y2="1121.05"/><path class="cls-9" d="M431.44,1141.29,558.8,1270.75c52.36,53.22,111.09,52.48,162.52-1.64l101.23-105.17"/><path class="cls-9" d="M304.09,1278.79l120.7-603.34A87.49,87.49,0,0,1,443,637.2l74.43-92.3"/></g><g id="HANDS"><path class="cls-4" d="M798.18,409.68l17.44-15a14,14,0,0,1,22.08,5.16L844.14,415a13.92,13.92,0,0,1-12.81,19.36h0a13.92,13.92,0,0,1-12.05-6.95L809,409.68Z"/><path class="cls-4" d="M766.62,409.68l17.45-15a14,14,0,0,1,22.07,5.16L812.58,415a13.92,13.92,0,0,1-12.81,19.36h0a13.92,13.92,0,0,1-12-6.95l-10.26-17.75Z"/><path class="cls-4" d="M735.06,409.68l17.45-15a14,14,0,0,1,22.07,5.16L781,415a13.92,13.92,0,0,1-12.81,19.36h0a13.92,13.92,0,0,1-12.05-6.95l-5.9-10.21a15.11,15.11,0,0,0-13.07-7.54Z"/><line class="cls-20" x1="809.43" y1="401.85" x2="815.87" y2="417.01"/><line class="cls-20" x1="777.97" y1="401.85" x2="783.94" y2="420.89"/><path class="cls-20" d="M763,429.52l-1.27-4.72a8.25,8.25,0,1,1,15.92-4.31l1.2,4.42"/><path class="cls-20" d="M794.17,429.52l-1.28-4.72a8.25,8.25,0,1,1,15.92-4.31l1.2,4.42"/><path class="cls-20" d="M825.81,429.52l-1.28-4.72a8.25,8.25,0,1,1,15.93-4.31l1.2,4.42"/><path class="cls-4" d="M784.71,1004.62a29.74,29.74,0,0,1,35-15.69l14.73,4.22h0l38.38-24.09a9.85,9.85,0,0,1,12.33,1.52l.16.17a10.17,10.17,0,0,1,0,14.2c-13.42,13.63-41.69,42.39-42.57,43.29l15.25-13.12a11.89,11.89,0,0,1,16.36.81l.55.58a11.88,11.88,0,0,1,.09,16.3l-14.84,15.94,14-15.08a11.88,11.88,0,0,1,17.13-.28l1,1a11.88,11.88,0,0,1,.31,16.44,11.89,11.89,0,0,1,17,16.63L852.71,1127l-14.62,1.63c-44.88,5-81.16-36-70.72-79.93Z"/><line class="cls-9" x1="896.79" y1="1047.25" x2="878.69" y2="1064.82"/><line class="cls-9" x1="860.1" y1="1048.75" x2="879.11" y2="1028.99"/><line class="cls-9" x1="861.52" y1="1011.08" x2="842.67" y2="1028.26"/><path class="cls-21" d="M877.6,970l-2.83,2.3a6.27,6.27,0,0,0,7.9,9.73l3.1-2.52"/><line class="cls-9" x1="811.78" y1="1004.45" x2="829.26" y2="993.15"/></g><g id="HEAD-2" data-name="HEAD"><path class="cls-22" d="M499.41,771.52V741.81a29.88,29.88,0,0,1,21.68-28.73l51.54-14.72A12.11,12.11,0,0,1,588.07,710v56.72Z"/><path class="cls-23" d="M548.17,844.11V804.38l27.2,4.32A10.84,10.84,0,0,0,587.92,798L588,721.5a5.32,5.32,0,0,0-8.29-4.45c-7.15,4.85-19.34,8.59-38.23,1.28,0,0,7.21,23.66-10.52,36.4l-.25-1a15.88,15.88,0,0,0-15.45-12.2h0a15.89,15.89,0,0,0-15.89,15.89v14.11l-46,61,8.89-5.78a62,62,0,0,1,81.31,12Z"/><path class="cls-24" d="M499.41,762.84A16.57,16.57,0,0,0,516,779.41h9.58"/><polygon class="cls-11" points="550.46 801.41 532.47 794.43 548.17 829.62 550.46 801.41"/><path class="cls-23" d="M588.07,742.27l12.07,26.29a4.7,4.7,0,0,1-4.27,6.66h-7.8Z"/><path class="cls-25" d="M570,755.65c0,1.76-2,4.42-4.44,4.42a4.59,4.59,0,0,1-4.43-4.42"/><circle class="cls-1" cx="548.42" cy="775.22" r="11.45"/><path class="cls-26" d="M588.58,777.6a26.69,26.69,0,0,1-13.5-3.6,3.37,3.37,0,0,0-4.81,4.26c2.29,5.1,7.33,10.66,18.31,12.92Z"/><polyline class="cls-17" points="517.56 756.73 520.8 763.41 514.01 763.41"/></g></g></g></svg>