<svg xmlns="http://www.w3.org/2000/svg" viewBox="0 0 2000 1700"><defs><style>.cls-1{fill:#91e6f0;}.cls-10,.cls-12,.cls-14,.cls-15,.cls-18,.cls-2,.cls-20,.cls-21,.cls-22,.cls-23,.cls-4,.cls-6,.cls-9{fill:none;}.cls-13,.cls-15,.cls-16,.cls-2,.cls-4,.cls-6,.cls-7{stroke:#004d89;}.cls-10,.cls-11,.cls-12,.cls-13,.cls-14,.cls-2,.cls-22,.cls-23,.cls-6,.cls-9{stroke-linecap:round;}.cls-10,.cls-11,.cls-12,.cls-13,.cls-14,.cls-15,.cls-16,.cls-18,.cls-2,.cls-23,.cls-4,.cls-6,.cls-7,.cls-9{stroke-linejoin:round;}.cls-12,.cls-13,.cls-14,.cls-19,.cls-2,.cls-4,.cls-7,.cls-9{stroke-width:7px;}.cls-11,.cls-16,.cls-3,.cls-7{fill:#fff;}.cls-13,.cls-19,.cls-5{fill:#ffb400;}.cls-10,.cls-15,.cls-16,.cls-20,.cls-21,.cls-22,.cls-6{stroke-width:6px;}.cls-8{fill:#004d89;}.cls-9{stroke:#91e6f0;}.cls-10,.cls-14,.cls-18,.cls-19,.cls-21,.cls-22,.cls-23{stroke:#fff;}.cls-11{stroke:#004b82;stroke-width:6.63px;}.cls-12,.cls-20{stroke:#ffb400;}.cls-17{fill:#004b82;}.cls-18{stroke-width:5.53px;}.cls-19,.cls-20,.cls-21,.cls-22{stroke-miterlimit:10;}.cls-23{stroke-width:5px;}</style></defs><g id="Слой_1" data-name="Слой 1"><g id="_1_MAN" data-name="1 MAN"><g id="BODY"><path class="cls-1" d="M658.88,783.32l-74.71-35.64A78.39,78.39,0,0,0,469.4,788.9l-72.32,216.94c-22.16,63.7,25.14,132.79,92.58,132.79H700.32l16.14-106.76,35.21,58.87a93.16,93.16,0,0,0,79.93,45.33h0a93.13,93.13,0,0,0,91.65-76.62l47.17-256.17L850,788.46,813.32,898.32,744.05,776.55a65.34,65.34,0,0,0-72.95-31l-8.84,2.25Z"/><line class="cls-2" x1="716.46" y1="1031.87" x2="524.4" y2="978.12"/><line class="cls-2" x1="574.73" y1="901.63" x2="546.53" y2="984.31"/><line class="cls-2" x1="726.92" y1="925.29" x2="703.1" y2="1027.88"/><line class="cls-2" x1="813.32" y1="898.32" x2="793.13" y2="957.02"/><path class="cls-3" d="M716.46,1031.87l46.23,10.64-13.21,93.56H700.32S687.85,1076.26,716.46,1031.87Z"/><polyline class="cls-2" points="716.46 1031.87 762.69 1042.51 749.48 1136.07 700.32 1136.07"/><line class="cls-2" x1="743.58" y1="1115.91" x2="717.28" y2="1115.91"/><line class="cls-2" x1="743.12" y1="1088.93" x2="706.8" y2="1086.73"/><line class="cls-2" x1="749.94" y1="1064.26" x2="724.96" y2="1058.93"/><path class="cls-3" d="M850,794.13l11-37.06L977,764l-7.33,38.16S912,829.35,850,794.13Z"/><polyline class="cls-4" points="851.58 795.7 861.81 757.82 976.95 762.48 966.48 805.34"/><line class="cls-2" x1="913.46" y1="771.64" x2="908.68" y2="797.89"/><line class="cls-2" x1="946.83" y1="770.58" x2="943.91" y2="790.1"/><line class="cls-2" x1="880.66" y1="766.03" x2="875" y2="790.1"/></g><g id="HEAD"><path class="cls-5" d="M712.74,602c0,10.86-8.73,19.89-20.21,21.68a26.61,26.61,0,0,1-4.22.33,25.41,25.41,0,0,1-19.28-8.5,25.45,25.45,0,0,1-19.29,8.5,26.83,26.83,0,0,1-8.28-1.3l-2.08,32L605.12,654l-13.68-48.9A20.33,20.33,0,0,1,611.17,580a25.43,25.43,0,0,1,19.29,8.49,26.15,26.15,0,0,1,38.57,0A25.41,25.41,0,0,1,688.31,580C701.8,580,712.74,589.82,712.74,602Z"/><path class="cls-3" d="M710.33,664l-12.41,3.95,3.13,26.82a12.8,12.8,0,0,1-12.81,12.8h-13.6L662.26,747.8l15.39,23.93L664.77,795,595.1,755.74l-31.52-17.65,46.49-62.83h-4.78a20.17,20.17,0,0,1-20.17-20.17v-2.22a20.16,20.16,0,0,1,20.17-20.17c7.84,0,18.72,5.14,23.12,22h0a13.7,13.7,0,0,0,11.73-12.62l1.32-19.4a26.78,26.78,0,0,0,8.28,1.3,25.45,25.45,0,0,0,19.29-8.5,25.4,25.4,0,0,0,19.28,8.5c1.44,0,7.55-.11,8.92-.32l14.94,35.68A3.22,3.22,0,0,1,710.33,664Z"/><path class="cls-2" d="M585,709.17l25.1-33.91h-4.78a20.17,20.17,0,0,1-20.17-20.17v-2.22a20.17,20.17,0,0,1,38.45-8.53l5.68,10.75"/><path class="cls-4" d="M697.23,622.1l14.94,37.25a3.22,3.22,0,0,1-1.84,4.62l-12.41,3.95,3.13,26.82a12.8,12.8,0,0,1-12.81,12.8h-13.6L662.26,747.8"/><path class="cls-2" d="M627.8,683.77a24.72,24.72,0,0,0,20.45,19.65l26.39,4.12"/><polyline class="cls-2" points="606.11 649.19 614.96 658.87 602.97 658.87"/><path class="cls-6" d="M678.77,646c0,3.65-2.44,6.61-5.44,6.61s-5.43-3-5.43-6.61"/><path class="cls-7" d="M697.92,667.92l-23.28,4.65s2.08,15.6,25.13,14.43Z"/><path class="cls-8" d="M678.63,680.3,699,677.49l.14,1.17A7.65,7.65,0,0,1,687.44,686Z"/><circle class="cls-1" cx="651.22" cy="667.92" r="13.06"/><polyline class="cls-2" points="678.77 772.29 662.26 747.8 584.97 709.17 563.57 738.09"/><line class="cls-2" x1="662.26" y1="747.8" x2="635.9" y2="776.3"/></g><g id="HANDS"><path class="cls-7" d="M861.81,757.82l12.64-43.91a43,43,0,0,1,27.16-28.14L950,669.14a4.66,4.66,0,0,1,6,3.24l.07.27a18.86,18.86,0,0,1-13,22.82L934.43,698l36-8.89,22.34-28.85a14.21,14.21,0,0,1,20.71-.15l1.62,1.7,3.53-3.87a12.77,12.77,0,0,1,18.78-.13l1.82,1.94,1.75-1.54a14.35,14.35,0,0,1,19.8.86h0a9.54,9.54,0,0,1,1.79,10.59L1035,729.74a28.61,28.61,0,0,1-15.23,14.56l-47.25,21.13S908,784.35,861.81,757.82Z"/><path class="cls-4" d="M1039.2,659.74l-23.78,45.34-57.21,10.3A42,42,0,0,0,930.32,734"/><line class="cls-4" x1="1015.07" y1="661.8" x2="988.18" y2="709.98"/><path class="cls-7" d="M960.25,1115.91c-74.36-15.49-123-100.41-123-100.41L817,1013.22a46.85,46.85,0,0,0-38.35,13.39l-15.94,15.9c-36.06,47.85-13.21,93.56-13.21,93.56H910.36a61.62,61.62,0,0,0,32.71-9.4Z"/></g></g><g id="_2_MAN" data-name="2 MAN"><g id="BODY-2" data-name="BODY"><path class="cls-5" d="M1584.74,1078l-163.12,174.78-97.69-56.5,54.06-77-387.46-6-17.08-115,158.36-28.39L1183,832.41a108.49,108.49,0,0,1,87.08-62.35l100.43-11.24,9.28-31.45,34.33,26.57,13.22-1.48A94.08,94.08,0,0,1,1523.88,808l74.77,169.47A88.12,88.12,0,0,1,1584.74,1078Z"/><line class="cls-9" x1="1231.57" y1="905.66" x2="1267.63" y2="1025.6"/><circle class="cls-2" cx="1323.19" cy="1004.31" r="7.74"/><line class="cls-2" x1="1415.75" y1="755.22" x2="1346.84" y2="849.6"/><path class="cls-2" d="M1591.94,973.49c-24,4.65-42.28,29-42.28,58.43,0,22.06,10.31,41.3,25.59,51.49"/><polygon class="cls-1" points="1281.98 756.7 1311.48 969.84 1379.77 727.37 1367.61 712.96 1281.98 756.7"/><path class="cls-8" d="M1303,759.83l25.88,25.52-16.47,8.26,27.41,80.29-28.92,103.37L1297,865.06l6.9-70.53-13.18-6.64a1.94,1.94,0,0,1-.51-2.36Z"/><polyline class="cls-10" points="1357.98 766.75 1328.26 783 1302.97 759.84 1289.5 785.35"/><line class="cls-2" x1="1379.77" y1="727.37" x2="1298.25" y2="1023.12"/><line class="cls-2" x1="1255.15" y1="774.87" x2="1300.46" y2="864.66"/></g><g id="HAND"><path class="cls-3" d="M945.26,1108.63c-18.53-6.5-51.51-22.52-83.41-60.16L848,1061.74a28.36,28.36,0,0,1-30.42,5.72l-9.66-4,27.43-45.08a20.91,20.91,0,0,1,16.54-10l81-3.38Z"/><path class="cls-2" d="M960.25,1115.91s-50.44-10.85-98.4-67.43L848,1061.74a28.38,28.38,0,0,1-30.43,5.72h0a8.94,8.94,0,0,1-4.23-12.9l22-36.16a20.91,20.91,0,0,1,16.54-10l80.59-3.31"/><rect class="cls-7" x="783.75" y="1105.76" width="30.37" height="47.94" rx="15.19" transform="translate(436.36 -205.61) rotate(20.08)"/><circle class="cls-5" cx="802.94" cy="1118.76" r="8.68"/><rect class="cls-7" x="815.59" y="1107.06" width="30.37" height="47.94" rx="15.19" transform="translate(438.74 -216.46) rotate(20.08)"/><circle class="cls-5" cx="834.7" cy="1120.31" r="8.68"/><polygon class="cls-1" points="973.45 998.26 932.43 1001.4 945.76 1112.78 990.53 1113.24 973.45 998.26"/><path class="cls-7" d="M911.89,1136.07h-35l2.71-8.07a15.19,15.19,0,0,0-9-19.48h0a15.19,15.19,0,0,0-19.48,9l-5.66,16.48c-4.87,14.17,9.5,27.33,23.19,21.25Z"/><circle class="cls-5" cx="865.76" cy="1120.31" r="8.68"/><path class="cls-5" d="M824.39,1043.9c5,3,6.83,9.33,4,14a9.92,9.92,0,0,1-9.53,4.61,3.4,3.4,0,0,1-2.61-5.13Z"/></g><g id="MONEY"><path class="cls-11" d="M1428.45,1176.3c0,84.08-59.78,152.25-137.39,152.25a130.47,130.47,0,0,1-22.57-2c-66.87-11.69-117.94-74.53-117.94-150.29s51.07-138.61,117.94-150.31a130.47,130.47,0,0,1,22.57-2C1368.67,1024,1428.45,1092.2,1428.45,1176.3Z"/><path class="cls-5" d="M1331.32,1192.94c-.75,16-12.89,29-28.8,32.66l-.15,3.18a11,11,0,1,1-22-1l.15-3.17a37.82,37.82,0,0,1-22.44-19.51,10.71,10.71,0,0,1,10.3-15.08,11,11,0,0,1,9.25,6.33c2.43,4.93,8.11,8.55,14.85,8.86,9.27.44,17.07-5.52,17.44-13.24s-6.86-14.38-16.12-14.82c-18.28-.86-32.52-15.42-31.72-32.45.63-13.47,10.44-24.49,23.51-28.1l.18-3.9a11,11,0,0,1,11.54-10.51,11,11,0,0,1,10.52,11.54l-.19,3.87a32.69,32.69,0,0,1,17.4,15.13c3.59,6.75-1.73,14.84-9.37,14.49l-1.76-.09a10.35,10.35,0,0,1-8.19-5.11c-1.88-3-5.65-5.08-10-5.29-6.48-.3-12,3.7-12.2,9s4.83,9.73,11.31,10C1315.82,1156.69,1332.24,1173.41,1331.32,1192.94Z"/><path class="cls-12" d="M1294,1042.77a110.14,110.14,0,0,1,23.71,2.56"/><path class="cls-12" d="M1235.05,1293.11c-37.37-22.78-62.67-66.55-62.67-116.82,0-66.44,44.2-121.54,102.07-131.8"/><path class="cls-12" d="M1339.67,1052.69a117.07,117.07,0,0,1,38.95,29.19c21.33,24.16,34.26,57.54,34.26,94.41"/><path class="cls-13" d="M1268.49,1326.59a130.47,130.47,0,0,0,22.57,2h-48.58c-77.6,0-129.54-68.17-129.54-152.25S1164.88,1024,1242.48,1024h48.58a130.47,130.47,0,0,0-22.57,2c-66.87,11.7-117.94,74.54-117.94,150.31S1201.62,1314.9,1268.49,1326.59Z"/><line class="cls-14" x1="1396.81" y1="999.04" x2="1376.28" y2="1031.51"/><line class="cls-2" x1="1159.6" y1="1056.83" x2="1186.13" y2="1056.83"/><line class="cls-2" x1="1179.65" y1="1083.51" x2="1140.48" y2="1083.51"/><line class="cls-2" x1="1140.4" y1="1101.34" x2="1131" y2="1101.34"/><line class="cls-2" x1="1166.32" y1="1101.34" x2="1151.8" y2="1101.34"/><line class="cls-2" x1="1150.55" y1="1173.16" x2="1112.94" y2="1173.16"/><line class="cls-2" x1="1114.5" y1="1197.8" x2="1134.13" y2="1197.8"/><line class="cls-2" x1="1161.77" y1="1236" x2="1131.74" y2="1236"/><line class="cls-2" x1="1145.84" y1="1280.47" x2="1188.54" y2="1280.47"/><line class="cls-2" x1="1158.3" y1="1293.1" x2="1201" y2="1293.1"/><line class="cls-12" x1="1090.75" y1="1172.76" x2="1040.25" y2="1172.76"/><line class="cls-12" x1="1021.88" y1="1172.76" x2="1015.79" y2="1172.76"/><line class="cls-12" x1="1112.94" y1="1282.9" x2="1051.1" y2="1316.01"/><path class="cls-3" d="M1207,1036a3.5,3.5,0,0,1-5,5l-5.4-5.4-5.41,5.4a3.5,3.5,0,1,1-5-5l5.41-5.4-5.41-5.41a3.5,3.5,0,1,1,5-5l5.41,5.41,5.4-5.41a3.5,3.5,0,1,1,5,5l-5.4,5.41Z"/></g><g id="HEAD-2" data-name="HEAD"><polyline class="cls-7" points="1364.71 714.86 1346.13 683.86 1264.72 709.27 1285.1 755.11"/><path class="cls-8" d="M1367.55,651.45a23.27,23.27,0,0,1-18.77,22.82l-11.54,2.27-14.64,39a21.27,21.27,0,0,1-19.91,13.79H1254a15.25,15.25,0,0,1-14.78-19L1256.34,643l-6.07-10.55c-10.1-17.58,6.81-38.35,26.08-32l66.31,21.8-1.23-8.73a3.5,3.5,0,0,1,6.93-1l1,7.15,7.87-2.11a3.5,3.5,0,0,1,1.81,6.76l-7.17,1.93a34.46,34.46,0,0,1,14,16.57A23.16,23.16,0,0,1,1367.55,651.45Z"/><path class="cls-3" d="M1370.79,692.6A21.59,21.59,0,0,1,1343.35,706c-11.29-3.87-15.73-13-11.86-24.31s14.59-20.43,25.88-16.56A21.61,21.61,0,0,1,1370.79,692.6Z"/><path class="cls-15" d="M1343.64,706a22.56,22.56,0,0,0,28.67-14c4-11.78-2.24-23.05-14-27.09s-21.49,3.8-25.53,15.58l-10,25.31"/><polyline class="cls-2" points="1354.64 680.03 1344.73 684.15 1354.63 688.17"/><path class="cls-16" d="M1335,627.18l-16.84,58a16.2,16.2,0,0,1-26,7.89c-10-8.59-24.06-15.34-41.61-10.25l9.56-39.66S1280,646.14,1335,627.18Z"/><polyline class="cls-15" points="1274.23 641.27 1263.79 671.97 1275.39 676.35"/><circle class="cls-17" cx="1286.09" cy="659.51" r="4.8"/><circle class="cls-5" cx="1302.7" cy="681.41" r="12.44"/><path class="cls-18" d="M1261.76,694.46s7.85,2.4,14.77-4.81"/></g><g id="HAND-2" data-name="HAND"><polygon class="cls-5" points="1458.31 1012.92 1324.23 1197.8 1421.62 1252.74 1570.8 1092.9 1458.31 1012.92"/><polyline class="cls-9" points="1408.41 905.66 1458.31 1012.92 1324.23 1199.37"/><polygon class="cls-1" points="1325.79 1191.53 1425.09 1249.48 1399.8 1280.47 1301.86 1220.28 1325.79 1191.53"/><path class="cls-3" d="M1399.8,1280.47l-32.89,41.12c-16.88,18.77-36.24,29.48-61.48,29.48h-64.76a14.39,14.39,0,0,1-14.39-14.21h0a14.39,14.39,0,0,1,14.39-14.57h11.94l49.71-39.56L1279.16,1301a19.4,19.4,0,0,1-22.71,1h0a8,8,0,0,1-2.14-11.23l47.55-70.41Z"/><path class="cls-4" d="M1397.14,1278.16l-30.23,43.43c-22.28,29.48-36.24,29.48-61.48,29.48h-64.76a14.39,14.39,0,0,1-14.39-14.21h0a14.39,14.39,0,0,1,14.39-14.57h11.94l46.58-39.56L1277.6,1301c-6.58,5.18-15.64,5.83-22.72-.61h0c-3.93-3.22-6.28-7.56-3.7-11.24l54-67.4"/><path class="cls-2" d="M1253.68,1351.07c9.37,0,17,0,27.38-9l34.84-32.52"/><path class="cls-2" d="M1284.82,1351.07c10.09,0,20.61,0,30.93-9.67l25.76-24.1"/><path class="cls-5" d="M1263.4,1279.17c4.25,3.58,5,9.69,1.63,13.66a9.35,9.35,0,0,1-9.55,2.88,3.21,3.21,0,0,1-1.67-5.16Z"/><circle class="cls-2" cx="1425.09" cy="1218.26" r="7.74"/></g></g><g id="ICONS"><path class="cls-5" d="M1026.6,569.06H829.7l-41.27,43.88V379.7a30.76,30.76,0,0,1,30.76-30.77H1026.6a30.77,30.77,0,0,1,30.77,30.77V538.29A30.77,30.77,0,0,1,1026.6,569.06Z"/><polyline class="cls-2" points="819.01 502.1 884.1 445.28 943.05 504.24 1006.6 437.61"/><circle class="cls-19" cx="882.44" cy="449.53" r="11.76"/><circle class="cls-19" cx="943.95" cy="497.77" r="8.14"/><polyline class="cls-14" points="998.59 423.73 1020.49 423.73 1020.49 446.65"/><polygon class="cls-8" points="1020.75 494.33 1020.75 569.06 1001.3 569.06 1020.75 494.33"/><path class="cls-1" d="M1214.54,652.26l-30.89-31.35H1042a21.22,21.22,0,0,1-21.23-21.23V492.76A21.23,21.23,0,0,1,1042,471.53h151.33a21.24,21.24,0,0,1,21.23,21.23Z"/><circle class="cls-20" cx="1086.97" cy="529.01" r="9.1"/><path class="cls-20" d="M1068.62,559.88l4.44-6.09a17.22,17.22,0,0,1,27.83,0l4.44,6.09a14.16,14.16,0,0,1-11.44,22.5h-13.83A14.16,14.16,0,0,1,1068.62,559.88Z"/><circle class="cls-20" cx="1150.19" cy="529.01" r="9.1"/><circle class="cls-21" cx="1117.95" cy="519.91" r="9.1"/><path class="cls-22" d="M1108.65,542.13a13.16,13.16,0,0,1,18.61,0"/><path class="cls-20" d="M1131.84,559.88l4.44-6.09a17.22,17.22,0,0,1,27.83,0l4.44,6.09a14.16,14.16,0,0,1-11.45,22.5h-13.82A14.16,14.16,0,0,1,1131.84,559.88Z"/><path class="cls-1" d="M501.88,585.37a3.5,3.5,0,0,1-4.95,5l-5.4-5.4-5.41,5.4a3.5,3.5,0,1,1-4.95-5l5.41-5.4-5.41-5.41a3.5,3.5,0,0,1,4.95-4.95l5.41,5.41,5.4-5.41a3.5,3.5,0,0,1,4.95,4.95l-5.4,5.41Z"/><path class="cls-1" d="M845.05,1231.4a3.49,3.49,0,0,1,0,4.95,3.49,3.49,0,0,1-4.95,0l-5.4-5.4-5.41,5.4a3.49,3.49,0,0,1-4.95,0,3.49,3.49,0,0,1,0-4.95l5.41-5.4-5.41-5.41a3.5,3.5,0,1,1,4.95-4.94l5.41,5.4,5.4-5.4a3.5,3.5,0,1,1,4.95,4.94l-5.41,5.41Z"/><path class="cls-1" d="M1256.35,436a3.49,3.49,0,0,1,0,4.95,3.49,3.49,0,0,1-4.95,0l-5.4-5.4-5.41,5.4a3.48,3.48,0,0,1-4.94,0,3.49,3.49,0,0,1,0-4.95l5.4-5.4-5.4-5.4a3.5,3.5,0,1,1,4.94-4.95l5.41,5.4,5.4-5.4a3.5,3.5,0,1,1,4.95,4.95l-5.4,5.4Z"/><circle class="cls-1" cx="703.1" cy="493.67" r="49.21"/><polygon class="cls-3" points="709.44 506.4 680.54 493.16 680.54 486.04 709.44 472.8 709.44 506.4"/><line class="cls-23" x1="715.98" y1="471.38" x2="715.98" y2="507.82"/><line class="cls-23" x1="674.35" y1="488.27" x2="674.35" y2="490.72"/><path class="cls-3" d="M693.51,504.43v10.32a3.09,3.09,0,0,1-3.32,2.78,3.67,3.67,0,0,1-2.35-.81,2.58,2.58,0,0,1-1-2v-13.2Z"/><path class="cls-3" d="M716.93,484.5c3.56,0,5.84,2.87,5.84,6.42s-2.28,6.42-5.84,6.42"/><line class="cls-23" x1="728.92" y1="490.92" x2="731.85" y2="490.92"/><line class="cls-23" x1="728.26" y1="481.34" x2="729.86" y2="480.43"/><line class="cls-23" x1="729.86" y1="501.09" x2="728.26" y2="500.18"/></g></g></svg>