<svg xmlns="http://www.w3.org/2000/svg" viewBox="0 0 851.03 804.77"><defs><style>.cls-1{fill:#91e6f0;}.cls-2{fill:#fff;}.cls-3,.cls-7{fill:none;stroke-linecap:round;stroke-width:6px;}.cls-3{stroke:#ffb400;stroke-miterlimit:10;}.cls-4{fill:#ffb400;}.cls-5{fill:#004d89;}.cls-6{fill:#9be9ec;}.cls-7{stroke:#004d89;stroke-linejoin:round;}</style></defs><g id="Isolation_Mode" data-name="Isolation Mode"><rect class="cls-1" x="232.16" y="240.88" width="289.9" height="365.49"/><circle class="cls-2" cx="334.82" cy="278.18" r="8.23"/><circle class="cls-2" cx="419.16" cy="278.18" r="8.23"/><path class="cls-3" d="M334.92,277.09V240.53a42.19,42.19,0,0,1,42.19-42.19h0a42.18,42.18,0,0,1,42.18,42.19v36.56"/><line class="cls-3" x1="419.29" y1="296.51" x2="419.29" y2="310.66"/><circle class="cls-2" cx="419.29" cy="329.18" r="20.76"/><path class="cls-1" d="M426.91,334.12a7.16,7.16,0,0,1-5.42,6.76v.64a2.2,2.2,0,0,1-4.4,0v-.64a7.49,7.49,0,0,1-4.64-3.67,2.12,2.12,0,0,1,1.91-3.09,2.17,2.17,0,0,1,1.89,1.17,3.44,3.44,0,0,0,3,1.62,2.84,2.84,0,1,0,0-5.59,6.41,6.41,0,0,1-6.61-6.16,6.2,6.2,0,0,1,4.41-5.8v-.78a2.2,2.2,0,0,1,2.2-2.2,2.19,2.19,0,0,1,2.2,2.2v.77a6.48,6.48,0,0,1,3.6,2.85,2,2,0,0,1-1.73,3H423a2.07,2.07,0,0,1-1.68-.94,2.49,2.49,0,0,0-2-1,1.94,1.94,0,1,0,0,3.79A7.38,7.38,0,0,1,426.91,334.12Z"/><rect class="cls-4" x="422.53" y="371.09" width="196.34" height="235.34"/><polygon class="cls-2" points="302.24 606.42 371.23 449.41 475.67 449.41 406.68 606.42 302.24 606.42"/><polygon class="cls-5" points="406.68 606.42 544.88 606.42 475.67 449.41 406.68 606.42"/><circle class="cls-6" cx="436.15" cy="469.44" r="6.2"/><circle class="cls-6" cx="396.69" cy="469.44" r="6.2"/><path class="cls-7" d="M396.69,468.11V434.82a19.75,19.75,0,0,1,19.75-19.75h0a19.75,19.75,0,0,1,19.75,19.75v33.29"/><polygon class="cls-2" points="544.88 606.42 532.56 606.42 475.67 578.91 418.97 606.42 406.68 606.42 406.87 606 475.67 572.63 544.69 606 544.88 606.42"/></g></svg>