<svg xmlns="http://www.w3.org/2000/svg" viewBox="0 0 2000 1700"><defs><style>.cls-1,.cls-10,.cls-11,.cls-12,.cls-13,.cls-14,.cls-4,.cls-5,.cls-6,.cls-8{fill:none;}.cls-1,.cls-13,.cls-14,.cls-6{stroke:#ffb400;}.cls-1,.cls-10,.cls-11,.cls-12,.cls-13,.cls-14,.cls-4,.cls-8{stroke-linecap:round;}.cls-1,.cls-5,.cls-6{stroke-miterlimit:10;}.cls-1,.cls-14,.cls-4,.cls-5,.cls-6,.cls-8{stroke-width:7px;}.cls-2{fill:#fff;}.cls-3{fill:#91e6f0;}.cls-10,.cls-4{stroke:#fff;}.cls-10,.cls-11,.cls-12,.cls-13,.cls-14,.cls-4,.cls-8{stroke-linejoin:round;}.cls-11,.cls-5,.cls-8{stroke:#004d89;}.cls-7{fill:#ffb400;}.cls-9{fill:#004d89;}.cls-10,.cls-12,.cls-13{stroke-width:6px;}.cls-11{stroke-width:5px;}.cls-12{stroke:#91e6f0;}</style></defs><g id="Слой_1" data-name="Слой 1"><g id="FRAME"><path class="cls-1" d="M1146.8,313.1H468.69A28.73,28.73,0,0,0,440,341.84V826.52"/><line class="cls-1" x1="1065.95" y1="1386.9" x2="1594.17" y2="1386.9"/><line class="cls-1" x1="1013.91" y1="1386.9" x2="1033.84" y2="1386.9"/><line class="cls-1" x1="439.96" y1="851.87" x2="439.96" y2="863.73"/><rect class="cls-2" x="507.96" y="378.01" width="999.07" height="945.67" rx="33.72"/><rect class="cls-3" x="507.96" y="537.87" width="999.07" height="625.95"/><path class="cls-4" d="M1339.45,557.81c0,62.77-50.25,113.66-112.24,113.66S1115,620.58,1115,557.81"/><line class="cls-4" x1="1484.86" y1="999.62" x2="1373.89" y2="999.62"/><line class="cls-4" x1="1484.86" y1="1026.56" x2="1395.78" y2="1026.56"/><line class="cls-4" x1="698.73" y1="999.62" x2="597.15" y2="999.62"/><rect class="cls-5" x="507.96" y="378.01" width="999.07" height="945.67" rx="33.72"/><g id="ICONS"><rect class="cls-3" x="714.32" y="443.01" width="242.83" height="31.37" rx="15.69"/><circle class="cls-6" cx="1347.73" cy="458.7" r="8.28"/><circle class="cls-6" cx="1391.51" cy="458.7" r="8.28"/><circle class="cls-6" cx="1435.29" cy="458.7" r="8.28"/><path class="cls-7" d="M644.9,1229.76a21.31,21.31,0,0,1-7.33,16.11l-32.76,32.77L572,1245.87a21.36,21.36,0,1,1,32.77-26.36,21.35,21.35,0,0,1,40.09,10.25Z"/><polygon class="cls-7" points="1443.57 1278.64 1409.35 1248.56 1375.13 1278.64 1375.13 1208.4 1443.57 1208.4 1443.57 1278.64"/><path class="cls-8" d="M712.15,1267.53c19.44,0,35.2-13.2,35.2-29.48s-15.76-29.49-35.2-29.49S677,1221.76,677,1238.05c0,8.73,4.53,16.57,11.73,22v18.77l15.73-11.26Z"/><polyline class="cls-8" points="782.41 1217.05 833.37 1217.05 833.37 1268.01"/><line class="cls-8" x1="780.91" y1="1268.01" x2="819.45" y2="1230.97"/><path class="cls-3" d="M671.71,458.7a50.07,50.07,0,1,1-50.07-50.07A49.89,49.89,0,0,1,671.71,458.7Z"/><path class="cls-7" d="M657.33,493.81a50.06,50.06,0,0,1-71.37,0c2.11-16.66,17.28-29.58,35.68-29.58S655.22,477.15,657.33,493.81Z"/><path class="cls-7" d="M631.59,443.5c0,5.5-4.45,12.92-10,12.92s-9.95-7.42-9.95-12.92,4.46-8.46,9.95-8.46S631.59,438,631.59,443.5Z"/><circle class="cls-5" cx="621.64" cy="458.7" r="50.06"/></g></g><g id="ICONS-2" data-name="ICONS"><polygon class="cls-2" points="1019.82 702.78 859.09 702.78 842.25 726.36 825.41 702.78 661.31 702.78 661.31 616.06 1019.82 616.06 1019.82 702.78"/><circle class="cls-5" cx="729.29" cy="660.5" r="12.03"/><path class="cls-5" d="M729.29,687.23a26.73,26.73,0,1,1,.29-53.46h0a22,22,0,0,1,22,22V667.2a5.13,5.13,0,0,1-5.14,5.13h0a5.13,5.13,0,0,1-5.13-5.13v-8"/><line class="cls-1" x1="956.48" y1="660.5" x2="966.39" y2="660.5"/><line class="cls-1" x1="790.07" y1="660.5" x2="933.65" y2="660.5"/><polygon class="cls-7" points="574.05 1061.5 544.19 1030.36 388.82 1030.36 388.82 916.02 574.05 916.02 574.05 1061.5"/><path class="cls-2" d="M452.29,963.38a15.51,15.51,0,0,0,5.33,11.71l23.81,23.81,23.81-23.81a15.52,15.52,0,1,0-23.81-19.15,15.52,15.52,0,0,0-29.14,7.44Z"/><polygon class="cls-9" points="574.05 1061.5 544.19 1030.36 507.96 1030.36 507.96 1045.93 546.05 1045.93 574.05 1061.5"/><path class="cls-9" d="M1507,865.45V901.2l-35.32,39s-2.57-3.54-6.73-9.55h0C1465.58,929.77,1487.55,899.22,1507,865.45Z"/><path class="cls-7" d="M1536.71,791.54c0,39.62-71.75,139.1-71.75,139.1s-71.74-99.48-71.74-139.1a71.75,71.75,0,1,1,143.49,0Z"/><circle class="cls-2" cx="1464.96" cy="787.16" r="24.05"/></g><g id="COUPLE"><g id="MAN"><g id="BODY"><path class="cls-7" d="M1439.48,1163.82H864.06L913,1058.93C952,975.34,1035.26,922,1126.74,922h46.51c87.18,0,167.29,48.49,208.39,126.15Z"/><path class="cls-9" d="M1210,928.33l-72.82,82.9-52.62-82.9,7-25.49a7,7,0,0,1,6.74-5.14h92.2a7,7,0,0,1,6.26,3.89Z"/><polyline class="cls-10" points="1086.44 928.33 1116.4 928.33 1137.48 900.35 1158.98 928.33 1209.99 928.33"/><circle class="cls-2" cx="1136.85" cy="947.86" r="7.43"/><line class="cls-4" x1="1302.97" y1="1096.33" x2="1286.77" y2="1114.06"/><line class="cls-4" x1="1286.77" y1="1086.22" x2="1286.77" y2="1163.82"/></g><g id="HEAD"><path class="cls-2" d="M1177.85,862.46l12.49,35.24h-92v-26h-2.82a19.76,19.76,0,0,1-19.76-19.76V812.2a21.76,21.76,0,0,1,21.76-21.76h28.53a10.4,10.4,0,0,1,10.4,10.3l.09,10.48a12.4,12.4,0,0,0,3.68,8.72c2.25,2.23,7,3.61,10.44,3.61l2.75,15,1-2.93a19.94,19.94,0,0,1,38.85,6.31V843A20,20,0,0,1,1177.85,862.46Z"/><polyline class="cls-11" points="1173.85 838.64 1167.76 844.44 1175.53 846.13"/><path class="cls-11" d="M1120.35,827.78c0-2.83-1.95-5.13-4.34-5.13s-4.34,2.3-4.34,5.13"/><path class="cls-11" d="M1090,827.78c0-2.83-2-5.13-4.34-5.13s-4.34,2.3-4.34,5.13"/><polyline class="cls-11" points="1100 815.32 1093.06 842.76 1104.21 842.76"/><line class="cls-12" x1="1169.2" y1="865.04" x2="1180.08" y2="865.04"/><circle class="cls-3" cx="1127.06" cy="844.48" r="10.4"/><path class="cls-9" d="M1176,787.26a3,3,0,0,1-3,3h-6.25a20.49,20.49,0,0,1,2.85,11.67l-1.18,20.67h0a19.92,19.92,0,0,0-13.94,13l-.49,1.45.23,16.42a26.3,26.3,0,0,1-26.3,26.68h-37.64a14.44,14.44,0,0,1-14.43-14.44v-8.29a13.17,13.17,0,0,1,13.28-13.16l12.2.11a22.23,22.23,0,0,1,14.82,5.83l3.17,2.9a12.11,12.11,0,0,0,16,.37l6.91-5.75a10.93,10.93,0,0,0,3.94-8.4V822.88a13.56,13.56,0,0,1-5.81-2.94,12.4,12.4,0,0,1-3.68-8.72l-.09-10.48a10.36,10.36,0,0,0-4.62-8.54,10.24,10.24,0,0,0-1.33-.77,10.36,10.36,0,0,0-4.49-1l-36.4-.17a13.9,13.9,0,1,1,4-27.24l61.19,18a20.47,20.47,0,0,1,8.24,4.71v-6.05a3,3,0,0,1,6,0v4.58H1173A3,3,0,0,1,1176,787.26Z"/></g></g><g id="WOMAN"><g id="BODY-2" data-name="BODY"><path class="cls-9" d="M610.37,1163.82c27.53-101.3,112-175.06,212-175.06,99.36,0,183.45,74.69,211.48,175.06Z"/><circle class="cls-13" cx="837.31" cy="1047.49" r="5.91"/><circle class="cls-13" cx="837.31" cy="1113.17" r="5.91"/><path class="cls-14" d="M933.86,1095.18l4.56,19.16a37.38,37.38,0,0,1-28.69,45.25"/><line class="cls-14" x1="718.98" y1="1119.04" x2="725.72" y2="1159.59"/><path class="cls-7" d="M837.9,998.23c-6,14-23,22.47-36.94,17.38l-44.57-16.3,27.13-33.77,53.79,30.71,22.08-26.47,17.9,26.63-3.55,6.75a17.88,17.88,0,0,1-30,2.63Z"/></g><g id="HEAD-2" data-name="HEAD"><path class="cls-2" d="M783.52,965.54l21.86-41.14-9.08-2.87A17.33,17.33,0,0,1,784.2,905V903.2a17.31,17.31,0,0,1,17.29-17.31h0a17.31,17.31,0,0,1,15.91,10.42l4.71,10.85s22.69-9.46,17.57-35.08c0,0,23.65,10.64,41.39,0,0,0,14.89,31.46-2.91,71.2a14.65,14.65,0,0,1-14.94,8.54l-3.83-.4v18.36l-22.08,26.47Z"/><path class="cls-9" d="M859.39,951.42s-9.08-3.26-24.85-14.1l24.85,32.46Z"/><path class="cls-9" d="M839.68,872.08c5.12,25.62-17.57,35.08-17.57,35.08l-4.71-10.85a17.33,17.33,0,0,0-9.64-9.26v-7.33A29.19,29.19,0,0,1,842.53,851c14,2.77,29.86,9.6,38.54,21C863.33,882.72,839.68,872.08,839.68,872.08Z"/><circle class="cls-7" cx="814.31" cy="840.01" r="11.88"/><path class="cls-9" d="M810.6,814.25l-4.34-46a15.65,15.65,0,0,0-26.57-9.68l-38,37.48a15.65,15.65,0,0,0,9.3,26.7l45.94,5A12.38,12.38,0,0,0,810.6,814.25Z"/><polyline class="cls-11" points="873.22 895.73 879.6 922.71 869.85 922.71"/><path class="cls-11" d="M851.53,905.91a4.61,4.61,0,0,1,9.21,0"/><polyline class="cls-11" points="802.73 902.54 807.75 910.06 801.04 910.06"/><path class="cls-11" d="M866.68,931.1s-7.84,1.83-11.74-4.68L852,929.61"/><circle class="cls-3" cx="841.78" cy="921.85" r="9.5"/><circle class="cls-7" cx="805.38" cy="924.4" r="5.94"/></g></g></g></g></svg>