<svg xmlns="http://www.w3.org/2000/svg" viewBox="0 0 2000 1700"><defs><style>.cls-1{fill:#91e6f0;}.cls-10,.cls-12,.cls-13,.cls-14,.cls-15,.cls-2,.cls-4,.cls-7{fill:none;}.cls-15,.cls-2,.cls-3{stroke:#ffb400;}.cls-12,.cls-13,.cls-14,.cls-15,.cls-2,.cls-3,.cls-4,.cls-7{stroke-linecap:round;}.cls-12,.cls-14,.cls-2,.cls-3{stroke-miterlimit:10;}.cls-15,.cls-2,.cls-3,.cls-4,.cls-7,.cls-9{stroke-width:7px;}.cls-11,.cls-3,.cls-6,.cls-9{fill:#fff;}.cls-4{stroke:#fff;}.cls-10,.cls-11,.cls-13,.cls-15,.cls-4,.cls-7,.cls-9{stroke-linejoin:round;}.cls-5{fill:#004d89;}.cls-13,.cls-14,.cls-7,.cls-9{stroke:#004d89;}.cls-8{fill:#ffb400;}.cls-10,.cls-11{stroke:#004b82;stroke-width:8px;}.cls-12{stroke:#fdbc00;stroke-width:7.11px;}.cls-13,.cls-14{stroke-width:6px;}</style></defs><g id="Слой_1" data-name="Слой 1"><g id="PHONE"><rect class="cls-1" x="689.46" y="286.09" width="624.54" height="1128.03" rx="46.28"/><path class="cls-2" d="M1332.24,569.56v799.38a61.1,61.1,0,0,1-61.1,61.1h-540a61.11,61.11,0,0,1-61.11-61.1V331.06A61.11,61.11,0,0,1,731.16,270h540a61.1,61.1,0,0,1,61.1,61.1v51.12"/><path class="cls-3" d="M1107.48,346.08H913.94a26.43,26.43,0,0,1-26.44-26.43V299.71A29.75,29.75,0,0,0,857.75,270h305.92a29.76,29.76,0,0,0-29.76,29.75v19.94A26.43,26.43,0,0,1,1107.48,346.08Z"/><line class="cls-2" x1="963.59" y1="308.02" x2="1054.06" y2="308.02"/></g><g id="MAN"><g id="BODY"><path class="cls-4" d="M689.46,852.82l160.93-99.31a105.62,105.62,0,0,1,120.19,6.42l6.82,5.28"/><path class="cls-4" d="M992.18,1238.71,859.47,963.46a21.55,21.55,0,0,0-33.68-8l-136.33,114.7"/><path class="cls-5" d="M1086.81,765.21h73.84l38.25,58-113-55.32A1.47,1.47,0,0,1,1086.81,765.21Z"/></g><g id="HEAD"><path class="cls-6" d="M1133.34,657.94l-.24,1.24a21.81,21.81,0,0,1-25.32,17.33l-8.63-1.57c-4.37-.8-10.54-5.3-10.54-11.77v102l-7.58,14c-24.51,45.28-92,36.16-103.63-14l18.14-77-1.44-1.5A38.57,38.57,0,0,1,983.81,654l2.57-16.26a12.43,12.43,0,0,1-10.89,3l-8-1.66a20.31,20.31,0,0,1-15.79-23.81l.23-1.15a20.31,20.31,0,0,1,23.85-16l5,1A15.09,15.09,0,0,1,991.27,607a40.48,40.48,0,0,1,46.16-32.53l22.8,3.64A40.47,40.47,0,0,1,1094,623.44l-1.67,12.39c3.68-4,12.7-5.56,18.43-4.46l5.33,1A21.8,21.8,0,0,1,1133.34,657.94Z"/><line class="cls-7" x1="977.4" y1="765.22" x2="995.54" y2="688.2"/><path class="cls-5" d="M988.59,603.31l10.69-57.57a14.21,14.21,0,0,1,23.51-7.34l9.89,9.12,4.29-10.74a13,13,0,0,1,22.61-2.81l7.4,10.21a5.82,5.82,0,0,0,10.51-3l.27-3.42a8.74,8.74,0,0,1,15.87-4.32l22,31.58a43.78,43.78,0,0,1,5.63,38.19l-9.81,29.14-19.2,3.44.94-19.15a37.45,37.45,0,0,0-32-38.89L1039.68,575A39.73,39.73,0,0,0,998,598.72l-6.41,15Z"/><path class="cls-7" d="M1052.8,695.52c-8.22,4.18-27.69,5.46-36.72,3.62A40.81,40.81,0,0,1,984,652.35l2.47-14.69a12.45,12.45,0,0,1-10.93,3l-8-1.66a20.31,20.31,0,0,1-15.79-23.81l.23-1.15a20.31,20.31,0,0,1,23.85-16l5,1a15.1,15.1,0,0,1,10.84,8.57,43.92,43.92,0,0,1,48.81-33.06l19.73,2.79a43.92,43.92,0,0,1,36.94,52l-1.38,7a16.22,16.22,0,0,1,15-5l5.33,1a21.8,21.8,0,0,1,17.29,25.54l-.24,1.24a21.81,21.81,0,0,1-25.32,17.33l-8.63-1.57c-4.37-.8-10.54-5.3-10.54-11.77v102"/><path class="cls-5" d="M983.38,739.82l71.1-42.63c-8.22,4.19-29.37,3.79-38.4,1.95-8.48-1.72-15-5.1-20.54-10.94Z"/><polyline class="cls-7" points="1039.17 606.1 1025.54 633.98 1034.53 636.89"/><path class="cls-7" d="M1065.11,624.57c-1.75,3.91-5.84,5.88-9.14,4.41s-4.55-5.84-2.81-9.75"/><path class="cls-7" d="M1021.16,612.88c-.89,4.19-4.47,7-8,6.23s-5.69-4.75-4.8-8.94"/><polyline class="cls-7" points="1108.17 649.93 1101.8 655.53 1110.6 656.63"/><polyline class="cls-7" points="973.82 615.37 980.53 622.56 971.67 622.56"/><path class="cls-7" d="M991.58,614a13,13,0,0,0-3-10.7"/><circle class="cls-8" cx="1064.95" cy="656.23" r="14.81"/><path class="cls-5" d="M1045.72,658.16c-6.82,6.1-16.43,12.88-25.44,12.88a16.89,16.89,0,0,1-3.54-.37c-8.84-1.93-14.82-9.8-16.84-22.18a7.55,7.55,0,0,1,2.3-6.79,7,7,0,0,1,6.44-1.68l34.76,8.56a5.48,5.48,0,0,1,4,4A5.58,5.58,0,0,1,1045.72,658.16Z"/><path class="cls-6" d="M1041.38,655.66c-5.13,4.41-15.56,12.14-23.63,10.38a13.37,13.37,0,0,1-6.38-3.34c3.72-4.64,9.94-8,17.24-8.74A27.15,27.15,0,0,1,1041.38,655.66Z"/></g><g id="HAND"><path class="cls-6" d="M1314,991l-183-271.3a40.89,40.89,0,0,1,3.11-47.57h0l-51.58-129.85a15.26,15.26,0,0,1,6.91-19h0a15.26,15.26,0,0,1,20,4.94l45.62,68.37.37-86.67a15.79,15.79,0,0,1,15.79-15.72h0a15.79,15.79,0,0,1,15.69,14l12.2,106h46.52l30.54,61.07a57.71,57.71,0,0,1-1.47,54.38l39.82,38.67"/><path class="cls-7" d="M1312.33,991,1131,719.67a40.89,40.89,0,0,1,3.11-47.57h0l-51.58-129.85a15.26,15.26,0,0,1,6.91-19h0a15.26,15.26,0,0,1,20,4.94l45.62,68.37.37-86.67a15.79,15.79,0,0,1,15.79-15.72h0a15.79,15.79,0,0,1,15.69,14l12.2,106h46.52l30.54,61.07a57.71,57.71,0,0,1-1.47,54.38l-9.09,16"/><path class="cls-9" d="M1246.29,597.14h15.85a17.11,17.11,0,0,1,17.11,17.11V649a16.48,16.48,0,0,1-16.48,16.48h0A16.48,16.48,0,0,1,1246.29,649V597.14A0,0,0,0,1,1246.29,597.14Z" transform="translate(-138 455.27) rotate(-19.4)"/><path class="cls-9" d="M1218.39,663.86a18.09,18.09,0,0,0,23,11.1h0a18.09,18.09,0,0,0,11.18-23.1l-15.21-43.38a17.11,17.11,0,0,0-23.2-9.93l-16,7,1,8.5Z"/><path class="cls-7" d="M1134.12,672.1l37.55-63a7.16,7.16,0,0,1,8.95-2.92h0A25.78,25.78,0,0,1,1196,633.93l-5.13,32.84s35,16.4,27.62,67.84"/><circle class="cls-1" cx="1238" cy="661.44" r="9.75"/><path class="cls-1" d="M1175.54,610.05a10.85,10.85,0,0,1-11,18.68Z"/><circle class="cls-1" cx="1271.08" cy="649.59" r="9.75"/></g><g id="FINGERS"><path class="cls-6" d="M670.05,1069.7V963.58l107.72-160a50.9,50.9,0,0,0-9.32-67.26h0a50.89,50.89,0,0,0-73.78,8.56L608,861.93a117.59,117.59,0,0,0,8.36,150Z"/><path class="cls-10" d="M697.36,923l80.41-119.4a50.9,50.9,0,0,0-9.32-67.26h0a50.89,50.89,0,0,0-73.78,8.56L608,861.93a117.59,117.59,0,0,0,8.36,150l52,56.06"/><path class="cls-11" d="M607,863.26l154.68-208.9a48.31,48.31,0,0,0-9.38-67.06h0a48.32,48.32,0,0,0-68.27,9.52L588.31,725.9a91.57,91.57,0,0,0-2.61,105.4Z"/><path class="cls-11" d="M593.38,719.06,721.91,545.59a43.94,43.94,0,0,0-11.57-63.14h0a43.94,43.94,0,0,0-58.41,10l-70,90a100,100,0,0,0,2.44,125.91Z"/><ellipse class="cls-1" cx="724.29" cy="764.98" rx="31.92" ry="30.26" transform="translate(-273.61 1102.6) rotate(-65.26)"/><ellipse class="cls-1" cx="714.53" cy="617.17" rx="31.97" ry="30.3" transform="translate(-145.04 1007.8) rotate(-65.26)"/><ellipse class="cls-1" cx="678.25" cy="516.96" rx="31.92" ry="30.26" transform="translate(-75.13 916.58) rotate(-65.26)"/><line class="cls-12" x1="670.05" y1="961.9" x2="670.05" y2="1100.23"/></g></g><g id="ICONS"><line class="cls-2" x1="725.85" y1="1275.25" x2="1276.22" y2="1275.25"/><line class="cls-2" x1="925.5" y1="1118.12" x2="944.62" y2="1118.12"/><line class="cls-2" x1="807.68" y1="1118.12" x2="898.28" y2="1118.12"/><line class="cls-2" x1="807.68" y1="1141.02" x2="1012.53" y2="1141.02"/><circle class="cls-4" cx="755.26" cy="1128.52" r="13.99"/><path class="cls-4" d="M755.26,1159.61a31.09,31.09,0,1,1,.34-62.18h0a25.6,25.6,0,0,1,25.6,25.6v13.29a6,6,0,0,1-6,6h0a6,6,0,0,1-6-6V1127"/><rect class="cls-4" x="740.63" y="304.94" width="80.27" height="32.31" rx="16.15"/><rect class="cls-4" x="956.61" y="1298.39" width="88.85" height="88.85" rx="16.07"/><line class="cls-2" x1="981.27" y1="1342.82" x2="1020.8" y2="1342.82"/><line class="cls-2" x1="1001.04" y1="1362.58" x2="1001.04" y2="1323.06"/><polygon class="cls-4" points="762.34 1369.07 814.85 1369.07 814.85 1326.64 788.13 1309.85 762.34 1326.64 762.34 1369.07"/><circle class="cls-4" cx="1223.61" cy="1320.42" r="10.43"/><path class="cls-4" d="M1193.24,1369.07l12.87-17.66a21.66,21.66,0,0,1,35,0l12.87,17.66"/><path class="cls-8" d="M1193.57,304.94h36.06a0,0,0,0,1,0,0v32.31a0,0,0,0,1,0,0h-36.06a8,8,0,0,1-8-8v-16.3A8,8,0,0,1,1193.57,304.94Z"/><line class="cls-4" x1="1256.51" y1="312.14" x2="1256.51" y2="328.96"/><rect class="cls-4" x="1185.57" y="304.94" width="58.45" height="32.31" rx="8.95"/><polyline class="cls-4" points="764.89 428.62 743.98 407.72 764.89 386.81"/><line class="cls-4" x1="785.8" y1="407.72" x2="751.2" y2="407.72"/><polyline class="cls-13" points="774.48 1223.43 774.48 1190.12 739.38 1200.96 739.38 1232.18"/><line class="cls-13" x1="774.48" y1="1200.19" x2="739.37" y2="1211.03"/><circle class="cls-14" cx="735.76" cy="1232.18" r="3.62"/><circle class="cls-14" cx="770.87" cy="1223.43" r="3.62"/><line class="cls-7" x1="807.68" y1="1211.15" x2="908.43" y2="1211.15"/><path class="cls-15" d="M1276.12,1084.94a21.27,21.27,0,0,1-7.31,16.07l-32.67,32.67L1203.47,1101a21.3,21.3,0,1,1,32.67-26.28,21.29,21.29,0,0,1,40,10.21Z"/><path class="cls-15" d="M1236.14,1231.55c22.08,0,40-16.2,40-36.18s-17.9-36.19-40-36.19-40,16.2-40,36.19c0,10.71,5.14,20.34,13.32,27v23l17.87-13.83Z"/><circle class="cls-6" cx="1218.57" cy="1195.52" r="5"/><circle class="cls-6" cx="1253.7" cy="1195.52" r="5"/><circle class="cls-6" cx="1236.14" cy="1195.52" r="5"/><path class="cls-6" d="M1270,1011a40,40,0,0,1-68.47-1.37c5.8-11.77,18.8-20,33.92-20C1251.1,989.67,1264.52,998.5,1270,1011Z"/><circle class="cls-2" cx="1236.14" cy="989.67" r="39.98"/><circle class="cls-5" cx="1236.14" cy="1028.25" r="14.81"/><polygon class="cls-6" points="1242.06 1026.25 1242.06 1030.25 1238.14 1030.25 1238.14 1034.18 1234.14 1034.18 1234.14 1030.25 1230.21 1030.25 1230.21 1026.25 1234.14 1026.25 1234.14 1022.33 1238.14 1022.33 1238.14 1026.25 1242.06 1026.25"/><circle class="cls-6" cx="1237.82" cy="974.99" r="10.37"/><polygon class="cls-8" points="934.62 659.29 904.39 629.6 790.28 629.6 790.28 524.75 934.62 524.75 934.62 659.29"/><line class="cls-7" x1="829.09" y1="563.51" x2="895.81" y2="563.51"/><line class="cls-7" x1="829.09" y1="584.29" x2="879.76" y2="584.29"/><polygon class="cls-5" points="1288.07 556.13 1317.84 525.08 1439.18 525.08 1439.18 411.06 1288.07 411.06 1288.07 556.13"/><path class="cls-6" d="M1394.36,458.29a15.44,15.44,0,0,1-5.31,11.67l-23.74,23.75L1341.56,470a15.48,15.48,0,1,1,23.75-19.1,15.47,15.47,0,0,1,29,7.43Z"/></g></g></svg>