<svg xmlns="http://www.w3.org/2000/svg" viewBox="0 0 2000 1700"><defs><style>.cls-1,.cls-10,.cls-11,.cls-12,.cls-13,.cls-14,.cls-15,.cls-16,.cls-17,.cls-18,.cls-19,.cls-20,.cls-21,.cls-5,.cls-7,.cls-9{fill:none;}.cls-1,.cls-11,.cls-12,.cls-19,.cls-7{stroke:#004d89;}.cls-1,.cls-10,.cls-11,.cls-12,.cls-13,.cls-14,.cls-15,.cls-16,.cls-17,.cls-18,.cls-21,.cls-5,.cls-7,.cls-9{stroke-linecap:round;}.cls-1,.cls-10,.cls-11,.cls-12,.cls-13,.cls-14,.cls-15,.cls-17,.cls-18,.cls-7,.cls-9{stroke-linejoin:round;}.cls-1,.cls-11,.cls-12,.cls-16,.cls-17{stroke-width:7px;}.cls-1{stroke-dasharray:11.4;}.cls-2{fill:#ffb400;}.cls-3{fill:#91e6f0;}.cls-4{fill:#004d89;}.cls-13,.cls-5{stroke:#ffb400;}.cls-16,.cls-19,.cls-20,.cls-21,.cls-5{stroke-miterlimit:10;}.cls-5,.cls-7{stroke-width:5px;}.cls-6{fill:#fff;}.cls-8{fill:#fdbc00;}.cls-16,.cls-20,.cls-9{stroke:#fdbc00;}.cls-10,.cls-9{stroke-width:4.56px;}.cls-10,.cls-17,.cls-18,.cls-21{stroke:#fff;}.cls-12{stroke-dasharray:11.62 11.62;}.cls-13,.cls-18,.cls-19,.cls-20,.cls-21{stroke-width:6px;}.cls-14,.cls-15{stroke:#004b82;}.cls-14{stroke-width:5.13px;}.cls-15{stroke-width:5.7px;}</style></defs><g id="Слой_1" data-name="Слой 1"><g id="PEOPLE_ICONS"><g id="WOMAN"><line class="cls-1" x1="1291.08" y1="1058.63" x2="1345.34" y2="1120.01"/><circle class="cls-2" cx="1411.51" cy="1254.08" r="148.9"/><path class="cls-3" d="M1468.15,1204.13a47.13,47.13,0,0,1-1,9.52l-15.44,74.76-67,112.16a149,149,0,0,1-120.93-127.75l128.36-104.67a46.58,46.58,0,0,1,76,36Z"/><path class="cls-4" d="M1534.46,1338.09a148.91,148.91,0,0,1-245.91,0,156.38,156.38,0,0,1,245.91,0Z"/><path class="cls-5" d="M1460.76,1285.87c-3.2,27.67-44.43,39.37-71.74,22.08-7.81-5-13.82-15.45-12.5-24.61"/><path class="cls-6" d="M1452.68,1283.82c-3.24,21.31-35.55,27.82-56.25,17.51a20,20,0,0,1-10.73-20.73l4.54-31.34c-13.73,0-21.93-13.27-17.92-26.4l5.82-24.28,47.27-12.85Z"/><path class="cls-7" d="M1391.19,1252.22s14.75,1.51,26.09-7.56"/><polyline class="cls-7" points="1394.24 1196.41 1388.62 1217.01 1395.02 1218.63"/><circle class="cls-4" cx="1406.21" cy="1206.71" r="3.42"/><circle class="cls-4" cx="1381.55" cy="1206.71" r="3.13"/><circle class="cls-2" cx="1416.33" cy="1221.84" r="10.02"/><path class="cls-7" d="M1393.85,1227.7a14.74,14.74,0,0,0,7.74-3"/><line class="cls-7" x1="1425.41" y1="1185.73" x2="1437.45" y2="1174.06"/></g><g id="MAN"><line class="cls-1" x1="709.65" y1="1263.27" x2="763.35" y2="1198.43"/><circle class="cls-4" cx="639.29" cy="1350.55" r="127.82"/><path class="cls-8" d="M685.45,1275.71l0,0s-6.43,18.17-46.14,17l-3,16.63-1.61-3.85a12.63,12.63,0,0,0-11.65-7.77h-.6a12,12,0,0,0-2.41.24l-1.15-10.54a23.41,23.41,0,0,1,4.18-16.13h-7.37a2.5,2.5,0,0,1,0-5h5.25v-5.25a2.5,2.5,0,0,1,5,0v6.9a23.38,23.38,0,0,1,16.36-6.62h36A9,9,0,0,1,685.45,1275.71Z"/><path class="cls-6" d="M673.17,1342.08l-1.73.24-5.31,51.36,3.47-33.62-30.31,12.51-28.74-37.17L622.41,1323a12.62,12.62,0,0,1,0-25.24h.6a12.63,12.63,0,0,1,11.65,7.77l1.61,3.85,3-16.63c39.71,1.13,46.14-17,46.14-17l5.62,43A20.86,20.86,0,0,1,673.17,1342.08Z"/><polyline class="cls-7" points="668.79 1289.46 678.17 1310.72 671.85 1312.34"/><path class="cls-7" d="M679.51,1343.93a36.16,36.16,0,0,1-26.09-4.92"/><polyline class="cls-7" points="623.61 1308.28 628.19 1313.95 622 1313.95"/><circle class="cls-3" cx="649.88" cy="1317.73" r="9.45"/><circle class="cls-4" cx="659.33" cy="1302.2" r="3.13"/><circle class="cls-4" cx="681.6" cy="1296.5" r="2.85"/><path class="cls-7" d="M671.71,1321.14s-3.13,1.26-6.86-2.27"/><path class="cls-3" d="M741.68,1427.09a127.64,127.64,0,0,1-103.32,51.28c-70.45-.51-127.52-58.57-126.88-129a127.75,127.75,0,0,1,2.29-23l68.66,30.37a8.48,8.48,0,0,0,9.53-1.88l18.59-19.39,28.74,37.17,30.31-12.51-3.47,33.62Z"/><circle class="cls-9" cx="631.4" cy="1408.15" r="4.83"/><circle class="cls-9" cx="623.32" cy="1445.33" r="4.83"/><polyline class="cls-10" points="624.94 1382.5 640.91 1370.95 648.09 1388.07"/></g><g id="MAN-2" data-name="MAN"><line class="cls-11" x1="1214.61" y1="518.04" x2="1210.77" y2="522.25"/><line class="cls-12" x1="1202.95" y1="530.84" x2="1175.59" y2="560.91"/><line class="cls-11" x1="1171.68" y1="565.2" x2="1167.84" y2="569.42"/><circle class="cls-2" cx="1297.68" cy="412.57" r="134.25"/><path class="cls-4" d="M1429.29,439.17a134.28,134.28,0,0,1-263.23,0Z"/><path class="cls-3" d="M1358.31,439.17l-38,105.76c-1.78.31-3.58.57-5.38.8a135.68,135.68,0,0,1-45.91-2l-17.69-104.57L1263.84,405h81.45Z"/><path class="cls-4" d="M1314.88,545.73A135.54,135.54,0,0,1,1262,542l22.77-83.84-13.26-13.27a8.87,8.87,0,0,1,0-12.55l18.18-18.18,18.19,18.18a8.88,8.88,0,0,1,0,12.55l-13.74,13.74Z"/><line class="cls-13" x1="1361.35" y1="436.09" x2="1319.4" y2="436.09"/><line class="cls-13" x1="1251.28" y1="436.09" x2="1262.01" y2="436.09"/><path class="cls-6" d="M1341.51,370.79h-6.45L1345.29,405h-81.45l1.9-6.7a16.55,16.55,0,0,1-11.06-19.76l2.74-11h0L1269,320.88h57.55l2.45,32.28a13.25,13.25,0,1,1,12.51,17.63Z"/><path class="cls-4" d="M1348.57,311.41l-4.58,33.1a12.64,12.64,0,0,0-2.48-.24,13.15,13.15,0,0,0-7.84,2.57l-6.8,32.46a27,27,0,0,1-26,19.72h-30.12a16.53,16.53,0,0,1-16-20.52l2.74-11h0l9.62-4.78a18.5,18.5,0,0,1,19.4,1.79l17.84,13.45a11.8,11.8,0,0,0,18.13-5.19l4.87-18.12a7,7,0,0,1-4.2-7.33l1.58-12a12.76,12.76,0,0,0-9.05-13.89,16.65,16.65,0,0,1-27-.51h-2.26a16.63,16.63,0,1,1,1.14-17.05,16.65,16.65,0,0,1,29.64,0,16.64,16.64,0,0,1,31.46,7.58Z"/><polyline class="cls-14" points="1340.99 355.18 1338.25 359.95 1342.5 359.95"/><polyline class="cls-15" points="1283.92 339.25 1275.16 356.2 1283.35 360.75"/><circle class="cls-4" cx="1297.79" cy="348.38" r="3.48"/><circle class="cls-4" cx="1268.96" cy="346.86" r="2.94"/><circle class="cls-2" cx="1311.35" cy="367.5" r="10.17"/></g></g><g id="WOMAN-2" data-name="WOMAN"><circle id="BACKGROUND" class="cls-3" cx="971.35" cy="881.16" r="360.92"/><g id="HAIR"><path class="cls-4" d="M1006.27,662.37a39,39,0,1,1,35.11,16.16,67.56,67.56,0,0,1,20.57,33l7.37,27a23.56,23.56,0,0,0,39.1,10.73l5.6-5.41c26.65-25.77,71-15.52,83.63,19.32l3.86,10.61a33.83,33.83,0,0,0,55.59,12.52,43.75,43.75,0,0,1,31-12.79,44.55,44.55,0,0,1,31.7,13.18,361.92,361.92,0,0,1-42,285.21h-42.4c-146.27,0-266.63-115.13-273.12-261.26L958,713.94s-18.8,1.82-31.78,2a9.77,9.77,0,0,1-9.68-11.7l.14-2.33a53.36,53.36,0,0,1,57.23-42.59Z"/><line class="cls-16" x1="1011.72" y1="664.22" x2="1036.81" y2="676.7"/></g><g id="HAND"><path class="cls-6" d="M919.83,1098.73l-48.27,66.56a78.75,78.75,0,0,1-141.1-61l45-233.63-.62-.46a39.47,39.47,0,0,1-15.7-29l-4.39-66.67a8.09,8.09,0,0,1,16-2.15l6.6,32.23V750.5a10.57,10.57,0,0,1,10.25-10.65,10.38,10.38,0,0,1,10.52,10.38v-11a10.56,10.56,0,0,1,10.28-10.66,10.36,10.36,0,0,1,10.49,10.38v9.69a10.39,10.39,0,0,1,20.77,0v55.22A5.7,5.7,0,0,0,850.1,807l14.56-21.84a11.67,11.67,0,0,1,20.75,10.24l-14.5,48a32.33,32.33,0,0,1-16.48,19.55l-7.22,193.63,3.94-103.39c1.17-30.69,21.7-60.14,50-72l18.65-6.46Z"/><path class="cls-11" d="M919.83,1098.73l-48.27,66.56a78.75,78.75,0,0,1-141.1-61l45-233.63-.62-.46a39.47,39.47,0,0,1-15.7-29l-4.39-66.67a8.09,8.09,0,0,1,16-2.15l6.6,32.23V750.5a10.57,10.57,0,0,1,10.25-10.65,10.38,10.38,0,0,1,10.52,10.38v-11a10.56,10.56,0,0,1,10.28-10.66,10.36,10.36,0,0,1,10.49,10.38v9.69a10.39,10.39,0,0,1,20.77,0v55.22A5.7,5.7,0,0,0,850.1,807l14.56-21.84a11.67,11.67,0,0,1,20.75,10.24l-14.5,48a32.33,32.33,0,0,1-16.48,19.55l-7.22,193.63,3.94-103.39"/><path class="cls-11" d="M919.83,1098.73l-48.27,66.56a78.75,78.75,0,0,1-141.1-61l45-233.63-.62-.46a39.47,39.47,0,0,1-15.7-29l-4.39-66.67a8.09,8.09,0,0,1,16-2.15l6.6,32.23V750.5a10.57,10.57,0,0,1,10.25-10.65,10.38,10.38,0,0,1,10.52,10.38v-11a10.56,10.56,0,0,1,10.28-10.66,10.36,10.36,0,0,1,10.49,10.38v9.69a10.39,10.39,0,0,1,20.77,0v55.22A5.7,5.7,0,0,0,850.1,807l14.56-21.84a11.67,11.67,0,0,1,20.75,10.24l-14.5,48a32.33,32.33,0,0,1-16.48,19.55l-7.22,193.63,3.94-103.39c1.17-30.69,21.7-60.14,50-72l18.65-6.46Z"/><line class="cls-11" x1="798.12" y1="750.23" x2="798.12" y2="796.63"/><line class="cls-11" x1="818.89" y1="748.62" x2="818.89" y2="796.63"/><path class="cls-11" d="M847.78,809s-27,5.7-26.36,38.79"/></g><g id="BODY"><path class="cls-2" d="M1135.92,812.05a42.43,42.43,0,0,0-36,54.23l56,190.28-105.92,110.92-23.6,8.3-97.54-70.58a74.48,74.48,0,0,1-35.85-74.62l21.86-153.66s43.62,8.79,95.84-4.71c65.8-17,74.87-54.46,74.87-54.46Z"/><path class="cls-17" d="M1108.92,1061.82a58.81,58.81,0,0,1-100.19-10.56"/></g><g id="HEAD"><path class="cls-6" d="M960.67,856.7l-5.29-57.48s-22.88,3.87-35.65-11c-16.17-18.82,4.84-73.81,4.84-73.81s16.06,4.55,36.1-14.73c0,0,6.43,33.57,42.17,41.79V740a17.58,17.58,0,0,1,17.58-17.58h0A17.59,17.59,0,0,1,1038,740v2.92a17.59,17.59,0,0,1-17.59,17.59H1017L1036.91,801a33.14,33.14,0,0,0,33.15,18.37l15.59-1.61s-9.07,37.44-74.87,54.46c-52.22,13.5-95.84,4.71-95.84,4.71Z"/><circle class="cls-2" cx="980.23" cy="757.54" r="14.25"/><path class="cls-4" d="M957.33,755.62l-31.83-8.23a4.72,4.72,0,0,0-5.6,5.56c1.15,7.12,2.93,17.33,12.82,19.48,9.08,2,20-6.29,25.87-11.5A3.13,3.13,0,0,0,957.33,755.62Z"/><path class="cls-6" d="M951.05,759.92c-4.09,3.61-11.47,9.05-17.61,7.71a10.34,10.34,0,0,1-4.82-2.46c2.27-3.74,6.86-6.56,12.38-7.11A17.61,17.61,0,0,1,951.05,759.92Z"/><path class="cls-11" d="M911.65,877.54l49-20.84-5.29-57.48s-22.88,3.87-35.65-11c-16.17-18.82,4.84-73.81,4.84-73.81"/><path class="cls-11" d="M955.38,799.22c20,0,34-19.33,34-19.33"/><polyline class="cls-11" points="1022.55 736.65 1013.89 746.86 1024.14 746.86"/><path class="cls-11" d="M969.77,733.78c-1.55,3.48-5.39,5.14-8.56,3.72a6.45,6.45,0,0,1-3.44-7.3"/><polyline class="cls-11" points="951.22 703.69 930.82 738.53 941.86 741.67"/></g><g id="HAND-2" data-name="HAND"><path class="cls-6" d="M1240.92,1127.49c42.55-31.79,49-66.14,30.72-103.32l-92.8-188.66a42.51,42.51,0,0,0-42.92-23.46h0a42.49,42.49,0,0,0-36,54.23l56,190.28-101.53,109.38-46.32,16.28c-23.63,9.26-21.72,22.49-19.73,41.78l4.45,32.53a9.61,9.61,0,0,0,9.44,7.84h.1a9.6,9.6,0,0,0,9.6-9.6V1257a9.6,9.6,0,0,0,9.6,9.6h0a9.6,9.6,0,0,0,9.6-9.6v-1.63a8.79,8.79,0,0,0,8.79,8.79h0a8.79,8.79,0,0,0,8.79-8.79v-4.15a8.8,8.8,0,0,0,8.8,8.8h.16c6,.55,10.26-3.79,10.4-8.55l.56-16.79a13.2,13.2,0,0,1,13.19-12.76h13.81a72.79,72.79,0,0,0,45-15.6Z"/><path class="cls-11" d="M1156,1056.56l-101.53,109.38-46.32,16.28c-23.63,9.26-21.72,22.49-19.73,41.78l4.45,32.53a9.61,9.61,0,0,0,9.44,7.84h.1a9.6,9.6,0,0,0,9.6-9.6V1257a9.6,9.6,0,0,0,9.6,9.6h0a9.6,9.6,0,0,0,9.6-9.6v-1.63a8.79,8.79,0,0,0,8.79,8.79h0a8.79,8.79,0,0,0,8.79-8.79v-4.15a8.8,8.8,0,0,0,8.8,8.8h.16c6,.55,10.26-3.79,10.4-8.55l.56-16.79a13.2,13.2,0,0,1,13.19-12.76h13.81a72.79,72.79,0,0,0,45-15.6l100.18-78.85c42.55-31.79,49-66.14,30.72-103.32l-92.8-191.89c-7.92-16.1-27.93-25.49-45.76-23.46"/><line class="cls-11" x1="1155.99" y1="1056.56" x2="1177.41" y2="1034.36"/><line class="cls-11" x1="1012" y1="1242.09" x2="1012" y2="1215.22"/><line class="cls-11" x1="1031.2" y1="1255.39" x2="1031.2" y2="1215.22"/><line class="cls-11" x1="1048.78" y1="1251.24" x2="1048.78" y2="1214.83"/><circle class="cls-2" cx="1002.27" cy="1255.1" r="5.67"/><circle class="cls-2" cx="1021.56" cy="1256.92" r="5.67"/><circle class="cls-2" cx="1039.9" cy="1255.1" r="5.13"/><circle class="cls-2" cx="1058.62" cy="1251.24" r="5.13"/></g></g><g id="ICONS"><polygon class="cls-2" points="923.51 575.56 950.6 625.98 894.33 602.77 875.33 721.07 860.22 602.78 809.82 624.03 831.06 575.57 732.26 556.55 829.11 535.6 790.32 479.35 854.38 500.59 875.33 415.44 896.29 500.59 960.35 479.35 921.56 535.6 998.91 556.55 923.51 575.56"/><path class="cls-6" d="M875.81,564.08a4.53,4.53,0,0,1-4.52-4.16l-3.42-42.44a4.54,4.54,0,0,1,4.52-4.89h6.84a4.54,4.54,0,0,1,4.52,4.89l-3.43,42.44A4.52,4.52,0,0,1,875.81,564.08Z"/><circle class="cls-6" cx="875.81" cy="577.68" r="5.48"/><circle class="cls-4" cx="1089.39" cy="404.96" r="42.1"/><path class="cls-2" d="M1101.67,411.76a12,12,0,0,1-9.06,11.3v1.06a3.67,3.67,0,1,1-7.34,0v-1.06a12.58,12.58,0,0,1-7.76-6.13,3.56,3.56,0,0,1,3.19-5.17,3.65,3.65,0,0,1,3.17,2,5.74,5.74,0,0,0,5.07,2.71c3.09,0,5.59-2.1,5.59-4.67s-2.5-4.67-5.59-4.67c-6.09,0-11-4.61-11-10.29a10.36,10.36,0,0,1,7.37-9.7v-1.3a3.67,3.67,0,0,1,3.67-3.67,3.65,3.65,0,0,1,3.67,3.67v1.29a10.86,10.86,0,0,1,6,4.76,3.31,3.31,0,0,1-2.89,4.95h-.59a3.43,3.43,0,0,1-2.8-1.57,4.17,4.17,0,0,0-3.41-1.6c-2.16,0-3.91,1.42-3.91,3.17s1.75,3.16,3.91,3.16C1096,400,1101.67,405.26,1101.67,411.76Z"/><polygon class="cls-2" points="667.21 934.84 643.15 907.38 487.2 907.38 487.2 823.42 667.21 823.42 667.21 934.84"/><circle class="cls-6" cx="531.1" cy="850.98" r="6.95"/><path class="cls-6" d="M517.33,870.81l1.68-2.3a15,15,0,0,1,24.18,0l1.67,2.3a10.51,10.51,0,0,1-8.49,16.71H525.82A10.51,10.51,0,0,1,517.33,870.81Z"/><circle class="cls-18" cx="626.31" cy="865.59" r="18.62"/><path class="cls-18" d="M569.16,870.35a13.86,13.86,0,1,0,6.11-11.49V847h16.51"/><polygon class="cls-4" points="667.21 934.84 643.15 907.38 611.37 907.38 612.62 921.11 639.29 921.11 667.21 934.84"/><path class="cls-4" d="M1485.64,1124.67v4.75a54.08,54.08,0,0,0,23.19,44.39l42.8,29.77s-17.17-48-50.39-69.61Z"/><circle class="cls-3" cx="1531.62" cy="1124.67" r="45.99"/><path class="cls-6" d="M1556,1120.08a13,13,0,0,1-4.47,9.8l-19.93,19.94-19.94-19.94a13,13,0,1,1,19.94-16,13,13,0,0,1,24.4,6.24Z"/><circle class="cls-3" cx="589.35" cy="547.4" r="76.71"/><circle class="cls-19" cx="560.05" cy="525.19" r="9.57"/><path class="cls-19" d="M540.75,557.67l4.67-6.4a18.1,18.1,0,0,1,29.27,0l4.67,6.4a14.9,14.9,0,0,1-12,23.68H552.78A14.9,14.9,0,0,1,540.75,557.67Z"/><circle class="cls-20" cx="619.97" cy="525.19" r="9.57"/><circle class="cls-21" cx="589.35" cy="515.62" r="9.57"/><path class="cls-21" d="M579.56,539a13.84,13.84,0,0,1,19.58,0"/><path class="cls-20" d="M600.66,557.67l4.67-6.4a18.11,18.11,0,0,1,29.28,0l4.67,6.4a14.91,14.91,0,0,1-12,23.68H612.69A14.9,14.9,0,0,1,600.66,557.67Z"/><path class="cls-6" d="M785.83,667.72a3.5,3.5,0,0,1-5,4.95L775.24,667l-5.65,5.65a3.5,3.5,0,0,1-5-4.95l5.65-5.65-5.65-5.65a3.5,3.5,0,1,1,5-4.95l5.65,5.65,5.64-5.65a3.5,3.5,0,1,1,5,4.95l-5.65,5.65Z"/><path class="cls-6" d="M1285.75,834.07a3.5,3.5,0,0,1-4.94,4.95l-5.65-5.65-5.65,5.65a3.5,3.5,0,1,1-5-4.95l5.65-5.64-5.65-5.65a3.5,3.5,0,1,1,5-4.95l5.65,5.65,5.65-5.65a3.5,3.5,0,0,1,4.94,4.95l-5.64,5.65Z"/><path class="cls-3" d="M497.8,1191.37a3.49,3.49,0,0,1,0,5,3.49,3.49,0,0,1-4.95,0l-5.64-5.64-5.65,5.64a3.5,3.5,0,0,1-4.95-5l5.65-5.64-5.65-5.65a3.5,3.5,0,0,1,4.95-4.95l5.65,5.65,5.64-5.65a3.5,3.5,0,1,1,4.95,4.95l-5.64,5.65Z"/><path class="cls-2" d="M772.07,427.79a3.5,3.5,0,0,1-3.5,3.5h-6.5v6.5a3.5,3.5,0,1,1-7,0v-6.5h-6.5a3.5,3.5,0,0,1,0-7h6.5v-6.5a3.5,3.5,0,0,1,7,0v6.5h6.5A3.5,3.5,0,0,1,772.07,427.79Z"/><path class="cls-2" d="M1402.12,1017.27a3.5,3.5,0,0,1-3.5,3.5h-6.5v6.5a3.5,3.5,0,0,1-7,0v-6.5h-6.5a3.5,3.5,0,0,1,0-7h6.5v-6.5a3.5,3.5,0,0,1,7,0v6.5h6.5A3.5,3.5,0,0,1,1402.12,1017.27Z"/></g></g></svg>