<svg xmlns="http://www.w3.org/2000/svg" viewBox="0 0 851.03 804.77"><defs><style>.cls-1{fill:#004d89;}.cls-2{fill:#fff;stroke:#004d89;stroke-linejoin:round;}.cls-2,.cls-5,.cls-8{stroke-width:7px;}.cls-3{fill:#91e6f0;}.cls-4{fill:#ffb400;}.cls-5,.cls-6,.cls-7,.cls-8{fill:none;stroke-miterlimit:10;}.cls-5,.cls-7{stroke:#ffb400;}.cls-6{stroke:#fff;stroke-width:4.3px;}.cls-6,.cls-8{stroke-linecap:round;}.cls-7{stroke-width:6px;}.cls-8{stroke:#91e6f0;}</style></defs><g id="Isolation_Mode" data-name="Isolation Mode"><path class="cls-1" d="M566.6,392.42a22.69,22.69,0,0,1-7,16.42L448.51,514.74a33.14,33.14,0,0,1-46,0L291.39,408.84a22.89,22.89,0,0,1-5.14-25.38,22.26,22.26,0,0,1,5.14-7.46L402.52,270.1a33.14,33.14,0,0,1,46,0L559.64,376A22.67,22.67,0,0,1,566.6,392.42Z"/><polygon class="cls-2" points="533.7 504.02 326.6 504.02 320.94 297.61 363.57 254.98 528.03 254.98 533.7 504.02"/><polygon class="cls-3" points="506.84 312.6 512.39 330.59 494.4 325.03 485.62 341.68 476.83 325.04 458.84 330.59 464.4 312.61 447.75 303.81 464.4 295.02 458.84 277.04 476.83 282.59 485.62 265.95 494.41 282.59 512.39 277.04 506.84 295.02 523.49 303.81 506.84 312.6"/><polygon class="cls-4" points="504.15 308.57 509.7 326.56 491.71 321 482.93 337.65 474.14 321 456.15 326.56 461.71 308.57 445.06 299.78 461.71 290.99 456.15 273.01 474.14 278.56 482.93 261.91 491.72 278.56 509.7 273.01 504.15 290.99 520.8 299.78 504.15 308.57"/><line class="cls-5" x1="372.81" y1="351.77" x2="474.15" y2="351.77"/><line class="cls-5" x1="372.81" y1="400.17" x2="474.15" y2="400.17"/><line class="cls-5" x1="394.47" y1="376.24" x2="474.15" y2="376.24"/><line class="cls-5" x1="372.81" y1="376.24" x2="383.91" y2="376.24"/><circle class="cls-6" cx="475.04" cy="292.83" r="4.78"/><circle class="cls-6" cx="490.82" cy="306.73" r="4.78"/><line class="cls-6" x1="492.47" y1="287.21" x2="473.39" y2="312.35"/><path class="cls-3" d="M367.07,255v42.63a3.5,3.5,0,0,1-3.5,3.5H320.94a3.5,3.5,0,0,1-2.48-6L361.1,252.5a3.5,3.5,0,0,1,6,2.48Z"/><path class="cls-7" d="M449.58,251.42v-7.69A16.76,16.76,0,0,1,466.34,227h0a16.76,16.76,0,0,1,16.76,16.76V270.1"/><path class="cls-4" d="M566.6,387V546.9c0,17.07-13.39,30.9-29.91,30.9H314.34c-16.52,0-29.91-13.83-29.91-30.9v-157a49.54,49.54,0,0,0,7,8.2l82.24,78.37,28.89-27.53a33.12,33.12,0,0,1,46,0l28.89,27.53,82.24-78.37C564.08,393.85,566.6,393.28,566.6,387Z"/><path class="cls-8" d="M300.59,546.05l101.93-97.14a33.14,33.14,0,0,1,46,0l101.42,96.66"/></g></svg>