<svg xmlns="http://www.w3.org/2000/svg" viewBox="0 0 2000 1700"><defs><style>.cls-1{fill:#91e6f0;}.cls-12,.cls-15,.cls-2,.cls-21,.cls-7{fill:#fff;}.cls-12,.cls-19,.cls-2,.cls-3{stroke:#ffb400;}.cls-17,.cls-2,.cls-21,.cls-6{stroke-miterlimit:10;}.cls-12,.cls-14,.cls-2,.cls-20,.cls-3,.cls-6{stroke-width:7px;}.cls-10,.cls-11,.cls-13,.cls-14,.cls-16,.cls-17,.cls-18,.cls-19,.cls-20,.cls-3,.cls-6,.cls-9{fill:none;}.cls-12,.cls-13,.cls-14,.cls-16,.cls-18,.cls-20,.cls-3,.cls-6,.cls-9{stroke-linecap:round;}.cls-10,.cls-11,.cls-12,.cls-13,.cls-14,.cls-16,.cls-18,.cls-19,.cls-20,.cls-3,.cls-7,.cls-9{stroke-linejoin:round;}.cls-4{fill:#ffb400;}.cls-5{fill:#004b82;}.cls-10,.cls-16,.cls-17,.cls-20,.cls-21,.cls-6,.cls-7,.cls-9{stroke:#004d89;}.cls-10,.cls-11,.cls-16,.cls-17,.cls-18,.cls-19,.cls-21,.cls-7{stroke-width:6px;}.cls-8{fill:#004d89;}.cls-13,.cls-9{stroke-width:5px;}.cls-11,.cls-13,.cls-18{stroke:#fff;}.cls-14{stroke:#91e6f0;}</style></defs><g id="Слой_1" data-name="Слой 1"><g id="SPARKLES"><path class="cls-1" d="M722.76,397.55a3.5,3.5,0,0,1-5,4.95l-5-5-5,5a3.5,3.5,0,0,1-5-4.95l5-5-5-5a3.5,3.5,0,0,1,5-4.95l5,5,5-5a3.5,3.5,0,0,1,5,4.95l-5,5Z"/><path class="cls-1" d="M440.76,949.68a3.5,3.5,0,0,1-4.95,5l-5-5-5,5a3.5,3.5,0,1,1-4.95-5l5-5-5-5a3.5,3.5,0,1,1,4.95-5l5,5,5-5a3.5,3.5,0,0,1,4.95,5l-5,5Z"/><path class="cls-1" d="M1223.13,1066.47a3.5,3.5,0,1,1-5,5l-5-5-5,5a3.5,3.5,0,1,1-5-5l5-5-5-5a3.5,3.5,0,1,1,5-5l5,5,5-5a3.5,3.5,0,1,1,5,5l-5,5Z"/><path class="cls-1" d="M1589.11,634.24a3.49,3.49,0,0,1,0,5,3.49,3.49,0,0,1-4.95,0l-5-5-5,5a3.48,3.48,0,0,1-2.48,1,3.44,3.44,0,0,1-2.47-1,3.49,3.49,0,0,1,0-5l5-5-5-5a3.5,3.5,0,0,1,5-5l5,5,5-5a3.5,3.5,0,0,1,4.95,5l-5,5Z"/></g><g id="_2_MAN" data-name="2 MAN"><g id="LEGS"><path class="cls-2" d="M1630.65,1228.3,1565,1283.58l-56.56.45-62.6-82.77c-35.64-45.52-39-99.86-34.86-157.51L1416,839h114.49v200.58a218.64,218.64,0,0,0,68.84,159.26Z"/><path class="cls-2" d="M1526.24,860.32l-200.84,432H1229L1199.8,1264l201.14-435.58,4.32-69h120.29l8.84,27.89A115.35,115.35,0,0,1,1526.24,860.32Z"/><line class="cls-3" x1="1531.15" y1="778.83" x2="1404.04" y2="778.83"/><polygon class="cls-4" points="1407.2 845.37 1398.77 811.46 1402.42 763.64 1414.61 763.32 1407.2 845.37"/><polyline class="cls-3" points="1535.95 796.25 1490.08 796.25 1490.08 808.33 1536.94 808.33"/><line class="cls-3" x1="1435.53" y1="778.83" x2="1466.21" y2="838.96"/><path class="cls-4" d="M1648.56,1262l-61,74.12h-71.18a6.8,6.8,0,0,1-3.73-12.49l4.32-2.84a11.61,11.61,0,0,0,2.93-16.69l-17.12-22.86,61.17-.48,66.58-56,14.52,10.38a18.57,18.57,0,0,1,3.53,26.91Z"/><path class="cls-5" d="M1661.7,1259.09l-69.64,85a1.61,1.61,0,0,1-1.25.59h-80.32a5.8,5.8,0,1,1,0-11.59h75l67.31-81.41a5.8,5.8,0,0,1,9,7.37Z"/><line class="cls-6" x1="1510.74" y1="1299.98" x2="1536.99" y2="1299.98"/><path class="cls-4" d="M1328.68,1331.06a15.14,15.14,0,0,1-11.28,5H1158.7a8.24,8.24,0,0,1-5.17-14.66c17.29-13.92,31.43-34.16,40.74-54.31l4-7.3L1229,1292.3h100.49l3,27A15.19,15.19,0,0,1,1328.68,1331.06Z"/><path class="cls-5" d="M1336.33,1338.28a6.64,6.64,0,0,1-6.75,6.51H1151.77a6.52,6.52,0,1,1,0-13h177.81A6.64,6.64,0,0,1,1336.33,1338.28Z"/><line class="cls-6" x1="1176.24" y1="1284.03" x2="1197.06" y2="1303.92"/></g><path id="HAND" class="cls-7" d="M1343.3,634.73H1230.07a79.15,79.15,0,0,1-73.62-50.07l-53.37-135h-1.4a29,29,0,0,1-29-29V392.43l52.34-14.2,111.09,165.83h80.14"/><g id="HEAD"><path class="cls-7" d="M1491.9,543.77l-70.42,5.36-2.3-47.37L1407,470.21l-7.34-2.2a4.66,4.66,0,0,1-2-7.77l31.93-31.93,43.68,31.91-7.08,10.41h0a12.17,12.17,0,0,1,17.24-3l.45.33a14.42,14.42,0,0,1-8.51,26.06Z"/><path class="cls-8" d="M1448.15,487.44l13.28-17.23h0a19.38,19.38,0,0,1-7.84-15.57l.37-12.19,25,16.76-31.47,41.52a15.61,15.61,0,0,1-15.19,5.77l-13.17-1.93-15.55-4.34a10.53,10.53,0,0,1-6-16l9.42-17.08,6.4,1.47c10.36,2.54,11.84,9.07,14.59,15.87h0A11.63,11.63,0,0,0,1448.15,487.44Z"/><polyline class="cls-9" points="1476.55 477.43 1471.35 481.05 1476.55 482.78"/><circle class="cls-8" cx="1426.06" cy="455.74" r="3.47"/><path class="cls-4" d="M1422.59,427.4l9.38-7.13c9.92-7.9,27-9.48,39.65-2.22,12.2,7,18.26,18.64,15.65,33.05l-2.87,13.37,22.87,16.31a2.85,2.85,0,1,1-3.31,4.64Z"/><circle class="cls-1" cx="1439.13" cy="479.18" r="9.16"/><path class="cls-8" d="M1443.06,441.62,1416,422.81a10.33,10.33,0,0,0-16.22,8.46h0a10.33,10.33,0,0,0,10.33,10.35Z"/><line class="cls-10" x1="1475.39" y1="494.04" x2="1465.19" y2="490.58"/></g><g id="BODY"><path class="cls-1" d="M1531.15,763.64h-130l-22.86-121.7-35-4.41L1314,541.06h110a44.15,44.15,0,0,1,78.28,21.72Z"/><polygon class="cls-8" points="1338.3 621.06 1313.96 541.06 1337.37 541.06 1338.3 621.06"/><line class="cls-11" x1="1411.03" y1="569.18" x2="1378.34" y2="641.93"/><line class="cls-11" x1="1453.35" y1="675.38" x2="1481.67" y2="618.37"/><line class="cls-11" x1="1487.54" y1="633.88" x2="1474.99" y2="633.88"/></g></g><g id="WEB_PAGE"><rect class="cls-12" x="691.74" y="427.23" width="659.04" height="583.16" rx="42.99" transform="translate(-164.98 328.32) rotate(-16.92)"/><path class="cls-4" d="M1275.81,423.36l-624.64,190a52.1,52.1,0,0,0-5.77,2.12l-11.74-38.61a43,43,0,0,1,28.61-53.64l548.26-166.77a43,43,0,0,1,53.64,28.61Z"/><circle class="cls-13" cx="1220.02" cy="395.15" r="10.16"/><circle class="cls-13" cx="1180.36" cy="407.22" r="10.16"/><circle class="cls-13" cx="1140.7" cy="419.28" r="10.16"/><path class="cls-1" d="M983.85,915.89l-57.16,17.39a12.69,12.69,0,0,1-15.65-8.5l-42.7-140.37a12.69,12.69,0,0,1,8.43-15.83l57-17.34a12.67,12.67,0,0,1,15.82,8.45L992.3,900.06A12.7,12.7,0,0,1,983.85,915.89Z"/><path class="cls-1" d="M1104.1,878.42l-57.16,17.39a12.68,12.68,0,0,1-15.65-8.49L953.46,643.38a12.69,12.69,0,0,1,8.44-15.83l57-17.34a12.69,12.69,0,0,1,15.83,8.45l77.83,243.94A12.67,12.67,0,0,1,1104.1,878.42Z"/><path class="cls-1" d="M1232.51,840.2l-57.16,17.39a12.7,12.7,0,0,1-15.66-8.5l-59.51-193.33a12.68,12.68,0,0,1,8.43-15.83l57-17.34a12.68,12.68,0,0,1,15.83,8.45L1241,824.37A12.69,12.69,0,0,1,1232.51,840.2Z"/><polyline class="cls-3" points="875.33 899.83 1019.45 714.93 1237.4 714.93 1262.92 666.26"/><polyline class="cls-3" points="1247.18 667.99 1264.65 661.85 1271.7 680.57"/><circle class="cls-1" cx="791.3" cy="681.43" r="59.98"/><path class="cls-4" d="M773.84,624.05l17.46,57.38L848.68,664h0a60,60,0,0,0-74.84-39.93Z"/><line class="cls-14" x1="1124.37" y1="508.8" x2="1235.07" y2="475.13"/><line class="cls-14" x1="1130.53" y1="526.29" x2="1241.23" y2="492.62"/></g><g id="_1_MAN" data-name="1 MAN"><g id="HEAD-2" data-name="HEAD"><path class="cls-15" d="M633,783.63h-5.86v20.16l-50.24-15.92,5.65-20.26a12.66,12.66,0,0,1,2-25.15,12.46,12.46,0,0,1,2.47.25l-.72-6.26a30,30,0,0,1,29.75-33.38h1.58a29.93,29.93,0,0,1,29.53,25l5.39,32.41A19.87,19.87,0,0,1,633,783.63Z"/><path class="cls-8" d="M644.13,718.91A28.9,28.9,0,0,0,606,723l-4.09,4.51c9.66,17.64-4.65,27.57-4.65,27.57a12.63,12.63,0,0,0-10.18-12.41l-.72-6.26a30,30,0,0,1,29.75-33.38h1.58A29.93,29.93,0,0,1,644.13,718.91Z"/><circle class="cls-8" cx="620" cy="744.98" r="2.85"/><circle class="cls-8" cx="641.44" cy="740.07" r="2.61"/><circle class="cls-4" cx="614.25" cy="758.12" r="8.78"/><path class="cls-16" d="M576.94,787.87l5.65-20.26a12.66,12.66,0,0,1,2-25.15,12.46,12.46,0,0,1,2.47.25l-.72-6.26a30,30,0,0,1,29.75-33.38h1.58a29.93,29.93,0,0,1,29.53,25l5.39,32.41A19.87,19.87,0,0,1,633,783.63h-5.86l-.39,21.18"/><path class="cls-16" d="M616.94,778.43c3.56,2.77,8,5,12.93,5.2"/><polyline class="cls-9" points="631.97 735.95 639.02 752.08 633.44 754.77"/><path class="cls-16" d="M597.29,755.12a12.65,12.65,0,0,0-12.65-12.66h0A12.65,12.65,0,0,0,572,755.12h0a12.65,12.65,0,0,0,12.65,12.65H591"/><polyline class="cls-9" points="584.64 751.91 588.28 756.12 583.75 757.46"/><path class="cls-9" d="M633.86,762.92s-7.56.55-10.5-4.49"/></g><g id="HANDS"><path class="cls-15" d="M585.13,595.87l2.29-57.29A23.54,23.54,0,0,1,609.92,516l50.79-2.2a10.29,10.29,0,0,1,10.74,10.28h0a10.3,10.3,0,0,1-6.38,9.52l-22.56,9.27a11.19,11.19,0,0,0-6.89,9.45l-2,24.55,1.74-21.72a10.57,10.57,0,0,1,10.48-9.72h0A10.55,10.55,0,0,1,656.47,556v42.2a40.08,40.08,0,0,1-8.27,24.4l-5.1,6.67Z"/><path class="cls-17" d="M585.13,595.87l2.29-57.29A23.54,23.54,0,0,1,609.92,516l50.79-2.2a10.29,10.29,0,0,1,10.74,10.28h0a10.3,10.3,0,0,1-6.38,9.52l-22.56,9.27a11.19,11.19,0,0,0-6.89,9.45l-2,21.86,1.74-19a10.57,10.57,0,0,1,10.48-9.72h0A10.55,10.55,0,0,1,656.47,556v42.2a40.08,40.08,0,0,1-8.27,24.4l-5.1,6.67"/><path class="cls-17" d="M657.87,513.92l-32.22,9.27a18,18,0,0,0-11.73,10.57l-3.44,8.56"/><circle class="cls-1" cx="645.78" cy="554.52" r="5.46"/><path class="cls-15" d="M957.18,986.76l33.24-17.4,39.66,7.38a6.52,6.52,0,0,1,.66,12.64l-27.43,8.4a3.55,3.55,0,0,0,.44,6.89l21.86,10.46a13.89,13.89,0,0,0,17-4h0a19.75,19.75,0,0,1,26-8.93h0a4.87,4.87,0,0,1,2.31,6.58l-7.88,15.84,4.09-8.21a12.59,12.59,0,0,1,17.66-5.21h0a6.15,6.15,0,0,1,1.4,9.45c-6.29,6.85-17,17.18-24.42,25.21-5,5.47-12.36,6.89-19.76,6.09l-84.76.4"/><path class="cls-16" d="M955.19,986.72l23.23-13.05a33.79,33.79,0,0,1,20-4.14l30.49,3.14c10.06,1.23,8.36,14.72,1.87,16.71l-27.43,8.4c-3.58,1.09-4.39,4.16.44,6.89l23,12a11.49,11.49,0,0,0,15.59-5.07l.25-.48a19.75,19.75,0,0,1,26-8.93h0a4.87,4.87,0,0,1,2.31,6.58l-7.88,15.84,4.09-8.21a12.59,12.59,0,0,1,17.66-5.21h0a6.16,6.16,0,0,1,1.38,9.47c-6.29,6.85-16.11,16.44-22.57,23.22a28,28,0,0,1-21.59,7.88l-83.41.58"/><path class="cls-16" d="M1067.06,1016.36l-12.7,25.47c-3.81,7.63-6.35,9.54-17.16,9.92"/><path class="cls-1" d="M1068.4,1006.94c-3.47-1.73-7.56-.58-9.13,2.56s0,7.1,3.45,8.83Z"/><path class="cls-1" d="M1085,1017.4a6.36,6.36,0,1,0-8.63,9.35Z"/><path class="cls-1" d="M1019.21,974.71c-.38,3.86,2.15,7.27,5.65,7.61a6.46,6.46,0,0,0,6.5-4.24,1.71,1.71,0,0,0-1.43-2.32Z"/></g><g id="BODY-2" data-name="BODY"><path class="cls-1" d="M940.34,1055.44c-4.15,7.47-15.76,12.78-31,14.33l-56.77,6.8a121.45,121.45,0,0,1-84.9-21.68l-63.77-45.45-173.55,69c-11.76-8-18.7-27.75-15.41-41.56l30.16-127.17-91.65-91.12a63.13,63.13,0,0,1-.38-89.16L557.69,610.79c4.66-5.28,11.92-8.82,18.73-7l6-13.3,64.44,38.77L539.14,767.88l32.74,28.84L574.2,787l55.67,11.46V812a37.74,37.74,0,0,1,28.64,13.18l94.18,110a91.87,91.87,0,0,0,60.67,31.68l145.17,14.52v73.8Z"/><line class="cls-13" x1="588.88" y1="611.29" x2="596.69" y2="597.98"/><line class="cls-13" x1="605.51" y1="621.46" x2="614.66" y2="608.15"/><line class="cls-13" x1="622.84" y1="631.4" x2="630.65" y2="619.44"/><path class="cls-13" d="M634.51,809.85s-18.58-4-40.84,18.34"/><line class="cls-13" x1="590.09" y1="790.48" x2="587.54" y2="801.39"/><line class="cls-13" x1="608.74" y1="794.34" x2="607.15" y2="805.24"/><line class="cls-13" x1="570.82" y1="790.99" x2="563.4" y2="824.74"/><line class="cls-13" x1="958.53" y1="998.14" x2="942.69" y2="998.14"/><line class="cls-13" x1="958.53" y1="1019" x2="942.69" y2="1019"/><line class="cls-13" x1="958.53" y1="1039.86" x2="942.69" y2="1039.86"/><line class="cls-16" x1="703.87" y1="1009.44" x2="609.07" y2="933.18"/></g><g id="LEGS-2" data-name="LEGS"><path class="cls-8" d="M911.8,1261c-10.51,14.51-29.45,26.86-49.13,27.13l-84.53,1.09L754,1109.37l-46.63,16.38,56.27,104.9c25,46.6-8.77,103-61.65,103H459.46a19.66,19.66,0,0,0,.28-5.36c-14.12-12.31-7-43.84,4.77-55.72l58.32-60.27h102l-68.6-56.62a66.21,66.21,0,0,1-25.91-52.52v-24.69L768.92,981a55.5,55.5,0,0,1,74.41,36.3Z"/><line class="cls-18" x1="613.59" y1="1209.23" x2="644.46" y2="1209.23"/><polyline class="cls-18" points="756.93 1094.64 752.1 1112.66 767.16 1102.31"/><path class="cls-18" d="M752.1,1112.66,618,1153.94c-14.83,4.26-40.6,4.1-47.62-8.18"/></g><g id="SHOES"><path class="cls-15" d="M977.57,1318.55v15.12H779.73v-44.43l82.94-1.11c19.68-.27,38.63-12.63,49.13-27.14Z"/><path class="cls-19" d="M781.08,1289.08v44.59H978.92a33.11,33.11,0,0,0-11.43-25l-57.4-45.55"/><polyline class="cls-20" points="929.69 1266.16 914.28 1292.17 945.21 1281.86"/><path class="cls-8" d="M983,1328.24a2.84,2.84,0,0,1-1.12,2.26v14.09a8.81,8.81,0,0,1-8.28-2.28l-2-2a8.82,8.82,0,0,0-12.44.08l-2,2a8.82,8.82,0,0,1-12.44.08l-2-2a8.82,8.82,0,0,0-12.45.07l-2,2c-3.4,3.42-9.82,2.44-12.41-1.22l-1.37-1.35h0a8.81,8.81,0,0,0-12.44.08l-2,2a8.81,8.81,0,0,1-12.44.07l-2-1.94a8.81,8.81,0,0,0-12.44.07l-2,2a8.8,8.8,0,0,1-12.44.08l-2-2a8.83,8.83,0,0,0-12.45.08l-1.95,2a8.83,8.83,0,0,1-12.45.08l-2-2a8.81,8.81,0,0,0-12.44.07l-2,2a8.82,8.82,0,0,1-12.44.07l-2.14-2.11a8.82,8.82,0,0,0-12.28-.08l-2.6,2.5a8.78,8.78,0,0,1-6.3,2.44v-14.88a2.85,2.85,0,0,1,1.69-5.14H980.18A2.86,2.86,0,0,1,983,1328.24Z"/><path class="cls-15" d="M360,1331.57l-10.61-10.77L490.27,1182l31.18,31.64-56.94,59c-11.74,11.88-18.89,43.41-4.77,55.72,0,0-1.27,5.27-4.63,5.2Z"/><path class="cls-19" d="M520.61,1214.65l-31.3-31.76L348.39,1321.75h0a33.13,33.13,0,0,0,25.71,9.8l85.88-.4"/><polyline class="cls-20" points="430.84 1335.28 423.56 1305.94 408.76 1334.99"/><path class="cls-8" d="M496.1,1187.82,353.3,1328.53a2.85,2.85,0,0,1-2,.82,2.88,2.88,0,0,1-2-.85,2.84,2.84,0,0,1-.79-2.4l-9.89-10a8.8,8.8,0,0,1,7.5-4.18h2.78a8.82,8.82,0,0,0,8.81-8.79v-2.78a8.81,8.81,0,0,1,8.81-8.79h2.78a8.8,8.8,0,0,0,8.81-8.78V1280c0-4.83,5.29-8.64,9.69-7.84h1.94a8.8,8.8,0,0,0,8.81-8.78v-2.78a8.81,8.81,0,0,1,8.81-8.79h2.78a8.82,8.82,0,0,0,8.81-8.79v-2.78a8.8,8.8,0,0,1,8.81-8.78h2.78a8.8,8.8,0,0,0,8.81-8.78v-2.78a8.81,8.81,0,0,1,8.81-8.79H451a8.83,8.83,0,0,0,8.81-8.79v-2.78a8.82,8.82,0,0,1,8.81-8.78h3a8.83,8.83,0,0,0,8.82-8.56l.09-3.61a8.78,8.78,0,0,1,2.78-6.16L493.7,1183a2.85,2.85,0,0,1,2.4,4.85Z"/></g></g><g id="MAN_S_HANDS" data-name="MAN&apos;S HANDS"><path class="cls-15" d="M1378.34,641.93l-124.67,283.9a11.84,11.84,0,0,0,7.15,16.1l3.79,1.23,19.58-25.82-19.58,25.82-19.65,6a11.71,11.71,0,0,0-7.54,15.36h0a11.69,11.69,0,0,0,14.19,7.08L1308,955.29A33.6,33.6,0,0,0,1328.73,938l124.62-262.63Z"/><path class="cls-17" d="M1378.34,641.93,1249.88,928.3c-2.29,5.11,3,11.07,8.38,12.8h0a9.4,9.4,0,0,0,10.39-3.27l15.54-20.49-19.58,25.82-19.65,6a11.71,11.71,0,0,0-7.54,15.36h0a11.69,11.69,0,0,0,14.19,7.08l55.56-16.05a35.54,35.54,0,0,0,21.94-18.29l124.24-261.86"/><path class="cls-1" d="M1257,920.14c3.51,1.65,5.15,5.57,3.65,8.75a6.45,6.45,0,0,1-7,3.41,1.71,1.71,0,0,1-1.26-2.41Z"/><path class="cls-1" d="M1248.55,969.45a2.28,2.28,0,0,1-2.88-2.55,7.52,7.52,0,0,1,14.65-.78Z"/><path class="cls-21" d="M1071.06,392.43l-10.12-6.35a16.49,16.49,0,0,0-24.59,9.34l-5.44,18.63a10.74,10.74,0,0,0,13.36,13.32h0a10.76,10.76,0,0,0,7.16-6.91l8.17-24.54Z"/><circle class="cls-1" cx="1041.55" cy="417.56" r="5.93"/><path class="cls-21" d="M1099.06,383.73l-10.94-6.86a17.83,17.83,0,0,0-26.59,10.1l-5.88,20.14a11.62,11.62,0,0,0,14.45,14.41h0a11.63,11.63,0,0,0,7.74-7.48l8.83-26.54Z"/><circle class="cls-1" cx="1066.75" cy="411.62" r="5.93"/><path class="cls-21" d="M1125,378.23l-11-6.86a17.82,17.82,0,0,0-26.58,10.1l-5.89,20.13A11.63,11.63,0,0,0,1096.06,416h0a11.63,11.63,0,0,0,7.74-7.48l8.83-26.54Z"/><circle class="cls-1" cx="1092.66" cy="406.91" r="5.93"/></g></g></svg>