<svg xmlns="http://www.w3.org/2000/svg" viewBox="0 0 851.03 804.77"><defs><style>.cls-1{fill:#ffb400;}.cls-2{fill:#fff;}.cls-3{fill:#91e6f0;}.cls-4,.cls-5,.cls-7,.cls-8{fill:none;}.cls-4,.cls-7{stroke:#004c85;stroke-width:7.71px;}.cls-4,.cls-5,.cls-8{stroke-linecap:round;}.cls-4,.cls-5{stroke-linejoin:round;}.cls-5{stroke:#91e6f0;stroke-width:9.44px;}.cls-6{fill:#004c85;}.cls-7,.cls-8{stroke-miterlimit:10;}.cls-8{stroke:#ffb400;stroke-width:6.17px;}</style></defs><g id="Isolation_Mode" data-name="Isolation Mode"><rect class="cls-1" x="257.04" y="386.95" width="160.28" height="119.76"/><path class="cls-2" d="M316.54,446a16,16,0,1,1,16-16A16,16,0,0,1,316.54,446Zm0-22.52a6.54,6.54,0,1,0,6.54,6.54A6.55,6.55,0,0,0,316.54,423.48Z"/><path class="cls-2" d="M357.84,481.89a16,16,0,1,1,16-16A16,16,0,0,1,357.84,481.89Zm0-22.52a6.54,6.54,0,1,0,6.54,6.53A6.54,6.54,0,0,0,357.84,459.37Z"/><path class="cls-2" d="M314.72,482.7a4.66,4.66,0,0,1-2.85-1,4.72,4.72,0,0,1-.91-6.62l44.93-59.21a4.72,4.72,0,0,1,7.52,5.7l-44.93,59.22A4.73,4.73,0,0,1,314.72,482.7Z"/><rect class="cls-1" x="445.67" y="469.39" width="86.7" height="9.44"/><rect class="cls-1" x="445.67" y="490.44" width="86.7" height="9.44"/><rect class="cls-3" x="257.04" y="527.9" width="275.32" height="39.45" rx="19.73"/><circle class="cls-2" cx="346.02" cy="547.63" r="8.63"/><circle class="cls-2" cx="395.38" cy="547.63" r="8.63"/><circle class="cls-2" cx="444.73" cy="547.63" r="8.63"/><rect class="cls-4" x="449.77" y="391.05" width="78.49" height="57.91"/><circle class="cls-1" cx="489.02" cy="432.92" r="6.15"/><rect class="cls-1" x="484.78" y="400.14" width="8.48" height="21.18"/><path class="cls-5" d="M542.62,183.85a30,30,0,0,1,30,30.05V497.53l62.39,52.28h-55.6"/><path class="cls-5" d="M482.94,183.85H253.23a30,30,0,0,0-30,30.05v361a30,30,0,0,0,30,30H542.62a30,30,0,0,0,30-30"/><path class="cls-1" d="M526.93,191.16a4.24,4.24,0,0,1,0,6,4.22,4.22,0,0,1-6,0l-7.32-7.31-7.32,7.31a4.24,4.24,0,0,1-6-6l7.32-7.31-7.32-7.31a4.24,4.24,0,0,1,6-6l7.32,7.31,7.32-7.31a4.23,4.23,0,1,1,6,6l-7.31,7.31Z"/><path class="cls-5" d="M262.49,250.11a22.58,22.58,0,0,1,22.57-22.58H452"/><path class="cls-5" d="M487.23,227.53h18.46a22.57,22.57,0,0,1,22.57,22.58v91a22.57,22.57,0,0,1-22.57,22.58H285.06a22.58,22.58,0,0,1-22.57-22.58V292.64"/><circle class="cls-1" cx="321.65" cy="267.11" r="19.28"/><path class="cls-6" d="M324.45,271.8a4.34,4.34,0,0,1-4.35,4.34H294.78L281.47,291.6a4.34,4.34,0,0,1-6.12.46,4.36,4.36,0,0,1-.46-6.12l8.44-9.8h-12a14.94,14.94,0,0,1-12.41-6.61,4.35,4.35,0,0,1,7.22-4.84,6.24,6.24,0,0,0,5.19,2.77H282.2l-7.06-6.95a4.34,4.34,0,1,1,6.09-6.19l13.34,13.14H320.1A4.35,4.35,0,0,1,324.45,271.8Z"/><path class="cls-5" d="M290.92,316.62a10.08,10.08,0,0,1,11.77-.06l5.8,4.52a10,10,0,0,0,12.09-.31l4.35-3.78a10,10,0,0,1,12.09-.32l5.81,4.52a10.06,10.06,0,0,0,11.77-.05l6.21-4.83a10.06,10.06,0,0,1,11.77-.05l5.8,4.52a10,10,0,0,0,12.09-.32l4.35-3.78a10,10,0,0,1,12.09-.31l5.64,4.71a10,10,0,0,0,12.09-.31L429,317a10,10,0,0,1,12.09-.32l5.8,4.52a10.06,10.06,0,0,0,11.77-.05l6.21-4.83a10.06,10.06,0,0,1,11.77-.05l5.8,4.52a10,10,0,0,0,12.09-.32"/><path class="cls-5" d="M290.92,337.13a10.08,10.08,0,0,1,11.77-.06l5.8,4.52a10,10,0,0,0,12.09-.31l4.35-3.78a10,10,0,0,1,12.09-.32l5.81,4.52a10.06,10.06,0,0,0,11.77-.05l6.21-4.83a10.06,10.06,0,0,1,11.77-.05l5.8,4.52a10,10,0,0,0,12.09-.32l4.35-3.78a10,10,0,0,1,12.09-.31l5.64,4.71a10,10,0,0,0,12.09-.31L429,337.5a10,10,0,0,1,12.09-.32l5.8,4.52a10.06,10.06,0,0,0,11.77-.05l6.21-4.83a10.06,10.06,0,0,1,11.77-.05l5.8,4.52a10,10,0,0,0,12.09-.32"/><path class="cls-7" d="M470.68,245.74V220.89a14.4,14.4,0,0,0-14.4-14.4h0a14.4,14.4,0,0,0-14.4,14.4v2.28"/><circle class="cls-8" cx="470.68" cy="272.13" r="27.84"/><path class="cls-1" d="M481.83,277.81a10,10,0,0,1-7.57,9.44v.89a3.07,3.07,0,0,1-6.13,0v-.89a10.5,10.5,0,0,1-6.48-5.12,3,3,0,0,1,2.66-4.32,3.06,3.06,0,0,1,2.65,1.64,4.79,4.79,0,0,0,4.24,2.27c2.58,0,4.66-1.76,4.66-3.91s-2.08-3.9-4.66-3.9c-5.09,0-9.23-3.86-9.23-8.59a8.66,8.66,0,0,1,6.16-8.11v-1.08a3.06,3.06,0,0,1,3.07-3.07,3,3,0,0,1,3.06,3.07v1.07a9.12,9.12,0,0,1,5,4,2.77,2.77,0,0,1-2.41,4.15h-.49a2.87,2.87,0,0,1-2.34-1.32,3.47,3.47,0,0,0-2.85-1.33c-1.81,0-3.27,1.18-3.27,2.65s1.46,2.63,3.27,2.63C477.06,268,481.83,272.38,481.83,277.81Z"/><polyline class="cls-5" points="346.52 299.97 382.74 273.09 410.7 298.39"/><polyline class="cls-5" points="396.7 284.04 409.4 273.09 425.58 287.35"/></g></svg>