<svg xmlns="http://www.w3.org/2000/svg" viewBox="0 0 2000 1700"><defs><style>.cls-1,.cls-11{fill:#91e6f0;}.cls-2{fill:#ffb400;}.cls-10,.cls-13,.cls-3{fill:#fff;}.cls-12,.cls-14,.cls-15,.cls-16,.cls-17,.cls-18,.cls-19,.cls-4,.cls-7,.cls-8,.cls-9{fill:none;}.cls-13,.cls-14,.cls-15,.cls-4,.cls-8{stroke:#ffb400;}.cls-16,.cls-17,.cls-4,.cls-7{stroke-linecap:round;}.cls-10,.cls-11,.cls-12,.cls-13,.cls-14,.cls-15,.cls-16,.cls-17,.cls-18,.cls-4,.cls-8,.cls-9{stroke-miterlimit:10;}.cls-10,.cls-11,.cls-19,.cls-4,.cls-7,.cls-8,.cls-9{stroke-width:6px;}.cls-5{fill:#004d89;}.cls-6{fill:#9be9ec;}.cls-10,.cls-11,.cls-18,.cls-19,.cls-7,.cls-9{stroke:#004d89;}.cls-19,.cls-7{stroke-linejoin:round;}.cls-12,.cls-16{stroke:#fff;}.cls-12{stroke-width:4px;}.cls-13,.cls-14{stroke-width:5px;}.cls-15,.cls-18{stroke-width:7px;}.cls-16{stroke-width:5.67px;}.cls-17{stroke:#91e6f0;stroke-width:5.1px;}</style></defs><g id="Слой_1" data-name="Слой 1"><g id="CLOUDS_SPARKLES" data-name="CLOUDS &amp; SPARKLES"><path class="cls-1" d="M621.57,666.3H411.05a40.29,40.29,0,0,1,38.49-29.19,39.39,39.39,0,0,1,16.59,3.64,32.21,32.21,0,0,1,31-41.54,32.33,32.33,0,0,1,31.82,26.33,39.45,39.45,0,0,1,10-1.29,40.23,40.23,0,0,1,37.81,27.12,35.41,35.41,0,0,1,13.86-2.8A36.06,36.06,0,0,1,621.57,666.3Z"/><path class="cls-1" d="M1448.63,531.78H1215.52a44.61,44.61,0,0,1,42.62-32.33,43.64,43.64,0,0,1,18.37,4A35.82,35.82,0,1,1,1346,486.64a43.69,43.69,0,0,1,11.1-1.43,44.55,44.55,0,0,1,41.87,30,39.3,39.3,0,0,1,15.35-3.11A39.91,39.91,0,0,1,1448.63,531.78Z"/><path class="cls-2" d="M397.91,587.89a3.4,3.4,0,0,1,0,4.81,3.38,3.38,0,0,1-4.8,0L388.44,588l-4.66,4.66a3.4,3.4,0,1,1-4.81-4.81l4.66-4.66L379,578.57a3.4,3.4,0,1,1,4.81-4.81l4.66,4.66,4.67-4.66a3.4,3.4,0,1,1,4.8,4.81l-4.66,4.66Z"/><path class="cls-1" d="M633.72,930.2a3.4,3.4,0,0,1-4.81,4.81l-4.66-4.66L619.59,935a3.4,3.4,0,1,1-4.81-4.81l4.66-4.66-4.66-4.66a3.4,3.4,0,1,1,4.81-4.81l4.66,4.66,4.66-4.66a3.4,3.4,0,1,1,4.81,4.81l-4.66,4.66Z"/><path class="cls-1" d="M1632.91,1046.75a3.4,3.4,0,0,1-4.81,4.81l-4.66-4.66-4.66,4.66a3.42,3.42,0,0,1-2.41,1,3.4,3.4,0,0,1-2.4-5.8l4.66-4.66-4.66-4.66a3.4,3.4,0,0,1,4.81-4.82l4.66,4.67,4.66-4.67a3.4,3.4,0,1,1,4.81,4.82l-4.66,4.66Z"/><path class="cls-2" d="M1212.33,624.68a3.4,3.4,0,0,1,0,4.81,3.42,3.42,0,0,1-4.81,0l-4.66-4.66-4.66,4.66a3.38,3.38,0,0,1-2.41,1,3.34,3.34,0,0,1-2.4-1,3.4,3.4,0,0,1,0-4.81l4.66-4.66-4.66-4.66a3.4,3.4,0,1,1,4.81-4.81l4.66,4.66,4.66-4.66a3.4,3.4,0,1,1,4.81,4.81l-4.66,4.66Z"/><path class="cls-1" d="M990,426.8a3.4,3.4,0,1,1-4.81,4.8l-4.66-4.66-4.66,4.66a3.43,3.43,0,0,1-2.41,1,3.4,3.4,0,0,1-2.4-5.8l4.66-4.67-4.66-4.66a3.4,3.4,0,0,1,4.81-4.81l4.66,4.66,4.66-4.66a3.4,3.4,0,0,1,4.81,4.81l-4.66,4.66Z"/></g><g id="ELEMENTS_ON_BACKGROUND" data-name="ELEMENTS ON BACKGROUND"><rect class="cls-1" x="1289.87" y="973.6" width="289.9" height="365.49"/><circle class="cls-3" cx="1392.53" cy="1010.91" r="8.23"/><circle class="cls-3" cx="1476.87" cy="1010.91" r="8.23"/><path class="cls-4" d="M1392.63,1009.81V973.25a42.18,42.18,0,0,1,42.19-42.18h0A42.17,42.17,0,0,1,1477,973.25v36.56"/><line class="cls-4" x1="1477" y1="1029.24" x2="1477" y2="1043.39"/><circle class="cls-3" cx="1477" cy="1061.91" r="20.76"/><path class="cls-1" d="M1484.62,1066.84a7.17,7.17,0,0,1-5.42,6.77v.63a2.2,2.2,0,1,1-4.4,0v-.63a7.53,7.53,0,0,1-4.64-3.67,2.14,2.14,0,0,1,1.91-3.1A2.17,2.17,0,0,1,1474,1068a3.45,3.45,0,0,0,3,1.63,2.84,2.84,0,1,0,0-5.59,6.41,6.41,0,0,1-6.61-6.16,6.21,6.21,0,0,1,4.41-5.81v-.78a2.2,2.2,0,0,1,4.4,0v.77a6.52,6.52,0,0,1,3.6,2.85,2,2,0,0,1-1.73,3h-.35a2.09,2.09,0,0,1-1.68-.94,2.47,2.47,0,0,0-2-1,1.94,1.94,0,1,0,0,3.79A7.37,7.37,0,0,1,1484.62,1066.84Z"/><rect class="cls-2" x="1480.24" y="1103.81" width="196.34" height="235.34"/><polygon class="cls-3" points="1359.95 1339.15 1428.94 1182.13 1533.38 1182.13 1464.39 1339.15 1359.95 1339.15"/><polygon class="cls-5" points="1464.39 1339.15 1602.59 1339.15 1533.38 1182.13 1464.39 1339.15"/><circle class="cls-6" cx="1493.87" cy="1202.16" r="6.2"/><circle class="cls-6" cx="1454.4" cy="1202.16" r="6.2"/><path class="cls-7" d="M1454.4,1200.83v-33.29a19.75,19.75,0,0,1,19.75-19.74h0a19.74,19.74,0,0,1,19.75,19.74v33.29"/><polygon class="cls-3" points="1602.59 1339.15 1590.27 1339.15 1533.38 1311.64 1476.68 1339.15 1464.39 1339.15 1464.58 1338.72 1533.38 1305.35 1602.4 1338.72 1602.59 1339.15"/><polygon class="cls-1" points="662.81 1342.91 525.93 1342.91 525.93 1090.52 594.37 1042.09 662.81 1090.52 662.81 1342.91"/><polyline class="cls-8" points="353.11 1341.96 353.11 1033.77 421.55 977.54 489.99 1033.77 489.99 1341.96"/></g><g id="HAND"><path class="cls-2" d="M1448.89,673.58a8.52,8.52,0,1,1-16.1,5.49Z"/><path class="cls-9" d="M1345.9,704.29l100.3-32.67a4.5,4.5,0,0,1,5.53,2.38h0a21.8,21.8,0,0,1-8.92,28l-10,6.42,45.91,0c7.63,0,12.41,6.18,12.41,13.82h0c0,7.63-4.78,13.82-12.41,13.82h-35.24a11.51,11.51,0,0,0-11.08,8.4l-9.58,31.31a44.86,44.86,0,0,1-43.08,32.74l-33.82.09"/><path class="cls-9" d="M1394.76,749.6c14.17,0,25.67-12.13,25.67-27.08h0a14.27,14.27,0,0,1,14.27-14.28h.83"/></g><g id="ARROWS"><path class="cls-10" d="M682.66,691.89h101a0,0,0,0,1,0,0V938a35.2,35.2,0,0,1-35.2,35.2H717.86a35.2,35.2,0,0,1-35.2-35.2V691.89a0,0,0,0,1,0,0Z"/><rect class="cls-11" x="682.66" y="675.02" width="100.98" height="30.82" rx="15.41"/><circle class="cls-1" cx="648.8" cy="565.38" r="24.54"/><path class="cls-2" d="M646.21,575.73,657.63,567a2.09,2.09,0,0,0,0-3.33L646.21,555a2.1,2.1,0,0,0-3.37,1.67v17.37A2.1,2.1,0,0,0,646.21,575.73Z"/><line class="cls-9" x1="737.96" y1="702.89" x2="730.24" y2="559.75"/><circle class="cls-2" cx="729.83" cy="524.46" r="40.91"/><rect class="cls-12" x="707.83" y="511.09" width="44" height="26.75" rx="5.2"/><line class="cls-12" x1="709.35" y1="512.62" x2="749.9" y2="536.68"/><line class="cls-12" x1="749.9" y1="512.62" x2="709.35" y2="536.68"/><line class="cls-9" x1="709.34" y1="704.29" x2="692.3" y2="632.76"/><circle class="cls-5" cx="680.44" cy="603.87" r="34.71"/><polygon class="cls-2" points="678.68 596.49 678.68 602.39 686.42 602.39 686.42 608.88 678.68 608.88 678.68 620.02 672.18 620.02 672.18 590 691.59 590 691.59 596.49 678.68 596.49"/><line class="cls-9" x1="763.28" y1="703.8" x2="771.08" y2="654.85"/><circle class="cls-13" cx="776.26" cy="626.06" r="31.98"/><rect class="cls-14" x="762.37" y="612.18" width="27.77" height="27.77" rx="5.57"/><circle class="cls-14" cx="776.26" cy="626.06" r="5.18"/></g><g id="LEGS"><g id="SHOES"><polygon class="cls-5" points="754.99 1205.74 685.22 1147.17 518.74 1341.96 739.55 1341.96 754.99 1205.74"/><rect class="cls-2" x="472.08" y="1231.17" width="277.04" height="20.04" rx="4.75" transform="translate(-726.35 886.32) rotate(-48.94)"/><rect class="cls-5" x="537.88" y="1310.63" width="7" height="20.04" transform="translate(-810.02 861.38) rotate(-48.94)"/><rect class="cls-5" x="560.6" y="1284.55" width="7" height="20.04" transform="translate(-782.57 869.58) rotate(-48.94)"/><rect class="cls-5" x="583.31" y="1258.48" width="7" height="20.04" transform="translate(-755.11 877.74) rotate(-48.94)"/><rect class="cls-5" x="606.02" y="1232.41" width="7" height="20.04" transform="translate(-727.67 885.97) rotate(-48.94)"/><rect class="cls-5" x="628.73" y="1206.34" width="7" height="20.04" transform="translate(-700.21 894.12) rotate(-48.94)"/><rect class="cls-5" x="651.45" y="1180.26" width="7" height="20.04" transform="translate(-672.75 902.28) rotate(-48.94)"/><rect class="cls-5" x="674.16" y="1154.19" width="7" height="20.04" transform="translate(-645.3 910.45) rotate(-48.94)"/><path class="cls-1" d="M621.56,1353.09a3.5,3.5,0,0,1-2.73-5.68l32-40.18a3.5,3.5,0,0,1,5.48,4.36l-32,40.18A3.5,3.5,0,0,1,621.56,1353.09Z"/><path class="cls-1" d="M646.71,1356.1a3.5,3.5,0,0,1-2.73-5.68l32-40.18a3.5,3.5,0,0,1,5.48,4.36l-32,40.18A3.52,3.52,0,0,1,646.71,1356.1Z"/></g><g id="LEGS-2" data-name="LEGS"><path class="cls-3" d="M763,973.2H876.26l122-122.6a83.51,83.51,0,0,1,55.92-21.49h0A83.53,83.53,0,0,1,1134.53,890l82.41,326-199,113.35a82.7,82.7,0,0,1-39.07,9.81H728.31l-1.66-2.82a109.67,109.67,0,0,1,17.1-133.41h0c-57.81-30.33-75.07-105-36.44-157.62Z"/><path class="cls-15" d="M743.75,1202.87h0c-57.81-30.33-75.07-105-36.44-157.62l55.7-72H876.26l122-122.6a83.51,83.51,0,0,1,55.92-21.49h0A83.53,83.53,0,0,1,1134.53,890l82.41,326-199,113.35a82.7,82.7,0,0,1-39.07,9.81h-252"/><path class="cls-15" d="M889.84,1021l156.77,160.47a96.15,96.15,0,0,1,24.63,64.26h0c0,53.11-43.06,93.36-96.17,93.36"/><line class="cls-15" x1="1023.52" y1="960.22" x2="1023.52" y2="1155.76"/><line class="cls-15" x1="1005.7" y1="964.65" x2="1023.52" y2="982.72"/><line class="cls-15" x1="740.93" y1="1202.87" x2="922.75" y2="1202.87"/><line class="cls-15" x1="912.22" y1="1186.33" x2="885.89" y2="1202.87"/></g><g id="SHOES-2" data-name="SHOES"><path class="cls-5" d="M1218.35,1211.73l103.89,127.37h-273v-19.43a20.07,20.07,0,0,1,10.14-17.45Z"/><rect class="cls-2" x="1041.65" y="1318.7" width="281.99" height="20.4" rx="4.84"/><rect class="cls-5" x="1071.88" y="1318.7" width="7" height="20.4"/><rect class="cls-5" x="1107.08" y="1318.7" width="7" height="20.4"/><rect class="cls-5" x="1142.28" y="1318.7" width="7" height="20.4"/><rect class="cls-5" x="1177.47" y="1318.7" width="7" height="20.4"/><rect class="cls-5" x="1212.67" y="1318.7" width="7" height="20.4"/><rect class="cls-5" x="1247.86" y="1318.7" width="7" height="20.4"/><rect class="cls-5" x="1283.06" y="1318.7" width="7" height="20.4"/><path class="cls-1" d="M1198.38,1262.16a3.49,3.49,0,0,1-1.74-6.53l45.12-25.91a3.5,3.5,0,0,1,3.49,6.07l-45.13,25.91A3.54,3.54,0,0,1,1198.38,1262.16Z"/><path class="cls-1" d="M1212.44,1279a3.5,3.5,0,0,1-1.75-6.53l45.13-25.91a3.5,3.5,0,0,1,3.48,6.07l-45.12,25.91A3.54,3.54,0,0,1,1212.44,1279Z"/></g></g><g id="HEAD"><path id="HAIR" class="cls-5" d="M1168.09,705.64H844.2a75.18,75.18,0,0,1-.41-66.38,67.14,67.14,0,1,1,114.27-60.6A78.75,78.75,0,0,1,978.55,576c40.19,0,73.49,30.07,79.39,69.35a75.81,75.81,0,0,0-13.6,11.12l2.88,2.79a71.14,71.14,0,0,1,11.27-9.49,68.13,68.13,0,0,1,9.27-5.29h0a71.07,71.07,0,0,1,28.18-5.79C1133.71,638.65,1164.71,668.07,1168.09,705.64Z"/><g id="HEAD-2" data-name="HEAD"><path class="cls-3" d="M934.09,622.12l-7.39,1.25-1.43,14.4a11.54,11.54,0,0,1-14.68,10l-3.82-1.1v56.27H779.35c17.5,0,32.14-9.75,40.22-25.28l30.22-58.13a15.23,15.23,0,0,1-15.23-15.23v-2.62a15.22,15.22,0,0,1,15.23-15.22h4a9.37,9.37,0,0,1,9.38,9.37c43.43-2.46,43.93-36,43.93-36l8.63,4.32A26,26,0,0,1,930,589.94l-1.37,13.76,8.16,13.82A3.12,3.12,0,0,1,934.09,622.12Z"/><path class="cls-9" d="M777.94,705.7c17.51,0,33.55-12.56,41.63-28.09l29-55.33,4.35,0A10.53,10.53,0,0,0,863,614.82"/><path class="cls-5" d="M906.77,646.62,881.4,636.17a1.58,1.58,0,0,0-1.78,2.53l27.68,30.46-.53-22.54"/><polyline class="cls-7" points="849.69 599.22 855.4 604.01 848.6 605.7"/><circle class="cls-2" cx="889.42" cy="615.68" r="10.7"/><ellipse class="cls-5" cx="917.66" cy="598.59" rx="3.4" ry="3.72"/></g></g><g id="BODY"><path class="cls-2" d="M1345.9,702.89V811.31H967.65L975.34,835a45.75,45.75,0,0,1-12.94,48.18l-86.14,90H760.2L714.79,834.34,601.51,873.08c-56.74,19.4-115.74-22.77-115.74-82.75h0a87.45,87.45,0,0,1,87.45-87.44Z"/><polygon class="cls-5" points="967.84 811.14 956.69 779.06 991.4 811.31 967.84 811.14"/><polygon class="cls-5" points="714.79 834.34 788.98 805.64 801.27 804.73 724.16 863 714.79 834.34"/><line class="cls-16" x1="758.03" y1="719.74" x2="634.01" y2="719.74"/><path class="cls-16" d="M899.63,881.6c-17.5,20-49.87,20.46-74-.7"/></g><g id="BOW"><polyline class="cls-17" points="1191.54 1151.2 789.99 763.71 1191.54 362.16"/><path class="cls-18" d="M1188.73,362.16l204,228a255.63,255.63,0,0,1-3,344.31l-201,216.73"/><polygon class="cls-1" points="1587.71 704.77 1550.62 734.83 1564.13 704.77 1550.62 674.7 1587.71 704.77"/><line class="cls-9" x1="1554.89" y1="704.47" x2="856.4" y2="704.47"/><line class="cls-18" x1="848.6" y1="753.68" x2="969.77" y2="874.69"/></g><g id="HAND-2" data-name="HAND"><path class="cls-3" d="M853.76,726.4l-14.29,3.75h1.82A11.69,11.69,0,0,1,853,741.84v2.71a11.7,11.7,0,0,1-11.7,11.7A11.7,11.7,0,0,1,853,768v2.7a11.7,11.7,0,0,1-11.7,11.7c6.46,0,10.29,5.24,10.29,11.7h0A11.6,11.6,0,0,1,840,805.65H789a43.13,43.13,0,0,1-33.39-15.83l-3.38-4.12a48.65,48.65,0,0,1,21.25-73.42l46.4-18.82a12,12,0,0,1,16,7.67l1.33,4.51,10.52-2.76a10.57,10.57,0,0,1,13,7.77l.73,3.1A10.55,10.55,0,0,1,853.76,726.4Z"/><path class="cls-19" d="M760.84,719.74l59-26.28a12,12,0,0,1,16,7.67l1.33,4.51,10.52-2.76a10.57,10.57,0,0,1,13,7.77l.73,3.1a10.55,10.55,0,0,1-7.59,12.65l-14.29,3.75h1.82A11.69,11.69,0,0,1,853,741.84v2.71a11.7,11.7,0,0,1-11.7,11.7A11.7,11.7,0,0,1,853,768v2.7a11.7,11.7,0,0,1-11.7,11.7c6.46,0,10.29,5.24,10.29,11.7h0A11.6,11.6,0,0,1,840,805.65l-50,3.15"/><line class="cls-9" x1="823.64" y1="708.93" x2="837.15" y2="705.64"/><line class="cls-9" x1="842.83" y1="756.14" x2="824.23" y2="756.14"/><line class="cls-9" x1="844.03" y1="782.35" x2="825.44" y2="782.35"/><line class="cls-9" x1="843.94" y1="729.83" x2="823.94" y2="731.51"/></g><g id="FINGERS"><path class="cls-10" d="M1466.12,709.44h13.11a11.6,11.6,0,0,1,11.6,11.6v3.5a11.6,11.6,0,0,1-11.6,11.6h-13.11a13.35,13.35,0,0,1-13.35-13.35v0A13.35,13.35,0,0,1,1466.12,709.44Z"/><circle class="cls-2" cx="1463.44" cy="722.79" r="7.44"/><path class="cls-10" d="M1444.51,736.14h20.14a11.6,11.6,0,0,1,11.6,11.6v3.5a11.6,11.6,0,0,1-11.6,11.6h-20.14a13.35,13.35,0,0,1-13.35-13.35v0a13.35,13.35,0,0,1,13.35-13.35Z"/><circle class="cls-2" cx="1441.56" cy="749.49" r="7.44"/><path class="cls-10" d="M1444.51,762.84h19.66a11.6,11.6,0,0,1,11.6,11.6v3.5a11.6,11.6,0,0,1-11.6,11.6h-19.66a13.35,13.35,0,0,1-13.35-13.35v0a13.35,13.35,0,0,1,13.35-13.35Z"/><circle class="cls-2" cx="1441.56" cy="776.19" r="7.44"/><path class="cls-10" d="M1446.73,789.54h13.57a9.6,9.6,0,0,1,9.6,9.6V802a9.6,9.6,0,0,1-9.6,9.6h-13.57a11,11,0,0,1-11-11v0A11,11,0,0,1,1446.73,789.54Z"/><circle class="cls-2" cx="1445.01" cy="800.59" r="6.71"/></g></g></svg>