<svg xmlns="http://www.w3.org/2000/svg" viewBox="0 0 2000 1700"><defs><style>.cls-1{isolation:isolate;}.cls-2,.cls-20{fill:#91e6f0;}.cls-14,.cls-18,.cls-22,.cls-25,.cls-3{fill:#fff;}.cls-10,.cls-11,.cls-12,.cls-13,.cls-15,.cls-17,.cls-19,.cls-21,.cls-23,.cls-4,.cls-5,.cls-6,.cls-9{fill:none;}.cls-4{stroke:#bee7ec;stroke-width:6.59px;mix-blend-mode:multiply;}.cls-10,.cls-11,.cls-12,.cls-14,.cls-15,.cls-16,.cls-17,.cls-18,.cls-19,.cls-20,.cls-21,.cls-23,.cls-24,.cls-25,.cls-4,.cls-5,.cls-6,.cls-9{stroke-linecap:round;}.cls-10,.cls-13,.cls-14,.cls-15,.cls-16,.cls-17,.cls-18,.cls-19,.cls-20,.cls-21,.cls-22,.cls-24,.cls-25,.cls-4,.cls-5,.cls-6,.cls-9{stroke-linejoin:round;}.cls-11,.cls-12,.cls-13,.cls-14,.cls-16,.cls-17,.cls-18,.cls-19,.cls-20,.cls-22,.cls-24,.cls-5,.cls-9{stroke:#004d89;}.cls-25,.cls-5,.cls-6{stroke-width:7px;}.cls-15,.cls-25,.cls-6{stroke:#ffb400;}.cls-16,.cls-24,.cls-7{fill:#ffb400;}.cls-8{fill:#004d89;}.cls-12,.cls-13,.cls-14,.cls-15,.cls-16,.cls-9{stroke-width:5px;}.cls-10,.cls-21{stroke:#004b82;}.cls-10{stroke-width:5.04px;}.cls-11,.cls-12,.cls-23{stroke-miterlimit:10;}.cls-11{stroke-width:5.5px;}.cls-17{stroke-width:4px;}.cls-18,.cls-19,.cls-20,.cls-21,.cls-22,.cls-24{stroke-width:6px;}.cls-23{stroke:#fff;stroke-width:7.41px;}</style></defs><g class="cls-1"><g id="Слой_1" data-name="Слой 1"><g id="TARGET"><circle class="cls-2" cx="1152" cy="925.3" r="422.19"/><circle class="cls-3" cx="1152" cy="925.3" r="311.28"/><circle class="cls-2" cx="1152" cy="925.3" r="216.32"/><circle class="cls-3" cx="1152" cy="925.3" r="123.99"/><circle class="cls-2" cx="1152" cy="925.3" r="58.04"/><line class="cls-4" x1="1152" y1="925.3" x2="1563.88" y2="998.58"/><line class="cls-5" x1="1152" y1="925.3" x2="1625.39" y2="925.3"/><polyline class="cls-6" points="1169.77 951.05 1144.64 925.92 1169.77 900.79"/><polyline class="cls-6" points="1625.39 951.05 1600.26 925.92 1625.39 900.79"/><polyline class="cls-6" points="1605.14 951.05 1580.01 925.92 1605.14 900.79"/></g><g id="SPARKLES"><path class="cls-2" d="M1404.06,362.56a3.49,3.49,0,0,1-3.5,3.5h-8v8a3.5,3.5,0,0,1-7,0v-8h-8a3.5,3.5,0,0,1,0-7h8v-8a3.5,3.5,0,1,1,7,0v8h8A3.5,3.5,0,0,1,1404.06,362.56Z"/><path class="cls-2" d="M1624.21,1119.87a3.49,3.49,0,0,1-3.5,3.5h-8v8a3.5,3.5,0,0,1-7,0v-8h-8a3.5,3.5,0,0,1,0-7h8v-8a3.5,3.5,0,0,1,7,0v8h8A3.5,3.5,0,0,1,1624.21,1119.87Z"/><path class="cls-2" d="M577,518.68a3.5,3.5,0,0,1-3.5,3.5h-8v8a3.5,3.5,0,1,1-7,0v-8h-8a3.5,3.5,0,0,1,0-7h8v-8a3.5,3.5,0,0,1,7,0v8h8A3.5,3.5,0,0,1,577,518.68Z"/></g><g id="PEOPLE_ICONS"><g id="MAN"><circle class="cls-7" cx="1483.02" cy="541.38" r="72.02"/><path class="cls-8" d="M1444.11,508.71c0,6.63,5.34,12.14,12.35,13.24a16.84,16.84,0,0,0,2.58.2,15.52,15.52,0,0,0,11.78-5.19,15.52,15.52,0,0,0,11.78,5.19,16.44,16.44,0,0,0,5.06-.79l1.27,19.56,20.93-.42,8.36-29.88a12.42,12.42,0,0,0-12-15.36,15.54,15.54,0,0,0-11.79,5.19,16,16,0,0,0-23.56,0,15.52,15.52,0,0,0-11.78-5.19C1450.8,495.26,1444.11,501.28,1444.11,508.71Z"/><path class="cls-3" d="M1522.17,574.19l-15.33-20.72h2.92a12.32,12.32,0,0,0,12.32-12.32V539.8a12.33,12.33,0,0,0-12.32-12.33c-4.79,0-11.44,3.14-14.13,13.45h0a8.36,8.36,0,0,1-7.16-7.71l-.81-11.85a16.44,16.44,0,0,1-5.06.79,15.52,15.52,0,0,1-11.78-5.19,15.52,15.52,0,0,1-11.78,5.19c-.88,0-4.61-.07-5.45-.2l-9.13,21.8a2,2,0,0,0,1.13,2.83l7.58,2.41-1.92,16.38a7.84,7.84,0,0,0,7.83,7.83h8.31l7.56,24.59Z"/><path class="cls-9" d="M1533.7,588.18l-25.3-34.71h1.36a12.32,12.32,0,0,0,12.32-12.32V539.8a12.32,12.32,0,0,0-23.49-5.21l-2.07,3.92"/><path class="cls-9" d="M1453.59,521l-9.13,22.75a2,2,0,0,0,1.13,2.83l7.58,2.41-1.92,16.38a7.84,7.84,0,0,0,7.83,7.83h8.31l7.56,24.59"/><path class="cls-9" d="M1496,558.67a15.12,15.12,0,0,1-12.49,12l-16.13,2.52"/><polyline class="cls-9" points="1509.26 539.1 1505.41 543.46 1511.17 543.46"/><path class="cls-9" d="M1463.08,535.57a3.34,3.34,0,0,0,6.64,0"/><path class="cls-9" d="M1460.94,549.92s-1.36,5.43-8.16,5.14"/><circle class="cls-2" cx="1481.7" cy="548.99" r="7.98"/><polyline class="cls-9" points="1465.82 608.22 1474.95 597.79 1522.17 574.19"/><line class="cls-10" x1="1474.95" y1="597.79" x2="1488.73" y2="610.29"/><rect class="cls-7" x="1394.34" y="597.79" width="177.37" height="50.93" rx="25.46"/><polygon class="cls-3" points="1483.02 608.55 1487.8 618.23 1498.48 619.78 1490.75 627.32 1492.57 637.96 1483.02 632.93 1473.47 637.96 1475.29 627.32 1467.56 619.78 1478.24 618.23 1483.02 608.55"/><polygon class="cls-3" points="1438.85 608.55 1443.62 618.23 1454.3 619.78 1446.57 627.32 1448.4 637.96 1438.85 632.93 1429.29 637.96 1431.12 627.32 1423.39 619.78 1434.07 618.23 1438.85 608.55"/><polygon class="cls-2" points="1527.2 608.55 1531.97 618.23 1542.65 619.78 1534.92 627.32 1536.75 637.96 1527.2 632.93 1517.64 637.96 1519.47 627.32 1511.74 619.78 1522.42 618.23 1527.2 608.55"/></g><g id="WOMAN"><circle class="cls-3" cx="1326.99" cy="1205.61" r="88.85"/><path class="cls-7" d="M1238.53,1214a88.9,88.9,0,0,0,70.58,78.71l45-67.47A11.86,11.86,0,0,0,1365,1218l2.64-6.19a38.76,38.76,0,0,0-20.68-50.92l-23-9.63a35.8,35.8,0,0,0-48,43.64,9.71,9.71,0,0,1,.45,2.93,9.82,9.82,0,0,1-9.82,9.79H1264A54,54,0,0,0,1238.53,1214Z"/><path class="cls-11" d="M1354.05,1225.19h0A11.88,11.88,0,0,0,1365,1218l2.63-6.17a38.77,38.77,0,0,0-20.68-50.93l-23-9.63a35.81,35.81,0,0,0-41,9.67h0a35.78,35.78,0,0,0-7,34h0a9.81,9.81,0,0,1-9.37,12.73H1264a54.13,54.13,0,0,0-25.51,6.35"/><path class="cls-8" d="M1261.61,1265.77a88.85,88.85,0,0,0,134.91-4.84,129.28,129.28,0,0,0-134.91,4.84Z"/><path class="cls-3" d="M1357.39,1254c0,5-6.16,10.31-21.9,10.31s-27.65-5.29-27.65-10.24l1.21-20.62-2,0a13.32,13.32,0,0,1-13-14.27l.64-9a3.57,3.57,0,0,0-3.56-3.83h-2.19a1.48,1.48,0,0,1-1.49-1.5,1.46,1.46,0,0,1,.46-1.06,27.61,27.61,0,0,0,8.54-18l.32-4.41s13.73,9.5,34.87.14a4.51,4.51,0,0,1,6.08,5.58l-2.19,6.49a24.32,24.32,0,0,0,18.61,31.73Z"/><path class="cls-11" d="M1304.72,1254l4.33-20.62-2,0a13.32,13.32,0,0,1-13-14.27l.64-9a3.57,3.57,0,0,0-3.56-3.83h-2.19a1.48,1.48,0,0,1-1.49-1.5,1.46,1.46,0,0,1,.46-1.06,27.61,27.61,0,0,0,8.54-18l.32-4.41s13.73,9.5,34.87.14a4.51,4.51,0,0,1,6.08,5.58l-2.19,6.49a24.32,24.32,0,0,0,18.61,31.73l6.3,28.83"/><path class="cls-12" d="M1304.66,1197.56a2.94,2.94,0,0,1,2.8-2.61,2.9,2.9,0,0,1,2.66,2"/><path class="cls-13" d="M1294.75,1214.67s7.28,2.72,10.76-3.12"/><circle class="cls-2" cx="1320.29" cy="1208.61" r="8.79"/><polygon class="cls-8" points="1307.48 1230.87 1327.4 1229.82 1306.36 1250.73 1307.48 1230.87"/><path class="cls-11" d="M1307.84,1185.15c-9.6-.72-16.92-7.43-16.36-15"/><circle class="cls-6" cx="1326.99" cy="1205.61" r="88.85"/><rect class="cls-7" x="1212.63" y="1281.82" width="228.72" height="65.67" rx="32.84"/><polygon class="cls-3" points="1326.99 1295.7 1333.15 1308.18 1346.93 1310.18 1336.96 1319.9 1339.31 1333.62 1326.99 1327.14 1314.67 1333.62 1317.03 1319.9 1307.06 1310.18 1320.83 1308.18 1326.99 1295.7"/><polygon class="cls-3" points="1270.03 1295.7 1276.19 1308.18 1289.96 1310.18 1279.99 1319.9 1282.35 1333.62 1270.03 1327.14 1257.71 1333.62 1260.06 1319.9 1250.09 1310.18 1263.87 1308.18 1270.03 1295.7"/><polygon class="cls-3" points="1383.96 1295.7 1390.12 1308.18 1403.89 1310.18 1393.93 1319.9 1396.28 1333.62 1383.96 1327.14 1371.64 1333.62 1373.99 1319.9 1364.02 1310.18 1377.8 1308.18 1383.96 1295.7"/></g></g><g id="MAN_WITH_LOUPE"><g id="OBJECTS"><path class="cls-14" d="M827.57,1239.48c0,59.19-42.08,107.18-96.72,107.18a92.6,92.6,0,0,1-15.89-1.37c-47.07-8.24-83-52.48-83-105.81s36-97.58,83-105.81a91.61,91.61,0,0,1,15.89-1.38C785.49,1132.29,827.57,1180.28,827.57,1239.48Z"/><path class="cls-7" d="M759.19,1251.19c-.53,11.27-9.07,20.44-20.27,23l-.11,2.24a7.77,7.77,0,0,1-15.52-.73l.1-2.24a26.6,26.6,0,0,1-15.79-13.73,7.54,7.54,0,0,1,7.25-10.62,7.74,7.74,0,0,1,6.51,4.46c1.71,3.47,5.71,6,10.45,6.24,6.53.3,12-3.89,12.28-9.33s-4.82-10.12-11.35-10.43c-12.87-.6-22.89-10.85-22.33-22.84.45-9.49,7.35-17.25,16.55-19.78l.13-2.75a7.77,7.77,0,0,1,8.13-7.4,7.74,7.74,0,0,1,7.4,8.13l-.13,2.72a23,23,0,0,1,12.24,10.65,7,7,0,0,1-6.59,10.2l-1.24-.06a7.26,7.26,0,0,1-5.76-3.6,8.8,8.8,0,0,0-7.06-3.72c-4.56-.22-8.42,2.6-8.59,6.32s3.4,6.85,8,7.06C748.28,1225.68,759.84,1237.45,759.19,1251.19Z"/><path class="cls-15" d="M732.91,1145.48a77.83,77.83,0,0,1,16.7,1.8"/><path class="cls-15" d="M691.42,1321.71c-26.31-16-44.12-46.85-44.12-82.23,0-46.78,31.12-85.57,71.86-92.79"/><path class="cls-15" d="M765.07,1152.46A82.47,82.47,0,0,1,792.49,1173c15,17,24.12,40.51,24.12,66.47"/><path class="cls-16" d="M715,1345.29a92.6,92.6,0,0,0,15.89,1.37h-34.2c-54.63,0-91.19-48-91.19-107.18s36.56-107.19,91.19-107.19h34.2a91.61,91.61,0,0,0-15.89,1.38c-47.07,8.23-83,52.47-83,105.81S667.89,1337.05,715,1345.29Z"/><line class="cls-17" x1="638.31" y1="1155.38" x2="656.98" y2="1155.38"/><line class="cls-17" x1="652.42" y1="1174.16" x2="622.85" y2="1174.16"/><line class="cls-17" x1="624.79" y1="1186.71" x2="616.18" y2="1186.71"/><line class="cls-17" x1="645.03" y1="1186.71" x2="632.81" y2="1186.71"/><line class="cls-17" x1="631.93" y1="1237.27" x2="605.46" y2="1237.27"/><line class="cls-17" x1="606.56" y1="1254.62" x2="620.37" y2="1254.62"/><line class="cls-17" x1="639.83" y1="1281.51" x2="618.69" y2="1281.51"/><line class="cls-17" x1="628.62" y1="1312.82" x2="658.68" y2="1312.82"/><line class="cls-17" x1="637.39" y1="1321.71" x2="667.45" y2="1321.71"/><polygon class="cls-8" points="774.73 1193.99 759.86 1348.91 736.67 1348.91 774.73 1193.99"/><polygon class="cls-7" points="911.15 1348.91 759 1348.91 774.73 1193.99 895.43 1193.99 911.15 1348.91"/><path class="cls-11" d="M819.31,1203.56v-17.47A15.68,15.68,0,0,1,835,1170.41h0a15.68,15.68,0,0,1,15.68,15.68v17.47"/></g><g id="LEGS"><path class="cls-18" d="M797.1,894.48,760.46,1092a56.48,56.48,0,0,0-26.74,6.74l-19.78,10.64a23.69,23.69,0,0,1-24.22-1.06l-24.59-16.14,40.54-162.67L574.5,926.94,488.88,1309.8h-8.67a56.49,56.49,0,0,0-26.75,6.74l-19.78,10.64a23.67,23.67,0,0,1-24.21-1l-26.77-17.58,112-493.66,137.91,18.28,132.73,17.58A37.26,37.26,0,0,1,797.1,894.48Z"/><line class="cls-19" x1="574.5" y1="926.94" x2="582.97" y2="894.6"/><polyline class="cls-19" points="707.31 920.12 705.67 929.46 715.71 929.46"/><path class="cls-20" d="M794.64,1131.34H664.27a7,7,0,0,1-6.86-8.14l7.72-31.07,24.59,16.14a23.69,23.69,0,0,0,24.22,1.06l19.78-10.64a56.48,56.48,0,0,1,26.74-6.74Z"/><line class="cls-21" x1="756.5" y1="1104.06" x2="775.12" y2="1098.53"/><line class="cls-21" x1="762.73" y1="1111.85" x2="781.35" y2="1106.32"/><path class="cls-20" d="M519.71,1347.49H383.57A7.75,7.75,0,0,1,376,1338l6.69-29.47,26.77,17.58a23.67,23.67,0,0,0,24.21,1l19.78-10.64a56.49,56.49,0,0,1,26.75-6.74h8.67Z"/><line class="cls-19" x1="483.81" y1="1320.75" x2="507.15" y2="1320.75"/><line class="cls-19" x1="488.48" y1="1330.1" x2="511.82" y2="1330.1"/></g><g id="HAND"><path class="cls-22" d="M899.64,664.66a5,5,0,0,0-7.73-6.42l-9.65,7.67,13.4-21.42a6.57,6.57,0,0,0-1.89-9,6.49,6.49,0,0,0-9,2l3.64-5.82a6.57,6.57,0,0,0-1.9-9,6.47,6.47,0,0,0-9,2l-3.2,5.12a6.47,6.47,0,1,0-11-6.86l-18.25,29.15a3.55,3.55,0,0,1-6.56-1.78l-.47-16.34a7.26,7.26,0,0,0-14.34-1.46l-8.2,30.13a20.12,20.12,0,0,0,2.24,15.77l-45,52.83-23.7-17.43-44.59,59.4,35.91,23.66a46.55,46.55,0,0,0,63.63-12Z"/><line class="cls-19" x1="884.78" y1="637.49" x2="870.78" y2="659.85"/><line class="cls-19" x1="874.35" y1="629.77" x2="860.36" y2="652.12"/><path class="cls-19" d="M839.13,652.12s10,9.65,3.83,24.14"/></g><g id="BODY"><path class="cls-7" d="M759,713.85l-49.7,66.69-42.17-27.63-35.94,83.35-143.38-20L512.09,723a8.26,8.26,0,0,0-11.23-9.62l-40,16.84-32.55-60.56,78.59-44.53a78.33,78.33,0,0,1,67.44-4.67l113.86,45.12a112.53,112.53,0,0,1,26.29,14.75Z"/><line class="cls-23" x1="445.98" y1="659.29" x2="478.5" y2="722.37"/></g><g id="HEAD"><path class="cls-3" d="M681.37,594.25l-2.93,1.09a4,4,0,0,0-2.53,4.26l1.77,12.71a7.75,7.75,0,0,1-6.61,8.76L660,622.61l-5.09,29.79-56.08-22.22,17.33-25.63-6-5.65A25.11,25.11,0,0,1,624,555.79l30.81-4.3a14.28,14.28,0,0,1,16.11,12.17l1.17,9.87a19.28,19.28,0,0,0,8.21,13.62l2.44,1.69A3.39,3.39,0,0,1,681.37,594.25Z"/><path class="cls-19" d="M593.41,638.2l22.76-33.65-6-5.65A25.11,25.11,0,0,1,624,555.79l30.81-4.3a14.28,14.28,0,0,1,16.11,12.17l1.17,9.87a19.28,19.28,0,0,0,8.21,13.62l2.44,1.69a3.39,3.39,0,0,1-1.35,5.41l-2.93,1.09a4,4,0,0,0-2.53,4.26l1.77,12.71a7.75,7.75,0,0,1-6.61,8.76L660,622.61l-6.24,36.55"/><path class="cls-24" d="M631.15,566.67a8.82,8.82,0,0,1,5.56,7l1.91,13.74a.46.46,0,0,1-.87.24A11.64,11.64,0,0,0,615.59,594l.2,1.41a11.64,11.64,0,0,0,5.14,8.12.89.89,0,0,1,.42.65.94.94,0,0,1-1.1,1.07h0a13.74,13.74,0,0,1-7.09-3.54l-3-2.81a25,25,0,0,1-5.06-6.74c-1.29-2.5-2.16-6.77-2.55-9.59-1.92-13.74,7.66-24.87,21.4-26.78l44.83-9c6.34-.89,7.27,7.94.87,12.73C669.68,559.55,655.68,572.84,631.15,566.67Z"/><path class="cls-8" d="M667.24,619l-3.68.46A34.67,34.67,0,0,1,645.7,617l-5.4-2.29,18,20.37,1.93-13.34Z"/><path class="cls-21" d="M676.08,602.37s-5.64,1.26-8.71-2.87"/><polyline class="cls-9" points="627.38 591.79 629.87 595.5 625.72 596.35"/><circle class="cls-2" cx="651.34" cy="597.94" r="7.97"/><circle class="cls-8" cx="662.15" cy="585.06" r="2.85"/></g><g id="LOUPE"><path class="cls-25" d="M802.37,662l-329,242.47a36.59,36.59,0,0,1-51.15-7.88h0a36.59,36.59,0,0,1,7.88-51.15L759.1,603Z"/><path class="cls-7" d="M756,605.26l-2.92,2.14,19.22,76.75,30-22.13S780.51,652.22,756,605.26Z"/><circle class="cls-25" cx="924.17" cy="531.76" r="180.66"/><circle class="cls-2" cx="924.17" cy="531.76" r="162.1"/><path class="cls-8" d="M1081.08,572.6a162.15,162.15,0,0,1-313.81,0H872l6.19-27.77a9.76,9.76,0,0,1,9.52-7.62h88.75a10,10,0,0,1,9.63,7.29L994,572.6Z"/><path class="cls-3" d="M973.64,465.78h.61a15.67,15.67,0,0,1,15.67,15.67v0a15.67,15.67,0,0,1-15.67,15.67H958.59a0,0,0,0,1,0,0V480.84A15.06,15.06,0,0,1,973.64,465.78Z"/><polygon class="cls-3" points="977.77 537.21 886.08 537.21 893.81 506.89 965.75 493.92 977.77 537.21"/><path class="cls-3" d="M960.67,492.22l-3.64,13a30.42,30.42,0,0,1-29.29,22.21H893.85a18.62,18.62,0,0,1-18.07-23.1l3.09-12.41h0l13-52.45h64.77l2.93,38.61Z"/><path class="cls-7" d="M981.46,428.8,976.3,466a15,15,0,0,0-2.78-.26,14.82,14.82,0,0,0-8.83,2.89L957,505.21a30.41,30.41,0,0,1-29.29,22.2H893.85a18.62,18.62,0,0,1-18.07-23.1l3.09-12.41,10.82-5.39a20.84,20.84,0,0,1,21.84,2l20.07,15.14A13.3,13.3,0,0,0,952,497.82l5.47-20.39a7.86,7.86,0,0,1-4.72-8.25l1.77-13.52A14.33,14.33,0,0,0,944.36,440a18.74,18.74,0,0,1-30.41-.58H911.4a18.72,18.72,0,1,1,1.28-19.18,18.75,18.75,0,0,1,33.37,0,18.73,18.73,0,0,1,35.41,8.53Z"/><polyline class="cls-19" points="974.48 478.06 971.4 483.43 976.19 483.43"/><polyline class="cls-19" points="908.69 460.13 898.83 479.21 908.05 484.33"/><circle class="cls-8" cx="924.3" cy="470.41" r="3.92"/><circle class="cls-8" cx="891.85" cy="468.7" r="3.31"/><circle class="cls-2" cx="939.57" cy="491.93" r="10.99"/><path class="cls-7" d="M930.79,568.12a2.75,2.75,0,0,1-2.75-2.75V551.81a2.75,2.75,0,0,1,5.5,0v13.56A2.75,2.75,0,0,1,930.79,568.12Z"/><path class="cls-7" d="M951.82,568.12a2.75,2.75,0,0,1-2.73-2.44l-1.56-13.56a2.75,2.75,0,1,1,5.46-.62l1.56,13.56a2.75,2.75,0,0,1-2.42,3Z"/><path class="cls-7" d="M972.84,568.12a2.74,2.74,0,0,1-2.67-2.13l-3.12-13.57a2.75,2.75,0,0,1,5.36-1.23l3.11,13.57a2.75,2.75,0,0,1-2.06,3.29A2.62,2.62,0,0,1,972.84,568.12Z"/><path class="cls-7" d="M912.1,568.12l-.31,0a2.75,2.75,0,0,1-2.42-3l1.56-13.56a2.75,2.75,0,1,1,5.46.62l-1.56,13.56A2.75,2.75,0,0,1,912.1,568.12Z"/><path class="cls-7" d="M891.08,568.12a2.56,2.56,0,0,1-.62-.07,2.75,2.75,0,0,1-2.06-3.29l3.11-13.57a2.75,2.75,0,0,1,5.36,1.23L893.75,566A2.74,2.74,0,0,1,891.08,568.12Z"/><rect class="cls-7" x="1000.93" y="351.58" width="331.45" height="95.17" rx="47.58"/><polygon class="cls-3" points="1166.65 371.69 1175.58 389.78 1195.54 392.68 1181.1 406.76 1184.51 426.64 1166.65 417.25 1148.8 426.64 1152.21 406.76 1137.77 392.68 1157.73 389.78 1166.65 371.69"/><polygon class="cls-3" points="1084.1 371.69 1093.03 389.78 1112.99 392.68 1098.55 406.76 1101.95 426.64 1084.1 417.25 1066.25 426.64 1069.66 406.76 1055.21 392.68 1075.17 389.78 1084.1 371.69"/><polygon class="cls-3" points="1249.2 371.69 1258.13 389.78 1278.09 392.68 1263.65 406.76 1267.06 426.64 1249.2 417.25 1231.35 426.64 1234.76 406.76 1220.32 392.68 1240.28 389.78 1249.2 371.69"/></g><g id="HAND-2" data-name="HAND"><path class="cls-3" d="M428.29,669.66l-22.66,16a45.51,45.51,0,0,0-13,66.2l99.56,133.38a27.58,27.58,0,0,0,38.28,5L552.09,874a9,9,0,0,0,1.39-13h0A9,9,0,0,0,542,859.17h0l-5.43-14.79A13.3,13.3,0,0,0,523,835.69l-4.6.38L460.84,730.22Z"/><path class="cls-19" d="M543.32,858.84a10,10,0,0,1-14.06-3.23l-1.87-3.13"/><path class="cls-19" d="M547.09,877.68a14.73,14.73,0,0,1-16.67.63l-4-2.55"/><path class="cls-19" d="M536.09,885.52a14.73,14.73,0,0,1-16.67.63l-4-2.54"/><path class="cls-19" d="M458.83,730.38l59.54,105.69,4.6-.38a13.3,13.3,0,0,1,13.59,8.69L542,859.17h0A9,9,0,0,1,553.48,861h0a9,9,0,0,1-1.39,13l-21.6,16.26a27.58,27.58,0,0,1-38.28-5L392.65,751.87a45.51,45.51,0,0,1,13-66.2L428.29,672"/></g></g></g></g></svg>