<svg xmlns="http://www.w3.org/2000/svg" viewBox="0 0 2000 1700"><defs><style>.cls-1{fill:#91e6f0;}.cls-11,.cls-13,.cls-14,.cls-16,.cls-17,.cls-18,.cls-19,.cls-2,.cls-21,.cls-3,.cls-6,.cls-8,.cls-9{fill:none;}.cls-14,.cls-2{stroke:#fff;}.cls-11,.cls-12,.cls-13,.cls-14,.cls-15,.cls-16,.cls-17,.cls-18,.cls-19,.cls-2,.cls-20,.cls-3,.cls-6,.cls-8,.cls-9{stroke-linecap:round;}.cls-10,.cls-13,.cls-14,.cls-15,.cls-16,.cls-17,.cls-18,.cls-2,.cls-20,.cls-21,.cls-6,.cls-8{stroke-miterlimit:10;}.cls-10,.cls-12,.cls-13,.cls-18,.cls-2,.cls-20,.cls-21,.cls-3,.cls-6,.cls-9{stroke-width:7px;}.cls-11,.cls-12,.cls-20,.cls-3,.cls-6,.cls-8{stroke:#004d89;}.cls-11,.cls-12,.cls-19,.cls-3,.cls-9{stroke-linejoin:round;}.cls-10,.cls-12,.cls-15,.cls-20,.cls-4{fill:#fff;}.cls-5{fill:#004d89;}.cls-7{fill:#ffb400;}.cls-15,.cls-16,.cls-17,.cls-8{stroke-width:6px;}.cls-10,.cls-13,.cls-16,.cls-21,.cls-9{stroke:#ffb400;}.cls-11{stroke-width:8px;}.cls-14{stroke-width:5.89px;}.cls-15,.cls-17,.cls-18,.cls-19{stroke:#91e6f0;}.cls-19{stroke-width:7.5px;}</style></defs><g id="Слой_1" data-name="Слой 1"><g id="WOMAN"><g id="BODY"><path class="cls-1" d="M594.88,631.17h-17a166,166,0,0,0-81.27,21.26L393,706.07C306.2,754.85,274.66,815.66,260.7,948l-7.22,80.44A107.13,107.13,0,0,0,360.6,1135h0a107.14,107.14,0,0,0,87.42-45.2l28.89-40.79,118,66.17Z"/><line class="cls-2" x1="464.4" y1="732.18" x2="321.99" y2="914.31"/><line class="cls-2" x1="312.52" y1="891.92" x2="338.74" y2="891.92"/><line class="cls-3" x1="478.43" y1="1052.08" x2="516.2" y2="800.55"/></g><g id="HEAD"><path class="cls-4" d="M394.55,706.07l17-85.27-19,7.39a18.3,18.3,0,0,1-24.4-12.64l-2.45-9.83a18.31,18.31,0,0,1,11.5-21.64h0a18.32,18.32,0,0,1,23.09,10l2,4.71s-9.14-31.27,5.78-58.27l72.07,4.26,5.53,112.31Z"/><path class="cls-5" d="M481.47,543.49,474.07,559l-66-18.47-7.37,50.65-.43,2.92A18.31,18.31,0,0,0,383.44,583a18.06,18.06,0,0,0-6.26,1.11l-.11,0-6.65-11a32.72,32.72,0,0,1,19.8-48.65l14.85-3.83-22.14-9.9a3.5,3.5,0,0,1,2.86-6.39L409.51,515c-16.72-15-51.68-47.9-56.64-65a42.64,42.64,0,1,1,81.9-23.75c5.42,18.7-9.33,72.47-14.6,90.55l32.44-8.37C473.21,503.12,490.64,524.29,481.47,543.49Z"/><path class="cls-3" d="M393,718.21l18.5-97.41-13.87,5.4a23.16,23.16,0,0,1-30.86-16l-1.12-4.49a18.31,18.31,0,0,1,11.5-21.64h0a18.32,18.32,0,0,1,23.09,10"/><path class="cls-3" d="M485.67,663.14l-4.2-90a37.47,37.47,0,0,0-29-34.75"/><path class="cls-6" d="M411.53,620.8l9.9,9.05A40.13,40.13,0,0,0,479,626.31l4.7-5.51"/><polyline class="cls-3" points="384.36 600.9 395.08 606.23 384.36 611.11"/><path class="cls-6" d="M434.39,574.53a6.9,6.9,0,0,1-13.3,3.56"/><circle class="cls-7" cx="427.2" cy="604.01" r="13.39"/><line class="cls-8" x1="449.53" y1="605.71" x2="436.81" y2="605.88"/><line class="cls-8" x1="437.19" y1="603.59" x2="436.31" y2="609.01"/><line class="cls-9" x1="399.12" y1="617.39" x2="395.74" y2="640.45"/></g><g id="HANDGLASS"><path class="cls-10" d="M534.74,621h24.16a0,0,0,0,1,0,0V808.26a12.08,12.08,0,0,1-12.08,12.08h0a12.08,12.08,0,0,1-12.08-12.08V621a0,0,0,0,1,0,0Z" transform="matrix(0.99, -0.11, 0.11, 0.99, -73.15, 61.87)"/><circle class="cls-10" cx="527.88" cy="542.07" r="81.24"/><circle class="cls-1" cx="528.61" cy="554.39" r="19.71"/><path class="cls-3" d="M572.21,547.38a49.63,49.63,0,0,1-87.21,0,49.64,49.64,0,0,1,87.21,0Z"/><line class="cls-11" x1="544.3" y1="511.87" x2="545.39" y2="507.6"/><line class="cls-11" x1="511.77" y1="511.87" x2="510.67" y2="507.6"/><line class="cls-11" x1="570.93" y1="525.01" x2="573.5" y2="523.58"/><line class="cls-11" x1="486.71" y1="525.01" x2="484.14" y2="523.58"/><path class="cls-12" d="M485,547.38a49.64,49.64,0,0,1,87.21,0l-15.48-5.89a76.9,76.9,0,0,0-52.44-.79Z"/><circle class="cls-5" cx="528.61" cy="554.39" r="8.96"/><circle class="cls-4" cx="536.32" cy="558.31" r="2.99"/><polygon class="cls-7" points="548.3 620.31 524.27 622.87 527.06 649.1 549.25 629.16 548.3 620.31"/><path class="cls-13" d="M616.05,495.31A98.24,98.24,0,0,0,586.11,461"/></g><g id="HAND"><path class="cls-4" d="M581.8,745.48c0,.32,0,.65,0,1a13.9,13.9,0,0,1-13.49,13.3l-2.54.07-32.86,1,1.67,15.64a21.51,21.51,0,0,1-22.27,23.75h0a55.82,55.82,0,0,1-53.47-58.07l.67-16.2a63.89,63.89,0,0,1,42.94-57.74l50.46-17.46A16.06,16.06,0,0,1,574.17,667l-.63,9.31a13.9,13.9,0,0,1,11.79,13.35c0,.32,0,.65,0,1a13.9,13.9,0,0,1-13.5,13.3,13.91,13.91,0,0,1,14.27,13.5c0,.33,0,.65,0,1a13.88,13.88,0,0,1-13.49,13.3l-2.75.08,0,.39A13.88,13.88,0,0,1,581.8,745.48Z"/><path class="cls-3" d="M510.78,800.18c13.12.54,25.17-10.7,23.79-23.75l-1.67-15.64,32.86-1,2.54-.07a13.9,13.9,0,0,0,13.49-13.3c0-.32,0-.65,0-1a13.88,13.88,0,0,0-12-13.37l0-.39,2.75-.08a13.88,13.88,0,0,0,13.49-13.3c0-.32,0-.64,0-1a13.91,13.91,0,0,0-14.27-13.5,13.9,13.9,0,0,0,13.5-13.3c0-.31,0-.64,0-1a13.9,13.9,0,0,0-11.79-13.35l.63-9.31a16.06,16.06,0,0,0-21.27-16.24l-50.46,17.46a63.89,63.89,0,0,0-42.94,57.74l-.72,7.77"/><line class="cls-6" x1="546.59" y1="732.74" x2="572.6" y2="731.64"/><line class="cls-3" x1="545.83" y1="705.66" x2="576.7" y2="704.08"/><line class="cls-3" x1="547.03" y1="676.74" x2="573.54" y2="676.26"/></g></g><g id="MAN"><g id="BODY-2" data-name="BODY"><path class="cls-1" d="M1749.48,888.71h0a132.39,132.39,0,0,0,0-156L1665,616.91c-116.49-151-147.32-168.58-293.09-148.38l-263.77,99.52,454.36,348.23A132.39,132.39,0,0,0,1749.48,888.71Z"/><line class="cls-14" x1="1485.3" y1="703.74" x2="1664.33" y2="740.8"/><line class="cls-14" x1="1649.73" y1="719.32" x2="1638.08" y2="734.67"/></g><g id="HEAD-2" data-name="HEAD"><path class="cls-7" d="M1484.36,418.65a20.28,20.28,0,0,0-11.08-2.8l-3.27,0a17.4,17.4,0,0,0-17.55,17.41v1.33c-9.31-5-16.31-15.47-17.66-28.13a39.21,39.21,0,0,1-.15-6.66,77.1,77.1,0,0,1-19.71,4.71c-27.29,2.9-50.86-8.34-52.64-25.11l98-10.42.31,0,.54-.06v0a19.82,19.82,0,0,1,5.74.3v-8.8a3.5,3.5,0,0,1,7,0v6.48H1481a3.5,3.5,0,0,1,0,7h-5.9c5.32,5.63,7.81,15.45,9,26.88A78.81,78.81,0,0,1,1484.36,418.65Z"/><path class="cls-4" d="M1524,492.73a102.87,102.87,0,0,0-92.15,57.54l-.28.56-5.65-53.12-23.23,2.48a12.41,12.41,0,0,1-13.64-11l-3-27.65L1372.27,463a4.31,4.31,0,0,1-4.69-5.08l8.51-45.48a31.32,31.32,0,0,1,5.11-12.2c9.25,3.87,21.1,5.56,33.74,4.22a77.1,77.1,0,0,0,19.71-4.71,39.21,39.21,0,0,0,.15,6.66c1.35,12.66,8.35,23.1,17.66,28.13v-1.33A17.4,17.4,0,0,1,1470,415.82l3.27,0a22.73,22.73,0,0,1,3.53.19,40.12,40.12,0,0,1,.48,11.47l6.42,25.14Z"/><path class="cls-3" d="M1382.35,403.24c-3.65,4.67-5,8.14-6.32,14.21l-8.45,40.49a4.31,4.31,0,0,0,4.69,5.08l13.79-1.47,2.62,24.14a15.93,15.93,0,0,0,17.52,14.12l19.73-2.1,5.49,51.61"/><line class="cls-3" x1="1522.5" y1="492.89" x2="1483.71" y2="452.65"/><line class="cls-3" x1="1425.93" y1="497.71" x2="1443.31" y2="495.87"/><path class="cls-4" d="M1452.46,437.33v-4.1A17.4,17.4,0,0,1,1470,415.82l3.27,0c9.35-.2,17.27,5.08,18.35,14.24l.54,4.53c.15,16.58-9.29,24.2-23.21,24.2Z"/><polyline class="cls-3" points="1472.59 432.63 1464.49 441.44 1476.24 442.17"/><path class="cls-3" d="M1452.46,437.33v-4.1A17.4,17.4,0,0,1,1470,415.82l3.27,0c9.35-.2,17.27,5.08,18.35,14.24l.54,4.53c.15,16.58-9.29,24.2-23.21,24.2"/><line class="cls-3" x1="1387.13" y1="471.36" x2="1407.97" y2="460.45"/><circle class="cls-1" cx="1420.06" cy="452.69" r="14.72"/><line class="cls-3" x1="1406.17" y1="456.94" x2="1411.83" y2="464.39"/><path class="cls-3" d="M1392.58,434.47a4.61,4.61,0,0,1,9.17-1"/></g></g><g id="COMPUTER"><polygon class="cls-1" points="1097.27 1193.19 905 1228.02 929.05 1187.73 1094.72 1187.73 1097.27 1193.19"/><polyline class="cls-3" points="839.99 1333.95 929.05 1187.73 1094.81 1187.73 1183.87 1333.95"/><line class="cls-3" x1="1121.54" y1="1333.95" x2="1214.22" y2="1333.95"/><line class="cls-3" x1="803.2" y1="1333.95" x2="1084.8" y2="1333.95"/><path class="cls-4" d="M676.23,540.09h694.56A58.91,58.91,0,0,1,1429.69,599v529.82a58.91,58.91,0,0,1-58.91,58.91h-717a58.91,58.91,0,0,1-58.91-58.91V621.43a81.35,81.35,0,0,1,81.35-81.35Z"/><line class="cls-3" x1="594.88" y1="1022.87" x2="594.88" y2="623.19"/><line class="cls-3" x1="594.88" y1="1068.71" x2="594.88" y2="1051.36"/><path class="cls-3" d="M1429.69,1015.81v112.42a59.49,59.49,0,0,1-59.49,59.5H654.38a59.5,59.5,0,0,1-59.5-59.5v-32.84"/><line class="cls-3" x1="1429.69" y1="916.27" x2="1429.69" y2="932.5"/><path class="cls-3" d="M647.39,537.69H1370.2a59.49,59.49,0,0,1,59.49,59.5V888.88"/><rect class="cls-1" x="736.95" y="1028.57" width="552.29" height="106.75" rx="53.38"/><circle class="cls-14" cx="801.89" cy="1081.95" r="6.05"/><circle class="cls-14" cx="838.04" cy="1081.95" r="6.05"/><circle class="cls-14" cx="874.2" cy="1081.95" r="6.05"/><circle class="cls-15" cx="1235.21" cy="1081.95" r="50.07"/><circle class="cls-16" cx="1234.54" cy="1078.31" r="23.81"/><path class="cls-17" d="M1235,1065.7a12.15,12.15,0,0,1,12.15,12.15"/><line class="cls-16" x1="1246.76" y1="1098.75" x2="1259" y2="1110.98"/><circle class="cls-18" cx="665.81" cy="591.62" r="12.97"/><circle class="cls-18" cx="712.87" cy="591.62" r="12.97"/><circle class="cls-18" cx="759.92" cy="591.62" r="12.97"/><path class="cls-18" d="M1290.1,619.36V862.23a21.3,21.3,0,0,1-21.3,21.3H953.08a22.65,22.65,0,0,1-22.66-22.65V619.36a21.3,21.3,0,0,1,21.3-21.3H1268.8A21.3,21.3,0,0,1,1290.1,619.36Z"/><polygon class="cls-1" points="1290.1 785.59 1220.63 774.96 1220.63 754.21 1290.1 754.21 1290.1 785.59"/><path class="cls-3" d="M1311.34,940.19l12.71-12.71a8.35,8.35,0,0,0-5.9-14.25h-51.38a8.35,8.35,0,0,0-8.35,8.35V973a8.35,8.35,0,0,0,14.25,5.91l10.42-10.43L1309.63,995a9.32,9.32,0,0,0,13.17,0l17.45-17.46a9.31,9.31,0,0,0,0-13.17l-16.42-16.42"/><path class="cls-10" d="M738.47,770.2V673.44a33.57,33.57,0,0,1,33.58-33.58H1184a33.57,33.57,0,0,1,33.58,33.58V948A33.58,33.58,0,0,1,1184,981.61H772.05A33.58,33.58,0,0,1,738.47,948V796.47"/><line class="cls-13" x1="738.47" y1="684.43" x2="1044.14" y2="684.43"/><polyline class="cls-19" points="826.34 910 943.52 800.4 1030.77 887.65 1110.38 779.77"/><circle class="cls-10" cx="941.07" cy="806.7" r="17.4"/><circle class="cls-10" cx="1032.1" cy="882.71" r="12.05"/><polyline class="cls-13" points="1082.8 777.78 1115.2 777.78 1115.2 811.71"/><line class="cls-18" x1="1365.44" y1="963.06" x2="1490.21" y2="963.06"/><line class="cls-18" x1="1454.85" y1="987.34" x2="1464.41" y2="987.34"/><line class="cls-18" x1="1364.14" y1="987.34" x2="1432.91" y2="987.34"/><polygon class="cls-7" points="1076.71 753.3 1220.63 753.3 1220.63 774.96 1076.71 753.3"/><rect class="cls-20" x="1054.68" y="684.43" width="291.99" height="69.77" rx="32.64"/><polygon class="cls-7" points="1200.69 697.66 1207.23 710.92 1221.87 713.05 1211.28 723.37 1213.78 737.94 1200.69 731.06 1187.6 737.94 1190.1 723.37 1179.52 713.05 1194.15 710.92 1200.69 697.66"/><polygon class="cls-7" points="1129.35 697.66 1135.89 710.92 1150.53 713.05 1139.94 723.37 1142.44 737.94 1129.35 731.06 1116.26 737.94 1118.76 723.37 1108.18 713.05 1122.81 710.92 1129.35 697.66"/><polygon class="cls-7" points="1272.03 697.66 1278.58 710.92 1293.21 713.05 1282.62 723.37 1285.12 737.94 1272.03 731.06 1258.94 737.94 1261.44 723.37 1250.86 713.05 1265.49 710.92 1272.03 697.66"/><path class="cls-7" d="M786.41,899.38l-44.58,57.79c-1.49,1.74-5.86-2.35-5.86-4.64V899.38Z"/><circle class="cls-20" cx="725.84" cy="857.76" r="70.62"/><circle class="cls-21" cx="698.87" cy="837.31" r="8.81"/><path class="cls-21" d="M681.09,867.21l4.3-5.89a16.67,16.67,0,0,1,27,0l4.3,5.89A13.72,13.72,0,0,1,705.56,889H692.17A13.72,13.72,0,0,1,681.09,867.21Z"/><circle class="cls-21" cx="754.02" cy="837.31" r="8.81"/><circle class="cls-18" cx="725.84" cy="828.5" r="8.81"/><path class="cls-18" d="M716.82,850a12.75,12.75,0,0,1,18,0"/><path class="cls-21" d="M736.25,867.21l4.3-5.89a16.67,16.67,0,0,1,27,0l4.3,5.89A13.72,13.72,0,0,1,760.72,889H747.33A13.72,13.72,0,0,1,736.25,867.21Z"/></g><g id="SPARKLES"><path class="cls-7" d="M555.5,1220.66a3.5,3.5,0,1,1-5,4.95l-5.15-5.15-5.16,5.15a3.5,3.5,0,0,1-5-4.95l5.16-5.15-5.16-5.16a3.5,3.5,0,0,1,5-4.95l5.16,5.16,5.15-5.16a3.5,3.5,0,0,1,5,4.95l-5.15,5.16Z"/><path class="cls-7" d="M1327.91,1288.15a3.5,3.5,0,0,1-5,4.95l-5.15-5.16-5.16,5.16a3.5,3.5,0,0,1-5-4.95l5.16-5.16-5.16-5.16a3.5,3.5,0,0,1,5-4.95l5.16,5.16,5.15-5.16a3.5,3.5,0,0,1,5,4.95l-5.16,5.16Z"/><path class="cls-7" d="M905.61,456.39a3.5,3.5,0,0,1-5,4.95l-5.15-5.15-5.16,5.15a3.5,3.5,0,1,1-5-4.95l5.15-5.16-5.15-5.15a3.5,3.5,0,0,1,5-5l5.16,5.16,5.15-5.16a3.5,3.5,0,0,1,5,5l-5.15,5.15Z"/></g><g id="MAN_S_HAND" data-name="MAN&apos;S HAND"><path class="cls-4" d="M1498.08,736.17l.93,3.08a46.76,46.76,0,0,1-45,60.26l-17.16-.11c-9.55-.09-18.8-2.57-23.38-12.88-3.49,4.7-12.81,11.62-18.94,9.56L1370.39,788a19.31,19.31,0,0,1-12.19-12.22l-2-5.9a19.3,19.3,0,0,1,12.23-24.41l-4.37,1.45a14.71,14.71,0,0,1-18.59-9.32l-1.82-5.47A14.72,14.72,0,0,1,1350,715l-46,13.8a15.48,15.48,0,0,1-10.87-28.91L1391.73,655a29.76,29.76,0,0,1,28.23,1.93l34.47,21.82A103.29,103.29,0,0,1,1498.08,736.17Z"/><path class="cls-3" d="M1454,799.51l-17.16-.11c-9.55-.09-18.8-2.57-23.38-12.88-3.49,4.7-12.81,11.62-18.94,9.56L1370.39,788a19.31,19.31,0,0,1-12.19-12.22l-2-5.9a19.3,19.3,0,0,1,12.23-24.41l-4.37,1.45a14.71,14.71,0,0,1-18.59-9.32l-1.82-5.47A14.72,14.72,0,0,1,1350,715l-46,13.8a15.48,15.48,0,0,1-10.87-28.91L1391.73,655a29.76,29.76,0,0,1,28.23,1.93l65.34,46.83"/><path class="cls-3" d="M1410.84,731.4l-42.37,14.08a19.3,19.3,0,0,0-12.23,24.41l2,5.9A19.31,19.31,0,0,0,1370.39,788l24.11,8.07a14.17,14.17,0,0,0,18.68-13.44v-6.16"/><line class="cls-3" x1="1393.86" y1="699.18" x2="1344.24" y2="716.69"/><line class="cls-3" x1="1426.91" y1="771.42" x2="1397.06" y2="778.21"/><circle class="cls-1" cx="1296.12" cy="715.22" r="9"/></g></g></svg>