<svg xmlns="http://www.w3.org/2000/svg" viewBox="0 0 2000 1700"><defs><style>.cls-1{fill:#91e6f0;}.cls-2{fill:#ffb400;}.cls-12,.cls-14,.cls-15,.cls-16,.cls-3,.cls-4,.cls-7,.cls-8,.cls-9{fill:none;}.cls-14,.cls-3,.cls-5,.cls-9{stroke:#004d89;}.cls-15,.cls-3,.cls-7,.cls-9{stroke-linecap:round;}.cls-14,.cls-3,.cls-4,.cls-7,.cls-8,.cls-9{stroke-linejoin:round;}.cls-11,.cls-12,.cls-13,.cls-14,.cls-15,.cls-16,.cls-3,.cls-4,.cls-5,.cls-7,.cls-8{stroke-width:7px;}.cls-4,.cls-7{stroke:#fff;}.cls-11,.cls-13,.cls-5,.cls-6{fill:#fff;}.cls-11,.cls-12,.cls-13,.cls-15,.cls-16,.cls-5{stroke-miterlimit:10;}.cls-11,.cls-15,.cls-16,.cls-8{stroke:#91e6f0;}.cls-9{stroke-width:6px;}.cls-10{fill:#004d89;}.cls-12,.cls-13{stroke:#ffb400;}</style></defs><g id="Слой_1" data-name="Слой 1"><g id="WEB_PAGE"><rect class="cls-1" x="533.83" y="350" width="995.54" height="849.81" rx="77.97"/><path class="cls-2" d="M607.73,350h847.53a74.11,74.11,0,0,1,74.11,74.11v19.27a0,0,0,0,1,0,0H533.62a0,0,0,0,1,0,0V424.11A74.11,74.11,0,0,1,607.73,350Z"/><line class="cls-3" x1="1405.96" y1="1121.84" x2="1206.66" y2="1121.84"/><line class="cls-4" x1="1529.38" y1="1121.84" x2="1447.89" y2="1121.84"/><circle class="cls-5" cx="1415.6" cy="1121.62" r="12.29"/><polygon class="cls-6" points="1447.59 1086.4 1426.16 1086.4 1415.32 1097.24 1404.48 1086.4 1383.06 1086.4 1383.06 1046.15 1447.59 1046.15 1447.59 1086.4"/><rect class="cls-2" x="1400.93" y="1062.43" width="28.78" height="7"/></g><g id="ICONS"><rect class="cls-2" x="394.89" y="548.09" width="277.89" height="206.52"/><path class="cls-7" d="M565.7,644.63a32.09,32.09,0,1,1-32.08-32.08"/><polyline class="cls-7" points="551.87 653.61 566.26 640.34 579.54 654.72"/><line class="cls-8" x1="394.89" y1="722.1" x2="672.78" y2="722.1"/><circle class="cls-9" cx="638.7" cy="721.98" r="5.93"/><path class="cls-10" d="M647.1,583a3.5,3.5,0,0,1-5,5l-4-4-4,4a3.5,3.5,0,0,1-5-5l4-4-4-4a3.5,3.5,0,0,1,5-5l4,4,4-4a3.5,3.5,0,0,1,5,5l-4,4Z"/><polygon class="cls-10" points="672.78 754.61 533.62 754.61 533.62 777.03 672.78 754.61"/><rect class="cls-11" x="394.89" y="802.07" width="277.89" height="206.52"/><line class="cls-8" x1="394.89" y1="976.09" x2="672.78" y2="976.09"/><circle class="cls-9" cx="423.43" cy="975.96" r="5.93"/><path class="cls-10" d="M647.1,837a3.49,3.49,0,0,1,0,5,3.49,3.49,0,0,1-5,0l-4-4-4,4a3.49,3.49,0,0,1-5,0,3.51,3.51,0,0,1,0-5l4-4-4-4a3.5,3.5,0,1,1,5-5l4,4,4-4a3.5,3.5,0,0,1,5,5l-4,4Z"/><polygon class="cls-10" points="672.99 1011.93 533.83 1011.93 533.83 1034.35 672.99 1011.93"/><circle class="cls-12" cx="533.62" cy="898.62" r="33.33"/><path class="cls-2" d="M532.4,914l15-10.74a5.64,5.64,0,0,0,0-9.18l-15-10.74a5.63,5.63,0,0,0-8.91,4.59v21.48A5.64,5.64,0,0,0,532.4,914Z"/><circle class="cls-13" cx="1337.48" cy="445.45" r="62.08"/><path class="cls-10" d="M1363.69,455.1v6.55h-52.42V455.1h7.36l1.62-16.84a17.31,17.31,0,0,1,14-15.35v-7.52h6.55v7.52a17.35,17.35,0,0,1,14,15.35l1.62,16.84Z"/><path class="cls-10" d="M1330.16,467.63h14.65a7.33,7.33,0,1,1-14.65,0Z"/><rect class="cls-10" x="675.32" y="383.37" width="175.53" height="124.16" rx="25.02"/><path class="cls-2" d="M753.8,471l27.28-19.48a7.49,7.49,0,0,0,0-12.19L753.8,419.88A7.49,7.49,0,0,0,742,426v39A7.49,7.49,0,0,0,753.8,471Z"/><path class="cls-1" d="M955.77,1272.2v17.2a19.69,19.69,0,0,0,19.68,19.69h35.83a12.91,12.91,0,0,0,12.91-12.92v-25.65a12.92,12.92,0,0,0-12.91-12.92H989v-13.85a7.88,7.88,0,0,0-14.28-4.61l-14.9,20.65A21.19,21.19,0,0,0,955.77,1272.2Z"/><rect class="cls-1" x="937.95" y="1266.59" width="11" height="33.76"/><path class="cls-1" d="M1130.81,1293.51v-17.2a19.69,19.69,0,0,0-19.68-19.69H1075.3a12.91,12.91,0,0,0-12.91,12.91v25.66a12.91,12.91,0,0,0,12.91,12.91h22.32V1322a7.88,7.88,0,0,0,14.28,4.61l14.9-20.65A21.19,21.19,0,0,0,1130.81,1293.51Z"/><rect class="cls-1" x="1137.64" y="1263.81" width="11" height="33.76"/><rect class="cls-11" x="1208.47" y="1235.59" width="320.9" height="108.4" rx="27.43"/><path class="cls-2" d="M1485.55,1333.52l-9.75,9.76,22,22a8.78,8.78,0,0,1,0,12.43l-16.49,16.49a8.78,8.78,0,0,1-12.43,0l-22-22L1437,1382a7.88,7.88,0,0,1-13.45-5.57v-48.53a7.88,7.88,0,0,1,7.88-7.88H1480A7.88,7.88,0,0,1,1485.55,1333.52Z"/><path class="cls-10" d="M1308,1270.15a19.64,19.64,0,1,0,19.63,19.64A19.66,19.66,0,0,0,1308,1270.15Zm12.88,19.64A12.89,12.89,0,1,1,1308,1276.9,12.9,12.9,0,0,1,1320.84,1289.79Z"/><path class="cls-10" d="M1405.06,1270.15a19.64,19.64,0,1,0,19.64,19.64A19.66,19.66,0,0,0,1405.06,1270.15Zm0,32.52a12.89,12.89,0,1,1,12.88-12.88A12.9,12.9,0,0,1,1405.06,1302.67Z"/><path class="cls-10" d="M1384.19,1302.67v6.75h-17.63a3.38,3.38,0,0,1-3.38-3.38v-36.21h6.76v32.84Z"/><path class="cls-10" d="M1341.62,1302.67h14.25v6.75h-17.63a3.38,3.38,0,0,1-3.38-3.38v-36.21h6.76Z"/><path class="cls-10" d="M1478.76,1269.83l-11,37.17a3.4,3.4,0,0,1-2.81,2.4,3.1,3.1,0,0,1-.44,0,3.36,3.36,0,0,1-2.88-1.61l-7-11.46-7,11.46a3.39,3.39,0,0,1-2.88,1.62l-.45,0a3.4,3.4,0,0,1-2.8-2.4l-11-37.17h7l8.25,28,5.92-9.69a3.37,3.37,0,0,1,5.76,0l5.92,9.69,8.25-28Z"/><path class="cls-10" d="M1269,1276.9v8.34h9.37V1292H1269v17.74h-6.76v-36.21a3.38,3.38,0,0,1,3.38-3.38h17.63v6.75Z"/></g><g id="WOMAN"><g id="HAND"><path class="cls-6" d="M1603.56,543.46l-41.4,302.95a118.65,118.65,0,0,1-143.53,92.46l-196.7-52.34,74.46-183.19,127.7,39.6,84.05-164-3.38-3.2c-6.69-6.39-11.59-14.28-8-24.61-5.58,1-16.76-.27-19.73-5.79l-11.71-21.69a18.73,18.73,0,0,1-.52-16.73l2.52-5.47a18.72,18.72,0,0,1,24.84-9.16l-4.05-1.87a14.27,14.27,0,0,1-7-18.92l2.34-5.07a14.29,14.29,0,0,1,15.82-8l-41.67-20.7a15.23,15.23,0,0,1-3.59-2.49A15,15,0,0,1,1469.1,410l99.51,33.62a28.84,28.84,0,0,1,18.68,20.09Z"/><circle class="cls-1" cx="1462.59" cy="422.88" r="9" transform="translate(837.19 1811) rotate(-81.87)"/><polyline class="cls-3" points="1282.48 703.08 1424.09 742.94 1508.14 578.9"/><line class="cls-3" x1="1424.09" y1="742.94" x2="1412.02" y2="767.42"/><path class="cls-3" d="M1516.83,587.15l-12.07-11.45c-6.69-6.39-11.59-14.28-8-24.61-8.63,4.83-16.76-.27-19.73-5.79l-11.71-21.69a18.73,18.73,0,0,1-.52-16.73l2.52-5.47a18.72,18.72,0,0,1,24.84-9.16l-4.05-1.87a14.27,14.27,0,0,1-7-18.92l2.34-5.07a14.29,14.29,0,0,1,15.82-8l-41.67-20.7a15.23,15.23,0,0,1-3.59-2.49A15,15,0,0,1,1469.1,410l99.51,33.62a28.84,28.84,0,0,1,18.68,20.09l12.41,60.79A113.48,113.48,0,0,1,1601,562.6l-38.79,283.81c-13.05,65.9-72.27,104-143.53,92.46l-144.88-40.46"/><line class="cls-3" x1="1531.47" y1="510.38" x2="1492.17" y2="492.25"/><line class="cls-3" x1="1540.81" y1="476.33" x2="1494.11" y2="455.82"/><line class="cls-3" x1="1516.3" y1="549.33" x2="1490.69" y2="534.35"/><line class="cls-14" x1="1496.76" y1="551.09" x2="1503.49" y2="541.84"/></g><g id="BODY"><path class="cls-2" d="M1250.06,896.47c6.8,17.93,18.28,63.19-20.21,99.74a2,2,0,0,0-.61,1.41v92.86a1.94,1.94,0,0,1-1.94,1.94h-310a1.93,1.93,0,0,1-1.81-1.23l-21.19-53.83a1.94,1.94,0,0,0-3.42-.38l-6.74,10a2,2,0,0,1-1.06.78,34,34,0,0,1-37.34-12.91l-2.91-4.08a1.94,1.94,0,0,0-2.71-.45l-4,2.85a34,34,0,0,1-47.46-8l-1.91-2.69a1.94,1.94,0,0,0-2.71-.45l-1.59,1.12a34,34,0,0,1-47.46-8l-1.64-2.3a1.94,1.94,0,0,0-2.71-.46l-1,.75a34,34,0,0,1-27.81,5.34,2,2,0,0,1-1.33-2.7l18.73-41.46.09-.2-.64-21.57A58.78,58.78,0,0,1,743,903.24l196.21-160,.1-.08a135.23,135.23,0,0,1,49.49-22.32l188-41.73c37.35-8.41,102-9.5,123.13,22.36a2,2,0,0,0,1,.79l31.6,9.8a1.91,1.91,0,0,1,1.32,1.44,34,34,0,0,1-18.65,37.39l-4.51,2.16a2,2,0,0,0-.91,2.6l2.12,4.43a34,34,0,0,1-16,45.4l-3,1.43a1.94,1.94,0,0,0-.92,2.59h0a36,36,0,0,1-16.87,48l-.8.38a1.93,1.93,0,0,0-.91,2.59l.56,1.17c8.14,9.34,7.42,31.65-2.52,38.85Z"/><path class="cls-15" d="M1233.88,996.78c-6.57,5.27-21.69,12.63-29.67,15.65"/><path class="cls-15" d="M1301.79,698.93c8.71,28.89-10.14,45.57-10.14,45.57"/><line class="cls-15" x1="1255.94" y1="899.46" x2="1225.24" y2="853.67"/><line class="cls-15" x1="892.98" y1="1038.56" x2="913.17" y2="991.32"/></g><g id="HAND-2" data-name="HAND"><path class="cls-6" d="M1111.22,921.23a8.46,8.46,0,0,1,13.2.8,38.8,38.8,0,0,1,4.2,37.38l-5.48,13.19.63-.07,31.77-8.6a18.89,18.89,0,0,1,11.71,35.86l.9-.25a18.9,18.9,0,0,1,23.17,13.3,19.18,19.18,0,0,1,.66,4.94,18.9,18.9,0,0,1-14,18.22l-3.73,1v0l1-.26a18.88,18.88,0,1,1,9.87,36.45l-.56.16a18.88,18.88,0,0,1,6,37.08l-18,4.88L777.81,1223.13c-77.11,21.06-144.08-56.87-111.67-129.94l33.42-75.32a34,34,0,0,0,30.06-4.71l2.63-1.88,2.77,3.89a34,34,0,0,0,47.46,8l3.17-2.26,3,4.27a34,34,0,0,0,37.94,12.73,33.81,33.81,0,0,0,9.52-4.75l5.59-4,4,5.66a33.6,33.6,0,0,0,7.55,7.68,34.07,34.07,0,0,0,30.51,5L1043,1022.8l.23-7.48a52.81,52.81,0,0,1,10.35-29.85Z"/><polygon class="cls-10" points="1097.13 1138.34 959.36 1199.81 863.23 1199.81 1097.13 1138.34"/><path class="cls-3" d="M829.63,1058.36,1043,1022.8l.23-7.48a52.81,52.81,0,0,1,10.35-29.85l57.29-63.8a8.9,8.9,0,0,1,13.94.85,38.8,38.8,0,0,1,3.86,36.89l-5.48,13.19.63-.07,31.77-8.6a18.89,18.89,0,0,1,11.71,35.86l.9-.25a18.9,18.9,0,0,1,23.17,13.3,19.18,19.18,0,0,1,.66,4.94,18.9,18.9,0,0,1-14,18.22l-3.73,1v0l1-.26a18.88,18.88,0,1,1,9.87,36.45l-.56.16a18.88,18.88,0,0,1,6,37.08l-18,4.88L777.81,1223.13c-77.11,21.06-144.08-56.87-111.67-129.94l36.52-75.32"/><line class="cls-3" x1="1123.77" y1="972.53" x2="1111.81" y2="975.9"/><path class="cls-1" d="M1114.24,922.91a1.84,1.84,0,0,1,2.77.3c3.46,4.32,3.75,10.18.41,13.94-3.79,4.26-10.83,4.19-15.71-.16Z"/></g><g id="HEAD"><path class="cls-6" d="M910.1,590.54h0a16,16,0,0,1-13.28,20h0a73.39,73.39,0,0,0-63.07,63.56l-2.18,17.34,136.91,35.3,151.39-35-4.57-23a41.19,41.19,0,0,0-36.41-36.59l-6.31-.41A23.14,23.14,0,0,1,1051,607.36l1-17.36a44.58,44.58,0,0,0-45-47l-61.41.66A37.11,37.11,0,0,0,910.1,590.54Z"/><path class="cls-6" d="M991,566.83l19.83-.39a12.29,12.29,0,0,1,11.65,7.7l19.91,49.31a38.77,38.77,0,0,1-15.4,46h0l8.7,85.92a76.34,76.34,0,0,1-101.38,30.75,24.05,24.05,0,0,1-12.82-25.27L942.74,628l-.46-8.88A49.7,49.7,0,0,1,991,566.83Z"/><path class="cls-3" d="M1034.09,753.78l-7.15-84.38h0a38.75,38.75,0,0,0,15.4-45.95l-19.66-49.57a13.67,13.67,0,0,0-12.7-8.63"/><path class="cls-3" d="M1029.27,667.78c-10.94,6.8-28.4,6.7-45.44-2.73"/><polyline class="cls-3" points="1006.21 594.7 1012.78 621.71 1003.7 621.71"/><circle class="cls-10" cx="1017.74" cy="602.56" r="4.1"/><circle class="cls-10" cx="986.77" cy="608.75" r="4.37"/><circle class="cls-1" cx="970.53" cy="632.04" r="12.84"/><path class="cls-1" d="M1041.2,636.33a11.92,11.92,0,0,1-3.55.53,12.3,12.3,0,0,1-3.51-24.08l4.69,10.67A38.4,38.4,0,0,1,1041.2,636.33Z"/><path class="cls-3" d="M1012.78,636.86s-12.76,2.77-18-6.37"/><path class="cls-14" d="M1119.87,691.72l-4.57-23a41.19,41.19,0,0,0-36.41-36.59l-6.31-.41A23.14,23.14,0,0,1,1051,607.36l1-17.36a44.58,44.58,0,0,0-45-47l-61.41.66a37.11,37.11,0,0,0-35.41,46.88h0a16,16,0,0,1-13.28,20h0a73.39,73.39,0,0,0-63.07,63.56l-2.18,17.34"/><path class="cls-14" d="M1012.78,543.9s4,55.56-67.69,77.13l10.3,24.18a52,52,0,0,1-20.7,66.23L927,716.05"/><line class="cls-16" x1="1055.1" y1="706.7" x2="1047.62" y2="679.33"/><line class="cls-16" x1="852.41" y1="696.82" x2="863.62" y2="653.63"/><line class="cls-16" x1="866.9" y1="700.56" x2="872.49" y2="679.1"/></g></g></g></svg>