<svg xmlns="http://www.w3.org/2000/svg" viewBox="0 0 2000 1700"><defs><style>.cls-1{fill:#91e6f0;}.cls-12,.cls-13,.cls-2,.cls-5,.cls-6,.cls-8,.cls-9{fill:none;}.cls-12,.cls-13,.cls-2{stroke:#91e6f0;}.cls-11,.cls-13,.cls-2,.cls-6,.cls-8{stroke-linecap:round;}.cls-11,.cls-12,.cls-13,.cls-2,.cls-8,.cls-9{stroke-miterlimit:10;}.cls-10,.cls-11,.cls-2,.cls-5,.cls-6,.cls-8,.cls-9{stroke-width:7px;}.cls-11,.cls-3{fill:#fff;}.cls-10,.cls-4{fill:#ffb400;}.cls-10,.cls-5,.cls-6,.cls-8,.cls-9{stroke:#fff;}.cls-10,.cls-5,.cls-6{stroke-linejoin:round;}.cls-7{fill:#004d89;}.cls-11{stroke:#ffb400;}.cls-12{stroke-width:4px;}.cls-13{stroke-width:5px;}</style></defs><g id="Слой_1" data-name="Слой 1"><g id="COMPUTER"><rect class="cls-1" x="520.49" y="545.58" width="960.51" height="625.3" rx="39.88"/><polygon class="cls-1" points="1110.25 1193.72 891.23 1193.72 854.21 1257.92 1110.25 1193.72"/><polyline class="cls-2" points="799.86 1352.18 891.23 1193.72 1110.25 1193.72 1201.62 1352.18"/><line class="cls-2" x1="759.91" y1="1352.18" x2="1238.7" y2="1352.18"/><path class="cls-2" d="M1273.38,1191.9H556.16a58,58,0,0,1-57.94-58V582.51a57.94,57.94,0,0,1,57.94-57.94h314.5"/><path class="cls-2" d="M1133.35,524.57h312a57.94,57.94,0,0,1,57.94,57.94V1134a58,58,0,0,1-57.94,58"/></g><g id="SPARKLES"><path class="cls-1" d="M1199.81,361.28a4,4,0,0,1-4,4h-7.63v7.62a4,4,0,0,1-8,0v-7.62h-7.63a4,4,0,0,1,0-8h7.63v-7.63a4,4,0,1,1,8,0v7.63h7.63A4,4,0,0,1,1199.81,361.28Z"/><path class="cls-1" d="M710.53,1243a4,4,0,0,1-4,4H698.9v7.63a4,4,0,0,1-8,0V1247h-7.63a4,4,0,0,1,0-8h7.63v-7.62a4,4,0,0,1,8,0V1239h7.63A4,4,0,0,1,710.53,1243Z"/><path class="cls-3" d="M831.83,634.9a4,4,0,0,1-4,4h-9.45v9.45a4,4,0,0,1-8,0V638.9h-9.46a4,4,0,0,1,0-8h9.46v-9.46a4,4,0,0,1,8,0v9.46h9.45A4,4,0,0,1,831.83,634.9Z"/><path class="cls-3" d="M1310.12,778.16a4.19,4.19,0,0,1-4.2,4.19h-9.26v9.27a4.19,4.19,0,0,1-8.38,0v-9.27H1279a4.19,4.19,0,0,1,0-8.38h9.27v-9.26a4.19,4.19,0,0,1,8.38,0V774h9.26A4.2,4.2,0,0,1,1310.12,778.16Z"/><path class="cls-4" d="M490.69,482.26a4,4,0,0,1-4,4h-9.46v9.46a4,4,0,0,1-8,0v-9.46h-9.45a4,4,0,0,1,0-8h9.45V468.8a4,4,0,1,1,8,0v9.46h9.46A4,4,0,0,1,490.69,482.26Z"/><path class="cls-4" d="M1636,907.21a4,4,0,0,1-4,4h-9.45v9.46a4,4,0,1,1-8,0v-9.46h-9.46a4,4,0,0,1,0-8h9.46v-9.45a4,4,0,1,1,8,0v9.45H1632A4,4,0,0,1,1636,907.21Z"/></g><g id="ROCKET"><line class="cls-5" x1="894.88" y1="927.53" x2="894.88" y2="1042.6"/><line class="cls-5" x1="894.88" y1="893.05" x2="894.88" y2="909.99"/><line class="cls-5" x1="1106.6" y1="1060.96" x2="1106.6" y2="1097.79"/><line class="cls-5" x1="1106.6" y1="893.05" x2="1106.6" y2="1038.5"/><path class="cls-6" d="M694.9,1169.39a128.74,128.74,0,0,1,241.9.39"/><path class="cls-6" d="M854.21,1058.3a87.29,87.29,0,0,1,126.16,19.63"/><path class="cls-6" d="M831.11,1085.85a87.55,87.55,0,0,1,8.69-13.21"/><path class="cls-6" d="M991.64,1169.78c13.79-41.69,55.53-72,104.88-72s90.88,30.15,104.77,71.68"/><circle class="cls-6" cx="1244.19" cy="1077.93" r="32.31"/><circle class="cls-6" cx="727.11" cy="1070.84" r="14.12"/><line class="cls-5" x1="1077.4" y1="981.91" x2="1077.4" y2="1070.81"/><path class="cls-4" d="M1110.25,893.06h-219V541a240.45,240.45,0,0,1,61.24-160.32l16.73-18.7a42.31,42.31,0,0,1,63.08,0l16.73,18.7A240.45,240.45,0,0,1,1110.25,541Z"/><circle class="cls-7" cx="1000.74" cy="597.29" r="45.12"/><path class="cls-8" d="M1032.69,593a31.39,31.39,0,0,1,.28,4.25"/><path class="cls-8" d="M1000.74,565.06a32.19,32.19,0,0,1,26.73,14.21"/><circle class="cls-9" cx="1000.74" cy="597.29" r="58.02"/><path class="cls-7" d="M1110.25,893.05a50.83,50.83,0,0,1,49.51,39.31l18.08,77.7a17.21,17.21,0,0,0,16.75,13.29h0a17.19,17.19,0,0,0,17.19-17.19V858a101.53,101.53,0,0,0-101.53-101.53Z"/><path class="cls-7" d="M891.23,893.05a50.84,50.84,0,0,0-49.51,39.31l-18.08,77.7a17.19,17.19,0,0,1-16.75,13.29h0a17.19,17.19,0,0,1-17.19-17.19V858A101.53,101.53,0,0,1,891.23,756.42Z"/><path class="cls-7" d="M1000.75,1023.35h0a18.37,18.37,0,0,1-18-14.82L957.79,881.84a191.61,191.61,0,0,1,2.82-86.26l2.82-10.6a38.45,38.45,0,0,1,37.15-28.56h0a38.45,38.45,0,0,1,37.25,29l3.5,13.75a191.73,191.73,0,0,1,2.26,84.69l-24.82,124.75A18.37,18.37,0,0,1,1000.75,1023.35Z"/><path class="cls-3" d="M1085.94,435.58H915.54c1.15-2.35,2.33-4.69,3.56-7h163.28C1083.61,430.89,1084.79,433.23,1085.94,435.58Z"/></g><g id="ICONS"><polygon class="cls-7" points="1400.83 801.56 1507.68 801.56 1507.68 831.79 1400.83 801.56"/><rect class="cls-10" x="1385.03" y="631.63" width="206.62" height="168.1" rx="28.59"/><rect class="cls-7" x="1425.18" y="713.37" width="32.23" height="51.33" rx="15.75"/><rect class="cls-7" x="1472.51" y="690.67" width="32.23" height="74.04" rx="15.75"/><rect class="cls-7" x="1519.83" y="669.75" width="32.23" height="94.95" rx="15.75"/><circle class="cls-3" cx="1361.64" cy="1162.85" r="80.58"/><circle class="cls-11" cx="1361.64" cy="1162.85" r="69.3"/><circle class="cls-1" cx="1361.64" cy="1162.85" r="58.02"/><rect class="cls-4" x="1315.1" y="1144.93" width="6.64" height="6.45"/><rect class="cls-4" x="1324.24" y="1144.93" width="6.64" height="6.45"/><rect class="cls-4" x="1333.38" y="1144.93" width="6.64" height="6.45"/><rect class="cls-4" x="1342.51" y="1144.93" width="6.64" height="6.45"/><rect class="cls-4" x="1351.65" y="1144.93" width="6.64" height="6.45"/><rect class="cls-4" x="1315.1" y="1156.5" width="6.64" height="6.45"/><rect class="cls-4" x="1324.24" y="1156.5" width="6.64" height="6.45"/><rect class="cls-4" x="1333.38" y="1156.5" width="6.64" height="6.45"/><rect class="cls-4" x="1342.51" y="1156.5" width="6.64" height="6.45"/><rect class="cls-4" x="1315.1" y="1168.08" width="6.64" height="6.45"/><rect class="cls-4" x="1324.24" y="1168.08" width="6.64" height="6.45"/><rect class="cls-4" x="1333.38" y="1168.08" width="6.64" height="6.45"/><rect class="cls-4" x="1342.51" y="1168.08" width="6.64" height="6.45"/><rect class="cls-4" x="1315.1" y="1179.65" width="6.64" height="6.45"/><rect class="cls-4" x="1324.24" y="1179.65" width="6.64" height="6.45"/><rect class="cls-4" x="1333.38" y="1179.65" width="6.64" height="6.45"/><rect class="cls-4" x="1342.51" y="1179.65" width="6.64" height="6.45"/><circle class="cls-4" cx="1381.16" cy="1175.57" r="24.17"/><path class="cls-7" d="M1388.21,1179.48a6.87,6.87,0,0,1-5.2,6.49v.61a2.11,2.11,0,0,1-4.22,0V1186a7.23,7.23,0,0,1-4.46-3.52,2,2,0,0,1,1.83-3,2.1,2.1,0,0,1,1.82,1.12,3.31,3.31,0,0,0,2.92,1.56,2.73,2.73,0,1,0,0-5.37,6.15,6.15,0,0,1-6.35-5.91,6,6,0,0,1,4.24-5.58v-.74a2.11,2.11,0,0,1,3.6-1.5,2.13,2.13,0,0,1,.62,1.5v.74a6.28,6.28,0,0,1,3.46,2.73,1.91,1.91,0,0,1-1.66,2.85h-.34a2,2,0,0,1-1.61-.9,2.39,2.39,0,0,0-2-.92,1.86,1.86,0,1,0,0,3.63A7.08,7.08,0,0,1,1388.21,1179.48Z"/><rect class="cls-11" x="1410.54" y="1228.43" width="23.85" height="88.23" rx="11.92" transform="translate(-429.32 810.31) rotate(-27.8)"/><rect class="cls-4" x="402" y="796.2" width="273.35" height="222.02" rx="30.1"/><path class="cls-7" d="M402,843.69H675.35V824.38a28.18,28.18,0,0,0-28.17-28.18h-217A28.18,28.18,0,0,0,402,824.38Z"/><circle class="cls-7" cx="538.22" cy="929.22" r="60.96"/><path class="cls-3" d="M599.18,929.22a61,61,0,0,0-61-61v61Z"/><polygon class="cls-7" points="650.73 1021.87 494.56 1021.87 494.56 1066.4 650.73 1021.87"/><circle class="cls-12" cx="619.24" cy="820.8" r="5.16"/><line class="cls-13" x1="561.56" y1="905" x2="591.65" y2="874.91"/><rect class="cls-3" x="603.98" y="862.99" width="45.77" height="12.89" rx="6.45"/><rect class="cls-3" x="437.78" y="977.29" width="35.45" height="12.89" rx="6.45"/><line class="cls-13" x1="522.49" y1="947.66" x2="489.27" y2="980.89"/><circle class="cls-3" cx="426.31" cy="983.74" r="6.45"/><path class="cls-4" d="M646.81,824.1a2,2,0,0,1-1.42,3.41,2,2,0,0,1-1.41-.58l-3.3-3.3-3.31,3.3a2,2,0,0,1-1.41.58,2,2,0,0,1-1.42-3.41l3.31-3.3-3.31-3.31a2,2,0,0,1,2.83-2.83l3.31,3.31,3.3-3.31a2,2,0,0,1,2.83,2.83l-3.3,3.31Z"/><rect class="cls-9" x="402" y="796.2" width="273.35" height="222.02" rx="30.1"/></g></g></svg>