<svg xmlns="http://www.w3.org/2000/svg" viewBox="0 0 2000 1700"><defs><style>.cls-1{fill:#91e6f0;}.cls-10,.cls-12,.cls-13,.cls-14,.cls-17,.cls-18,.cls-2,.cls-3,.cls-5,.cls-6,.cls-8{fill:none;}.cls-10,.cls-11,.cls-12,.cls-16,.cls-2{stroke:#004d89;}.cls-12,.cls-13,.cls-14,.cls-15,.cls-16,.cls-18,.cls-19,.cls-2,.cls-21,.cls-3,.cls-6,.cls-8{stroke-linecap:round;}.cls-10,.cls-11,.cls-12,.cls-13,.cls-14,.cls-15,.cls-16,.cls-18,.cls-19,.cls-2,.cls-21,.cls-3,.cls-5,.cls-6,.cls-8{stroke-linejoin:round;}.cls-17,.cls-2,.cls-20,.cls-21,.cls-3,.cls-6,.cls-8{stroke-width:7px;}.cls-14,.cls-15,.cls-18,.cls-19,.cls-21,.cls-3{stroke:#ffb400;}.cls-4{fill:#004d89;}.cls-5,.cls-6{stroke:#fff;}.cls-10,.cls-11,.cls-12,.cls-14,.cls-15,.cls-16,.cls-5{stroke-width:6px;}.cls-7{fill:#ffb400;}.cls-17,.cls-20,.cls-8{stroke:#91e6f0;}.cls-11,.cls-15,.cls-16,.cls-19,.cls-20,.cls-21,.cls-9{fill:#fff;}.cls-13{stroke:#004b82;stroke-width:5.88px;}.cls-17,.cls-20{stroke-miterlimit:10;}.cls-18{stroke-width:5px;}.cls-19{stroke-width:4.9px;}</style></defs><g id="Слой_1" data-name="Слой 1"><rect id="BLUE_BACKGROUND" class="cls-1" x="512.54" y="396.31" width="877.48" height="655.96" rx="53.74"/><g id="MICROPHONE"><line class="cls-2" x1="557.59" y1="901.47" x2="557.59" y2="1048.03"/><path class="cls-3" d="M627.13,862.28,478.52,946A56,56,0,0,0,450,994.84h0a56,56,0,0,0,56,56H670a35.36,35.36,0,0,1,35.35,35.36h0A35.36,35.36,0,0,1,670,1121.58H452.65"/><rect class="cls-4" x="608.78" y="787.11" width="154.28" height="91.68" rx="41.62" transform="translate(-301.24 397.27) rotate(-26.72)"/><line class="cls-5" x1="716.76" y1="868.75" x2="675.87" y2="786.69"/><line class="cls-5" x1="727.87" y1="863.2" x2="686.98" y2="781.13"/><line class="cls-6" x1="777.19" y1="786.69" x2="817.48" y2="766.46"/><line class="cls-6" x1="764.36" y1="766.46" x2="778.58" y2="733"/><line class="cls-6" x1="784.14" y1="813.27" x2="821.65" y2="816.05"/></g><g id="WOMAN"><g id="BODY"><path class="cls-7" d="M1086.69,1052.27c-34.11-24.73-73.21-62.08-91.23-111.74,0,0-99.12,205-211.61,127.48-107.74-74.28,73.48-307.39,339-357.76,65.54-12.44,155.73,2.34,155.73,2.34,271.88,107.2,321.35,342.22,228.28,385.68-35.17,16.43-117.58,23.31-165.75-90l17.5,44Z"/><line class="cls-8" x1="1318.75" y1="950.06" x2="1360.12" y2="1048.9"/><line class="cls-6" x1="1402.86" y1="895.96" x2="1400.45" y2="1007.33"/><line class="cls-6" x1="906.09" y1="924.65" x2="905.74" y2="999.07"/></g><g id="HEAD"><path class="cls-4" d="M1357.39,464.45a30.09,30.09,0,0,1-38.9,28.74,54.81,54.81,0,0,1-67.32,75.11c0,.43,0,.86,0,1.3l-.78,57.07h-49.68l-.4-20.83c-31.15,0-56.41-16.22-56.41-36.24s25.26-36.24,56.41-36.24a77.54,77.54,0,0,1,17,1.8,54.8,54.8,0,0,1,80.39-65.27,29.51,29.51,0,0,1-.5-5.44,30.06,30.06,0,0,1,60.12,0Z"/><path class="cls-9" d="M1278.6,712.59c0,38.07-34.86,67.54-77.86,67.54s-77.87-31.82-77.87-69.88l26.68-4.81,7.53-35.2s-26.24-2.93-27.22-31.86c-.65-19.51,22-56.57,22-56.57s21.46,30.56,63.73,21.45l3.9,16.91,3.07-7.69A18.81,18.81,0,0,1,1240,600.66h1a18.8,18.8,0,0,1,18.8,18.8h0a18.8,18.8,0,0,1-18.59,18.8l-10.24.12h6.72l7,63.72Z"/><path class="cls-10" d="M1122.87,713l26.68-6.19,7.53-36.59s-26.24-2.93-27.22-31.86c-.65-19.51,22-56.57,22-56.57s21.46,30.56,63.73,21.45l3.9,16.91,3.07-7.69A18.81,18.81,0,0,1,1240,600.66h1a18.8,18.8,0,0,1,18.8,18.8h0a18.8,18.8,0,0,1-18.59,18.8l-10.24.12h6.72l8.37,65.11,32.52,11.88"/><path class="cls-11" d="M1136.15,614.49s-1,16.3,21.89,18c4.94.36,6.4,7,2,9.19a24.94,24.94,0,0,1-16.49,1.94C1125.22,640,1136.15,614.49,1136.15,614.49Z"/><polyline class="cls-12" points="1166.04 598.37 1149.31 616.78 1156.98 621.99"/><path class="cls-12" d="M1172,617.37c.15-2.81,3-4.94,6.34-4.76s5.93,2.6,5.78,5.41"/><path class="cls-12" d="M1157.08,670.24c18.88,3.25,35.12.32,53.32-12.36"/><polyline class="cls-13" points="1240.55 615.65 1233.9 622.51 1244.54 622.51"/><circle class="cls-1" cx="1185.89" cy="640" r="12.25"/><path class="cls-4" d="M1241,665.5a13.78,13.78,0,0,1-2.87.31l-22.94-30.25h21.71Z"/><path class="cls-14" d="M1240,604.83V584.69a55.44,55.44,0,0,0-55.44-55.44"/><circle class="cls-15" cx="1239.98" cy="619.43" r="26.95"/><path class="cls-14" d="M1130.77,598.89l-9.24,0a11.91,11.91,0,0,0-8.06,20.72"/><circle class="cls-15" cx="1114.99" cy="621.65" r="5.03"/></g><g id="HANDS"><path class="cls-9" d="M963.8,937.14a15.24,15.24,0,0,0,9.63-19.44l-.35-1,1.12,3.05a13.54,13.54,0,0,0,15.69,8.57c5.83-1.33,11.21-4.56,12.79-9.21l1.47-4.32,5.7,1.07a15.67,15.67,0,0,0,18.55-15.7l-.19-10.39,35.25,35a14.56,14.56,0,0,0,20,.45h0a14.57,14.57,0,0,0,1.68-19.74l-70-89.48a47.87,47.87,0,0,0-55.47-15c-21.57,8.61-51,21.5-75.52,32.46A51.65,51.65,0,0,0,857.87,901h0c14.31,33.36,62.28,31.31,73.69-3.15v0l5.56,12.39L932.91,912a16.82,16.82,0,0,0-9,22.06h0a16.82,16.82,0,0,0,19.76,9.76Z"/><path class="cls-2" d="M865.66,915.55c19.85,18.35,56.3,11.31,65.9-17.67v0l5.56,12.39L932.91,912a16.82,16.82,0,0,0-9,22.06h0a16.82,16.82,0,0,0,19.76,9.76l20.18-6.65a15.24,15.24,0,0,0,9.63-19.44l-.35-1,1.12,3.05a13.54,13.54,0,0,0,15.69,8.57c5.83-1.33,11.21-4.56,12.79-9.21l1.47-4.32,5.7,1.07a15.67,15.67,0,0,0,18.55-15.7l-.19-10.39,35.25,35a14.56,14.56,0,0,0,20,.45h0a14.57,14.57,0,0,0,1.68-19.74l-70-89.48a47.87,47.87,0,0,0-55.47-15c-21.57,8.61-51,21.5-75.52,32.46"/><line class="cls-2" x1="1028.21" y1="889.75" x2="1012.33" y2="859.12"/><line class="cls-2" x1="1004.15" y1="914.77" x2="985.38" y2="866.25"/><line class="cls-2" x1="976.53" y1="925.61" x2="957.64" y2="877.66"/><circle class="cls-1" cx="1075.88" cy="915.55" r="8.57"/><path class="cls-9" d="M1342.2,894.9c-5.93-4.13-9.8-7.12-10.21-12l-.38-4.54-5.79-.34c-9.92-.58-20.09-11.36-17.52-21l6-8.79-42.65,25.53a14.56,14.56,0,0,1-19.57-4.38h0a14.56,14.56,0,0,1,3.12-19.56l89.42-70a47.89,47.89,0,0,1,57.45-1.19c18.87,13.55,44.32,33.13,65.49,49.67a51.67,51.67,0,0,1,9.36,71.9h0c-21.92,28.93-68,15.4-70.77-20.79v0l-8.38,10.69,3.68,2.71a16.82,16.82,0,0,1,3.47,23.59h0a16.81,16.81,0,0,1-21.52,4.72Z"/><path class="cls-2" d="M1465.84,912.42c-23.69,13-57.37-2.57-59.71-33v0l-8.38,10.69,3.68,2.71a16.82,16.82,0,0,1,3.47,23.59h0a16.81,16.81,0,0,1-21.52,4.72L1342.2,894.9c-6-4.24-9.8-7.12-10.21-12l-.38-4.54-5.79-.34c-9.92-.58-20.09-11.36-17.52-21l6-8.79-42.65,25.53a14.56,14.56,0,0,1-19.57-4.38h0a14.56,14.56,0,0,1,3.12-19.56l89.42-70a47.89,47.89,0,0,1,57.45-1.19c18.87,13.55,44.32,33.13,65.49,49.67"/><line class="cls-2" x1="1314.28" y1="848.26" x2="1337.06" y2="822.35"/><line class="cls-2" x1="1331.61" y1="878.34" x2="1361.51" y2="835.76"/><path class="cls-2" d="M1385.68,853.51l-21.47,30.18a20.22,20.22,0,0,0,5.63,28.78"/><circle class="cls-1" cx="1261.8" cy="861.83" r="8.57"/></g></g><g id="ICONS"><rect class="cls-1" x="806.09" y="1206.79" width="395.06" height="96.9" rx="48.07"/><path class="cls-6" d="M998.93,1276.28l19.63-16.3a5.08,5.08,0,0,0,0-7.82l-19.63-16.31a5.56,5.56,0,0,0-9.11,4.28V1272A5.56,5.56,0,0,0,998.93,1276.28Z"/><path class="cls-9" d="M1101.8,1247.65l6.26-5.19a1.56,1.56,0,0,0,0-2.4l-6.26-5.19a1.56,1.56,0,0,0-2.55,1.2v10.38A1.56,1.56,0,0,0,1101.8,1247.65Z"/><path class="cls-6" d="M1116.62,1259.62a18,18,0,1,1-18-18"/><path class="cls-9" d="M908.41,1247.65l-6.25-5.19a1.56,1.56,0,0,1,0-2.4l6.25-5.19a1.56,1.56,0,0,1,2.55,1.2v10.38A1.56,1.56,0,0,1,908.41,1247.65Z"/><path class="cls-6" d="M893.59,1259.62a18,18,0,1,0,18-18"/><path class="cls-3" d="M1508.83,1282.47h-11.71a5.66,5.66,0,0,1-5.66-5.65V1265.1"/><path class="cls-3" d="M1548.89,1265.1v11.72a5.65,5.65,0,0,1-5.65,5.65h-11.72"/><path class="cls-3" d="M1491.46,1242.41v-11.72a5.66,5.66,0,0,1,5.66-5.65h11.71"/><path class="cls-3" d="M1531.52,1225h11.72a5.65,5.65,0,0,1,5.65,5.65v11.72"/><polygon class="cls-9" points="1013.78 625 986.12 601.39 803.11 601.39 803.11 459.63 1013.78 459.63 1013.78 625"/><line class="cls-3" x1="866.36" y1="514.05" x2="945.33" y2="514.05"/><line class="cls-3" x1="866.36" y1="543.21" x2="945.33" y2="543.21"/><path class="cls-3" d="M517.81,1298a48.32,48.32,0,1,1,22.67-20.62"/><circle class="cls-1" cx="530.45" cy="1289.56" r="6.05"/><circle class="cls-4" cx="498.31" cy="1237.65" r="7.56"/><path class="cls-4" d="M483.33,1259.23l1.83-2.51a16.29,16.29,0,0,1,26.31,0l1.82,2.51a11.44,11.44,0,0,1-9.24,18.18H492.58A11.44,11.44,0,0,1,483.33,1259.23Z"/><path class="cls-4" d="M1358.63,1052.27H982.17v-.92a40.54,40.54,0,0,1,40.54-40.53h285.65a35.23,35.23,0,0,1,26.32,11.81Z"/><rect class="cls-16" x="980.69" y="1013.8" width="349.45" height="107.78" rx="20.89"/><circle class="cls-3" cx="1050.36" cy="1067.69" r="9.92"/><path class="cls-3" d="M1050.36,1089.74a22.05,22.05,0,1,1,.24-44.1h0a18.16,18.16,0,0,1,18.15,18.15v9.42a4.24,4.24,0,0,1-4.24,4.24h0a4.23,4.23,0,0,1-4.23-4.24v-6.6"/><line class="cls-3" x1="1102.84" y1="1067.69" x2="1276.55" y2="1067.69"/><rect class="cls-17" x="1470.72" y="459.63" width="78.17" height="219.32" rx="37.93"/><path class="cls-7" d="M1512.85,615.1v24.73a3.3,3.3,0,0,1-5.15,2.72l-13.19-9h-3.34a5.93,5.93,0,0,1-5.94-5.93v-.38a5.94,5.94,0,0,1,5.94-5.93h3.34l13.19-9A3.3,3.3,0,0,1,1512.85,615.1Z"/><path class="cls-18" d="M1519.53,622.1a6.51,6.51,0,0,1,0,10.72"/><path class="cls-18" d="M1526.37,617.49a12.13,12.13,0,0,1,0,19.94"/><line class="cls-3" x1="1509.8" y1="596.39" x2="1509.8" y2="495.47"/><circle class="cls-19" cx="1509.8" cy="523.29" r="5.37"/><polygon class="cls-7" points="825.22 613.4 832.51 637.03 808.88 629.73 797.33 651.6 785.79 629.74 762.16 637.03 769.45 613.4 747.58 601.85 769.45 590.3 762.16 566.67 785.79 573.97 797.33 552.1 808.88 573.97 832.51 566.67 825.22 590.3 847.09 601.85 825.22 613.4"/><rect class="cls-7" x="450" y="459.63" width="168.91" height="119.47" rx="24.08"/><path class="cls-4" d="M525.52,544l26.25-18.74a7.22,7.22,0,0,0,0-11.74l-26.25-18.74a7.21,7.21,0,0,0-11.4,5.87v37.49A7.21,7.21,0,0,0,525.52,544Z"/><line class="cls-12" x1="452.38" y1="1167.67" x2="1548.89" y2="1167.67"/><path class="cls-20" d="M459.53,1158.5H752.24a0,0,0,0,1,0,0v19.06a0,0,0,0,1,0,0H459.53A9.53,9.53,0,0,1,450,1168v0A9.53,9.53,0,0,1,459.53,1158.5Z"/><circle class="cls-21" cx="763.88" cy="1167.31" r="14.7"/><polygon class="cls-4" points="792.82 1126.49 773.6 1126.49 763.88 1138.99 754.16 1126.49 734.95 1126.49 734.95 1090.4 792.82 1090.4 792.82 1126.49"/><line class="cls-6" x1="757.44" y1="1107.69" x2="771.29" y2="1107.69"/></g></g></svg>