<svg xmlns="http://www.w3.org/2000/svg" viewBox="0 0 2000 1700"><defs><style>.cls-1,.cls-10,.cls-11,.cls-12,.cls-14,.cls-17,.cls-18,.cls-19,.cls-6,.cls-7,.cls-8,.cls-9{fill:none;}.cls-1{stroke:#91e6f0;}.cls-1,.cls-10,.cls-11,.cls-12,.cls-14,.cls-15,.cls-18,.cls-19,.cls-8,.cls-9{stroke-linecap:round;}.cls-1,.cls-14,.cls-16,.cls-17,.cls-6,.cls-7,.cls-8{stroke-miterlimit:10;}.cls-1,.cls-10,.cls-11,.cls-13,.cls-14,.cls-15,.cls-16,.cls-17,.cls-6,.cls-7,.cls-8{stroke-width:7px;}.cls-2{fill:#ffb400;}.cls-3{fill:#004d89;}.cls-13,.cls-15,.cls-16,.cls-4{fill:#fff;}.cls-5{fill:#91e6f0;}.cls-19,.cls-6,.cls-9{stroke:#ffb400;}.cls-10,.cls-12,.cls-7,.cls-8{stroke:#fff;}.cls-10,.cls-11,.cls-12,.cls-13,.cls-15,.cls-18,.cls-19,.cls-9{stroke-linejoin:round;}.cls-9{stroke-width:5px;}.cls-11,.cls-13,.cls-14,.cls-15,.cls-16,.cls-17,.cls-18{stroke:#004d89;}.cls-12{stroke-width:5.86px;}.cls-18,.cls-19{stroke-width:6px;}</style></defs><g id="Слой_1" data-name="Слой 1"><g id="GLOBE"><circle class="cls-1" cx="1370.15" cy="603.54" r="254.89"/><path class="cls-1" d="M1244,688.13c19.16,81.23,67.35,143.72,126.17,170.3"/><path class="cls-1" d="M1370.15,348.64c-65.91,29.83-116.42,106.71-130.24,202"/><path class="cls-1" d="M1504.17,603.45c0,119.09-56.27,219.84-134,255"/><path class="cls-1" d="M1370.15,348.64c45.78,20.72,84.13,64.13,107.91,120.65"/><line class="cls-1" x1="1370.15" y1="348.64" x2="1370.15" y2="858.43"/><line class="cls-1" x1="1294.62" y1="603.54" x2="1625.05" y2="603.54"/><line class="cls-1" x1="1115.26" y1="603.54" x2="1177.03" y2="603.54"/><path class="cls-1" d="M1215.77,400.71c38.4,38.84,94,63.26,156,63.26,61.18,0,116.24-23.85,154.59-61.9"/><path class="cls-1" d="M1214.88,805.32c38.41-38.85,94-63.27,155.95-63.27,61.18,0,116.24,23.85,154.6,61.91"/><path class="cls-2" d="M1505.4,484.31h43.71a0,0,0,0,1,0,0V528a43.71,43.71,0,0,1-43.71,43.71h0A43.71,43.71,0,0,1,1461.68,528v0A43.71,43.71,0,0,1,1505.4,484.31Z" transform="translate(2943.24 -163.09) rotate(135)"/><circle class="cls-3" cx="1505.4" cy="528.2" r="29.28"/><circle class="cls-4" cx="1505.4" cy="519.43" r="8.22"/><path class="cls-4" d="M1523.86,550.91a29.25,29.25,0,0,1-36.93,0,12.28,12.28,0,0,1,2.17-9.73l2-2.72a17.71,17.71,0,0,1,28.62,0l2,2.72A12.22,12.22,0,0,1,1523.86,550.91Z"/><path class="cls-2" d="M1273.74,579.53a2.64,2.64,0,0,1-2-4.39c2.62-2.94,5.4-5.83,8.26-8.58a2.63,2.63,0,0,1,3.65,3.8c-2.76,2.65-5.44,5.44-8,8.29A2.64,2.64,0,0,1,1273.74,579.53Zm16.86-16.23a2.64,2.64,0,0,1-1.68-4.67c3-2.52,6.23-5,9.46-7.23a2.63,2.63,0,1,1,3,4.3c-3.12,2.21-6.19,4.56-9.14,7A2.66,2.66,0,0,1,1290.6,563.3Zm19.12-13.5a2.64,2.64,0,0,1-1.36-4.9c3.4-2,6.91-4,10.44-5.73a2.63,2.63,0,1,1,2.36,4.71c-3.41,1.71-6.81,3.58-10.09,5.54A2.56,2.56,0,0,1,1309.72,549.8Zm146.17-8.36a2.68,2.68,0,0,1-1.1-.23c-3.47-1.59-7-3.06-10.64-4.38a2.63,2.63,0,1,1,1.82-4.94c3.71,1.36,7.41,2.88,11,4.52a2.63,2.63,0,0,1-1.09,5Zm-125.25-2.12a2.64,2.64,0,0,1-1-5.08c3.65-1.5,7.41-2.88,11.17-4.1a2.63,2.63,0,0,1,1.63,5c-3.64,1.18-7.27,2.52-10.8,4A2.74,2.74,0,0,1,1330.64,539.32Zm103.29-6a2.55,2.55,0,0,1-.72-.1c-3.68-1-7.44-2-11.18-2.72a2.64,2.64,0,1,1,1-5.17c3.87.8,7.77,1.74,11.57,2.82a2.64,2.64,0,0,1-.72,5.17Zm-81-1.3a2.64,2.64,0,0,1-.63-5.2c3.83-.94,7.75-1.75,11.65-2.41a2.64,2.64,0,0,1,.88,5.2c-3.78.64-7.57,1.42-11.27,2.33A2.72,2.72,0,0,1,1352.88,532.07Zm58.13-3.38-.34,0c-3.79-.49-7.65-.83-11.46-1a2.63,2.63,0,1,1,.27-5.26c4,.2,7.94.56,11.86,1.06a2.64,2.64,0,0,1-.33,5.25Zm-35.06-.53a2.64,2.64,0,0,1-.25-5.26c3.94-.38,7.94-.61,11.88-.7h.06a2.64,2.64,0,0,1,.06,5.27c-3.82.08-7.68.31-11.5.68Z"/><path class="cls-2" d="M1237.24,568.47H1281a0,0,0,0,1,0,0v43.71a43.71,43.71,0,0,1-43.71,43.71h0a43.71,43.71,0,0,1-43.71-43.71v0A43.71,43.71,0,0,1,1237.24,568.47Z" transform="translate(2544.98 170.19) rotate(135)"/><circle class="cls-3" cx="1237.24" cy="612.36" r="29.28"/><circle class="cls-4" cx="1237.24" cy="602.98" r="8.22"/><path class="cls-4" d="M1255.53,635.21a29.28,29.28,0,0,1-36.58,0,12.26,12.26,0,0,1,2-10.48l2-2.72a17.71,17.71,0,0,1,28.62,0l2,2.72A12.24,12.24,0,0,1,1255.53,635.21Z"/></g><g id="ICONS"><circle class="cls-5" cx="593.89" cy="583.73" r="118.9"/><circle class="cls-6" cx="554.24" cy="561.13" r="11.41"/><path class="cls-6" d="M531.21,599.87l5.57-7.64a21.61,21.61,0,0,1,34.91,0l5.57,7.64a17.76,17.76,0,0,1-14.35,28.23H545.56A17.76,17.76,0,0,1,531.21,599.87Z"/><circle class="cls-6" cx="633.55" cy="561.13" r="11.41"/><circle class="cls-7" cx="593.11" cy="549.72" r="11.41"/><path class="cls-8" d="M581.43,577.6a16.51,16.51,0,0,1,23.35,0"/><path class="cls-6" d="M610.53,599.87l5.57-7.64a21.61,21.61,0,0,1,34.91,0l5.57,7.64a17.76,17.76,0,0,1-14.35,28.23H624.88A17.76,17.76,0,0,1,610.53,599.87Z"/><circle class="cls-3" cx="501.04" cy="684.24" r="47.73"/><path class="cls-9" d="M480.87,677.38h4a0,0,0,0,1,0,0v13.71a0,0,0,0,1,0,0h-4a6.86,6.86,0,0,1-6.86-6.86v0A6.86,6.86,0,0,1,480.87,677.38Z"/><polygon class="cls-9" points="507.37 704.73 484.84 691.09 484.84 677.38 507.37 663.74 507.37 704.73"/><path class="cls-9" d="M515.56,678.67a6.77,6.77,0,0,1,0,11.13"/><path class="cls-9" d="M521.83,672.35a14.46,14.46,0,0,1,0,23.78"/><path class="cls-5" d="M1039.34,474.93a3.5,3.5,0,0,1-3.5,3.5h-8.72v8.72a3.5,3.5,0,1,1-7,0v-8.72h-8.73a3.5,3.5,0,0,1,0-7h8.73v-8.72a3.5,3.5,0,1,1,7,0v8.72h8.72A3.5,3.5,0,0,1,1039.34,474.93Z"/><path class="cls-5" d="M632.13,794.32a3.5,3.5,0,0,1-3.5,3.5h-8.72v8.73a3.5,3.5,0,0,1-7,0v-8.73h-8.72a3.5,3.5,0,0,1,0-7h8.72V782.1a3.5,3.5,0,0,1,7,0v8.72h8.72A3.5,3.5,0,0,1,632.13,794.32Z"/><path class="cls-5" d="M1591.44,891.1a3.5,3.5,0,0,1-3.5,3.5h-8.72v8.72a3.5,3.5,0,0,1-7,0V894.6h-8.73a3.5,3.5,0,0,1,0-7h8.73v-8.73a3.5,3.5,0,0,1,7,0v8.73h8.72A3.5,3.5,0,0,1,1591.44,891.1Z"/></g><g id="WOMAN"><g id="BODY"><path class="cls-2" d="M1217.07,1076.27c-71.13-120.91-207.31-202.68-363.61-202.68-229.83,0-416.15,204.15-416.15,368.32h0a109.45,109.45,0,0,0,109.45,109.45h53.88l76.88-211c4.46-12.25,22.15-11.08,25,1.65L745,1334.33a21.72,21.72,0,0,0,21.21,17h239.45a81.61,81.61,0,0,0,70.43-40.4l54.36-92.94,8.19,40.13c9.52,53.91,59.19,93.21,113.93,93.21h0A112.81,112.81,0,0,0,1363.32,1260l54.21-283-137.2-22.83Z"/><path class="cls-3" d="M847.42,847,809.4,876s1.94,33,33,45.37c29.9,11.92,57.3-14.34,57.3-14.34s17.19,22.62,41.61,19.23C975,921.63,980,890.94,980,890.94l-27.88-26.87-47.35,31.51Z"/><circle class="cls-10" cx="899.82" cy="960.36" r="7.77"/><circle class="cls-10" cx="899.82" cy="1053.31" r="7.77"/><line class="cls-11" x1="1217.07" y1="1076.27" x2="1203.78" y2="1101.44"/><path class="cls-3" d="M1426.74,921.21l-13,78.88a4.61,4.61,0,0,1-8.38,1.66l-11.94-18.11L1379,993.35a38.5,38.5,0,0,1-54.45-11.91l-8.09-13.31-23.26,8.4a12.72,12.72,0,0,1-15.68-17.7l20.16-40c3.76,3.06,48.53,37.89,111.14,15.26C1417.64,931,1423.19,926.49,1426.74,921.21Z"/><path class="cls-3" d="M726.35,1211.35c-78.42,26.68-91.89,123.9-93.59,140H600.44c-28,0-37.33-37.45-12.61-50.59l6.73-3.58-1.58-2.94a50.77,50.77,0,0,1,35.53-73.87l8.85-1.64-6.88-20.27a12.83,12.83,0,0,1,17.1-16Z"/><line class="cls-11" x1="680.46" y1="1199.47" x2="598.94" y2="1166.33"/><circle class="cls-12" cx="899.82" cy="1143.42" r="7.77"/></g><g id="HANDS"><path class="cls-13" d="M719.82,1212.65,762,1229.09a101.41,101.41,0,0,1,48.21,40.66l32.64,58.79a13.28,13.28,0,0,1-11.61,19.73h-69.6a34.16,34.16,0,0,1-27.31-13.65L724.82,1322a2.51,2.51,0,0,0-4.32.55h0A41.64,41.64,0,0,1,682,1348.27l-49.48-.31S629,1241.1,719.82,1212.65Z"/><path class="cls-14" d="M796.26,1289.51l21.67,39a13.29,13.29,0,0,1-11.62,19.73"/><path class="cls-14" d="M772.77,1292.05,793,1328.54a13.29,13.29,0,0,1-11.61,19.73"/><path class="cls-14" d="M747.32,1294.05l19.15,34.49c4.92,8.85,1.4,19.42-8.73,19.42"/><path class="cls-15" d="M1403.17,934.09c26.51-9.34,29.14-31.3,31.13-49.14l6.94-62.19-83.58-6.38L1352,722.54c-.23-7.1-4.66-12.83-10.7-14.58a14.25,14.25,0,0,0-4.2-.55c-8.35.18-15.33,7.51-15.69,16.48l-8,112.24c-14.33,4-22.36,20.61-20.57,36.12l7.46,49.19S1337.71,957.75,1403.17,934.09Z"/><path class="cls-16" d="M1373.07,849.2l-3.06.07c-8.63.18-15.44-7.19-15.21-16.45l1-43c.22-9.27,7.39-16.92,16-17.1l3.07-.07c8.62-.18,15.43,7.19,15.21,16.45l-1,43C1388.87,841.37,1381.7,849,1373.07,849.2Z"/><path class="cls-16" d="M1407.37,848.49l-3.07.06c-8.62.18-15.43-7.18-15.21-16.45l.87-36.36c.22-9.27,7.39-16.92,16-17.1l3.06-.07c8.63-.18,15.44,7.19,15.22,16.45l-.88,36.37C1423.16,840.65,1416,848.31,1407.37,848.49Z"/><path class="cls-16" d="M1438.59,847.84h0c-8.62.18-15.43-7.19-15.21-16.45l.72-29.78c.22-9.26,7.39-16.92,16-17.1h0c8.63-.18,15.44,7.18,15.22,16.45l-.72,29.77C1454.39,840,1447.22,847.66,1438.59,847.84Z"/><circle class="cls-2" cx="1438.48" cy="835.94" r="8.87"/><circle class="cls-2" cx="1405.57" cy="835.12" r="10.08"/><circle class="cls-2" cx="1372.04" cy="835.92" r="10.08"/><path class="cls-13" d="M1313.37,836.13l46.91-7.21c5.39-1,10.14,3.35,10,9.19h0a24.5,24.5,0,0,1-10.58,19.66l-14.55,9.77s25.13,2.81,22.79,44.4"/><path class="cls-2" d="M1342.93,834.72a10.08,10.08,0,0,0,19.91-3.14Z"/></g><g id="LAPTOP"><path class="cls-5" d="M1172.44,1147.64,1118,1329.07a31.37,31.37,0,0,1-30.08,22.29H831.65a31.35,31.35,0,0,1-30.6-24.25l-41.7-181.21a27.87,27.87,0,0,1,27.3-34h359A27.86,27.86,0,0,1,1172.44,1147.64Z"/><path class="cls-10" d="M992.41,1221.76a25.66,25.66,0,1,1-16.32-17.61"/><line class="cls-10" x1="941.11" y1="1256.29" x2="939.19" y2="1258.21"/><line class="cls-10" x1="995.48" y1="1201.92" x2="959.22" y2="1238.18"/></g><g id="HEAD"><path class="cls-4" d="M905,897.49l46.22-32.56,2.59-24.12,3.3-.68a33,33,0,0,0,25.63-38.93L971.4,745.55l-89.87-15.14L846.83,854.1Z"/><path class="cls-17" d="M881.53,730.41,846.83,854.1,905,897.49l46.22-32.56,2.59-24.12,3.35-.69a35.43,35.43,0,0,0,27.94-39.26l-1.55-11.93"/><path class="cls-3" d="M945.38,754.86c-21.79,3.47-42.33-.6-56.6-9.77a62.77,62.77,0,0,1,6,21.68c3.33,36.16-24.66,68.3-62.52,71.78s-71.24-23-74.58-59.15c-2.68-29.09,14.93-55.59,41.64-66.64-.3-.8-.57-1.62-.83-2.44-9.67-30.85,9.85-64.44,43.61-75,30-9.4,61.16,2.54,74.51,27a96.36,96.36,0,0,1,13.53-3.14c37.69-6,71.66,10.57,75.86,37S983.08,748.87,945.38,754.86Z"/><path class="cls-18" d="M955,752.88s-1.11,25.8,15,35.33l-13.85,6.35"/><circle class="cls-5" cx="912.47" cy="801.5" r="14.93"/><path class="cls-11" d="M953.84,840.81c-9,1.22-34.53-1.11-49.26-16.92"/><path class="cls-18" d="M960.79,806.14s-9.83,3.62-14-6"/><circle class="cls-3" cx="933.12" cy="771.51" r="4.39"/><circle class="cls-3" cx="979.95" cy="763.76" r="4.39"/><ellipse class="cls-19" cx="932.58" cy="775.27" rx="19.32" ry="20.11"/><ellipse class="cls-19" cx="984.22" cy="763.76" rx="17.57" ry="18.34"/></g></g></g></svg>