<svg xmlns="http://www.w3.org/2000/svg" viewBox="0 0 2000 1700"><defs><style>.cls-1{fill:#91e6f0;}.cls-2{fill:#ffb400;}.cls-10,.cls-11,.cls-12,.cls-13,.cls-14,.cls-15,.cls-16,.cls-17,.cls-18,.cls-20,.cls-23,.cls-24,.cls-26,.cls-29,.cls-3,.cls-30,.cls-31,.cls-32,.cls-34,.cls-37,.cls-39,.cls-4,.cls-5,.cls-6,.cls-7{fill:none;}.cls-10,.cls-11,.cls-12,.cls-15,.cls-16,.cls-17,.cls-23,.cls-3,.cls-5,.cls-6{stroke:#91e6f0;}.cls-10,.cls-11,.cls-12,.cls-13,.cls-14,.cls-15,.cls-16,.cls-17,.cls-18,.cls-19,.cls-20,.cls-22,.cls-23,.cls-24,.cls-26,.cls-27,.cls-28,.cls-29,.cls-3,.cls-30,.cls-31,.cls-34,.cls-39,.cls-4,.cls-5,.cls-8,.cls-9{stroke-miterlimit:10;}.cls-17,.cls-22,.cls-3{stroke-width:6px;}.cls-18,.cls-22,.cls-24,.cls-28,.cls-4,.cls-7,.cls-8,.cls-9{stroke:#ffb400;}.cls-19,.cls-23,.cls-26,.cls-36,.cls-39,.cls-4,.cls-5,.cls-6,.cls-7{stroke-width:5px;}.cls-32,.cls-33,.cls-36,.cls-37,.cls-38,.cls-6,.cls-7{stroke-linejoin:round;}.cls-10,.cls-11,.cls-12,.cls-14,.cls-17,.cls-20,.cls-22,.cls-23,.cls-24,.cls-26,.cls-29,.cls-30,.cls-31,.cls-32,.cls-37,.cls-38,.cls-7,.cls-8{stroke-linecap:round;}.cls-19,.cls-22,.cls-25,.cls-27,.cls-28,.cls-33,.cls-36,.cls-38,.cls-8,.cls-9{fill:#fff;}.cls-31,.cls-37,.cls-38,.cls-8{stroke-width:4px;}.cls-13,.cls-14,.cls-15,.cls-16,.cls-18,.cls-24,.cls-9{stroke-width:7px;}.cls-10{stroke-width:6.84px;}.cls-11{stroke-width:6.84px;}.cls-12{stroke-width:6.84px;}.cls-13{stroke:#fdbc00;}.cls-14,.cls-19,.cls-27,.cls-31,.cls-32,.cls-33,.cls-34,.cls-36,.cls-37,.cls-38,.cls-39{stroke:#004d89;}.cls-16{stroke-dasharray:12.17 12.17;}.cls-20,.cls-26,.cls-29,.cls-30{stroke:#fff;}.cls-20{stroke-width:5.04px;}.cls-21{fill:#004d89;}.cls-27,.cls-34{stroke-width:4.5px;}.cls-28{stroke-width:3.55px;}.cls-29{stroke-width:2.68px;}.cls-30{stroke-width:2.82px;}.cls-32,.cls-33{stroke-width:3.5px;}.cls-35{fill:#fdbc00;}</style></defs><g id="Слой_1" data-name="Слой 1"><g id="ICONS"><path class="cls-1" d="M1393,452.06a3.5,3.5,0,0,1-5,4.95l-4.49-4.49L1379,457a3.5,3.5,0,0,1-5-4.95l4.49-4.49-4.49-4.49a3.5,3.5,0,0,1,5-4.95l4.49,4.49,4.49-4.49a3.5,3.5,0,0,1,5,4.95l-4.49,4.49Z"/><path class="cls-1" d="M614.76,1156.31a3.49,3.49,0,0,1,0,5,3.49,3.49,0,0,1-5,0l-4.49-4.49-4.49,4.49a3.49,3.49,0,0,1-5,0,3.51,3.51,0,0,1,0-5l4.49-4.49-4.49-4.49a3.5,3.5,0,0,1,5-4.94l4.49,4.49,4.49-4.49a3.5,3.5,0,0,1,5,4.94l-4.49,4.49Z"/><path class="cls-2" d="M1352.14,971.11a3.49,3.49,0,0,1,0,4.95,3.49,3.49,0,0,1-5,0l-4.48-4.48-4.49,4.48a3.5,3.5,0,1,1-5-4.95l4.49-4.48-4.49-4.49a3.5,3.5,0,1,1,5-4.95l4.49,4.49,4.48-4.49a3.5,3.5,0,0,1,5,4.95l-4.48,4.49Z"/><path class="cls-2" d="M544.37,773.1a3.5,3.5,0,0,1-5,4.95l-4.49-4.49-4.49,4.49a3.5,3.5,0,1,1-5-4.95l4.49-4.49-4.49-4.49a3.5,3.5,0,0,1,5-5l4.49,4.49,4.49-4.49a3.5,3.5,0,0,1,5,5l-4.49,4.49Z"/><circle class="cls-3" cx="571.61" cy="626.45" r="48.96"/><circle class="cls-4" cx="552.92" cy="612.27" r="6.11"/><path class="cls-4" d="M540.59,633l3-4.08a11.56,11.56,0,0,1,18.69,0l3,4.08a9.51,9.51,0,0,1-7.68,15.11h-9.29A9.51,9.51,0,0,1,540.59,633Z"/><circle class="cls-4" cx="591.16" cy="612.27" r="6.11"/><circle class="cls-5" cx="571.61" cy="606.16" r="6.11"/><path class="cls-5" d="M565.36,621.08a8.84,8.84,0,0,1,12.5,0"/><path class="cls-4" d="M578.83,633l3-4.08a11.56,11.56,0,0,1,18.69,0l3,4.08a9.51,9.51,0,0,1-7.68,15.11h-9.29A9.51,9.51,0,0,1,578.83,633Z"/><circle class="cls-3" cx="515.6" cy="1269.5" r="48.96"/><polyline class="cls-6" points="479.35 1282.47 504.25 1257.58 524.34 1277.67 544.79 1257.58"/><circle class="cls-4" cx="503.68" cy="1259.03" r="4.43"/><circle class="cls-4" cx="524.65" cy="1276.54" r="4.43"/><polyline class="cls-7" points="537.31 1255.87 546.17 1255.87 546.17 1264.73"/><circle class="cls-3" cx="1427.71" cy="1090.04" r="48.96"/><rect class="cls-2" x="1392.43" y="1076.46" width="5.03" height="4.89"/><rect class="cls-2" x="1399.36" y="1076.46" width="5.03" height="4.89"/><rect class="cls-2" x="1406.28" y="1076.46" width="5.03" height="4.89"/><rect class="cls-2" x="1413.21" y="1076.46" width="5.03" height="4.89"/><rect class="cls-2" x="1420.13" y="1076.46" width="5.03" height="4.89"/><rect class="cls-2" x="1392.43" y="1085.23" width="5.03" height="4.89"/><rect class="cls-2" x="1399.36" y="1085.23" width="5.03" height="4.89"/><rect class="cls-2" x="1406.28" y="1085.23" width="5.03" height="4.89"/><rect class="cls-2" x="1413.21" y="1085.23" width="5.03" height="4.89"/><rect class="cls-2" x="1392.43" y="1094" width="5.03" height="4.89"/><rect class="cls-2" x="1399.36" y="1094" width="5.03" height="4.89"/><rect class="cls-2" x="1406.28" y="1094" width="5.03" height="4.89"/><rect class="cls-2" x="1413.21" y="1094" width="5.03" height="4.89"/><rect class="cls-2" x="1392.43" y="1102.77" width="5.03" height="4.89"/><rect class="cls-2" x="1399.36" y="1102.77" width="5.03" height="4.89"/><rect class="cls-2" x="1406.28" y="1102.77" width="5.03" height="4.89"/><rect class="cls-2" x="1413.21" y="1102.77" width="5.03" height="4.89"/><circle class="cls-8" cx="1442.5" cy="1099.68" r="18.32"/><path class="cls-2" d="M1447.85,1102.64a5.22,5.22,0,0,1-3.95,4.93v.46a1.6,1.6,0,0,1-3.2,0v-.46a5.51,5.51,0,0,1-3.38-2.67,1.56,1.56,0,0,1,1.39-2.26,1.6,1.6,0,0,1,1.38.86,2.52,2.52,0,0,0,2.21,1.18,2.07,2.07,0,1,0,0-4.07,4.66,4.66,0,0,1-4.81-4.48,4.51,4.51,0,0,1,3.21-4.23v-.57a1.6,1.6,0,0,1,1.6-1.59,1.63,1.63,0,0,1,1.13.46,1.6,1.6,0,0,1,.47,1.13v.57a4.7,4.7,0,0,1,2.62,2.07,1.44,1.44,0,0,1-1.26,2.16H1445a1.49,1.49,0,0,1-1.22-.69,1.82,1.82,0,0,0-1.49-.69,1.41,1.41,0,1,0,0,2.75A5.37,5.37,0,0,1,1447.85,1102.64Z"/></g><g id="PHONE"><rect class="cls-9" x="666.42" y="350" width="618.9" height="999.42" rx="59.19"/><circle class="cls-10" cx="1140.73" cy="386.56" r="9.5"/><circle class="cls-11" cx="1178.13" cy="386.56" r="9.5"/><circle class="cls-12" cx="1215.52" cy="386.56" r="9.5"/><path class="cls-9" d="M1057,416H902.22a26,26,0,0,1-26.05-26V375.61A25.6,25.6,0,0,0,850.57,350h258.07a25.6,25.6,0,0,0-25.6,25.61V390A26.05,26.05,0,0,1,1057,416Z"/><line class="cls-13" x1="799.45" y1="394.18" x2="748.22" y2="394.18"/><line class="cls-13" x1="799.45" y1="378.94" x2="748.22" y2="378.94"/><line class="cls-14" x1="941.12" y1="383.73" x2="1010.63" y2="383.73"/><line class="cls-14" x1="908.49" y1="1315.45" x2="1041.71" y2="1315.45"/><polyline class="cls-15" points="941.17 744.31 941.17 750.09 935.4 750.09"/><line class="cls-16" x1="923.23" y1="750.09" x2="734.64" y2="750.09"/><polyline class="cls-15" points="728.56 750.09 722.78 750.09 722.78 744.31"/><line class="cls-16" x1="722.78" y1="732.15" x2="722.78" y2="543.56"/><polyline class="cls-15" points="722.78 537.47 722.78 531.7 728.56 531.7"/><line class="cls-16" x1="740.72" y1="531.7" x2="929.31" y2="531.7"/><polyline class="cls-15" points="935.4 531.7 941.17 531.7 941.17 537.47"/><line class="cls-16" x1="941.17" y1="549.64" x2="941.17" y2="738.23"/><line class="cls-13" x1="798.88" y1="640.89" x2="865.08" y2="640.89"/><line class="cls-13" x1="831.98" y1="673.99" x2="831.98" y2="607.79"/><rect class="cls-17" x="748.11" y="1186.5" width="454.83" height="83" rx="22.26"/><circle class="cls-18" cx="975.1" cy="1227.5" r="9.5"/><circle class="cls-18" cx="918.31" cy="1227.5" r="9.5"/><circle class="cls-18" cx="1030.5" cy="1227.5" r="9.5"/><rect class="cls-1" x="992.41" y="940.01" width="220.23" height="188.04" rx="21.27"/><rect class="cls-19" x="982.71" y="928.93" width="220.23" height="188.04" rx="21.27"/><polygon class="cls-1" points="1147.36 1060.2 1096.58 1072.28 1077.07 990.23 1095.85 956.38 1127.85 978.16 1147.36 1060.2"/><polygon class="cls-2" points="1121.12 1081.78 1063.54 1081.78 1063.54 988.75 1092.33 957.22 1121.12 988.75 1121.12 1081.78"/><circle class="cls-20" cx="1080.24" cy="1024.6" r="5.61"/><circle class="cls-20" cx="1104.42" cy="1040.9" r="5.61"/><line class="cls-20" x1="1103.51" y1="1018.01" x2="1081.14" y2="1047.49"/><circle class="cls-20" cx="1092.33" cy="979.59" r="5.61"/><path class="cls-17" d="M1092.33,979.59v-58a9.33,9.33,0,0,0-9.33-9.33h0a9.33,9.33,0,0,0-9.32,9.33"/></g><g id="WOMAN"><polygon class="cls-21" points="1060.97 874.91 1288.31 874.91 1288.31 899.84 1060.97 874.91"/><rect class="cls-2" x="982.71" y="519.01" width="379.04" height="355.9" rx="40.54"/><polygon class="cls-21" points="1219.25 553.23 1361.76 553.23 1361.76 570.25 1219.25 553.23"/><rect class="cls-22" x="1190.5" y="494.62" width="250.82" height="56.48" rx="28.24"/><circle class="cls-23" cx="1236.23" cy="522.86" r="8.03"/><path class="cls-23" d="M1236.23,540.7a17.84,17.84,0,1,1,.19-35.67h0a14.69,14.69,0,0,1,14.69,14.68v7.62a3.43,3.43,0,0,1-3.43,3.43h0a3.43,3.43,0,0,1-3.43-3.43V522"/><line class="cls-24" x1="1402.04" y1="522.86" x2="1403.77" y2="522.86"/><line class="cls-24" x1="1308.17" y1="522.86" x2="1390.49" y2="522.86"/><line class="cls-24" x1="1275.86" y1="522.86" x2="1292.68" y2="522.86"/><path class="cls-25" d="M1182.77,640.46h0a8.81,8.81,0,0,0,8.12-5.37l2-4.59a28.84,28.84,0,0,0-15.38-37.89l-17.08-7.16a26.63,26.63,0,0,0-30.48,7.19h0a26.6,26.6,0,0,0-5.24,25.27h0a7.29,7.29,0,0,1-7,9.46h-1.89a40.43,40.43,0,0,0-40.43,40.43v10.44h-7.82A50.57,50.57,0,0,0,1017,728.82v20h93.61Z"/><path class="cls-1" d="M1250.11,716.27a96.24,96.24,0,0,0-86-53h0A96.19,96.19,0,0,0,1075.54,722l-25.83,61.09a45.43,45.43,0,0,0,41.84,63.13H1232a76.35,76.35,0,0,0,76.35-76.35l2.12-99.49h-55Z"/><line class="cls-26" x1="1106.07" y1="786.13" x2="1122.23" y2="737.11"/><line class="cls-26" x1="1095.88" y1="782.06" x2="1178.74" y2="815.15"/><path class="cls-26" d="M1146.48,772.69c-13,3.86-26.44-2.92-30.08-15.15"/><path class="cls-2" d="M1204.89,675.79a8.29,8.29,0,0,1-5,1.66,8.81,8.81,0,0,1-1.91-.22,8.31,8.31,0,0,1-3.28,6.18,8.22,8.22,0,0,1-5,1.66,9.2,9.2,0,0,1-1.17-.08,8.17,8.17,0,0,1-1.78-.46,8.27,8.27,0,0,1-13.4,4.44,7.87,7.87,0,0,1-1.27,1.63,8.25,8.25,0,0,1-5.79,2.36h-.08a8.21,8.21,0,0,1-5.82-2.47,8.33,8.33,0,0,1-1.14-1.46,8.25,8.25,0,0,1-13.49-4,7.94,7.94,0,0,1-2.38.67,7,7,0,0,1-1,.07,8.27,8.27,0,0,1-8.18-7.26,7.89,7.89,0,0,1,0-2.06h-.09a8.23,8.23,0,0,1-6.17-2.77,1.91,1.91,0,1,1,2.85-2.53,4.46,4.46,0,0,0,4.76,1.26,1.58,1.58,0,0,1,.42-.09,1.9,1.9,0,0,1,2.91,2.44,4.45,4.45,0,0,0,.78,6.26,4.46,4.46,0,0,0,6.25-.78,1.87,1.87,0,0,1,1.6-.72,1.47,1.47,0,0,1,.51,0,1.9,1.9,0,0,1,1.41,2.29,4.46,4.46,0,0,0,8.68,2.07,1.9,1.9,0,0,1,3.74.64v0a.28.28,0,0,1,0,.09,4.44,4.44,0,0,0,1.27,3.16,4.49,4.49,0,0,0,3.15,1.34h0a4.47,4.47,0,0,0,4.46-4.39,0,0,0,0,1,0,0,2.33,2.33,0,0,1,0-.38,1.89,1.89,0,0,1,3.67-.3,4.46,4.46,0,0,0,5.63,2.83,4.38,4.38,0,0,0,2.58-2.23,4.29,4.29,0,0,0,.37-2.94,1.9,1.9,0,0,1,1.91-3,1.88,1.88,0,0,1,1.52,1.14,4.46,4.46,0,0,0,5.9.46,4.45,4.45,0,0,0,1.13-5.86l-.27-.34a1.89,1.89,0,0,1-.36-1.4,1.69,1.69,0,0,1,.17-.58,2,2,0,0,1,.11-.2,1.68,1.68,0,0,1,.47-.53,1.91,1.91,0,0,1,2.67.38c.05.07.1.14.14.21a4.45,4.45,0,0,0,6.09.7,1.91,1.91,0,1,1,2.29,3Z"/><path class="cls-21" d="M1250.11,716.27l-4.34,28.07L1233.63,693A89.88,89.88,0,0,1,1250.11,716.27Z"/><path class="cls-27" d="M1239.23,838.55l2.75-27.12a7.44,7.44,0,0,1,6.46-6.64h0a7.45,7.45,0,0,1,8.32,6.24l4.17,26.72Z"/><path class="cls-27" d="M1242.35,829.08l17.19-21.16a7.48,7.48,0,0,1,9-2h0a7.45,7.45,0,0,1,3.52,9.8l-11.2,24.61Z"/><rect class="cls-28" x="1177.81" y="752.24" width="65" height="77.02"/><polygon class="cls-2" points="1224.06 792.71 1227.7 804.52 1215.9 800.87 1210.13 811.8 1204.36 800.88 1192.56 804.52 1196.2 792.72 1185.27 786.95 1196.2 781.18 1192.56 769.37 1204.36 773.02 1210.13 762.09 1215.9 773.02 1227.7 769.37 1224.06 781.18 1234.98 786.95 1224.06 792.71"/><circle class="cls-29" cx="1203.68" cy="782.38" r="3.14"/><circle class="cls-29" cx="1216.58" cy="791.51" r="3.14"/><line class="cls-30" x1="1216.39" y1="778.7" x2="1203.87" y2="795.19"/><path class="cls-31" d="M1182.77,640.46h0a8.81,8.81,0,0,0,8.12-5.37l2-4.59a28.84,28.84,0,0,0-15.38-37.89l-17.08-7.16a26.63,26.63,0,0,0-30.48,7.19h0a26.6,26.6,0,0,0-5.24,25.27h0a7.29,7.29,0,0,1-7,9.46h-1.89a40.43,40.43,0,0,0-40.43,40.43v10.44h-7.82A50.57,50.57,0,0,0,1017,728.82v20"/><path class="cls-25" d="M1190.15,670.71c0,3.68-9.49,9.21-21.19,9.21s-21.19-5.53-21.19-9.21l1.52-24.14-1.52,0a9.9,9.9,0,0,1-9.71-10.61l.48-6.71a2.65,2.65,0,0,0-2.65-2.84h-1.63a1.11,1.11,0,0,1-1.11-1.12,1.08,1.08,0,0,1,.35-.79,20.53,20.53,0,0,0,6.35-13.42l.23-3.28s10.22,7.07,26,.1a3.36,3.36,0,0,1,4.52,4.15l-1.63,4.84a18.08,18.08,0,0,0,13.85,23.59Z"/><path class="cls-31" d="M1147.77,670.71l1.52-24.14-1.52,0a9.9,9.9,0,0,1-9.71-10.61l.54-7.52-4.34-2a1.11,1.11,0,0,1-1.11-1.12,1.06,1.06,0,0,1,.37-.81c3.56-3.2,6.11-10.35,6.45-15.12l.11-1.56s10.22,7.07,26,.1a3.36,3.36,0,0,1,4.52,4.15l-1.63,4.84a18.08,18.08,0,0,0,13.85,23.59l7.38,29"/><path class="cls-32" d="M1146,618a2.32,2.32,0,0,0,2.08,2.08,2.15,2.15,0,0,0,2.09-2.08"/><path class="cls-33" d="M1138.6,628.42a10.35,10.35,0,0,0,6.72-1.69,1.87,1.87,0,0,1,2.62,2.42c-1.24,2.92-3.9,5.5-9.88,6.79Z"/><circle class="cls-2" cx="1158.83" cy="626.89" r="6.54"/><polygon class="cls-21" points="1148.94 644.54 1163.76 643.76 1148.11 659.31 1148.94 644.54"/><path class="cls-31" d="M1148.39,610.67c-7.14-.53-12.59-5.53-12.17-11.15"/><path class="cls-31" d="M1087,680.78a8.54,8.54,0,0,1-11.5-3.67"/><path class="cls-25" d="M1169.68,824.72h0a34.81,34.81,0,0,1,48.81-3.49l9.73,8.33h22l23.16-14.38a7.46,7.46,0,0,1,9.21,1.07l5.73,5.16-17.42,17.69a23,23,0,0,1-16.68,7.16h-74.77A13,13,0,0,1,1169.68,824.72Z"/><path class="cls-34" d="M1228.22,829.56h9.21c4.34,0,14.78,1.38,14.55,16.7"/><path class="cls-2" d="M1239.23,846.26a5.41,5.41,0,1,1,10.76,0Z"/><path class="cls-2" d="M1278.72,831.15a5.35,5.35,0,0,1,7.54-7.59Z"/><path class="cls-34" d="M1169.68,824.72a34.81,34.81,0,0,1,48.81-3.49l9.73,8.33h22l21.93-14.38c2.95-1.83,8-1.38,10.44,1.07l5.08,5.88"/><path class="cls-25" d="M1255.41,676.5l-3.47-23.16a13.35,13.35,0,0,1,10.1-15l2.35-.56.79-47.32a7.25,7.25,0,0,1,7.24-7.12h0a7.24,7.24,0,0,1,7.23,6.8l2.37,39.13,35.8,3.58-.47,25.07a19.3,19.3,0,0,1-9.07,16l-4.09,2.56a43,43,0,0,1-45.48,1.84Z"/><path class="cls-34" d="M1256.39,678.82l-4.45-25.48a13.35,13.35,0,0,1,10.1-15l2.35-.56.79-47.32a7.25,7.25,0,0,1,7.24-7.12h0a7.24,7.24,0,0,1,7.23,6.8l.84,42.06,37.33.65v23.87a25.12,25.12,0,0,1-9.14,19.38"/><rect class="cls-27" x="1310.42" y="615.5" width="13.46" height="25.41" rx="6.73"/><circle class="cls-35" cx="1317.15" cy="634.81" r="3.65"/><rect class="cls-27" x="1295.64" y="612.86" width="14.78" height="28.05" rx="6.73"/><circle class="cls-35" cx="1303.03" cy="634.81" r="3.96"/><rect class="cls-27" x="1280.85" y="610.22" width="14.78" height="30.7" rx="6.73"/><circle class="cls-35" cx="1288.24" cy="634.81" r="4.2"/><circle class="cls-35" cx="1282.17" cy="640.04" r="3.96"/><path class="cls-34" d="M1264.39,637.82l19-3a4.2,4.2,0,0,1,4.84,4.15h0a10.08,10.08,0,0,1-4.78,8.57l-6.78,4.17s10.92,5.43,10.76,20.88"/><polygon class="cls-1" points="1072.42 597.36 1015.31 597.36 1015.31 550.78 1093.94 550.78 1093.94 617.44 1072.42 597.36"/><circle class="cls-21" cx="1054.3" cy="571.83" r="4.12"/><circle class="cls-21" cx="1071.94" cy="571.83" r="4.12"/><circle class="cls-21" cx="1037.3" cy="571.83" r="4.12"/></g><g id="MAN"><polygon class="cls-21" points="662.63 1116.97 869.3 1116.97 662.63 1144.86 662.63 1116.97"/><rect class="cls-1" x="574.06" y="792.71" width="367.2" height="324.26" rx="29.52"/><path class="cls-25" d="M826,958.91a56.74,56.74,0,0,1,53.89,39.41L918.36,1117H652a45.87,45.87,0,0,1-45.76-42.72l-8-115.34Z"/><path class="cls-36" d="M785.24,916.71a9.67,9.67,0,0,1-7.51,10.83l-5.63,1.22,7.48,29.66H718.46l8.07-36.24a7.81,7.81,0,0,1-1.72.19,8,8,0,0,1-7.83-6.32l-.61-2.79a10.62,10.62,0,0,1,8.12-12.65,10.85,10.85,0,0,1,2.26-.24A10.63,10.63,0,0,1,734,903.2l-1.49-5.51A17.45,17.45,0,0,1,747,875.84l15.38-2a13.56,13.56,0,0,1,14.2,5.77l.22.34,12.76,19.37a1.79,1.79,0,0,1-.87,2.66l-4.32,1.61A2.15,2.15,0,0,0,783,906Z"/><path class="cls-21" d="M772,926.3h0a24.72,24.72,0,0,1-14.5-1.24l-9.22-3.72,29.6,26.56Z"/><circle class="cls-1" cx="750.73" cy="906.76" r="7.57"/><polyline class="cls-37" points="727.35 909.76 730.25 913.25 725.66 914.25"/><path class="cls-37" d="M763.06,893.79a2.61,2.61,0,1,0,5.1-1.11"/><ellipse class="cls-38" cx="775.89" cy="912" rx="6.69" ry="5.18"/><path class="cls-21" d="M780.32,917.09s-.74.67-4.43.67a14,14,0,0,1-6.26-1.42c0-2.86,1-4.78,4.74-4.78A5.62,5.62,0,0,1,780.32,917.09Z"/><path class="cls-2" d="M725.66,897.86l-2.5-17a9.06,9.06,0,0,1,8.73-10.36L783,869.24s-7.74,14.26-24.72,15c-8.65.37-14-1.4-17-3a1.07,1.07,0,0,0-1.5,1.3,17.91,17.91,0,0,1-3.49,18Z"/><polygon class="cls-1" points="654.94 961.36 670.38 961.36 676.65 1042.05 654.94 961.36"/><path class="cls-39" d="M640.8,958.8h89.89l16-12.46,20,12.46H826a56.71,56.71,0,0,1,53.89,39.07l38.47,117.63"/><path class="cls-39" d="M681.72,1070.23,650.23,953.87l-51.88-1.25L607,1074.67c2.29,22.8,13.55,44.87,59,44.87"/><line class="cls-39" x1="844.53" y1="1035.76" x2="832.06" y2="1118.35"/><path class="cls-19" d="M583.55,935.82,589,908.27a7.69,7.69,0,0,0-4.38-8.49h0a7.68,7.68,0,0,0-10.07,3.67l-12.11,25.08Z"/><path class="cls-19" d="M583.32,925.55l-10.61-26a7.65,7.65,0,0,0-8.32-4.68h0a7.67,7.67,0,0,0-6.4,8.59l3.66,27.62Z"/><path class="cls-19" d="M646.55,943h0A35.86,35.86,0,0,0,599.49,925l-12.09,5.3-12-6.59-18.52-21.1a7.7,7.7,0,0,0-9.4-1.71h0a7.59,7.59,0,0,0-3.5,10.4l8.18,15.63a23.7,23.7,0,0,0,14.29,12l31.87,13.7.69,9.92c10.69,7.94,42.54,4.87,52.29-4.94C651.33,957.6,648.22,946.72,646.55,943Z"/><polygon class="cls-2" points="707.05 962.14 734.03 962.14 747.88 946.1 761.73 962.14 786.35 962.14 782.2 942.14 716.75 942.14 707.05 962.14"/><polygon class="cls-25" points="747.88 946.1 761.73 962.14 734.03 962.14 747.88 946.1"/><polygon class="cls-21" points="683.32 867.09 574.06 867.09 574.06 884.12 683.32 867.09"/><rect class="cls-22" x="483.1" y="808.49" width="223.12" height="56.48" rx="28.24"/><circle class="cls-23" cx="528.82" cy="836.73" r="8.03"/><path class="cls-23" d="M528.82,854.56a17.84,17.84,0,1,1,.19-35.67h0a14.69,14.69,0,0,1,14.69,14.69v7.62a3.43,3.43,0,0,1-3.43,3.42h0a3.43,3.43,0,0,1-3.43-3.42v-5.34"/><line class="cls-24" x1="666.93" y1="836.73" x2="668.66" y2="836.73"/><line class="cls-24" x1="573.06" y1="836.73" x2="651.23" y2="836.73"/><polygon class="cls-21" points="832.01 879.04 893.25 879.04 893.25 829.09 808.93 829.09 808.93 900.57 832.01 879.04"/><circle class="cls-25" cx="851.42" cy="852.55" r="4.12"/><circle class="cls-25" cx="833.78" cy="852.55" r="4.12"/><circle class="cls-25" cx="868.41" cy="852.55" r="4.12"/></g></g></svg>