<svg xmlns="http://www.w3.org/2000/svg" viewBox="0 0 2000 1700"><defs><style>.cls-1,.cls-10{fill:#91e6f0;}.cls-2{fill:#004d89;}.cls-11,.cls-14,.cls-15,.cls-3,.cls-5,.cls-8,.cls-9{fill:none;}.cls-3,.cls-5,.cls-6{stroke:#ffb400;}.cls-10,.cls-11,.cls-12,.cls-14,.cls-15,.cls-3,.cls-5,.cls-6,.cls-9{stroke-linejoin:round;}.cls-10,.cls-11,.cls-12,.cls-13,.cls-14,.cls-15,.cls-3,.cls-5,.cls-6,.cls-8,.cls-9{stroke-width:7px;}.cls-12,.cls-13,.cls-4,.cls-6{fill:#fff;}.cls-11,.cls-14,.cls-15,.cls-5,.cls-6,.cls-8{stroke-linecap:round;}.cls-7{fill:#ffb400;}.cls-8{stroke:#91e6f0;}.cls-13,.cls-8{stroke-miterlimit:10;}.cls-15,.cls-9{stroke:#fff;}.cls-10,.cls-12,.cls-13,.cls-14{stroke:#004d89;}.cls-11{stroke:#004b82;}</style></defs><g id="Слой_1" data-name="Слой 1"><g id="PRESENT"><path class="cls-1" d="M1180.6,362.07h404.18a18.88,18.88,0,0,1,18.88,18.88v48a0,0,0,0,1,0,0H1161.72a0,0,0,0,1,0,0v-48A18.88,18.88,0,0,1,1180.6,362.07Z"/><path class="cls-1" d="M1182.59,429H1582.8a0,0,0,0,1,0,0V739.32a23.12,23.12,0,0,1-23.12,23.12h-354a23.12,23.12,0,0,1-23.12-23.12V429A0,0,0,0,1,1182.59,429Z"/><polygon class="cls-2" points="1201.24 428.99 1582.8 428.99 1582.8 453.02 1201.24 428.99"/><line class="cls-3" x1="1603.67" y1="428.99" x2="1161.72" y2="428.99"/><rect class="cls-4" x="1361.46" y="358.78" width="46.36" height="403.66"/><polyline class="cls-5" points="1407.82 516.72 1407.82 762.44 1361.46 762.44 1361.46 358.78 1407.82 358.78 1407.82 470.69"/><line class="cls-5" x1="1407.82" y1="489.98" x2="1407.82" y2="498.31"/><path class="cls-5" d="M1387,358.78l42.81-50.18c16-18.74,46.46-11.7,52.61,12.16h0a30.42,30.42,0,0,1-29.46,38Z"/><path class="cls-5" d="M1442.21,299.83a30,30,0,0,1,18.87,20.93h0a30.43,30.43,0,0,1-29.47,38"/><path class="cls-5" d="M1362.37,358.78l42.81-50.18a30,30,0,0,1,23.49-10.69h26.68"/><path class="cls-5" d="M1368.46,358.78l-42.81-50.18c-16-18.74-46.46-11.7-52.61,12.16h0a30.42,30.42,0,0,0,29.46,38Z"/><path class="cls-5" d="M1313.25,299.83a30,30,0,0,0-18.87,20.93h0a30.43,30.43,0,0,0,29.47,38"/><path class="cls-6" d="M1300.11,297.91h26.68a30,30,0,0,1,23.49,10.69l42.81,50.18h-24.63l-45.41-52.24a25.06,25.06,0,0,0-18.92-8.63Z"/><polygon class="cls-7" points="1398.49 362.07 1357.88 442.38 1357.88 383.23 1375.51 362.07 1398.49 362.07"/><polygon class="cls-6" points="1303.39 459.22 1387 358.78 1362.37 358.78 1303.92 428.99 1303.39 459.22"/><line class="cls-8" x1="1382.69" y1="272.96" x2="1382.69" y2="239.99"/><line class="cls-8" x1="1472.6" y1="275.84" x2="1490.72" y2="253.3"/><line class="cls-8" x1="1281.39" y1="252.28" x2="1303.13" y2="274.87"/><line class="cls-8" x1="1382.69" y1="291.88" x2="1382.69" y2="299.95"/><polygon class="cls-2" points="1550.92 656.36 1578.89 647.72 1582.8 655.14 1582.8 663.7 1550.92 656.36"/><polygon class="cls-7" points="1625.56 628.38 1634.19 656.36 1606.22 647.72 1592.55 673.61 1578.89 647.72 1550.92 656.36 1559.55 628.39 1533.67 614.72 1559.55 601.05 1550.92 573.08 1578.89 581.72 1592.55 555.83 1606.23 581.72 1634.19 573.08 1625.56 601.05 1651.45 614.72 1625.56 628.38"/><path class="cls-4" d="M1273.52,512.74a3.49,3.49,0,0,1,0,5,3.48,3.48,0,0,1-4.94,0l-4.87-4.86-4.86,4.86a3.49,3.49,0,0,1-4.95,0,3.51,3.51,0,0,1,0-5l4.86-4.86L1253.9,503a3.5,3.5,0,1,1,4.95-4.95l4.86,4.86,4.87-4.86a3.5,3.5,0,1,1,4.94,4.95l-4.86,4.86Z"/><path class="cls-4" d="M1510,678.47a3.5,3.5,0,0,1-5,4.95l-4.86-4.86-4.87,4.86a3.5,3.5,0,0,1-5-4.95l4.87-4.86-4.87-4.87a3.5,3.5,0,0,1,5-5l4.87,4.87,4.86-4.87a3.5,3.5,0,0,1,5,5l-4.86,4.87Z"/></g><g id="ICONS"><rect class="cls-2" x="704.39" y="379.67" width="375.82" height="104.94"/><path class="cls-4" d="M816.17,454.84a22.7,22.7,0,1,1,22.69-22.7A22.72,22.72,0,0,1,816.17,454.84Zm0-39.6a16.9,16.9,0,1,0,16.9,16.9A16.92,16.92,0,0,0,816.17,415.24Z"/><path class="cls-4" d="M934.39,454.84a22.7,22.7,0,1,1,22.7-22.7A22.72,22.72,0,0,1,934.39,454.84Zm0-39.6a16.9,16.9,0,1,0,16.9,16.9A16.92,16.92,0,0,0,934.39,415.24Z"/><path class="cls-4" d="M873.28,454.84H853a2.9,2.9,0,0,1-2.9-2.9V409.06h5.8v40h17.34Z"/><path class="cls-4" d="M907.77,454.84H887.52a2.89,2.89,0,0,1-2.89-2.9V409.06h5.79v40h17.35Z"/><path class="cls-4" d="M1022.49,409.06l-12.88,43.7a2.91,2.91,0,0,1-2.41,2.05,2.43,2.43,0,0,1-.38,0,2.89,2.89,0,0,1-2.47-1.39l-9.56-15.66-9.56,15.66a2.92,2.92,0,0,1-2.85,1.36,2.88,2.88,0,0,1-2.4-2.05l-12.89-43.7h6l10.57,35.8,8.63-14.13a2.89,2.89,0,0,1,4.94,0l8.64,14.13,10.56-35.8Z"/><path class="cls-4" d="M767.53,415.24v12.59h11.4v5.79h-11.4v21.6h-5.79V412.35a2.89,2.89,0,0,1,2.89-2.9h20.25v5.79Z"/><circle class="cls-7" cx="555.11" cy="422.32" r="85.56"/><circle class="cls-4" cx="555.11" cy="394.64" r="13.06"/><path class="cls-4" d="M529.24,431.91l3.15-4.32a28.12,28.12,0,0,1,45.45,0l3.15,4.32a19.77,19.77,0,0,1-16,31.41H545.21A19.76,19.76,0,0,1,529.24,431.91Z"/><polygon class="cls-2" points="837.43 1336.95 711.68 1336.95 695.26 1359.93 678.84 1336.95 576.68 1336.95 576.68 1238.65 837.43 1238.65 837.43 1336.95"/><polygon class="cls-7" points="823.74 1324.66 701.92 1324.66 685.5 1347.65 669.08 1324.66 547.26 1324.66 547.26 1226.37 823.74 1226.37 823.74 1324.66"/><circle class="cls-9" cx="726.91" cy="1259.13" r="8.55"/><path class="cls-9" d="M701.12,1298.88l10.93-15a18.39,18.39,0,0,1,29.71,0l10.93,15"/><polyline class="cls-9" points="779.07 1297.05 779.07 1252.4 766.54 1265.47"/><polyline class="cls-9" points="661.82 1297.05 661.82 1252.4 649.29 1265.47"/><path class="cls-9" d="M633,1265.85a15.24,15.24,0,0,1-5.24,11.52l-23.43,23.44-23.44-23.44a15.28,15.28,0,1,1,23.44-18.85,15.27,15.27,0,0,1,28.67,7.33Z"/><polygon class="cls-1" points="540.78 983.06 505.38 948.3 379.64 948.3 379.64 825.55 540.78 825.55 540.78 983.06"/><path class="cls-4" d="M483.08,871h-6.6l2.49-6.47a3.5,3.5,0,1,0-6.53-2.51L469,871h-16.1l2.49-6.47a3.5,3.5,0,1,0-6.53-2.51l-3.45,9h-10a3.5,3.5,0,1,0,0,7h7.33l-4.86,12.66h-8.37a3.5,3.5,0,0,0,0,7h5.68l-3.05,7.94a3.51,3.51,0,0,0,2,4.53,3.5,3.5,0,0,0,4.52-2l4-10.45h16.1l-3.05,7.94a3.51,3.51,0,0,0,2,4.53,3.45,3.45,0,0,0,1.25.23,3.49,3.49,0,0,0,3.27-2.25l4-10.45h10.94a3.5,3.5,0,0,0,0-7h-8.25L473.8,878h9.28a3.5,3.5,0,0,0,0-7Zm-37.74,19.66L450.21,878H466.3l-4.86,12.66Z"/><line class="cls-5" x1="565.26" y1="1388.29" x2="545.97" y2="1437.51"/><line class="cls-5" x1="592.44" y1="1388.29" x2="573.15" y2="1437.51"/><line class="cls-5" x1="545.97" y1="1400.22" x2="600.93" y2="1400.22"/><line class="cls-5" x1="539.18" y1="1422.87" x2="594.14" y2="1422.87"/><line class="cls-8" x1="629.72" y1="1398.81" x2="817.51" y2="1398.81"/><line class="cls-8" x1="840.19" y1="1398.81" x2="857.11" y2="1398.81"/><line class="cls-8" x1="901.97" y1="1399.72" x2="1296.57" y2="1399.72"/><line class="cls-8" x1="630.07" y1="1427.34" x2="1086.52" y2="1427.34"/></g><g id="WOMAN"><path class="cls-10" d="M1116.88,702.08l0-2.16a70.33,70.33,0,0,0-70.18-69.3h0a70.35,70.35,0,0,0-55.34,26.75L785.07,918.6,775,1033.42l135.44-24,150.36-321a29,29,0,0,1,26.32-16.29h0A29,29,0,0,1,1115,694.36Z"/><circle class="cls-7" cx="1111.97" cy="728.79" r="18.84"/><path class="cls-10" d="M974.65,800.48s2.62-43.05,44.9-55.35,87.76,5,98.76,29.32c16.25,36-6,73.7-6,73.7L968.62,834.74Z"/><line class="cls-11" x1="881.85" y1="851.88" x2="780.18" y2="985.32"/><path class="cls-11" d="M1051.53,754.56a41.94,41.94,0,0,1-2.06,21.86"/><path class="cls-12" d="M1244.14,1123.73l-528,74.29c-71,10-129.14-55.93-110.26-125.14L697.76,736l-4.64-2c-17-7.29-26.86-26.68-23.5-46.23l11.71-68.17L772,638.46l34.85-97.89c2.43-7.47,8.89-12.2,15.84-12.2a15.55,15.55,0,0,1,4.63.71c8.81,2.75,14,12.67,11.6,22.31L813,673c14,8.59,17.43,28.75,10.76,44.67l-26.19,58.73-22.58,257,228.5-40.54-3.59-97.13c-22.55-.71-38.65-17.49-35.88-40.48l10.64-54.79c34.56,5.87,54-2.59,64.29-11.05,7.94-6.51,10.53-13,10.53-13,14.34,0,20.41,11.2,20.64,27.85l-.3,12.45a17.77,17.77,0,0,0,15.19,18h0a23.19,23.19,0,0,1,22.28-16.48h.5a22.59,22.59,0,0,1,22.59,22.64v5.78a23.2,23.2,0,0,1-23.2,23.16h-6.55l17.46,52.68c8.53,25.56,31,34.43,55.87,31.89l49.52-5.21Z"/><circle class="cls-1" cx="1046.93" cy="845.02" r="17.67"/><path class="cls-13" d="M676.44,647h0c9.1,2.83,18.59-2.9,21.2-12.8L706,602.39c2.6-9.9-2.66-20.23-11.76-23.07h0c-9.1-2.84-18.6,2.89-21.2,12.8L664.68,624C662.07,633.86,667.34,644.19,676.44,647Z"/><circle class="cls-1" cx="680.21" cy="634.43" r="9.8"/><path class="cls-13" d="M709.4,657.3l3.23,1c9.11,2.84,18.6-2.89,21.2-12.8l10.23-38.88c2.61-9.9-2.65-20.23-11.76-23.07l-3.23-1c-9.1-2.84-18.59,2.89-21.2,12.8l-10.23,38.88C695,644.13,700.3,654.46,709.4,657.3Z"/><circle class="cls-1" cx="715.41" cy="643.66" r="11.14"/><path class="cls-13" d="M745.59,668.58l3.24,1c9.1,2.84,18.59-2.89,21.2-12.8l12.08-45.92c2.61-9.91-2.66-20.24-11.76-23.07l-3.23-1c-9.11-2.84-18.6,2.89-21.2,12.8l-12.09,45.92C731.23,655.42,736.49,665.75,745.59,668.58Z"/><circle class="cls-1" cx="750.76" cy="654.8" r="11.14"/><path class="cls-13" d="M813,673,765.4,651c-5.42-2.73-11.79.45-13.44,6.69h0a27,27,0,0,0,5.21,24.12l12.45,14.84s-28.32,2.55-37.82,40.15"/><path class="cls-1" d="M782,662.45A11.14,11.14,0,1,1,761.86,653Z"/><path class="cls-2" d="M999.91,892.36s1.78.85,30.88-9.6a4.11,4.11,0,0,1,4.6,6.44L1001,932Z"/><polygon class="cls-2" points="1233.39 1056.63 1198.6 953.04 1223.47 949.21 1233.39 1056.63"/><polygon class="cls-2" points="1004.1 996.16 1002.53 972.9 1141.16 948.27 1004.1 996.16"/><circle class="cls-7" cx="1091.92" cy="859.15" r="5.89"/><line class="cls-5" x1="1146.25" y1="945.92" x2="994.76" y2="977.14"/><line class="cls-5" x1="1046.43" y1="980.29" x2="1046.43" y2="967.68"/><circle class="cls-5" cx="1046.5" cy="992.23" r="10.51"/><polyline class="cls-11" points="1108.14 835.74 1099.64 846.35 1110.62 846.5"/><path class="cls-11" d="M1015.52,817.3a6.94,6.94,0,0,1,9.32-3.08,6.86,6.86,0,0,1,3.5,7.23"/><polyline class="cls-11" points="1002.53 798.97 984.66 829.43 994.59 834.62"/><line class="cls-14" x1="1100.62" y1="869.85" x2="1088.43" y2="869.85"/><line class="cls-11" x1="750.76" y1="1037.27" x2="774.98" y2="1033.42"/><line class="cls-11" x1="1068.53" y1="1145.45" x2="1071.81" y2="1126.25"/><path class="cls-14" d="M986.79,850s9.94,7.36,22.71-5l4.47,5"/><path class="cls-7" d="M1263.71,1289H968.62l-1.42-.53a71.51,71.51,0,0,1-46.26-72.24l3.51-47.55.19,0a3.5,3.5,0,0,1-.4-1.8l8.84-167.42a3.5,3.5,0,1,1,7,.37L931.46,1163l305.64-41.91a3.5,3.5,0,0,1,3.94,3,3.41,3.41,0,0,1-.57,2.43Z"/><path class="cls-13" d="M1384.35,811.06l30.54-7.18a57.48,57.48,0,0,0,31.82-20.21l6.56-8.28a16,16,0,0,0-3-22.77h0a16,16,0,0,0-22,2.94Z"/><path class="cls-13" d="M1263.71,1289l-57-458.14a61.21,61.21,0,0,1,60.78-68.4h122.27l14.36-11.71a16.28,16.28,0,0,1,22.18,1.48h0a16.28,16.28,0,0,1,.89,21.23l-29.74,34.34-68.64,17.76a14.83,14.83,0,0,0-10.36,19l88.41,261.47-.39,124.66c.39,31.11-27,58.27-60.71,58.27Z"/><path class="cls-1" d="M1414.49,782.77a11.14,11.14,0,0,1,8.48-19.49,4.08,4.08,0,0,1,2.59,6.74Z"/><path class="cls-1" d="M1441.2,784.35a11.15,11.15,0,0,1,7.61-19.85,4.08,4.08,0,0,1,2.89,6.62Z"/><path class="cls-15" d="M1065.44,1216.21a71.5,71.5,0,0,0,46.26,72.24"/></g><g id="FRAME"><line class="cls-5" x1="863.7" y1="548.23" x2="1151.06" y2="548.23"/><path class="cls-5" d="M469.55,972.57V1228.8A60.17,60.17,0,0,0,529.72,1289"/><path class="cls-5" d="M773,548.23H529.72a60.17,60.17,0,0,0-60.17,60.17V800.5"/><path class="cls-5" d="M1406.89,848V1228.8a60.17,60.17,0,0,1-60.17,60.18H860.65"/></g></g></svg>