<svg xmlns="http://www.w3.org/2000/svg" viewBox="0 0 2000 1700"><defs><style>.cls-1{fill:#91e6f0;}.cls-13,.cls-16,.cls-2,.cls-22{fill:#fff;}.cls-10,.cls-11,.cls-12,.cls-14,.cls-17,.cls-18,.cls-19,.cls-20,.cls-21,.cls-23,.cls-3,.cls-5,.cls-6,.cls-8,.cls-9{fill:none;}.cls-11,.cls-13,.cls-15,.cls-16,.cls-17,.cls-22,.cls-23,.cls-3,.cls-9{stroke:#004c85;}.cls-11,.cls-12,.cls-13,.cls-14,.cls-15,.cls-16,.cls-17,.cls-18,.cls-19,.cls-20,.cls-21,.cls-3,.cls-5,.cls-6,.cls-8{stroke-miterlimit:10;}.cls-10,.cls-13,.cls-15,.cls-19,.cls-22,.cls-3,.cls-5,.cls-8{stroke-width:7px;}.cls-4{fill:#004c85;}.cls-12,.cls-5{stroke:#ffb400;}.cls-10,.cls-12,.cls-21,.cls-23,.cls-5,.cls-8,.cls-9{stroke-linecap:round;}.cls-10,.cls-6,.cls-8{stroke:#91e6f0;}.cls-6{stroke-width:5px;}.cls-15,.cls-7{fill:#ffb400;}.cls-10,.cls-22,.cls-23,.cls-9{stroke-linejoin:round;}.cls-11,.cls-9{stroke-width:5.71px;}.cls-12{stroke-width:4.57px;}.cls-14{stroke:#004b82;}.cls-14,.cls-18,.cls-21{stroke-width:6.44px;}.cls-16,.cls-17{stroke-width:6.29px;}.cls-18,.cls-19{stroke:#004c86;}.cls-20,.cls-21{stroke:#fff;}.cls-20{stroke-width:5.14px;}.cls-23{stroke-width:6px;}.cls-24{fill:#004c86;}</style></defs><g id="Слой_1" data-name="Слой 1"><g id="CUP"><path class="cls-1" d="M436.08,1233.1v112.5H322.46V1233.1c0-18.47,25.44-33.44,56.81-33.44S436.08,1214.63,436.08,1233.1Z"/><path class="cls-2" d="M436.08,1233.1c0,18.47-25.44,33.44-56.81,33.44s-56.81-15-56.81-33.44,25.44-33.44,56.81-33.44S436.08,1214.63,436.08,1233.1Z"/><path class="cls-3" d="M436.08,1233.1c0,18.47-25.44,33.44-56.81,33.44s-56.81-15-56.81-33.44,25.44-33.44,56.81-33.44S436.08,1214.63,436.08,1233.1Z"/><path class="cls-4" d="M436.08,1233.1c0,18.47-25.44,33.44-56.81,33.44s-56.81-15-56.81-33.44Z"/><path class="cls-3" d="M322.46,1237.37H304.92a23.32,23.32,0,0,0-23.33,23.33h0A23.33,23.33,0,0,0,304.92,1284h17.54"/><path class="cls-5" d="M358.12,1106.5a12,12,0,0,0,.48,17.36l6.94,6.22a12,12,0,0,1,.49,17.36l-8.39,8.39a11.94,11.94,0,0,0,0,16.9l8.87,8.87a12,12,0,0,1,0,16.91l-8.39,8.39a12,12,0,0,0,.48,17.36l6.94,6.21a12,12,0,0,1,.49,17.37"/><path class="cls-5" d="M395.61,1247.84a12,12,0,0,0-.48-17.37l-6.94-6.21a11.94,11.94,0,0,1-.48-17.36l8.38-8.39a12,12,0,0,0,0-16.91l-8.86-8.87a11.94,11.94,0,0,1,0-16.9l8.38-8.39c.18-.18.37-.39.56-.62a12.77,12.77,0,0,0-2-18.22"/><path class="cls-3" d="M322.46,1233.1c0,18.47,25.44,33.44,56.81,33.44s56.81-15,56.81-33.44v112.5"/><circle class="cls-6" cx="428.18" cy="1128.6" r="5.82"/><circle class="cls-6" cx="340.2" cy="1182.99" r="5.82"/><rect class="cls-2" x="414.71" y="1312.63" width="6.44" height="6.69"/><rect class="cls-2" x="414.71" y="1272.57" width="6.44" height="31.19"/></g><g id="LAPTOP"><path class="cls-5" d="M1300.29,1345.9h314.79l160.38-289.31H1465.17a7.64,7.64,0,0,0-6.68,3.94Z"/><line class="cls-5" x1="1452.58" y1="1101.36" x2="1329.07" y2="1324.15"/><path class="cls-5" d="M1461.58,1085.12l11.51-20.76a15.08,15.08,0,0,1,13.2-7.77h15.55"/><circle class="cls-1" cx="1557.88" cy="1192.66" r="26.61"/><line class="cls-5" x1="1582.98" y1="1167.22" x2="1532.72" y2="1218.76"/><line class="cls-5" x1="1300.29" y1="1345.9" x2="1165.94" y2="1345.9"/><path class="cls-1" d="M1218.1,1337.29h-18a4,4,0,1,1,0-8h18a4,4,0,1,1,0,8Z"/><path class="cls-1" d="M1252.26,1337.29h-18a4,4,0,0,1,0-8h18a4,4,0,1,1,0,8Z"/><path class="cls-1" d="M1286.43,1337.29h-18a4,4,0,1,1,0-8h18a4,4,0,0,1,0,8Z"/></g><g id="ICONS"><path class="cls-7" d="M1300.32,659.07a3.14,3.14,0,0,1-4.45,4.44l-5.42-5.42-5.42,5.42a3.14,3.14,0,1,1-4.45-4.44l5.42-5.42-5.42-5.43a3.14,3.14,0,1,1,4.45-4.44l5.42,5.42,5.42-5.42a3.14,3.14,0,0,1,4.45,4.44l-5.42,5.43Z"/><polygon class="cls-4" points="1140.87 609.07 1232.69 609.07 1232.69 536.83 1107.49 536.83 1107.49 640.22 1140.87 609.07"/><path class="cls-2" d="M1133.81,574.53a9.42,9.42,0,1,1,9.42-9.42A9.43,9.43,0,0,1,1133.81,574.53Zm0-13.12a3.71,3.71,0,1,0,3.7,3.7A3.7,3.7,0,0,0,1133.81,561.41Z"/><path class="cls-2" d="M1155.48,593.61a9.42,9.42,0,1,1,9.42-9.42A9.44,9.44,0,0,1,1155.48,593.61Zm0-13.12a3.7,3.7,0,1,0,3.71,3.7A3.7,3.7,0,0,0,1155.48,580.49Z"/><path class="cls-2" d="M1131.55,594.76a2.85,2.85,0,0,1-2.27-4.58l26.18-34.51a2.86,2.86,0,1,1,4.55,3.45l-26.18,34.51A2.85,2.85,0,0,1,1131.55,594.76Z"/><path class="cls-7" d="M1186.75,574.53a9.42,9.42,0,1,1,9.42-9.42A9.43,9.43,0,0,1,1186.75,574.53Zm0-13.12a3.71,3.71,0,1,0,3.71,3.7A3.7,3.7,0,0,0,1186.75,561.41Z"/><path class="cls-7" d="M1208.42,593.61a9.42,9.42,0,1,1,9.42-9.42A9.43,9.43,0,0,1,1208.42,593.61Zm0-13.12a3.7,3.7,0,1,0,3.71,3.7A3.7,3.7,0,0,0,1208.42,580.49Z"/><path class="cls-7" d="M1184.5,594.76a2.85,2.85,0,0,1-2.28-4.58l26.18-34.51a2.86,2.86,0,0,1,4.56,3.45l-26.19,34.51A2.84,2.84,0,0,1,1184.5,594.76Z"/><path class="cls-8" d="M1491.79,362.69a28.57,28.57,0,0,1,28.57,28.57v47.12A28.57,28.57,0,0,1,1491.79,467H1300.68a28.57,28.57,0,0,1-28.57-28.57V391.26a28.57,28.57,0,0,1,28.57-28.57h136.41"/><path class="cls-8" d="M1479.55,396.84a11.94,11.94,0,0,0-17.36.48l-6.22,6.94a12,12,0,0,1-17.36.48l-8.39-8.38a12,12,0,0,0-16.91,0l-8.86,8.86a12,12,0,0,1-16.91,0l-8.39-8.38a11.94,11.94,0,0,0-17.36.48l-6.22,6.94a12,12,0,0,1-17.36.48l-8.39-8.38a11.94,11.94,0,0,0-16.9,0"/><path class="cls-8" d="M1479.55,420.34a12,12,0,0,0-17.36.48l-6.22,6.94a11.94,11.94,0,0,1-17.36.48l-8.39-8.38a12,12,0,0,0-16.91,0l-8.86,8.87a12,12,0,0,1-16.91,0l-8.39-8.39a12,12,0,0,0-17.36.48l-6.22,6.94a11.94,11.94,0,0,1-17.36.48l-8.39-8.38a11.94,11.94,0,0,0-16.9,0"/><path class="cls-4" d="M1476.52,368.12a3.13,3.13,0,0,1,0,4.44,3.09,3.09,0,0,1-2.22.92,3.12,3.12,0,0,1-2.22-.92l-5.42-5.42-5.43,5.42a3.14,3.14,0,0,1-4.44,0,3.13,3.13,0,0,1,0-4.44l5.42-5.43-5.42-5.42a3.14,3.14,0,1,1,4.44-4.45l5.43,5.43,5.42-5.43a3.14,3.14,0,1,1,4.44,4.45l-5.42,5.42Z"/><path class="cls-7" d="M605.94,751.5A3.14,3.14,0,1,1,601.5,756l-5.43-5.43L590.65,756a3.16,3.16,0,0,1-2.22.92,3.15,3.15,0,0,1-2.22-5.37l5.42-5.42-5.42-5.42a3.14,3.14,0,0,1,4.44-4.45l5.42,5.42,5.43-5.42a3.14,3.14,0,1,1,4.44,4.45l-5.42,5.42Z"/><polygon class="cls-7" points="1414.5 1020.14 1414.5 911.81 1543.1 911.81 1543.1 992.87 1442.75 992.87 1414.5 1020.14"/><path class="cls-1" d="M1471.11,957.55a10.8,10.8,0,0,1-8.17,10.2v1a3.32,3.32,0,0,1-6.63,0v-1a11.37,11.37,0,0,1-7-5.53,3.21,3.21,0,0,1,2.87-4.67,3.3,3.3,0,0,1,2.87,1.76,5.17,5.17,0,0,0,4.57,2.45c2.79,0,5-1.89,5-4.21s-2.25-4.22-5-4.22c-5.49,0-10-4.16-10-9.28a9.34,9.34,0,0,1,6.65-8.75v-1.18a3.32,3.32,0,0,1,5.66-2.34,3.35,3.35,0,0,1,1,2.34v1.16a9.79,9.79,0,0,1,5.42,4.3,3,3,0,0,1-2.6,4.47h-.53a3.13,3.13,0,0,1-2.53-1.42,3.75,3.75,0,0,0-3.08-1.44c-1.94,0-3.53,1.27-3.53,2.86s1.59,2.85,3.53,2.85C1466,946.9,1471.11,951.68,1471.11,957.55Z"/><path class="cls-2" d="M1507.51,957.55a10.81,10.81,0,0,1-8.18,10.2v1a3.32,3.32,0,0,1-6.63,0v-1a11.42,11.42,0,0,1-7-5.53,3.22,3.22,0,0,1,2.88-4.67,3.3,3.3,0,0,1,2.86,1.76,5.17,5.17,0,0,0,4.58,2.45c2.78,0,5-1.89,5-4.21s-2.26-4.22-5-4.22c-5.49,0-10-4.16-10-9.28a9.35,9.35,0,0,1,6.65-8.75v-1.18a3.32,3.32,0,0,1,6.63,0v1.16a9.77,9.77,0,0,1,5.43,4.3,3,3,0,0,1-2.61,4.47h-.52a3.1,3.1,0,0,1-2.53-1.42,3.77,3.77,0,0,0-3.08-1.44c-2,0-3.53,1.27-3.53,2.86s1.58,2.85,3.53,2.85C1502.35,946.9,1507.51,951.68,1507.51,957.55Z"/><rect class="cls-7" x="428.42" y="513.28" width="118.84" height="88.79"/><path class="cls-2" d="M472.54,557.06a11.85,11.85,0,1,1,11.84-11.85A11.86,11.86,0,0,1,472.54,557.06Zm0-16.7a4.85,4.85,0,1,0,4.84,4.85A4.85,4.85,0,0,0,472.54,540.36Z"/><path class="cls-2" d="M503.15,583.67A11.85,11.85,0,1,1,515,571.82,11.87,11.87,0,0,1,503.15,583.67Zm0-16.7a4.85,4.85,0,1,0,4.85,4.85A4.86,4.86,0,0,0,503.15,567Z"/><path class="cls-2" d="M471.18,584.27a3.46,3.46,0,0,1-2.11-.71,3.51,3.51,0,0,1-.67-4.91l33.31-43.9a3.5,3.5,0,0,1,5.57,4.23L474,582.89A3.51,3.51,0,0,1,471.18,584.27Z"/><rect class="cls-7" x="568.27" y="574.4" width="64.28" height="7"/><rect class="cls-7" x="568.27" y="590.01" width="64.28" height="7"/><rect class="cls-1" x="428.42" y="617.79" width="204.14" height="29.25" rx="14.63"/><circle class="cls-2" cx="494.39" cy="632.41" r="6.4"/><circle class="cls-2" cx="530.99" cy="632.41" r="6.4"/><circle class="cls-2" cx="567.58" cy="632.41" r="6.4"/><rect class="cls-9" x="571.32" y="516.32" width="58.2" height="42.94"/><circle class="cls-7" cx="600.42" cy="547.37" r="4.56"/><rect class="cls-7" x="597.27" y="523.06" width="6.29" height="15.7"/><path class="cls-10" d="M640.16,362.69A22.28,22.28,0,0,1,662.43,385v210.3L708.69,634H667.47"/><path class="cls-10" d="M595.91,362.69H425.6A22.28,22.28,0,0,0,403.32,385V652.64a22.27,22.27,0,0,0,22.28,22.28H640.16a22.27,22.27,0,0,0,22.27-22.28"/><path class="cls-7" d="M628.53,368.11a3.14,3.14,0,0,1,0,4.45,3.14,3.14,0,0,1-4.44,0l-5.42-5.42-5.43,5.42a3.14,3.14,0,0,1-4.44,0,3.14,3.14,0,0,1,0-4.45l5.42-5.42-5.42-5.42a3.14,3.14,0,1,1,4.44-4.44l5.43,5.42,5.42-5.42a3.14,3.14,0,0,1,4.44,4.44l-5.42,5.42Z"/><path class="cls-10" d="M432.46,411.82a16.73,16.73,0,0,1,16.73-16.74H573"/><path class="cls-10" d="M599.09,395.08h13.69a16.74,16.74,0,0,1,16.74,16.74v67.47A16.74,16.74,0,0,1,612.78,496H449.19a16.73,16.73,0,0,1-16.73-16.73V443.35"/><circle class="cls-7" cx="476.32" cy="424.42" r="14.3"/><path class="cls-4" d="M478.4,427.9a3.23,3.23,0,0,1-3.23,3.22H456.4l-9.87,11.46a3.19,3.19,0,0,1-2.44,1.12,3.14,3.14,0,0,1-2.09-.78,3.23,3.23,0,0,1-.35-4.54l6.26-7.26H439a11,11,0,0,1-9.19-4.9,3.22,3.22,0,1,1,5.34-3.59,4.66,4.66,0,0,0,3.85,2.06h8.09l-5.23-5.16a3.22,3.22,0,1,1,4.52-4.59l9.88,9.75h18.93A3.22,3.22,0,0,1,478.4,427.9Z"/><path class="cls-10" d="M453.53,461.13a7.48,7.48,0,0,1,8.73,0l4.31,3.35a7.43,7.43,0,0,0,9-.23l3.23-2.8a7.43,7.43,0,0,1,9-.24l4.3,3.35a7.48,7.48,0,0,0,8.73,0l4.6-3.59a7.48,7.48,0,0,1,8.73,0l4.3,3.35a7.44,7.44,0,0,0,9-.23l3.23-2.8a7.44,7.44,0,0,1,9-.24l4.18,3.5a7.44,7.44,0,0,0,9-.23l3.22-2.8a7.44,7.44,0,0,1,9-.24l4.3,3.35a7.48,7.48,0,0,0,8.73,0l4.6-3.59a7.48,7.48,0,0,1,8.73,0l4.3,3.35a7.44,7.44,0,0,0,9-.23"/><path class="cls-10" d="M453.53,476.34a7.46,7.46,0,0,1,8.73,0l4.31,3.35a7.44,7.44,0,0,0,9-.23l3.23-2.81a7.44,7.44,0,0,1,9-.23l4.3,3.35a7.46,7.46,0,0,0,8.73,0l4.6-3.58a7.46,7.46,0,0,1,8.73,0l4.3,3.35a7.44,7.44,0,0,0,9-.23l3.23-2.81a7.44,7.44,0,0,1,9-.23l4.18,3.5a7.46,7.46,0,0,0,9-.23l3.22-2.81a7.46,7.46,0,0,1,9-.23l4.3,3.35a7.46,7.46,0,0,0,8.73,0l4.6-3.58a7.46,7.46,0,0,1,8.73,0l4.3,3.35a7.44,7.44,0,0,0,9-.23"/><path class="cls-11" d="M586.82,408.58V390.16a10.68,10.68,0,0,0-10.68-10.68h0a10.68,10.68,0,0,0-10.67,10.68v1.68"/><circle class="cls-12" cx="586.82" cy="428.15" r="20.64"/><path class="cls-7" d="M595.09,432.36a7.41,7.41,0,0,1-5.61,7V440a2.28,2.28,0,1,1-4.55,0v-.65a7.78,7.78,0,0,1-4.81-3.8,2.21,2.21,0,0,1,2-3.2,2.27,2.27,0,0,1,2,1.21,3.56,3.56,0,0,0,3.14,1.68,2.94,2.94,0,1,0,0-5.78,6.63,6.63,0,0,1-6.84-6.38,6.41,6.41,0,0,1,4.57-6v-.81a2.28,2.28,0,0,1,3.88-1.61,2.29,2.29,0,0,1,.67,1.61v.8A6.7,6.7,0,0,1,593.2,420a2,2,0,0,1-1.79,3.07h-.36a2.12,2.12,0,0,1-1.73-1,2.59,2.59,0,0,0-2.12-1,2,2,0,1,0,0,3.92C591.55,425.05,595.09,428.33,595.09,432.36Z"/><polyline class="cls-10" points="494.76 448.79 521.62 428.86 542.35 447.62"/><polyline class="cls-10" points="531.97 436.97 541.38 428.86 553.38 439.43"/></g><g id="WOMAN"><g id="BODY"><path class="cls-1" d="M1159.57,1026.74l-205.87,88.2-271.4-88.2c-65.59,0-110.9-69.19-86.63-130.13,43.06-108.14,133.31-201.88,234.38-242,14,28.38,50.86,52.1,94.07,52.1,42.72,0,81-22.48,95.4-50.33,96.43,39.76,185,133.84,226.77,240.39C1270.21,957.79,1225.24,1002.6,1159.57,1026.74Z"/><path class="cls-7" d="M1018.93,663.45,957.33,825.4H890L827,659.27l5.74-2.84c14.59,23.41,50.64,47.11,91.34,47.11,38.72,0,73.66-16.83,89-42.87Z"/></g><g id="LEGS"><g id="LEGS-2" data-name="LEGS"><path class="cls-13" d="M1337.66,988.34,1309.18,865a106.55,106.55,0,0,0-103.81-82.57h0A106.58,106.58,0,0,0,1121,823.91L908.49,1099.22l-243.32-73.9c-105.75-32.13-199.75,75.91-153.31,176.21l2.17,4.69c39.63,85.6,124.26,139.68,217.37,139.68h321.87C1241,1345.9,1379.9,1171.25,1337.66,988.34Z"/><line class="cls-14" x1="908.49" y1="1099.22" x2="1020.76" y2="1139.32"/><line class="cls-3" x1="1269.37" y1="967.21" x2="1103.14" y2="1298.19"/><path class="cls-4" d="M1062.89,1243.15c-5,28.08-16,54.5-31.24,74.4-15.5,20.31-33.51,31.49-50.71,31.49-11.63,0-22.1-5.17-30.29-14.93-7.84-9.35-13.42-22.69-16.12-38.6-2.75-16.16-2.44-34.64.87-53.45,5-28.07,16.05-54.5,31.24-74.39,15.5-20.31,33.52-31.49,50.72-31.49,11.62,0,22.09,5.16,30.29,14.93,7.84,9.35,13.41,22.69,16.12,38.59C1066.51,1205.86,1066.21,1224.35,1062.89,1243.15Z"/><path class="cls-3" d="M956.64,1345.51c-35.47,0-49.51-49-38.85-109.38s45.89-104.53,81.36-104.53"/><polyline class="cls-3" points="558.54 1201.29 827.56 1345.89 1053.14 1345.89"/></g><g id="SHOES"><path class="cls-1" d="M1167.77,1180.72l-47.14,148.9a23.32,23.32,0,0,1-22.22,16.28H980.93c-33.49,0-52.49-46.25-42.43-103.29a186,186,0,0,1,12.35-41.38l41.38,0a166.44,166.44,0,0,0,99.08-32.77,91.09,91.09,0,0,1,54.24-18.06h0A23.31,23.31,0,0,1,1167.77,1180.72Z"/><path class="cls-3" d="M1167.77,1180.72l-47.14,148.9a23.32,23.32,0,0,1-22.22,16.28H980.93c-33.49,0-52.49-46.25-42.43-103.29a186,186,0,0,1,12.35-41.38l41.38,0a166.44,166.44,0,0,0,99.08-32.77,91.09,91.09,0,0,1,54.24-18.06h0A23.31,23.31,0,0,1,1167.77,1180.72Z"/><path class="cls-15" d="M1119.89,1332l49.25-155.59a20,20,0,0,0-19-26h-.37L1088,1345.9h12.86A20,20,0,0,0,1119.89,1332Z"/><path class="cls-3" d="M1096,1165.19s-51.45,27.56-40,112.72"/><path class="cls-5" d="M999.15,1162h0a18.65,18.65,0,0,1,18.65,18.65v18.65a0,0,0,0,1,0,0H999.15a18.65,18.65,0,0,1-18.65-18.65v0A18.65,18.65,0,0,1,999.15,1162Z" transform="translate(1127.49 -360.7) rotate(45)"/><path class="cls-5" d="M980,1207.64h18.65a0,0,0,0,1,0,0v18.65A18.65,18.65,0,0,1,980,1244.94h0a18.65,18.65,0,0,1-18.65-18.65v0A18.65,18.65,0,0,1,980,1207.64Z"/><path class="cls-5" d="M998.63,1207.64v58.77a26,26,0,0,1-26,26"/></g></g><g id="CAT"><path class="cls-16" d="M825.07,1023.7h-62.2A34.25,34.25,0,0,0,728.61,1058h0a19.62,19.62,0,0,0,17.5,19.51l7.43.81a19.62,19.62,0,0,0,21.74-19.51h0l52,15.81Z"/><line class="cls-17" x1="775.28" y1="1058.76" x2="775.28" y2="1048.19"/><path class="cls-17" d="M762,1077.33c-4,0-8-5-8-11.22v-8.41"/><path class="cls-17" d="M753.54,1078.27c-6.2,0-13.45-6-13.45-12.16v-10"/><path class="cls-16" d="M948,1048l-32.17-66.9A6.18,6.18,0,0,0,905.43,980L890,999.34H864.49a42.87,42.87,0,0,0-35,18.1l-14.65,20.7a23.74,23.74,0,0,0,12.47,36.43l81.17,24.65Z"/><path class="cls-16" d="M860.42,999.34l12-17.66a7.13,7.13,0,0,1,12.09.5l9.75,17.16"/><path class="cls-17" d="M855.1,1035.61c0,4.13-2.61,7.47-5.83,7.47s-5.83-3.34-5.83-7.47"/><circle class="cls-1" cx="823.39" cy="1059.87" r="12.64"/><path class="cls-1" d="M891.44,1002.6,901.51,990a3.54,3.54,0,0,1,6.09,1l4.3,11.61Z"/><line class="cls-17" x1="810.75" y1="1048.19" x2="822.24" y2="1048.19"/><path class="cls-18" d="M948,1048l-32.18-66.92A6.16,6.16,0,0,0,905.45,980L890,999.34H864.49a42.87,42.87,0,0,0-35,18.1l-14.65,20.7a23.74,23.74,0,0,0,12.47,36.43l81.17,24.65Z"/><path class="cls-16" d="M908.49,1099.22l45.22-58.57H886.86a25.43,25.43,0,0,0-25.43,25.43h0a25.45,25.45,0,0,0,18,24.33Z"/><path class="cls-17" d="M890.71,1072.51v6c0,9.5,4.16,12.82,10.89,12.82h0a10.3,10.3,0,0,0,10.3-10.3v-3"/><path class="cls-17" d="M889.72,1093.19c-8.86-.87-13.44-6-13.44-12.16v-8.52"/><path class="cls-7" d="M819.17,1006.85H803.54a3.22,3.22,0,0,1-2.27-5.49l10.13-10.13h-9.07v-6.44h16.84a3.21,3.21,0,0,1,2.27,5.49l-10.13,10.13h7.86Z"/><path class="cls-2" d="M851.86,981.79H836.23A3.22,3.22,0,0,1,834,976.3l10.13-10.14H835v-6.43h16.84a3.21,3.21,0,0,1,2.27,5.49L844,975.35h7.86Z"/></g><g id="HANDS"><path class="cls-13" d="M1054.5,761.17l4.86,1.94A34.51,34.51,0,0,1,1081,796.7l-3.64,34.54L1103.13,846l-71.48,93.74-38-82.12a52.78,52.78,0,0,1,9.2-58.05l31.3-33.77A18.39,18.39,0,0,1,1054.5,761.17Z"/><path class="cls-19" d="M1056.07,793.37l-12.73,17.76a15.53,15.53,0,0,1-21.69,3.57h0a15.54,15.54,0,0,1-3.57-21.69l18.84-26.27c5-7,12.43-8.88,22.44-3.63"/><circle class="cls-7" cx="1028.93" cy="805.14" r="8.33"/><rect class="cls-13" x="970.95" y="716.25" width="31.09" height="63.42" rx="15.54" transform="translate(946.28 -489.38) rotate(50.97)"/><circle class="cls-7" cx="971.38" cy="761.37" r="8.33"/><rect class="cls-13" x="1000.5" y="736.42" width="31.09" height="63.42" rx="15.54" transform="translate(638.04 -448.21) rotate(35.65)"/><circle class="cls-7" cx="1004.88" cy="784.8" r="8.33"/><path class="cls-4" d="M971.25,788.79,957.33,825.4H890l-13.92-36.61a17,17,0,0,1,15.89-23h63.4a17,17,0,0,1,15.9,23Z"/><circle class="cls-20" cx="898.78" cy="789.93" r="5.64"/><line class="cls-21" x1="923.79" y1="752.67" x2="923.79" y2="722.24"/><line class="cls-21" x1="901.38" y1="752.67" x2="893.78" y2="729.34"/><path class="cls-13" d="M653.22,854.53l228.86-59,7,18.49a12.6,12.6,0,0,0,11.77,8.12h44.43A14.2,14.2,0,0,0,958.59,813l13.6-35.75h1.72a22.61,22.61,0,0,1,22.61,22.61v.36h2.19a16.4,16.4,0,0,1,16.4,16.4v6.75h0a12.34,12.34,0,0,1,12.27,13.25h0a23.8,23.8,0,0,1-5,12.93l-29.2,37.15a49.41,49.41,0,0,1-38.45,18.88l-72.47.6L726.09,1009.45a86,86,0,0,1-47.4,14.25h-6.3c-58.62,0-99.37-58.32-79.21-113.37l.62-1.7A86.14,86.14,0,0,1,653.22,854.53Z"/><line class="cls-3" x1="996.52" y1="800.24" x2="978.84" y2="837.13"/><line class="cls-3" x1="1014.97" y1="822.18" x2="997.29" y2="859.07"/></g><g id="HEAD"><path class="cls-22" d="M1017.69,659.11c-14.38,27.86-50.85,47.65-93.57,47.65-43.21,0-80-20.25-94.07-48.63a328.34,328.34,0,0,1,36.34-12.35,20.76,20.76,0,0,0,15.21-18.7l2.46-38.56h73.76l2.43,38.09A20.79,20.79,0,0,0,976,645.46,300.57,300.57,0,0,1,1017.69,659.11Z"/><path class="cls-13" d="M980.59,582.2c-3.71,9.9-12.68,15.68-20,12.92a10.78,10.78,0,0,1-2.85-1.6l-.39,4.54a36.62,36.62,0,0,1-73,0l-.33-3.87a10.79,10.79,0,0,1-1.9.93c-7.36,2.76-16.32-3-20-12.92s-.76-20.14,6.6-22.9c4.07-1.53,8.65-.43,12.54,2.54l.71-13.44a10.89,10.89,0,0,1,10.87-10.31h56a10.88,10.88,0,0,1,10.87,10.36l.69,14.27c4.11-3.62,9.16-5.09,13.62-3.42C981.34,562.06,984.29,572.31,980.59,582.2Z"/><path class="cls-7" d="M1069.61,446.59a17.13,17.13,0,0,1-17.13,17.13h-.65l-46.89-.95h-1.16a57.36,57.36,0,0,0-49.62,28.6,10.47,10.47,0,0,1-9.08,5.18h-1.15a10.54,10.54,0,0,1-10.19-7.83A104.86,104.86,0,0,1,986.6,368.48a10.83,10.83,0,0,0-10.75-9.6v-7a17.83,17.83,0,0,1,17.26,13.45,104.56,104.56,0,0,1,22.69-7,42.65,42.65,0,0,1,42.61,70A39.25,39.25,0,0,1,1031.52,439v6.43A45.71,45.71,0,0,0,1062.9,433,17.11,17.11,0,0,1,1069.61,446.59Z"/><ellipse class="cls-17" cx="941.68" cy="509.23" rx="9.82" ry="5.65"/><path class="cls-7" d="M950.41,525.23A21.07,21.07,0,0,1,965,549l-1.9,10.75a4,4,0,0,1-6.78,2.13c-4.36-4.45-10.94-11.38-18.3-19.92-8,11.25-28.52,20.71-53,18.16-26.27-2.74-47.44-18.08-47.44-32.88s15.91-28.69,45.82-20.67Z"/><path class="cls-3" d="M954,572.22c3.71-9.89,12.68-15.67,20-12.92"/><path class="cls-3" d="M888.71,572.22c-3.7-9.89-12.67-15.67-20-12.92"/><path class="cls-1" d="M902.54,596.92a10.27,10.27,0,0,1-10.27,10.27,10.5,10.5,0,0,1-2.64-.34,33.93,33.93,0,0,1-2.07-9l-.82-9.42a11.49,11.49,0,0,1,5.53-1.75A10.26,10.26,0,0,1,902.54,596.92Z"/><path class="cls-1" d="M955,587.34l-.92,10.44a32.9,32.9,0,0,1-2.2,9.39c-.21,0-.43,0-.65,0a10.27,10.27,0,1,1,0-20.53A11.2,11.2,0,0,1,955,587.34Z"/><polyline class="cls-23" points="920.91 571.54 915.08 595.63 922.64 595.63"/><path class="cls-23" d="M932.05,599.49a7.74,7.74,0,0,1-9.12,6.06"/><circle class="cls-24" cx="905.17" cy="582.54" r="3.22"/><circle class="cls-24" cx="934.07" cy="582.54" r="3.22"/></g></g></g></svg>