<svg xmlns="http://www.w3.org/2000/svg" viewBox="0 0 2000 1700"><defs><style>.cls-1,.cls-10,.cls-12,.cls-13,.cls-14,.cls-15,.cls-17,.cls-18,.cls-19,.cls-20,.cls-4,.cls-6,.cls-9{fill:none;}.cls-1{stroke:#ffb400;}.cls-1,.cls-10,.cls-12,.cls-13,.cls-14,.cls-15,.cls-20,.cls-4{stroke-linecap:round;}.cls-1,.cls-12,.cls-13,.cls-14,.cls-15,.cls-18,.cls-19,.cls-20,.cls-4,.cls-5,.cls-6{stroke-miterlimit:10;}.cls-1,.cls-14,.cls-15,.cls-16,.cls-17,.cls-18,.cls-20{stroke-width:7px;}.cls-2{fill:#91e6f0;}.cls-3{fill:#004d89;}.cls-13,.cls-15,.cls-19,.cls-4{stroke:#fff;}.cls-4{stroke-width:6.74px;}.cls-11,.cls-16,.cls-5,.cls-8{fill:#fff;}.cls-10,.cls-11,.cls-12,.cls-16,.cls-17,.cls-18,.cls-5,.cls-6,.cls-9{stroke:#004d89;}.cls-10,.cls-11,.cls-12,.cls-19,.cls-5,.cls-6,.cls-9{stroke-width:6px;}.cls-7{fill:#ffb400;}.cls-10,.cls-11,.cls-16,.cls-17,.cls-9{stroke-linejoin:round;}.cls-13{stroke-width:5.06px;}.cls-14{stroke:#fdbc00;}.cls-20{stroke:#91e6f0;}</style></defs><g id="Слой_1" data-name="Слой 1"><g id="ARROW"><path class="cls-1" d="M1043.83,1111.09l270.91-539.35h-61.16c-16.82,0-22.77-22.27-8.2-30.67L1453,421.46a16.42,16.42,0,0,1,20.48,3.33L1579.71,544.4a16.43,16.43,0,0,1-12.28,27.34H1494l-104.07,207.2"/><line class="cls-1" x1="1348.76" y1="860.88" x2="1313.86" y2="930.36"/></g><g id="CLOUDS"><path class="cls-2" d="M1329.56,838.71H1642.9c0-36.39-30.23-48.39-57.29-48.39a53.63,53.63,0,0,0-24.69,6,58.53,58.53,0,0,0,2-15.47c0-29.47-21.56-47.24-48.15-47.24-23.6,0-43.22,12.67-47.36,37.5a52.81,52.81,0,0,0-14.92-2.14c-25.93,0-48,18.74-56.28,44.94a48.27,48.27,0,0,0-20.63-4.64C1356.11,809.31,1339,821.08,1329.56,838.71Z"/><path class="cls-2" d="M703.94,756.71H407a52.7,52.7,0,0,1-.92-9.88c0-30,25.11-54.33,56.09-54.33a57.55,57.55,0,0,1,20.52,3.75c10.36-29.58,37.69-50.7,69.77-50.7,41,0,74.21,34.47,74.21,77a78.87,78.87,0,0,1-.85,11.67,42.18,42.18,0,0,1,35.55-19.85C684.31,714.38,703,733.17,703.94,756.71Z"/><path class="cls-2" d="M1420.65,938.25a3.51,3.51,0,0,1-2.48,6,3.46,3.46,0,0,1-2.47-1l-5.53-5.53-5.54,5.53a3.48,3.48,0,0,1-4.94,0,3.49,3.49,0,0,1,0-5l5.53-5.53-5.53-5.53a3.5,3.5,0,0,1,4.94-5l5.54,5.53,5.53-5.53a3.5,3.5,0,1,1,5,5l-5.53,5.53Z"/><path class="cls-2" d="M975.34,402.15a3.5,3.5,0,0,1-5,5l-5.53-5.53-5.53,5.53a3.5,3.5,0,0,1-5-5l5.53-5.53-5.53-5.54a3.5,3.5,0,0,1,5-4.95l5.53,5.53,5.53-5.53a3.5,3.5,0,0,1,5,4.95l-5.53,5.54Z"/><path class="cls-2" d="M778.64,1170.86a3.5,3.5,0,0,1-2.48,6,3.47,3.47,0,0,1-2.47-1l-5.53-5.53-5.54,5.53a3.5,3.5,0,1,1-5-5l5.54-5.53-5.54-5.54a3.5,3.5,0,0,1,5-5l5.54,5.54,5.53-5.54a3.5,3.5,0,0,1,4.95,5l-5.53,5.54Z"/><path class="cls-2" d="M656.77,629.78a3.5,3.5,0,0,1-4.95,5l-5.53-5.53-5.53,5.53a3.51,3.51,0,0,1-2.48,1,3.5,3.5,0,0,1-2.47-6l5.53-5.53-5.53-5.54a3.5,3.5,0,0,1,5-5l5.53,5.53,5.53-5.53a3.5,3.5,0,1,1,4.95,5l-5.53,5.54Z"/></g><g id="WOMAN"><g id="LEGS"><path class="cls-3" d="M1277.11,994.63l-83.58,183.17,3.36,24H1059.15l-21.22-80-3.47-14.38H880.84L984.3,869.83H1200C1264.07,869.83,1305.77,937.29,1277.11,994.63Z"/><path class="cls-4" d="M1196.89,1201.84l-35.44-256.59a87.37,87.37,0,0,0-86.55-75.42H993.35"/><line class="cls-4" x1="1012.14" y1="991.76" x2="1028.93" y2="1084.96"/><line class="cls-4" x1="998.96" y1="1004.54" x2="1016.17" y2="1014.13"/><polygon class="cls-5" points="1062.33 1201.84 1069.21 1235.95 1201.44 1235.95 1196.89 1201.84 1062.33 1201.84"/><path class="cls-5" d="M1254.83,1370.05l-119.32-35.57h0l-7.2-43.36a11.36,11.36,0,0,0-21.76-2.36l-13.29,33.13-43.06-13.79,19-72.14h132.22l1.33,8.16a206.24,206.24,0,0,0,39.62,92.14l18.78,24.63A5.86,5.86,0,0,1,1254.83,1370.05Z"/><line class="cls-6" x1="1133.18" y1="1320.43" x2="1261.17" y2="1360.88"/><line class="cls-6" x1="1053.58" y1="1295.28" x2="1098.27" y2="1309.4"/><line class="cls-1" x1="1085.23" y1="1212.09" x2="1087.46" y2="1224.4"/><line class="cls-1" x1="1108.72" y1="1212.09" x2="1110.95" y2="1224.4"/><line class="cls-1" x1="1132.21" y1="1212.09" x2="1134.44" y2="1224.4"/><line class="cls-1" x1="1179.19" y1="1212.09" x2="1181.42" y2="1224.4"/><line class="cls-1" x1="1155.7" y1="1212.09" x2="1157.93" y2="1224.4"/><path class="cls-1" d="M1229.29,1249.79h.11a17.47,17.47,0,0,1,17.47,17.47v.11a17.47,17.47,0,0,1-17.47,17.47h-10.57a7,7,0,0,1-7-7v-10.57A17.47,17.47,0,0,1,1229.29,1249.79Z" transform="translate(1256.19 -498.09) rotate(45)"/><path class="cls-1" d="M1174.8,1249.79h9.94a17.52,17.52,0,0,1,17.52,17.52v0a17.52,17.52,0,0,1-17.52,17.52h0a17.52,17.52,0,0,1-17.52-17.52v-9.94a7.58,7.58,0,0,1,7.58-7.58Z" transform="translate(2918.6 1325.7) rotate(135)"/><line class="cls-1" x1="1209.52" y1="1272.27" x2="1194.38" y2="1303.13"/></g><g id="HEAD"><path class="cls-7" d="M1065.22,473.85A39.92,39.92,0,0,1,1105.13,514l0,6.46-7.22.66a54.56,54.56,0,0,1,1.15,11.2c0,32.29-27.92,58.46-62.37,58.46a66,66,0,0,1-17.36-2.3L1003,631.24,922,707.65a127.06,127.06,0,0,1-153.82,15.69,118.7,118.7,0,0,1-56.32-93.94,122.35,122.35,0,0,0,1.71,23.51c6.08,35.73,26.63,66.74,56.38,85.08a3.37,3.37,0,0,1-3.54,5.74C735,724.37,713.3,691.68,706.9,654c-5.85-34.35,2.34-68.67,22.45-94.56l32.25-41.32,19.21,14.34a145,145,0,0,0,142.31,17.78,133.31,133.31,0,0,1-40.29,6.24c-31,0-60.94-10.9-85.56-31.37a3.27,3.27,0,1,1,4.17-5c26.79,22.27,60.2,32.65,94.06,29.23,34.39-3.47,66.56-21.45,89.15-49.33,10.64-15,28.51-25.18,48.95-26.1Z"/><path class="cls-8" d="M1034.08,548.36A16.09,16.09,0,0,0,1047,532.6l.81-7,48.19-4.38.13.57c2.38,9.37,6,13.07,11.59,17.17l.18.13a2.74,2.74,0,0,1-1,4.86l-6.7,1.63,2.68,24.54s-5.76,12.61-25.15,9.26V648.6l-84.64-28.12a5.42,5.42,0,0,1-.31-10.19A52.44,52.44,0,0,0,1023.27,578l4.92-15-1.1,1.5a18.95,18.95,0,0,1-16.64,7.67,19.19,19.19,0,0,1-17.58-19.26v-1.42a19,19,0,0,1,19-19h2.59a19,19,0,0,1,17.3,11.22Z"/><path class="cls-9" d="M1096,521.27c.74,8.66,6.16,13.64,11.72,17.74l.18.13a2.74,2.74,0,0,1-1,4.86l-6.7,1.63,2.68,24.54s-5.76,12.61-25.15,9.26v54.84"/><path class="cls-9" d="M989.42,611.5A52.4,52.4,0,0,0,1023.27,578l4.92-15-1.1,1.5a18.95,18.95,0,0,1-16.64,7.67,19.19,19.19,0,0,1-17.58-19.26v-1.42a19,19,0,0,1,19-19h2.59a19,19,0,0,1,17.3,11.22l1.86,5"/><path class="cls-10" d="M1055.4,567.13s6.62,10.06,21.16,12.3"/><path class="cls-11" d="M1100.24,545.63s-2.77,1-15,2.2c-4.51.43-6.49,5.59-2.72,8.11a19,19,0,0,0,10.7,3.36c5.78,0,8.09-3.73,8.09-3.73Z"/><path class="cls-12" d="M1073.12,535a4.85,4.85,0,1,1,9.69,0"/><polyline class="cls-10" points="1012.16 546.62 1019.51 553.98 1012.16 555.57"/><circle class="cls-2" cx="1061.11" cy="549.46" r="10"/><line class="cls-13" x1="1059.95" y1="527.61" x2="1059.95" y2="509.64"/></g><g id="BODY"><path class="cls-2" d="M1094.82,826.24,1078,790.07,982.56,899.72l-6.94,207.77H809.94c-78.65,0-127.9-78.73-93.51-149.45L847.68,694.69c24-49.38,70.93-74.35,125.84-74.35l11.41,1,1.79-6.41a16.34,16.34,0,0,1,16-16.32c9.07-.19,16.58,7.5,16.67,16.57,0,1.32.13,2.71.24,4.07a16.31,16.31,0,0,1,29,7.59l.82.07a16.31,16.31,0,0,1,31.72,2.9c26.79,4.47,46.65,29.87,47.93,54.83l12.09-49.23,66.88,4.51V801.16a59.41,59.41,0,0,1-58.9,59.4h0A59.4,59.4,0,0,1,1094.82,826.24Z"/><path class="cls-14" d="M977.39,643a64.49,64.49,0,0,1,15.54,45L976.2,1059.49"/><path class="cls-1" d="M1015.83,625c2.78-8,8.63-14.92,18.25-13.72,8.94,1.11,14.72,7.3,14.72,16.32"/><path class="cls-1" d="M1048.68,630.28a16.32,16.32,0,0,1,32.63,0v9.92"/><path class="cls-1" d="M982.89,621.07l5.11-12.5a16.32,16.32,0,0,1,31.36,6.35L1015.83,625"/><path class="cls-15" d="M885.23,772.19a21.44,21.44,0,0,0-21.44-21.44"/><path class="cls-15" d="M1083.49,736.4a94.82,94.82,0,0,1-5.94,61"/><line class="cls-14" x1="1132.28" y1="675.08" x2="1109.84" y2="758.38"/><path class="cls-14" d="M885.23,738.25v297.57A66.17,66.17,0,0,0,945,1101.68"/></g><g id="HANDS"><path class="cls-8" d="M1051.51,1120.78a39.91,39.91,0,0,0-25.78-49.83l-79.19-24.74a17.53,17.53,0,0,0-22,11.55h0a40.33,40.33,0,0,0,36.6,52.21l16.15.77h0L965.92,1150a12.28,12.28,0,0,0,22.5,9.42l1.8.21a12.28,12.28,0,0,0,23.07,2.72h0c1.41,3.21,7.18,6.16,10.81,7.21a12.27,12.27,0,0,0,13.2-4.39Z"/><path class="cls-12" d="M978.91,1110.74,967.51,1150a12.28,12.28,0,0,0,22.51,9.42l1.79.21a12.28,12.28,0,0,0,23.07,2.72h0c1.42,3.21,7.18,6.16,10.82,7.21a12.26,12.26,0,0,0,13.19-4.39l14.21-44.39a39.9,39.9,0,0,0-25.78-49.83l-80.2-26"/><path class="cls-12" d="M990.58,1159.22l11.4-39.3a22.62,22.62,0,0,0-1.77-17l-2.65-5"/><path class="cls-12" d="M1014.88,1162.35l13.06-42.85a22.62,22.62,0,0,0-1.23-16.35l-2.46-5.14"/><circle class="cls-7" cx="1029.84" cy="1160.09" r="7.02"/><circle class="cls-7" cx="1004.31" cy="1159.22" r="7.02"/><circle class="cls-7" cx="979.89" cy="1155.33" r="7.02"/><path class="cls-8" d="M1269.18,575.33a9.64,9.64,0,0,1-9.64,9.63h-25.75a8.92,8.92,0,0,0-8.6,6.52l-7.44,30a34.82,34.82,0,0,1-33.43,25.41l-40.41-11L1154,586.47a36.26,36.26,0,0,1,23.25-25.37l58.64-20.4a3.39,3.39,0,0,1,1.13-.19,3.49,3.49,0,0,1,3.16,2,16.89,16.89,0,0,1-3.27,18.85h21.36A10.72,10.72,0,0,1,1269,572.12Z"/><path class="cls-9" d="M1143.91,635.89,1154,586.47a36.26,36.26,0,0,1,23.25-25.37l58.64-20.4a3.39,3.39,0,0,1,1.13-.19,3.49,3.49,0,0,1,3.16,2,16.89,16.89,0,0,1-3.27,18.85h21.36A10.72,10.72,0,0,1,1269,572.12l.16,3.21a9.64,9.64,0,0,1-9.64,9.63h-25.75a8.92,8.92,0,0,0-8.6,6.52l-7.44,30a34.82,34.82,0,0,1-33.43,25.41"/><path class="cls-9" d="M1227.63,569.12H1227a11.08,11.08,0,0,0-11.08,11.08h0c0,11.61-8.92,21-19.92,21h-7.12"/><path class="cls-16" d="M1209.24,554.45h30.57a0,0,0,0,1,0,0v78.86a15.29,15.29,0,0,1-15.29,15.29h0a15.29,15.29,0,0,1-15.29-15.29V554.45a0,0,0,0,1,0,0Z"/><polygon class="cls-3" points="1239.37 560.43 1209.24 577.94 1209.24 555.57 1239.37 555.57 1239.37 560.43"/><path class="cls-16" d="M1347.27,550.73,1164.64,549a27.94,27.94,0,0,1-14.41-51.76l168.62-118.66c3.2-2,8.72-5.39,12.1-3.7Z"/><path class="cls-17" d="M1332.16,550c-30.6,0-49.79-33.49-53.68-79.66-2.77-32.81,4.1-60.51,16.72-75.1"/><path class="cls-16" d="M1389.8,457.71c4.11,48.69-14.57,91.62-41.72,93.91s-52.5-36.92-56.61-85.61,14.57-90,41.72-92.31S1385.69,409,1389.8,457.71Z"/><ellipse class="cls-2" cx="1340.64" cy="461.86" rx="38.94" ry="77.04" transform="translate(-34.1 114.42) rotate(-4.83)"/><path class="cls-18" d="M1324.34,437.33a26,26,0,1,1,4.38,51.87"/><path class="cls-19" d="M1325.1,449.16a15.45,15.45,0,0,1,16.69,14.09"/><path class="cls-11" d="M1247.26,561.4h11a10.79,10.79,0,0,1,10.79,10.79v3.08a10.79,10.79,0,0,1-10.79,10.79h-11a12.33,12.33,0,0,1-12.33-12.33v0a12.33,12.33,0,0,1,12.33-12.33Z"/><circle class="cls-7" cx="1244.7" cy="573.73" r="6.5"/><path class="cls-11" d="M1233.26,586.07h14.56a10.79,10.79,0,0,1,10.79,10.79v3.08a10.79,10.79,0,0,1-10.79,10.79h-14.56a12.33,12.33,0,0,1-12.33-12.33v0A12.33,12.33,0,0,1,1233.26,586.07Z"/><circle class="cls-7" cx="1230.9" cy="598.4" r="6.5"/><path class="cls-11" d="M1233.26,610.74h14.16a10.79,10.79,0,0,1,10.79,10.79v3.08a10.79,10.79,0,0,1-10.79,10.79h-14.16a12.33,12.33,0,0,1-12.33-12.33v0A12.33,12.33,0,0,1,1233.26,610.74Z"/><circle class="cls-7" cx="1230.9" cy="623.07" r="6.5"/></g></g><g id="ARROW-2" data-name="ARROW"><path class="cls-7" d="M784.63,809.79a18.52,18.52,0,0,1,16.55-10.35h.27A18.52,18.52,0,0,1,818,809.83L954.81,1093c4.28,8.86,12.82,14.72,22.65,14.72l-2.84,7-162.09-.14a130.83,130.83,0,0,1-117.81-73.93l-11.2-23.19Z"/><path class="cls-1" d="M439.52,1059.49,554.76,821a31.88,31.88,0,0,1,28.7-18H801.18a14.9,14.9,0,0,0-13.4,8.38L594,1212.09"/><line class="cls-1" x1="410.87" y1="1118.8" x2="427.22" y2="1084.96"/><line class="cls-20" x1="577.2" y1="946.27" x2="357.1" y2="946.27"/><line class="cls-20" x1="410.13" y1="971.75" x2="400.1" y2="971.75"/><line class="cls-20" x1="537.16" y1="971.75" x2="433.15" y2="971.75"/></g></g></svg>