<svg xmlns="http://www.w3.org/2000/svg" viewBox="0 0 2000 1700"><defs><style>.cls-1{fill:#91e6f0;}.cls-2{fill:#ffb400;}.cls-3{fill:#004c86;}.cls-15,.cls-19,.cls-20,.cls-4,.cls-5{fill:#fff;}.cls-10,.cls-14,.cls-4,.cls-8,.cls-9{stroke:#004c86;}.cls-11,.cls-13,.cls-16,.cls-17,.cls-18,.cls-19,.cls-20,.cls-4,.cls-6,.cls-7{stroke-miterlimit:10;}.cls-11,.cls-12,.cls-13,.cls-14,.cls-15,.cls-16,.cls-17,.cls-19,.cls-20,.cls-4,.cls-6,.cls-7{stroke-width:6px;}.cls-10,.cls-11,.cls-12,.cls-13,.cls-14,.cls-16,.cls-17,.cls-18,.cls-21,.cls-22,.cls-6,.cls-7,.cls-8,.cls-9{fill:none;}.cls-12,.cls-13,.cls-6{stroke:#004c85;}.cls-11,.cls-15,.cls-19,.cls-22,.cls-7{stroke:#ffb400;}.cls-10,.cls-11,.cls-13,.cls-14,.cls-15,.cls-16,.cls-22,.cls-8{stroke-linecap:round;}.cls-10,.cls-12,.cls-14,.cls-15,.cls-21,.cls-22,.cls-8,.cls-9{stroke-linejoin:round;}.cls-21,.cls-22,.cls-8,.cls-9{stroke-width:5px;}.cls-10{stroke-width:4px;}.cls-16,.cls-18,.cls-21{stroke:#9ceaed;}.cls-17,.cls-20{stroke:#91e6f0;}.cls-18{stroke-width:5.72px;}</style></defs><g id="Слой_1" data-name="Слой 1"><g id="CIRCLE"><path class="cls-1" d="M1414.58,531.76c-89.83-128.53-238.9-212.6-407.62-212.6A494.88,494.88,0,0,0,696.13,428.34C582.64,519.42,510,659.3,510,816.14c0,274.47,222.5,497,497,497s497-222.5,497-497A494.66,494.66,0,0,0,1414.58,531.76ZM1007,1126.28c-171.14,0-309.87-138.74-309.87-309.88v-.26A309.86,309.86,0,0,1,1007,506.53C1112.11,506.53,1205,558.91,1261,639a308.45,308.45,0,0,1,55.79,177.42C1316.83,987.54,1178.1,1126.28,1007,1126.28Z"/><path class="cls-2" d="M1503.93,816.14c0,274.47-222.5,497-497,497V1126.28c171.14,0,309.87-138.74,309.87-309.88A308.45,308.45,0,0,0,1261,639l153.54-107.22A494.66,494.66,0,0,1,1503.93,816.14Z"/><path class="cls-2" d="M809.46,577.62A309.21,309.21,0,0,0,697.09,816.14H510c0-156.84,72.65-296.72,186.14-387.8Z"/></g><g id="MAN"><g id="LEGS"><polygon class="cls-3" points="1078.32 1118.01 1104.9 1110.48 1154.26 1290.91 1078.32 1118.01"/><path class="cls-4" d="M1137.87,939,1034.36,783.8a45.59,45.59,0,0,0-70.87-6.22L789.55,959.33l119.08,80.73,95.19-131.51,11.58,47.73"/><path class="cls-5" d="M1291.62,939h0a311,311,0,0,1-118.73,139.11H1060.81l17.51,39.87L1153,1291.32l-.11,0a496.69,496.69,0,0,1-144.8,21.77l-72.33-267.6a66.84,66.84,0,0,1,57-83.58L1192,939Z"/><polygon class="cls-1" points="1098.57 1078.14 1063.6 1078.14 1049.69 1044.19 1098.57 1078.14"/><path class="cls-6" d="M1010,1314.63l-74.25-269.12a66.84,66.84,0,0,1,57-83.58l9.08-1"/><polyline class="cls-6" points="1166.82 1078.14 1060.81 1078.14 1152.19 1292.29"/><line class="cls-6" x1="1060.81" y1="1078.14" x2="1047.5" y2="1045.31"/></g><g id="SHOES"><path class="cls-3" d="M1155,1291.7l-142.5,136.8-5.5-115.39a496.93,496.93,0,0,0,145.92-21.77l1.77-.26A.37.37,0,0,1,1155,1291.7Z"/><path class="cls-2" d="M1059.21,1396.83l.08-3.12a9.91,9.91,0,0,1,10.18-9.65l3.12.08a9.9,9.9,0,0,0,10.17-9.65l.09-3.12a9.9,9.9,0,0,1,10.17-9.65l3.13.08a9.91,9.91,0,0,0,10.17-9.65l.08-3.12a9.91,9.91,0,0,1,10.17-9.65l3.13.08a9.9,9.9,0,0,0,10.17-9.65l.09-3.38a9.92,9.92,0,0,1,9.92-9.65h4.06a9.92,9.92,0,0,0,9.89-9.22l1.13-15.87-142.51,136.77,13,.35a9.92,9.92,0,0,0,10.17-9.65l.08-3.13a9.9,9.9,0,0,1,10.17-9.64l3.13.08A9.9,9.9,0,0,0,1059.21,1396.83Z"/><path class="cls-7" d="M1041.63,1331.79H999.85a3.47,3.47,0,0,0-2,6.31l18.5,12.93"/><line class="cls-7" x1="1041.63" y1="1350.38" x2="996.43" y2="1350.38"/><polygon class="cls-3" points="709.68 974.21 789.55 959.33 893.17 1029.58 867.1 1092.98 867.09 1092.98 709.68 974.21"/><path class="cls-7" d="M786.27,976.85,763.06,954.8a5,5,0,0,0-8.13,5L759.27,977"/><line class="cls-7" x1="774.25" y1="989.97" x2="744.22" y2="963.17"/><path class="cls-2" d="M748.32,1015.38l3.1-.41a9.91,9.91,0,0,1,11.14,8.51l.41,3.1a9.92,9.92,0,0,0,11.14,8.52l3.1-.41a9.91,9.91,0,0,1,11.13,8.52l.41,3.1a9.92,9.92,0,0,0,11.14,8.52l3.1-.42a9.91,9.91,0,0,1,11.13,8.52l.42,3.1a9.91,9.91,0,0,0,11.13,8.52l3.35-.45a9.92,9.92,0,0,1,11.1,8.27l.64,4a9.91,9.91,0,0,0,10.66,8.31l15.85-1.4L709.68,974.21l1.72,12.93a9.91,9.91,0,0,0,11.14,8.51l3.1-.41a9.91,9.91,0,0,1,11.13,8.52l.42,3.1A9.91,9.91,0,0,0,748.32,1015.38Z"/></g><g id="HEAD"><path class="cls-5" d="M1284.74,723.23l-24-49.66h0a8.81,8.81,0,0,0,8.06-9.49l-.14-1.62a11.64,11.64,0,0,0-12.56-10.66h0a11.66,11.66,0,0,0-9.12,5.75l-1.51,2.59s-12.85-13.22-13.92-26.26l-24.81,2A13.88,13.88,0,0,0,1194.08,651l3.47,37.11a10.6,10.6,0,0,0,11.34,9l6.3-.51,0,26.64Z"/><path class="cls-8" d="M1284.74,721.44l-23.85-46.36h0a8.79,8.79,0,0,0,8.06-9.49l-.26-3.13a11.64,11.64,0,0,0-12.56-10.66h0a11.66,11.66,0,0,0-9.12,5.75l-1.51,2.59s-12.85-13.22-13.92-26.26l-23.81,1.94a14.86,14.86,0,0,0-13.59,16.2l3.37,36.11a10.6,10.6,0,0,0,11.34,9l6.3-.51,0,25.4"/><path class="cls-3" d="M1213.7,694.24c5.42-.44,12-2.23,16.25-5.65l8.48-6.86-22.55,37.34Z"/><polyline class="cls-9" points="1194.64 659.93 1186.59 678.42 1197.26 679.07"/><circle class="cls-2" cx="1225.97" cy="669.69" r="8.31"/><polyline class="cls-8" points="1256.06 662.31 1254.13 666.9 1259.27 666.48"/><path class="cls-10" d="M1209.37,663.62a2.87,2.87,0,1,1-5.72.47"/><line class="cls-9" x1="1206.46" y1="681.49" x2="1197.39" y2="680.7"/><path class="cls-3" d="M1236.55,653.2l-1.85.15a8.28,8.28,0,0,1-7.07-3,11.84,11.84,0,0,0,3.89-5.09,1.63,1.63,0,0,0-1-2.13h0a1.61,1.61,0,0,0-2,.93,9.43,9.43,0,0,1-4,4.58,12.6,12.6,0,0,1-18.86-9.88,12.37,12.37,0,0,1,0-2.28l-6.51.58a13.63,13.63,0,0,1-13.46-11.64,6.92,6.92,0,0,1,7.87-7.85l48.17,7.19h0l-.56-6.89a2.5,2.5,0,0,1,5-.41l.54,6.63,6.42-.52a2.5,2.5,0,1,1,.41,5l-4.08.33a13,13,0,0,1,3.31,10.58l-5.3,24.91H1246a5.8,5.8,0,0,1-6-3.89Z"/></g><g id="BODY"><path class="cls-3" d="M1122.13,723.22H1301a62.19,62.19,0,0,1,59.11,42.85l31.72,97a58,58,0,0,1-55.09,76H1192l-38.36-136.59h-76.32c-47.14,0-74-53.9-45.53-91.51l73.62-97.38L1147,652.13Z"/><line class="cls-11" x1="1124.05" y1="724.74" x2="1116.54" y2="746.72"/><line class="cls-11" x1="1295.79" y1="792.78" x2="1313.76" y2="860.2"/><line class="cls-7" x1="1185.47" y1="879.38" x2="1310.36" y2="847.46"/><path class="cls-2" d="M1289.83,723.23h-87l3.3-14a6.89,6.89,0,0,1,6.71-5.31h67a6.89,6.89,0,0,1,6.71,5.31Z"/><rect class="cls-5" x="1214.13" y="703.92" width="4" height="19.31"/><rect class="cls-5" x="1229.19" y="703.92" width="4" height="19.31"/><rect class="cls-5" x="1244.25" y="703.92" width="4" height="19.31"/><rect class="cls-5" x="1259.3" y="703.92" width="4" height="19.31"/><rect class="cls-5" x="1274.36" y="703.92" width="4" height="19.31"/></g><g id="HANDS"><path class="cls-5" d="M1111.1,947.55l16.2-24.39-5.86,15.34a9.52,9.52,0,0,0,8.89,12.92h52.58a9.1,9.1,0,0,0,9.1-9.09h0a9.1,9.1,0,0,0-9.16-9.1l-3.88,0,4.06-10.15,7.31,9.74a19.44,19.44,0,0,0,29.84,1.49h0a25.72,25.72,0,0,0-6-39.67l-14.29-8.27a32.36,32.36,0,0,0-25.37-3l-51,15.07a15.21,15.21,0,0,0-8.58,6.53l-19.34,32.88a9.15,9.15,0,0,0,3.78,12.81h0A9.14,9.14,0,0,0,1111.1,947.55Z"/><path class="cls-12" d="M1185.47,879.38l-62,19.07a15.21,15.21,0,0,0-8.58,6.53l-20.5,33.23a9.53,9.53,0,0,0,5.46,14.15h0a9.51,9.51,0,0,0,10.58-3.88l16.82-25.32-5.86,15.34a9.52,9.52,0,0,0,8.89,12.92h52.58a9.1,9.1,0,0,0,9.1-9.09h0a9.1,9.1,0,0,0-9.16-9.1l-3.88,0,4.06-10.15,7.17,9.55c7.37,9.81,26.49,10.53,34.8,1.5"/><path class="cls-13" d="M1145.53,923.16l-5.86,15.34a9.52,9.52,0,0,0,8.89,12.92"/><path class="cls-13" d="M1163.76,923.16l-5.86,15.34a9.52,9.52,0,0,0,8.89,12.92"/><circle class="cls-1" cx="1101.85" cy="944.63" r="4.86"/><path class="cls-5" d="M1152.78,640.62l6.48,8.46a6.88,6.88,0,1,0,10.9-8.41,6.88,6.88,0,1,0,10.9-8.4,6.88,6.88,0,1,0,10.9-8.4l-5.1-6.63,0,0,13.66,17.55a7.09,7.09,0,0,0,11.47-8.32l-22.11-32.74a29.12,29.12,0,0,0-24.13-12.82h-15.44a29.12,29.12,0,0,0-20.48,8.43l-24.49,27.28.33,2.8c1.1,19.08,20.4,31.86,39.49,31.07Z"/><path class="cls-14" d="M1143.52,653.33l9.26-12.71,6.48,8.46a6.88,6.88,0,1,0,10.9-8.41,6.88,6.88,0,1,0,10.9-8.4,6.88,6.88,0,1,0,10.9-8.4l-9.73-13,4.67,6.31,13.31,16.73a7.21,7.21,0,0,0,9.19,1.8h0a7.21,7.21,0,0,0,2.39-10.39l-21.87-31.65a29.12,29.12,0,0,0-24.13-12.82h-15.44c-7.67,0-16.84,2.75-22.3,8.15l-24.87,31.65"/><line class="cls-14" x1="1181.06" y1="632.27" x2="1170.94" y2="619.02"/><line class="cls-14" x1="1170.94" y1="641.82" x2="1159.59" y2="626.96"/><circle class="cls-1" cx="1206.27" cy="629.92" r="4.02"/><polygon class="cls-3" points="1148.86 630.6 1142.16 651.79 1156.83 642.3 1148.86 630.6"/></g><g id="LAPTOP"><path class="cls-15" d="M1093.67,955.44h-80.9a9.92,9.92,0,0,1-9.11-6l-43-98.87h87.41Z"/><line class="cls-11" x1="1093.67" y1="955.44" x2="1196.53" y2="955.44"/><path class="cls-2" d="M1035.73,906.71a3.43,3.43,0,1,1-4.85,4.86l-5.21-5.21-5.21,5.21a3.44,3.44,0,1,1-4.86-4.86l5.21-5.21-5.21-5.21a3.43,3.43,0,1,1,4.86-4.85l5.21,5.21,5.21-5.21a3.43,3.43,0,0,1,4.85,4.85l-5.21,5.21Z"/></g></g><g id="ICONS_ELEMENTS" data-name="ICONS &amp; ELEMENTS"><line class="cls-16" x1="1083.8" y1="1431.86" x2="809.15" y2="1431.86"/><line class="cls-16" x1="1128.16" y1="1431.86" x2="1106.82" y2="1431.86"/><path class="cls-1" d="M463.16,1038.64a19.94,19.94,0,1,1,19.95-19.94A20,20,0,0,1,463.16,1038.64Zm0-33.88a13.94,13.94,0,1,0,13.95,13.94A14,14,0,0,0,463.16,1004.76Z"/><line class="cls-11" x1="446.22" y1="1136.03" x2="530.17" y2="1136.03"/><line class="cls-11" x1="446.22" y1="1166.39" x2="573.55" y2="1166.39"/><line class="cls-11" x1="546.17" y1="1136.03" x2="553.7" y2="1136.03"/><path class="cls-5" d="M669.79,870.83a3.44,3.44,0,1,1-4.86,4.86l-5.21-5.21-5.21,5.21a3.43,3.43,0,0,1-4.85-4.86l5.21-5.2-5.21-5.21a3.43,3.43,0,0,1,4.85-4.86l5.21,5.21,5.21-5.21a3.44,3.44,0,0,1,4.86,4.86l-5.21,5.21Z"/><path class="cls-1" d="M1535.77,564.6a3.43,3.43,0,0,1-2.43,5.86,3.48,3.48,0,0,1-2.43-1l-5.2-5.21-5.22,5.21a3.43,3.43,0,0,1-4.85-4.86l5.21-5.21-5.21-5.21a3.43,3.43,0,0,1,4.85-4.85l5.22,5.21,5.2-5.21a3.43,3.43,0,1,1,4.86,4.85l-5.21,5.21Z"/><path class="cls-2" d="M497.32,442.45a3.43,3.43,0,1,1-4.85,4.85l-5.21-5.21L482,447.3a3.39,3.39,0,0,1-2.42,1,3.44,3.44,0,0,1-2.43-5.86l5.21-5.21L477.19,432a3.43,3.43,0,0,1,4.85-4.86l5.22,5.22,5.21-5.22a3.43,3.43,0,0,1,4.85,4.86l-5.21,5.21Z"/><line class="cls-17" x1="823.01" y1="601.48" x2="823.01" y2="591.08"/><path class="cls-17" d="M847.9,575.89V751.77h8.5a4.81,4.81,0,0,1,3.4,8.21l-20.94,20.94a4.8,4.8,0,0,1-6.8,0L811.12,760a4.81,4.81,0,0,1,3.4-8.21H823V613.54"/><path class="cls-18" d="M1296.81,1431.86V1140.53h-8.49a4.81,4.81,0,0,1-3.41-8.21l20.94-20.94a4.82,4.82,0,0,1,6.81,0l20.94,20.94a4.81,4.81,0,0,1-3.4,8.21h-8.49v291.33"/><path class="cls-7" d="M1374.29,1431.86v-185h-8.49a4.81,4.81,0,0,1-3.41-8.21l20.94-20.94a4.82,4.82,0,0,1,6.81,0l20.94,20.94a4.81,4.81,0,0,1-3.4,8.21h-8.49v154.61"/><line class="cls-7" x1="1399.25" y1="1414.49" x2="1399.25" y2="1431.86"/><path class="cls-3" d="M1360.15,466.29c5.81,5.84,11.32,11.73,16.38,17.58l-152.64-17.23,68.76-.17a12.14,12.14,0,0,1,7.79,2.81l5.73,4.76,6.53-4.68a15.78,15.78,0,0,1,9.14-2.95Z"/><path class="cls-19" d="M1391.87,464.32H1324a17.35,17.35,0,0,0-17.35,17.35h0a17.35,17.35,0,0,0-17.35-17.35h-67.91a7.39,7.39,0,0,1-7.39-7.39V396a7.38,7.38,0,0,1,7.39-7.38h170.52a7.37,7.37,0,0,1,7.38,7.38v60.89A7.38,7.38,0,0,1,1391.87,464.32Z"/><circle class="cls-2" cx="1260.59" cy="412.58" r="6.7"/><path class="cls-2" d="M1247.07,433.8l3.27-4.48a12.68,12.68,0,0,1,20.5,0l3.27,4.48a10.44,10.44,0,0,1-8.43,16.58H1255.5A10.44,10.44,0,0,1,1247.07,433.8Z"/><circle class="cls-2" cx="1306.17" cy="412.58" r="6.7"/><path class="cls-2" d="M1292.65,433.8l3.27-4.48a12.67,12.67,0,0,1,20.49,0l3.27,4.48a10.43,10.43,0,0,1-8.42,16.58h-10.19A10.43,10.43,0,0,1,1292.65,433.8Z"/><circle class="cls-1" cx="1353.26" cy="412.58" r="6.7"/><path class="cls-1" d="M1339.74,433.8l3.27-4.48a12.68,12.68,0,0,1,20.5,0l3.27,4.48a10.44,10.44,0,0,1-8.43,16.58h-10.18A10.44,10.44,0,0,1,1339.74,433.8Z"/><path class="cls-7" d="M1009.64,689.2h-39a17.35,17.35,0,0,0-17.35,17.35h0A17.35,17.35,0,0,0,936,689.2H897a7.38,7.38,0,0,1-7.38-7.39V620.92a7.38,7.38,0,0,1,7.38-7.38h112.68a7.39,7.39,0,0,1,7.39,7.38v60.89A7.39,7.39,0,0,1,1009.64,689.2Z"/><path class="cls-2" d="M946.52,656.88a10.33,10.33,0,0,1-8.26,9.37l0,.91a3.16,3.16,0,0,1-6.32-.3l0-.91a10.81,10.81,0,0,1-6.43-5.59,3.06,3.06,0,0,1,3-4.32,3.14,3.14,0,0,1,2.65,1.81,5,5,0,0,0,4.26,2.54c2.66.13,4.89-1.58,5-3.79s-2-4.13-4.62-4.25c-5.24-.25-9.33-4.42-9.1-9.31a8.93,8.93,0,0,1,6.74-8l.05-1.12a3.18,3.18,0,0,1,3.31-3,3.24,3.24,0,0,1,2.2,1,3.21,3.21,0,0,1,.82,2.28l0,1.11a9.35,9.35,0,0,1,5,4.34,2.85,2.85,0,0,1-2.68,4.15l-.51,0a3,3,0,0,1-2.34-1.47,3.61,3.61,0,0,0-2.88-1.51c-1.86-.09-3.43,1.06-3.5,2.57s1.39,2.79,3.24,2.88C942.07,646.49,946.78,651.29,946.52,656.88Z"/><path class="cls-2" d="M979.94,656.88a10.31,10.31,0,0,1-8.26,9.37l0,.91a3.16,3.16,0,0,1-6.32-.3l0-.91a10.81,10.81,0,0,1-6.43-5.59,3.06,3.06,0,0,1,3-4.32,3.13,3.13,0,0,1,2.65,1.81,5,5,0,0,0,4.26,2.54c2.66.13,4.9-1.58,5-3.79s-2-4.13-4.62-4.25c-5.24-.25-9.32-4.42-9.1-9.31a9,9,0,0,1,6.74-8l.06-1.12a3.17,3.17,0,0,1,3.31-3,3.24,3.24,0,0,1,2.19,1,3.21,3.21,0,0,1,.82,2.28l-.05,1.11a9.37,9.37,0,0,1,5,4.34,2.85,2.85,0,0,1-2.69,4.15l-.5,0a3,3,0,0,1-2.35-1.47,3.59,3.59,0,0,0-2.88-1.51c-1.86-.09-3.43,1.06-3.5,2.57s1.39,2.79,3.25,2.88C975.5,646.49,980.2,651.29,979.94,656.88Z"/><path class="cls-3" d="M652.31,570.47l-89.45,22.37q5.71-11.36,12-22.37h0a7.8,7.8,0,0,1,5.53,2.29l6.82,6.82,4.18-3.57a23,23,0,0,1,15-5.54Z"/><path class="cls-20" d="M651,568.27H606.85a19.65,19.65,0,0,0-19.65,19.64h0a19.64,19.64,0,0,0-19.64-19.64H523.42a8.36,8.36,0,0,1-8.36-8.36V491a8.36,8.36,0,0,1,8.36-8.36H651a8.36,8.36,0,0,1,8.36,8.36v68.94A8.36,8.36,0,0,1,651,568.27Z"/><line class="cls-9" x1="570.47" y1="528.74" x2="553.14" y2="528.74"/><line class="cls-9" x1="598.78" y1="513.07" x2="605.75" y2="503.28"/><circle class="cls-21" cx="589.06" cy="528.74" r="19.29"/><circle class="cls-2" cx="543.79" cy="529.01" r="9.11"/><circle class="cls-2" cx="608.78" cy="498.63" r="6.7"/><circle class="cls-3" cx="615.82" cy="550.48" r="6.7"/><path class="cls-3" d="M1337.3,1073.11h44.41a17.54,17.54,0,0,1,11.4,4.22l5.71,4.9,5.89-5a16.92,16.92,0,0,1,11-4.07h16.71l-11.14,17.57Z"/><path class="cls-20" d="M1458.05,1071h-39.58a19.64,19.64,0,0,0-19.65,19.64h0a19.64,19.64,0,0,0-19.64-19.64h-39.59a8.36,8.36,0,0,1-8.36-8.36V993.74a8.37,8.37,0,0,1,8.36-8.36h118.46a8.36,8.36,0,0,1,8.36,8.36v68.94A8.36,8.36,0,0,1,1458.05,1071Z"/><path class="cls-22" d="M1427.26,1019.21a15.13,15.13,0,0,1-5.2,11.42l-23.24,23.24-23.23-23.24a15.14,15.14,0,1,1,23.23-18.69,15.15,15.15,0,0,1,28.44,7.27Z"/><path class="cls-22" d="M1415.47,1013.32a7.61,7.61,0,0,1,0,10.76"/></g></g></svg>