<svg xmlns="http://www.w3.org/2000/svg" viewBox="0 0 851.03 804.77"><defs><style>.cls-1{fill:#004d89;}.cls-2{fill:#91e6f0;}.cls-3{fill:#ffb400;}.cls-4{fill:#fff;stroke:#004d89;}.cls-4,.cls-5{stroke-miterlimit:10;stroke-width:8.77px;}.cls-5{fill:none;stroke:#fff;stroke-linecap:round;}</style></defs><g id="Isolation_Mode" data-name="Isolation Mode"><path class="cls-1" d="M575.76,379.6a25.13,25.13,0,0,1-8.69,18.88l-114.9,100.6a40.59,40.59,0,0,1-53.31,0L284,398.5a25.24,25.24,0,0,1-8.69-18.9,24.46,24.46,0,0,1,2.28-10.35,25.62,25.62,0,0,1,6.41-8.54l114.9-100.59a40.58,40.58,0,0,1,53.31,0l114.9,100.59A25.14,25.14,0,0,1,575.76,379.6Z"/><polygon class="cls-2" points="455.78 433.76 479.83 476.62 433.03 454.57 419.68 501.52 402.06 457.29 368.29 476.62 358.09 476.62 378.01 438.99 332.84 420.83 376.05 402.57 358.09 356.33 368.29 356.33 370.47 362.09 401.57 377.13 418.22 331.42 428.42 331.42 431.07 377.62 472.54 356.33 488.57 356.33 460.14 397.46 504.74 416.47 455.78 433.76"/><polygon class="cls-3" points="464.52 433.76 488.57 476.62 441.77 454.57 428.42 501.52 410.8 457.29 368.29 476.62 390.47 434.73 343.37 416.47 384.48 398.98 368.29 356.33 411.77 377.13 428.42 331.42 447.1 377.62 488.57 356.33 468.88 397.46 513.49 416.47 464.52 433.76"/><path class="cls-4" d="M571.38,377.24v145c0,17.08-13.85,32.38-30.92,32.38H310.57a30.92,30.92,0,0,1-30.92-30.92V377.24c0,6.24,2.61,7.83,7.2,12.06l85,78.44,29.87-27.56a35.07,35.07,0,0,1,47.54,0l29.88,27.56,85-78.44C568.77,385.07,571.38,383.48,571.38,377.24Z"/><path class="cls-4" d="M562.5,544.65a30.07,30.07,0,0,1-22,10H310.57A30.83,30.83,0,0,1,288.14,545l83.73-77.25,29.87-27.56a35,35,0,0,1,47.54,0l29.88,27.56Z"/><line class="cls-5" x1="388.66" y1="335.51" x2="371.94" y2="321.71"/><line class="cls-5" x1="452.07" y1="335.51" x2="468.79" y2="321.71"/><line class="cls-5" x1="422.6" y1="304.38" x2="422.6" y2="283.93"/></g></svg>