<svg xmlns="http://www.w3.org/2000/svg" viewBox="0 0 851.03 804.77"><defs><style>.cls-1{fill:#fff;}.cls-1,.cls-5{stroke:#ffb400;}.cls-1,.cls-3,.cls-5,.cls-6{stroke-linecap:round;stroke-linejoin:round;}.cls-1,.cls-5,.cls-6{stroke-width:7px;}.cls-2{fill:#ffb400;}.cls-3,.cls-5,.cls-6{fill:none;}.cls-3{stroke:#fff;stroke-width:5px;}.cls-4{fill:#91e6f0;}.cls-6{stroke:#91e6f0;}</style></defs><g id="Слой_1" data-name="Слой 1"><g id="WEB_PAGE"><rect class="cls-1" x="96" y="110.8" width="659.04" height="583.16" rx="42.99"/><path class="cls-2" d="M755.06,193.84l-652.91-.08a54,54,0,0,0-6.13.35V153.75a43,43,0,0,1,43-43l573.06.07a43,43,0,0,1,43,43Z"/><circle class="cls-3" cx="709.89" cy="150.62" r="10.16"/><circle class="cls-3" cx="668.44" cy="150.61" r="10.16"/><circle class="cls-3" cx="626.98" cy="150.61" r="10.16"/><path class="cls-4" d="M332.35,580H272.6a12.69,12.69,0,0,1-12.5-12.68l0-146.73a12.68,12.68,0,0,1,12.68-12.68h59.57a12.68,12.68,0,0,1,12.68,12.69V567.36A12.69,12.69,0,0,1,332.35,580Z"/><path class="cls-4" d="M458.31,579.21H398.56a12.69,12.69,0,0,1-12.5-12.68l-3.44-256A12.68,12.68,0,0,1,395.3,297.8h59.57a12.68,12.68,0,0,1,12.68,12.68l3.44,256A12.69,12.69,0,0,1,458.31,579.21Z"/><path class="cls-4" d="M592.28,580H532.53A12.69,12.69,0,0,1,520,567.33L519.37,365a12.68,12.68,0,0,1,12.68-12.68h59.57a12.68,12.68,0,0,1,12.68,12.69L605,567.34A12.68,12.68,0,0,1,592.28,580Z"/><polyline class="cls-5" points="233.21 533.08 424.91 398.15 633.42 461.6 672 422.47"/><polyline class="cls-5" points="656.44 419.54 674.95 418.75 676.24 438.71"/><circle class="cls-4" cx="216.4" cy="299.68" r="59.98"/><path class="cls-2" d="M216.41,239.71v60h60a60,60,0,0,0-60-60Z"/><line class="cls-6" x1="585.3" y1="231.49" x2="701.01" y2="231.51"/><line class="cls-6" x1="586.11" y1="250.02" x2="701.81" y2="250.04"/></g></g></svg>